<svg xmlns="http://www.w3.org/2000/svg" viewBox="0 0 419.1 505.23"><defs><style>.cls-1,.cls-10{fill:#5e4224;}.cls-2{fill:#302216;}.cls-3{fill:#b78404;}.cls-4{fill:none;}.cls-10,.cls-4,.cls-5{stroke:#000;stroke-miterlimit:10;stroke-width:8px;}.cls-5{fill:#ff2a00;}.cls-6{fill:#891603;}.cls-7{fill:#fc7e6d;}.cls-8{fill:#f4efe9;}.cls-9{fill:#440902;}.cls-11{fill:#ffbc00;}.cls-12{fill:#9b6a15;}</style></defs><title>2_sk_stick</title><g id="Слой_2" data-name="Слой 2"><g id="Слой_1-2" data-name="Слой 1"><path class="cls-1" d="M261.07,282.42c7.2-8.72,12.81-19.29,22.14-26,10.37-7.44,21.86-10,32.66-16.05a99.93,99.93,0,0,0,12.36-8.27c6.54-5,12.72-11.7,16.38-19.16,3.3-6.73,5.54-17.84,1.05-24.66-2.51-3.82-5.49-5.5-9.77-6.4-7.23-1.51-4.59.93-8.87,6.79,14.7,2.37,6.44,24,.75,31-9,11.14-27.65,14.53-41.14,13.9-19.21-.9-24.89-12.37-30.25-29.34a101.59,101.59,0,0,1,15.84-91.56c15.85-20.74,56-51.25,78.9-23.48a42.77,42.77,0,0,1,7.56,14.86c1.09,4.36-.56,10.42,2.72,14.13,5.29,6,5.33-9.76,5.28-14.43-.09-8-1.25-14.89-5.91-21.42-14.91-20.91-40.58-25.82-63.27-14.28-56,28.48-83.33,107.71-64,165.72,1.94,5.81,4.3,11.78,3.51,17.85-.71,5.43-3.86,10.2-7,14.71-23.92,34.7-50.37,67.59-78.26,99.17q-21.46,24.3-43.95,47.66C95,426.57,79.36,437.73,65.54,450.51c-9,8.35-23.77,16-30.14,26.47-6.78.76-13.91.51-20.62,1.22-4.84.52-5.75.08-7.41,5-1.26,3.74-.62,8-1.93,11.83,14.74,1.4,27.48-4,39.83-11.36,5.82-3.45,13.11-8.8,11.91,2.37-.32,3-4.79,8.31-3.87,11.17,1.23,3.81,7.35,3.42,11.1,3.72,2.84-21.49,22.78-37.31,37.57-51.8q15.52-15.21,30.43-31C141,409,149.6,401.46,158.62,393c8.65-8.09,16.39-15.34,24.25-24.34,15.69-18,32.42-34.1,48.41-51.9,9.91-11,19.51-22.3,29-33.42Z"/><path class="cls-2" d="M260.78,282.17c7.31-8.59,14.71-16.75,22.1-25.43-4.22-1.11-26.67-.09-23-7.35,1.42-.13,2.35-1.06,3.65-1.27-5.41-6.59-11.53-9.62-15.6-17.68-3.28-6.49-8.22-13.85-9.35-21.17-1.25-8,.7-17.29,1.18-25.33.52-8.61.71-16.94,2-25.33,2.84-19,11.18-45.67,24.7-60.52,6.85-7.52,15.52-13.35,24.15-18.62,10.81-6.6,22.08-14.29,35-14.87-3.93-.36-5.16-2.24-9.51-2.25-6.13,0-13.19,3-18.54,5.73-56,28.48-83.33,107.71-64,165.72,1.94,5.81,4.3,11.78,3.51,17.85-.71,5.43-3.86,10.2-7,14.71-23.92,34.7-50.37,67.59-78.26,99.17q-21.46,24.3-43.95,47.66C95,426.57,79.36,437.73,65.54,450.51c-9,8.35-23.77,16-30.14,26.47-6.78.76-13.91.51-20.62,1.22-4.84.52-5.75.08-7.41,5-1.22,3.64-1.15,7.92-1.63,11.66,6.63,1.33,9,.08,14.51-2.07,3.92-1.54,8.41-.42,12.24-2.13,5.2-2.33,7.59-7.36,10.59-11.89,6.39-9.61,16.93-14.09,25.54-21.53s17.57-14.22,25.95-22c15.46-14.38,28.4-31.7,43-46.87,8-8.31,18.15-14.72,25-24.22,7.11-9.87,13.13-19.55,21.39-28.5,6.62-7.17,13.32-13.71,20.51-20.39,3.92-3.64,7.45-7.66,11.09-11.5,3.12-3.29,7.63-11,11.41-12.94,3.7,2.18,8.55,3.25,12.61,5.07,1.35.6,4.55,2.58,6,2.4,6.1-.76,11.32-11.58,14.82-15.7Z"/><path class="cls-3" d="M213.24,332.61c3.64-4.42,7.2-10.28,11.73-13.79,2.52-2,5.93-2.58,8.07-4.68-2.83-2.53-8.13-3.2-11.77-1.85-6.47,2.41-11.85,7.54-16.52,12.45-9.54,10-16.36,22.22-25.53,32.54-6.9,7.76-12.06,16-19.65,23.15-9.66,9.14-19.71,18.71-29.85,27.39a418.83,418.83,0,0,0-31.12,29.63c-9.24,9.71-22.78,21.35-28.8,33.06,11.1,1.58,21.71-10.3,29.47-17.08a431.1,431.1,0,0,0,31.82-30.8c18.87-20.22,37-40.3,56-60.7C196.06,352.31,205,342.65,213.24,332.61Z"/><path class="cls-3" d="M245.6,155.77c-2,19.31-3.94,40.33,3.38,58.49a124,124,0,0,0,12.11,23c1.9,2.83,4.95,6,8.1,7.39,4.05,1.82,9.48.25,5.91-4.54-1.63-2.19-6.34-4.48-8.51-6.85-2-2.21-4.69-4.57-6.4-7a63.35,63.35,0,0,1-9.58-21c-3.8-16.37-5.2-32.16-2.53-49,1.36-8.56,5.48-18.21,9-26,3.78-8.34,9.75-14.24,14.62-21.86s5.52-13.28,13.85-18.14c5.26-3.07,19.79-7.84,21-14.42-5.11-1-11.27,4.39-15.43,6.8-4.91,2.83-9.61,4.5-13.52,8.65-4.12,4.38-7.63,9.3-11.86,13.59C252.71,118.1,247.43,137.92,245.6,155.77Z"/><path class="cls-2" d="M268.37,264.83l-2.54-3.16c-6.4-7.95-12-23.49-7.41-34.09-7.26,1.46-14.14,9.38-17,15.23l-3,6.13.18-6.83c0-.74,0-1.46,0-2.16.12-6.1.22-11.37,3.69-17.41,1-1.66,2.16-3.37,3.44-5.17a46,46,0,0,0,4.73-7.63c-5.89.07-8.72,3.88-12.23,8.58a53.18,53.18,0,0,1-4.59,5.6l-.88.9-1-.72c-4.2-2.9-1.48-11.85.31-17.77.3-1,.57-1.87.74-2.52,1.75-6.82,5-16,11-22-2.71-1.11-6.56,1.9-10.32,5.14-.68.58-1.29,1.11-1.81,1.52l-2,1.61-.37-2.57c-1.78-12.37,8.66-27.17,17.65-33.47-2.76-2.57-4.43-1.64-7.39,0a17.29,17.29,0,0,1-8.27,2.71l-2.59.06,1.24-2.27c5.52-10.14,14.13-23.36,26.47-24.69l-.19-.1c-2.12-1.06-6.49.61-9.68,1.84-2.33.89-4.34,1.69-5.81,1.65l-3.4,0,2.31-2.49c1.11-1.2,2.12-2.36,3.09-3.48a48.56,48.56,0,0,1,9.64-9.14,40.87,40.87,0,0,1,6.64-3.32c3.15-1.36,6.67-2.88,8.53-4.71-2.81-1.88-6.31-1.83-10-1.78-1.44,0-2.92,0-4.39-.06l-3.21-.21,2.23-2.32c3-3.17,7.73-5.18,11.87-7l1.78-.77c1.21-.53,2.67-1,4.2-1.55,3.09-1.05,6.82-2.32,8.86-4.15-3-1.49-7.22-1.46-10.18-1.43h-1v-3h1c3.87,0,9.69-.07,13.4,2.94l1,.84-.71,1.13c-2.12,3.36-7.06,5-11.41,6.52-1.47.5-2.87,1-4,1.46l-1.81.78a57.19,57.19,0,0,0-7.74,3.8h0c4.58-.06,9.31-.13,13.16,3.45l.9.84-.65,1c-1.92,3.11-6.4,5-10.73,6.91a39.15,39.15,0,0,0-6.13,3,44.1,44.1,0,0,0-8.77,8.28l.16-.06c4.12-1.58,8.79-3.38,12.1-1.72a5.71,5.71,0,0,1,2.92,3.78l.55,2-2-.07c-11.09-.35-19.35,10.85-24.92,20.54a21.13,21.13,0,0,0,4-1.87c3.53-2,7.19-4,12.31,1.92l1.17,1.35-1.54.92c-8.68,5.21-17.64,18.18-17.94,28.61,4.1-3.52,10.51-8.65,15.16-3.55l1,1.12-1.13,1c-6.19,5.51-9.6,14.9-11.37,21.81-.18.68-.45,1.59-.77,2.65-1,3.28-3.13,10.33-2.21,13.31,1.11-1.28,2.13-2.65,3.13-4,3.9-5.24,7.94-10.66,16.87-9.67l1.72.19-.43,1.68c-.89,3.44-3.39,7-5.8,10.38-1.23,1.74-2.4,3.39-3.28,4.93-2.48,4.31-3,8.16-3.2,12.57,4.31-5.95,11.36-12.27,19-12.27h.35l2.68.07-1.46,2.25c-5.21,8-1.59,21.35,3.53,29.75.75-6.53,3.15-17.18,10.78-22.8l2.2-1.62.19,2.72c.32,4.68.51,7.43,2.85,10.36,1.44-4.41,4.25-7,9.2-8.67l2.13-.72-.16,2.24a6.3,6.3,0,0,0,1.57,4.84c.86-4.31,2.32-11,6.78-11.46a1.29,1.29,0,0,0-.55,0l.28-.09c.45-.15,1.81-.6,2.37.69.37.86,0,1.6-1.1,2.19l-.3.17h-.34c-2.42.11-3.71,6.64-4.27,9.43-.14.72-.27,1.35-.39,1.85l-.41,1.71-1.62-.67a8.15,8.15,0,0,1-4.94-6.62c-3.55,1.63-5.19,4-6,8.37l-.49,2.68-2-1.85c-4.06-3.75-5-7-5.39-11.27-6.68,6.94-7.6,19-7.72,22.85Zm32.21-32.39.51.34.39-.28-.53-1A1.54,1.54,0,0,0,300.58,232.44Zm1-1.07,0,1,.68-.48A1.46,1.46,0,0,0,301.58,231.37Z"/><path class="cls-2" d="M74.29,477.87a2,2,0,0,1-.79-.16c-8.82-3.8-14-15-13.74-23.17l4,.13c-.19,6,3.19,13.92,8.71,17.88.06-1.42.11-2.92.16-4.46.31-9.53.66-20.34,4.14-27.69,1-2.15,2.7-5,5.59-5.35,3.42-.35,6,3,9.07,7,2.55,3.33,5.38,7,8.35,7.74l0-.29c.94-15.95,1.9-32.44,11.05-44.22a2,2,0,0,1,3.58,1.3c-.24,6.17,3,9.78,6.77,13.81,0-1,.07-2.05.1-3.11.36-11.52.76-24.57,7.37-33.62a2,2,0,0,1,1.62-.82h0a2,2,0,0,1,1.62.88,62.18,62.18,0,0,0,12,13.14l.07-1.21c.69-11.51,1.63-27.27,10.26-35.14a2,2,0,0,1,3.26.89c2.41,7.78,5.77,12.24,11.62,15.14.12-3,.13-6.25.14-9.62,0-11.26.07-22.9,4.14-31.76a2,2,0,0,1,1.82-1.17h0a2,2,0,0,1,1.82,1.17c4.28,9.34,7.93,14.69,16.78,19.55.24-3.36.52-6.77.79-10.09.42-5.08.85-10.34,1.15-15.45a92,92,0,0,1,1.76-11.91c.93-4.83,1.81-9.39,1.71-13.76a2,2,0,0,1,3.91-.64c3.17,10.29,7.28,18.18,12.49,23.95q-.11-2.53-.24-5.21c-.7-14.1-1.48-30.08,4.57-41.7a2,2,0,0,1,3.42-.2,36.43,36.43,0,0,1,4.09,9.24,33.34,33.34,0,0,0,3.43,8,22,22,0,0,0,5.24,4.77l1,.72c0-1.73,0-3.47,0-5.17a85.21,85.21,0,0,1,.57-13.33l-.33,0-.52-4a12.6,12.6,0,0,1,3.51.1,2,2,0,0,1,1.65,2.38c-1,4.8-.94,9.64-.88,14.75,0,3.11.06,6.33-.16,9.51a2,2,0,0,1-3.42,1.26,31.85,31.85,0,0,0-3.76-3.06,24.87,24.87,0,0,1-6.19-5.77,36.9,36.9,0,0,1-3.89-8.91c-.56-1.68-1.11-3.31-1.76-4.83-3.79,10.35-3.13,23.91-2.53,36,.18,3.62.35,7,.39,10.27a2,2,0,0,1-3.3,1.55c-5.73-4.92-10.37-11.68-14-20.51-.29,1.78-.63,3.56-1,5.31a89.16,89.16,0,0,0-1.69,11.38c-.3,5.15-.74,10.43-1.15,15.54-.35,4.31-.72,8.77-1,13.06a2,2,0,0,1-2.87,1.67c-10.21-4.95-14.95-10.23-19.26-18.57-2.15,7.52-2.18,16.8-2.21,25.83,0,4.52,0,8.8-.31,12.74a2,2,0,0,1-2.71,1.72c-7.67-2.93-12.31-7.54-15.43-15.54-5.48,7.45-6.26,20.35-6.84,30-.11,1.84-.22,3.59-.34,5.2a2,2,0,0,1-3.27,1.38c-5.25-4.35-9.71-8.25-14-14.05-4.42,8-4.76,19.08-5.07,29-.09,2.81-.17,5.46-.34,8a2,2,0,0,1-3.5,1.18c-.89-1-1.83-2-2.74-3-3.1-3.27-6.28-6.63-7.63-11.37-5.71,10.46-6.51,24.19-7.29,37.52l-.13,2.22a2,2,0,0,1-1.69,1.86c-5.89.9-10.22-4.77-13.71-9.33-1.77-2.31-4.18-5.46-5.4-5.46h-.07c-.45,0-1.35.88-2.39,3.08-3.12,6.6-3.46,17-3.76,26.1-.09,2.79-.18,5.43-.34,7.79a2,2,0,0,1-2,1.86Z"/><path class="cls-4" d="M261.07,282.42c7.2-8.72,12.81-19.29,22.14-26,10.37-7.44,21.86-10,32.66-16.05a99.93,99.93,0,0,0,12.36-8.27c6.54-5,12.72-11.7,16.38-19.16,3.3-6.73,5.54-17.84,1.05-24.66-2.51-3.82-5.49-5.5-9.77-6.4-7.23-1.51-4.59.93-8.87,6.79,14.7,2.37,6.44,24,.75,31-9,11.14-27.65,14.53-41.14,13.9-19.21-.9-24.89-12.37-30.25-29.34a101.59,101.59,0,0,1,15.84-91.56c15.85-20.74,56-51.25,78.9-23.48a42.77,42.77,0,0,1,7.56,14.86c1.09,4.36-.56,10.42,2.72,14.13,5.29,6,5.33-9.76,5.28-14.43-.09-8-1.25-14.89-5.91-21.42-14.91-20.91-40.58-25.82-63.27-14.28-56,28.48-83.33,107.71-64,165.72,1.94,5.81,4.3,11.78,3.51,17.85-.71,5.43-3.86,10.2-7,14.71-23.92,34.7-50.37,67.59-78.26,99.17q-21.46,24.3-43.95,47.66C95,426.57,79.36,437.73,65.54,450.51c-9,8.35-23.77,16-30.14,26.47-6.78.76-13.91.51-20.62,1.22-4.84.52-5.75.08-7.41,5-1.26,3.74-.62,8-1.93,11.83,14.74,1.4,27.48-4,39.83-11.36,5.82-3.45,13.11-8.8,11.91,2.37-.32,3-4.79,8.31-3.87,11.17,1.23,3.81,7.35,3.42,11.1,3.72,2.84-21.49,22.78-37.31,37.57-51.8q15.52-15.21,30.43-31C141,409,149.6,401.46,158.62,393c8.65-8.09,16.39-15.34,24.25-24.34,15.69-18,32.42-34.1,48.41-51.9,9.91-11,19.51-22.3,29-33.42Z"/><path class="cls-5" d="M264.93,125.89c-5.4,4-5.39,8.33-6.57,14.56-1.79,9.45-4.09,18.91-4.61,28.49-.31,5.72,29.74,56.73,37.44,60.18,7.94,3.56,20.49-3.1,28.25-5.3,14.74-4.18,29.58-7.28,41.43-17,3.29-2.7,16-48.2,13.73-54.93-6.51-19.08-27.74-62.31-33.32-62.55C332.47,89,269.34,122.61,264.93,125.89Z"/><path class="cls-6" d="M259.7,163.77c.44-7.23.85-19.83,5.32-26,3.35-4.62,8.64-2.63,13.57-1.89,2.64.39,10.6.53,12.52,2.36,4.14,4,0,19.82-.53,25-.88,8.86,5,14.12,9.13,21.5,1.8,3.2,3.49,6,5.49,9,3,4.42,3.52,6.28,8.38,5.15,7.68-1.79,15.54-4.94,22.76-8,1.17-.5,3.05-2,4.43-1.61,2.23.64,4.91,5.82,6.4,7.59s7.68,6.07,6.51,8.35c-.74,1.43-6.94,3.54-8.58,4.16-4.85,1.82-9.81,3-14.93,4.67-4.55,1.47-9,3.73-13.74,4.91-5.17,1.28-10.42,3.5-15.67,4.6-3.37.71-4.92.63-7.42-1.61-4.79-4.29-8.11-9.42-11.88-14.63a152,152,0,0,1-13.24-21.64C264.26,177.75,259.14,172.94,259.7,163.77Z"/><path class="cls-7" d="M349.17,115.53c-2-3.8-4.58-7.4-6.51-11.14-1.42-2.74-1.92-7.55-6-7.52-3.53,0-7.54,3.17-10.54,4.83-4.34,2.41-8.39,5.19-13.05,7-6.89,2.66-16.83,5.14-22,10.57,1.79,2.29,5,3.35,7.31,5.08,2.2,1.61,3.91,3.75,6.48,4.84,5.63,2.4,13.34-1.73,18.52-4a68,68,0,0,1,7.22-2.15c3.59-1.12,3.88-.59,5.93,2.9,3,5.16,6.55,9.83,9,15.33,2,4.46,6.84,9.45,6.91,14.34.07,5.19-1.94,10.5-3.26,15.4-1.28,4.74-4.61,10.21-4.75,15.27-.13,4.64,5.9,9.18,8.76,12.58a24.61,24.61,0,0,0,3.57,3.79c1.49-1.47,1.41-5.53,1.93-7.71.64-2.72,1.29-5.51,1.82-8.33,1-5.34,2.31-10.54,3.58-15.68s2.67-9.91,3-15.32-2-11.21-4.57-16.3C358.29,131.07,353.36,123.53,349.17,115.53Z"/><path class="cls-8" d="M294.76,136.27c1-.67,35.82-13.23,35.82-13.23l9.52-27.42v28.32l13.74,25.82,15.26,3.18-17.67,16.8-6.6,18.84-14.61,4.83,10.54-8.47,6-31.33-14.83-22.33Z"/><path class="cls-9" d="M271.47,146.38c.91,2.79,3.71,5.91,7.12,4.9,3.74-1.11,3.32-5.6,3.5-9a77.45,77.45,0,0,0-.53-11.5c-.29-2.93-2.48-7.81-2.09-10.5,1-6.81,16.74-9.43,22-14.35-.16,4.3,2.51,9.36,4.08,13.37a99.38,99.38,0,0,1,3.61,12.47c2.06,8.25,4.15,17.25,3.39,26-.65,7.42-4.43,15.19-8.6,21.51-1.16,1.76-3.35,2.78-3.93,5s1.1,4.4.91,6.14c-.43,3.94-3.39,6.71-6.86,9-5.34,3.55-11.12,7.29-12.53,14.37-6-1-12.27-15.61-14.33-20.36-3.1-7.11-2.18-18.16-4.68-25.65-2.86-8.57-7.1-12.2-5.47-21,.74-4,2.67-11.52,4.82-15,.89-1.45,7.7-7,9.5-7.33,3.75-.69,1.15,8.82.68,10.64C271.15,138.72,270.26,142.69,271.47,146.38Z"/><path class="cls-10" d="M253.76,155.27c10.84,22.21,40.47,13.71,38-11.33-1-9.85-7.36-18.79-9.33-28.7-.77-3.85-3.46-10.47-2-14.63,2.1-6,10.9-6.25,14.58-10.58-6.66,8.89-.64,22.46,2.79,31.91,3.75,10.36,6.25,21.58,6,32.67-.48,20-19,40.44-39.33,42.66a24.74,24.74,0,0,1-9.89-.78c-5.65-10.53-3.6-29.73-.11-40.55"/><path class="cls-10" d="M281.76,73.27c3.16-11,5.83-16.92,15.35-24.69,7.65-6.24,16-9.36,25.32-12.64,8.14-2.85,17.71-4.69,24.16-10.67,5-4.59,11.52-16,6.44-22.4,6.2,6,7.49,20.21,5.4,28.4-3.1,12.13-12.53,15.74-23.33,18-11.44,2.39-18.29,3.47-26,12-6.4,7.11-17.91,7.3-25.89,13.45l-.11.52"/><path class="cls-10" d="M274.33,260.7c-8.49,4.22-17.23,6.93-26.91,4.11-15.34-4.47-22.06-21.32-19.83-36,.44-2.87,1.65-5.94,1.89-8.61.29-3.23-1.64-6.31-2.23-9.41-.79-4.15-.11-8.12-.13-12.3-10.89,9.85-13.71,31.73-11.72,45.44a54.8,54.8,0,0,0,24.94,38.39c12.78,8.11,30.7,6.6,44,.57,6.87-3.12,13.21-7.79,17.35-14.19,1.74-2.69,3.91-6.1,4.76-9.2.33-1.2.34-13.88-.93-13.6C294.62,248.2,284.66,255.57,274.33,260.7Z"/><polygon class="cls-11" points="374.88 154.27 361.92 201.44 358.42 206.11 349.26 212.94 303.78 225.27 347.19 205.75 345.59 192.62 356.75 202.65 366.69 152.44 341.76 92.44 374.88 154.27"/><path class="cls-11" d="M296.48,267.16c1.67-2.47,7.32-13.25,4.06-15.67-3.84-2.86-8.46,6.84-10.08,8.66a63.11,63.11,0,0,1-13.26,11.62,31.3,31.3,0,0,1-11.81,4.56c-3,.45-6.74.84-9.81.2a55,55,0,0,1-17.69-7c-7.89-5.1-10.74-14.63-13.62-22.94-1.32-3.83-3.68-8.15-3.46-12.32.29-5.53,1.18-10.93,1.28-16.65-3.91,4.41-3.47,12.2-3.26,17.92.29,8.12,4,17.37,8.18,24.25,3.88,6.33,7.65,13.67,14.17,17.7a38.12,38.12,0,0,0,20.4,5.8c6.43,0,13.46-2.24,19.39-4.61S292.92,272.43,296.48,267.16Z"/><path class="cls-11" d="M328.09,46.27c14.24-3.53,23.41-7.11,26.51-21.85-2.63,12.49-21.26,16.7-31.54,19.35-8.18,2.11-25.42,6.67-25.9,17.92,5.26,1.35,10.56-5.65,14.43-8.41C316.31,49.91,322.32,47.7,328.09,46.27Z"/><path class="cls-12" d="M297.09,153.77c2.32-5.41,1.91-12.41.5-17.85-1.66,6.08.46,12.25-1.36,18.35-2.27,7.57-5.79,14.27-12.24,19.37-7.7,6.1-13.24,5.28-22.4,6.62-4.19.61-6.57,2.22-4.5,7s5.34,3.84,9.48,2c9.34-4.17,21.28-10.93,26.9-20.11,3.12-5.1,8.55-26.65,3.61-31.38"/><polygon class="cls-8" points="353.42 147.13 379.18 51.31 363.04 147.13 419.1 152.01 363.04 158.85 338.25 225.33 353.42 155.92 288.56 154.95 353.42 147.13"/></g></g></svg>