<svg xmlns="http://www.w3.org/2000/svg" xmlns:xlink="http://www.w3.org/1999/xlink" viewBox="0 0 813.9 993.67"><defs><style>.cls-1{fill:url(#Безымянный_градиент_24);}.cls-2{fill:#d6c9b9;}.cls-3{fill:#7f7a73;}.cls-4{fill:#f4efe9;}.cls-21,.cls-5{fill:none;}.cls-11,.cls-15,.cls-21,.cls-22,.cls-23,.cls-26,.cls-30,.cls-32,.cls-36,.cls-39,.cls-42,.cls-5,.cls-7{stroke:#000;stroke-miterlimit:10;}.cls-11,.cls-15,.cls-23,.cls-26,.cls-5,.cls-7{stroke-width:8px;}.cls-22,.cls-6,.cls-7{fill:#e5ddd1;}.cls-15,.cls-8{fill:#5e4224;}.cls-9{fill:#302216;}.cls-10{fill:#b78404;}.cls-11,.cls-27,.cls-30{fill:#ff2a00;}.cls-12{fill:#891603;}.cls-13{fill:#fc7e6d;}.cls-14{fill:#440902;}.cls-16{fill:#ffbc00;}.cls-17{fill:#9b6a15;}.cls-18{fill:#fffcf8;}.cls-19{fill:#68625c;}.cls-20{fill:#aaa49b;}.cls-21,.cls-22,.cls-30,.cls-32,.cls-36{stroke-width:5px;}.cls-23{fill:#ffce00;}.cls-24{fill:#ffa300;}.cls-25{fill:#9b8010;}.cls-28{fill:#9b1904;}.cls-29{fill:#75610d;}.cls-31{fill:#ebdecc;}.cls-32{fill:#e8cf9e;}.cls-33{fill:#aa936a;}.cls-34{fill:#e0d9ce;}.cls-35{fill:#c4bdb3;}.cls-36{fill:#f9e8c0;}.cls-37{fill:#c4ae82;}.cls-38{opacity:0.4;}.cls-39{fill:#121523;}.cls-40{fill:#2c3654;}.cls-41{fill:#6a98e2;}.cls-43{fill:#3e4a68;}</style><radialGradient id="Безымянный_градиент_24" cx="346.49" cy="940.84" r="244.73" gradientTransform="translate(0 750.06) scale(1 0.2)" gradientUnits="userSpaceOnUse"><stop offset="0.19" stop-color="#282828"/><stop offset="1" stop-opacity="0"/></radialGradient></defs><title>2_SKELETON</title><g id="Слой_2" data-name="Слой 2"><g id="Слой_1-2" data-name="Слой 1"><ellipse class="cls-1" cx="346.49" cy="938.78" rx="246.25" ry="54.88"/><path class="cls-2" d="M490.62,758.76c10.5-2.34,16.12-12.94,23.27-19.67,2.41-2.27,4.52-5.89,2.79-8.71-.87-1.41-2.47-2.16-4-2.84a37.38,37.38,0,0,0-7.16-2.63c-2.3-.5-4.69-.57-7-1.21-3.06-.87-5.71-2.74-8.3-4.58a51.2,51.2,0,0,1-9.09-7.57c-6-6.79-2.2-14.33-6.37-21.18a20.51,20.51,0,0,0-17.07-10.11,3.69,3.69,0,0,1-1.54-.21,3.49,3.49,0,0,1-1.48-2.11c-4.06-10.65-16.14-19.77-13.18-31.81,1.21-4.92,1.5-7.29-.34-12.48-1.1-3.11-2.26-6.32-4.51-8.74a17,17,0,0,0-5.5-3.77,28.15,28.15,0,0,0-22-.49c-12.91,5.22-17.56,17.58-15.52,30.73,1.05,6.79,5.27,13.49,11.79,15.66,4,1.35,8.82,1,12.15,3.64a17.68,17.68,0,0,1,2.94,3.37c5.11,6.85,15.5,13.06,16.34,22.26.72,7.9-1.56,14.13,5.95,20,3.33,2.6,5.78,2.05,9.55,2.5,5,.59,8.07,2.49,11.91,5.93l11.83,10.58a18.81,18.81,0,0,1,4.09,4.56C483.76,746.09,477.5,761.68,490.62,758.76Z"/><path class="cls-3" d="M490.62,758.76c10.5-2.34,16.12-12.94,23.27-19.67,3.17-3,6.45-12.65-1.66-11.4-3.35.52-5.73,3.37-8.2,5.69a32.87,32.87,0,0,1-8.23,5.65,4.48,4.48,0,0,1-3.11.59,4.76,4.76,0,0,1-1.88-1.33l-20.27-20a6.68,6.68,0,0,1-2.17-3.21c-.4-2,1-3.84,2.33-5.42,4.06-5,7.4-12.4,3.53-17.55a20.93,20.93,0,0,1-9.4,10.31c-.25.21-.49.42-.75.61a10.24,10.24,0,0,1-14.3-14.41,71.9,71.9,0,0,1-19.43-23c-.78-1.46-1.53-3.08-1.2-4.7.75-3.7,6.7-6.35,4.68-9.55-.94-1.5-3.17-1.57-4.77-.81s-2.83,2.1-4.32,3.05c-3.78,2.4-8.92,1.9-12.75-.42s-6.51-6.19-8.37-10.26c-2.8-6.13-3.5-13-.12-19-9-.84-10.66,21.74-9.78,27.42,1.05,6.79,5.27,13.49,11.79,15.66,4,1.35,8.82,1,12.15,3.64a17.68,17.68,0,0,1,2.94,3.37c5.11,6.85,15.5,13.06,16.34,22.26.72,7.9-1.56,14.13,5.95,20,3.33,2.6,5.78,2.05,9.55,2.5,5,.59,8.07,2.49,11.91,5.93l11.83,10.58a18.81,18.81,0,0,1,4.09,4.56C483.76,746.09,477.5,761.68,490.62,758.76Z"/><path class="cls-4" d="M445.26,679.81a13.73,13.73,0,0,0,3.09,3.33c2.26,1.54,5.18,1.6,7.91,1.6-1.77,2.86-3.62,6.2-2.59,9.4a7.44,7.44,0,0,0,5.28,4.61,15,15,0,0,0,7.23-.2,8.9,8.9,0,0,0,4.9-2.49c2-2.29,1.48-5.93-.3-8.35s-4.57-3.87-7.3-5.12-5.6-2.39-7.8-4.44a24.55,24.55,0,0,1-4.4-6.24l-8.65-15.47a16.22,16.22,0,0,1-2-4.63,9.12,9.12,0,0,1,.54-5C428,658.49,437.05,668.71,445.26,679.81Z"/><path class="cls-4" d="M413.92,622.76c-2.32,3.1-2.7,7.88-1,12.23a17.57,17.57,0,0,0,9.7,9.68,14.25,14.25,0,0,0,14-2.54,10.93,10.93,0,0,0,3.81-5.3c1.8-6.07-3.48-14.25-9.89-17a17.12,17.12,0,0,0-17.71,2.62"/><path class="cls-4" d="M474.59,713.67a8.54,8.54,0,0,0,2.56,3.5c4.47,4.31,9,8.65,14.18,12,2,1.3,4.31,2.5,6.65,2.08a10.51,10.51,0,0,0,4.68-2.73c.69-.59,1.46-1.42,1.17-2.28a2.33,2.33,0,0,0-1.37-1.16c-7.31-3.38-14.8-7.09-19.92-13.31-1.06-1.29-3.34-5.39-5.31-5S474.12,712.07,474.59,713.67Z"/><path class="cls-5" d="M490.62,758.76c10.5-2.34,16.12-12.94,23.27-19.67,2.41-2.27,4.52-5.89,2.79-8.71-.87-1.41-2.47-2.16-4-2.84a37.38,37.38,0,0,0-7.16-2.63c-2.3-.5-4.69-.57-7-1.21-3.06-.87-5.71-2.74-8.3-4.58a51.2,51.2,0,0,1-9.09-7.57c-6-6.79-2.2-14.33-6.37-21.18a20.51,20.51,0,0,0-17.07-10.11,3.69,3.69,0,0,1-1.54-.21,3.49,3.49,0,0,1-1.48-2.11c-4.06-10.65-16.14-19.77-13.18-31.81,1.21-4.92,1.5-7.29-.34-12.48-1.1-3.11-2.26-6.32-4.51-8.74a17,17,0,0,0-5.5-3.77,28.15,28.15,0,0,0-22-.49c-12.91,5.22-17.56,17.58-15.52,30.73,1.05,6.79,5.27,13.49,11.79,15.66,4,1.35,8.82,1,12.15,3.64a17.68,17.68,0,0,1,2.94,3.37c5.11,6.85,15.5,13.06,16.34,22.26.72,7.9-1.56,14.13,5.95,20,3.33,2.6,5.78,2.05,9.55,2.5,5,.59,8.07,2.49,11.91,5.93l11.83,10.58a18.81,18.81,0,0,1,4.09,4.56C483.76,746.09,477.5,761.68,490.62,758.76Z"/><path class="cls-6" d="M527.82,733.57c-11.1-3.84-18,8-25.42,12.62-11.36,7.07-19.87,20-13.08,33.25,2.91,5.69,13,7.33,14.49,13.48.33,1.36.11,2.8.33,4.19a6.77,6.77,0,0,0,6.18,5.52,23.87,23.87,0,0,1,2.75,0,8.46,8.46,0,0,1,2.71,1.13,18.55,18.55,0,0,1,5.07,3.65,24.28,24.28,0,0,0,1.63,1.9c2.77,2.56,7.63,1.25,9.84-1.79,1.16-1.59,2.69-2.05,3.49-3.87a6.7,6.7,0,0,0-1-6.26c6.45.48,11.72.36,15-3s6.41-9.87,3.55-13.23c4.49.06,8.46.46,11.5-2.3,3.94-3.56,5.06-8.15,3.89-13.19-.56-2.41-1.85-5-4.23-5.65-2-.56-4.2.42-6.21-.13-2.9-.8-4.13-4.33-6.77-5.79s-5.66-.56-8.21.76c-.3-5.64-3.31-6.78-6.19-10.95C534.6,740.14,532.5,735.2,527.82,733.57Z"/><path class="cls-4" d="M509.7,753.55c1.47-.54,2.38-2,3.26-3.28a45,45,0,0,1,13.34-13c3.09,6.76.52,14.84-3.62,21-1.56,2.34-3.36,4.57-4.34,7.2s-1,5.86.88,8c3.34,3.83,5.89.63,7.45-2A21.47,21.47,0,0,1,537.19,762a3.11,3.11,0,0,0,1.07-.59,3.07,3.07,0,0,0,.67-1.7c.66-3.56,4-8,3.39-11.53-.45-2.67-3.29-4.07-5.27-5.92s-3.28-4.54-4.85-6.88-3.75-4.56-6.54-4.9-5.45,1.29-7.81,2.85c-4.12,2.72-7.51,5.52-9.22,10.25C507.93,745.53,504,755.62,509.7,753.55Z"/><path class="cls-3" d="M489.31,779.45c2.91,5.69,13,7.33,14.49,13.48.33,1.36.11,2.8.33,4.19a6.77,6.77,0,0,0,6.18,5.52,23.87,23.87,0,0,1,2.75,0,8.46,8.46,0,0,1,2.71,1.13,18.55,18.55,0,0,1,5.07,3.65,24.28,24.28,0,0,0,1.63,1.9c2.77,2.56,7.63,1.25,9.84-1.79,1.16-1.59,2.69-2.05,3.49-3.87a6.7,6.7,0,0,0-1-6.26c6.45.48,11.72.36,15-3s6.41-9.87,3.55-13.23c.93,1.1,7.91-.16,9.12-.79,2.72-1.41,5.13-5.12,7-7.57a2.08,2.08,0,0,0,.46-.89c.16-1-1.31-1.66-2.29-1.26-2.81,1.15-2.65,2.43-6.1,2.39a30.28,30.28,0,0,1-8.74-1.52,32,32,0,0,1-14.2-9.19c-3.35,2.28-3.85,7.37-1.9,10.92s5.71,5.76,9.53,7.1c2.35.82,5.09,1.62,6.1,3.9,1.31,2.95-1.2,6.16-3.76,8.13-1.5,1.16-3.22,2.24-5.12,2.22-2.19,0-4.07-1.51-5.65-3a49.87,49.87,0,0,1-11.34-16.36,12.58,12.58,0,0,0-2.85,11.15,17.76,17.76,0,0,0,6.38,9.86c1.34,1.09,2.89,2.12,3.5,3.74s-.46,3.94-2.18,3.73a3.73,3.73,0,0,1-1.41-.6c-3.93-2.34-7.87-4.66-11.78-7-1.45-.88-6.64-2.81-6.65-4.57a3.21,3.21,0,0,1,.44-1.41c1.48-3,4.06-6,7.36-5.76a1.78,1.78,0,0,0,1-.08,1.51,1.51,0,0,0,.59-.93l2.25-7c-2.7.11-5.51.13-8-1s-4.51-3.63-4.17-6.31a9.61,9.61,0,0,1,1.41-3.44c2.28-4,5.94-8.26,7.5-12.49a23.77,23.77,0,0,0,1.07-8.47,78.3,78.3,0,0,0-18.14,18.71,4.74,4.74,0,0,1-1.35,1.47c-1.33.79-3.16,0-3.95-1.35a7.12,7.12,0,0,1-.56-4.52,23.48,23.48,0,0,1,5.86-12.69C490.93,752.11,482.9,766.91,489.31,779.45Z"/><path class="cls-4" d="M513.5,789.62a4.4,4.4,0,0,0,1.06,1.3,41.9,41.9,0,0,0,20.63,10.48l.65-.73c-2.26-2.63-5.18-4.58-7.8-6.84s-4.41-7.53-7.3-8.83C518.24,783.86,511.84,786,513.5,789.62Z"/><path class="cls-4" d="M546.74,788.77c4.93,1.5,8.89-1.8,4.66-6.25-3.81-4-10.66-4.62-13.41-9.43a4,4,0,0,0-1-1.41,3.18,3.18,0,0,0-2.25-.24,6.15,6.15,0,0,0-2.57.76c-2.31,1.53-1.15,4.42.21,6.06C536.21,782.9,541,787,546.74,788.77Z"/><path class="cls-4" d="M552.89,767.1c3.45,1.39,7.42,1.87,10.88.5,1-.39,2-1.08,2.15-2.14a2.66,2.66,0,0,0-.39-1.53c-1.13-2.08-3.37-3.25-5.48-4.3-3.88-1.93-12.42-8.55-16.66-4.73C537.62,760.09,549.16,765.6,552.89,767.1Z"/><path class="cls-5" d="M527.82,733.57c-11.1-3.84-18,8-25.42,12.62-11.36,7.07-19.87,20-13.08,33.25,2.91,5.69,13,7.33,14.49,13.48.33,1.36.11,2.8.33,4.19a6.77,6.77,0,0,0,6.18,5.52,23.87,23.87,0,0,1,2.75,0,8.46,8.46,0,0,1,2.71,1.13,18.55,18.55,0,0,1,5.07,3.65,24.28,24.28,0,0,0,1.63,1.9c2.77,2.56,7.63,1.25,9.84-1.79,1.16-1.59,2.69-2.05,3.49-3.87a6.7,6.7,0,0,0-1-6.26c6.45.48,11.72.36,15-3s6.41-9.87,3.55-13.23c4.49.06,8.46.46,11.5-2.3,3.94-3.56,5.06-8.15,3.89-13.19-.56-2.41-1.85-5-4.23-5.65-2-.56-4.2.42-6.21-.13-2.9-.8-4.13-4.33-6.77-5.79s-5.66-.56-8.21.76c-.3-5.64-3.31-6.78-6.19-10.95C534.6,740.14,532.5,735.2,527.82,733.57Z"/><path d="M507.53,796a18.46,18.46,0,0,1,1.77-5.71,12.67,12.67,0,0,1,4-4.75,11.3,11.3,0,0,1,6.16-1.95,18.89,18.89,0,0,1,6.34,1h0l1,2.13h0a3.22,3.22,0,0,0,.31,1.21,9.32,9.32,0,0,0,1,1.72,15.71,15.71,0,0,0,3,3,13.63,13.63,0,0,0,3.63,2,7.31,7.31,0,0,0,3.59.44l.52,5A12.15,12.15,0,0,1,533,799a18.06,18.06,0,0,1-4.58-3.08,19.68,19.68,0,0,1-3.48-4.14,13,13,0,0,1-1.25-2.57,5.64,5.64,0,0,1-.18-3.54h0l1,2.13a16,16,0,0,0-5.14-1.62,9.12,9.12,0,0,0-5.18.84,11.38,11.38,0,0,0-4.13,3.72A18,18,0,0,0,507.53,796Z"/><path d="M521.1,785.28a34.53,34.53,0,0,1,1.61-5.59,25.22,25.22,0,0,1,2.65-5.26,9.19,9.19,0,0,1,5-3.8,13,13,0,0,1,5.89-.44h0l.46,0,.28.54a14.3,14.3,0,0,0,3,3.88,14.76,14.76,0,0,0,4,2.69c.35.19.75.29,1.11.45a6.74,6.74,0,0,0,1.13.36l1.15.3,1.18.18.58.09.6,0,1.19.06c.8,0,1.61-.08,2.39-.11l.09,5c-1-.1-1.94-.17-2.9-.32l-1.44-.29-.71-.15-.71-.22-1.4-.44c-.46-.18-.91-.39-1.36-.58a9.18,9.18,0,0,1-1.31-.66c-.42-.25-.86-.46-1.26-.75a17.72,17.72,0,0,1-4.24-3.91,16.21,16.21,0,0,1-2.72-5l.74.57h0a12,12,0,0,0-4.74,1.2,6.76,6.76,0,0,0-1.81,1.32,7.09,7.09,0,0,0-1.2,1.81,21.42,21.42,0,0,0-1.58,4.7,38.53,38.53,0,0,0-.77,5Z"/><path class="cls-6" d="M543.41,754.88s-5.83,5.72-7.6,17.12"/><path d="M545.16,756.66a7.84,7.84,0,0,0-.67.64c-.24.25-.49.51-.72.79-.47.54-.93,1.11-1.36,1.71a31.73,31.73,0,0,0-2.36,3.8,35,35,0,0,0-1.83,4.16,40.57,40.57,0,0,0-1.33,4.41l-2.17-.34a42.85,42.85,0,0,1,.71-4.86,38.13,38.13,0,0,1,1.31-4.79,35.68,35.68,0,0,1,2-4.63c.39-.76.82-1.5,1.28-2.23.23-.37.48-.73.74-1.09a13.77,13.77,0,0,1,.9-1.14Z"/><path d="M489.6,764.89c0,.39.11,1,.2,1.47a6.85,6.85,0,0,0,.39,1.35,2.77,2.77,0,0,0,.47.84.55.55,0,0,0,.29.21,1.83,1.83,0,0,0,.69,0,6.17,6.17,0,0,0,1.24-.39,16.91,16.91,0,0,0,2.88-1.64c2-1.35,4.13-2.77,6.16-4.31a32.74,32.74,0,0,0,5.52-5.3,57.13,57.13,0,0,0,4.52-6.17c1.35-2.16,2.59-4.38,3.69-6.58.56-1.1,1.07-2.2,1.51-3.27a17.64,17.64,0,0,0,1-3,5.24,5.24,0,0,0,.13-.94c0-.16,0,.07.26.2s.22,0-.08-.16a6.94,6.94,0,0,0-1.25-.38l-.4-5a7.51,7.51,0,0,1,2.61-.26,5.66,5.66,0,0,1,3.38,1.42,5.47,5.47,0,0,1,1.28,1.82,6.25,6.25,0,0,1,.47,1.87,8.8,8.8,0,0,1-.27,2.89,23.07,23.07,0,0,1-4.15,7.64,72.13,72.13,0,0,1-5.32,6l-5.46,5.65a77.15,77.15,0,0,0-5.19,5.88,42.76,42.76,0,0,1-5.44,5.92,19.2,19.2,0,0,1-3.67,2.45,10.6,10.6,0,0,1-2.41.86,6.71,6.71,0,0,1-3.14-.05,5.91,5.91,0,0,1-2.91-1.85,8,8,0,0,1-1.41-2.52,11.72,11.72,0,0,1-.53-2.4,12.29,12.29,0,0,1-.08-2.38Z"/><path d="M442.07,712.11c-.69.23-.81,1.19-.43,1.91a3.4,3.4,0,0,0,2.1,1.5,8.17,8.17,0,0,0,3.2.24,12.72,12.72,0,0,0,3.35-.86,26,26,0,0,0,6.27-3.8,50.89,50.89,0,0,0,5.61-5.08,50.15,50.15,0,0,0,4.79-5.84,26.78,26.78,0,0,0,3.48-6.34c.73-2.1.84-4.27,0-5.61a3.81,3.81,0,0,0-1.66-1.61,1.83,1.83,0,0,0-.81-.18,1.38,1.38,0,0,0-.58.21l-2-5.94a7.76,7.76,0,0,1,6.21,1,9.78,9.78,0,0,1,3.6,4.13,9.9,9.9,0,0,1,.82,2.58,11.05,11.05,0,0,1,.12,2.56,15.23,15.23,0,0,1-1.08,4.61,33.89,33.89,0,0,1-4.35,7.34,54.72,54.72,0,0,1-5.4,6.24,50.79,50.79,0,0,1-6.3,5.3,31.4,31.4,0,0,1-7.41,4,18.22,18.22,0,0,1-4.3,1,12.77,12.77,0,0,1-4.64-.26,8.64,8.64,0,0,1-4.42-2.71,9.49,9.49,0,0,1-2.38-5.53Z"/><path class="cls-7" d="M554,745.49a5.65,5.65,0,0,0,.29-4.31,11.89,11.89,0,0,0-5.22-7.06c-2.54-1.36-5.74-.75-8-2.89a12.48,12.48,0,0,1-3.12-6.08,4,4,0,0,0-1-2,3.49,3.49,0,0,0-2.66-.56c-3.92.34-10.4,2.28-12.18,6.21-1.27,2.79-2.44,9.53.58,11.58a7,7,0,0,0,4,.78c4.07,0,7.47.35,10.12,3.87,2.27,3,3.38,7.43,7.74,7.86C548.74,753.25,552.5,749,554,745.49Z"/><path class="cls-8" d="M655.87,628.62c7.2-8.72,12.81-19.29,22.14-26,10.37-7.44,21.86-10,32.66-16.05A99.93,99.93,0,0,0,723,578.31c6.54-5,12.72-11.7,16.38-19.16,3.3-6.73,5.54-17.84,1.05-24.66-2.51-3.82-5.49-5.5-9.77-6.4-7.23-1.51-4.59.93-8.87,6.79,14.7,2.37,6.44,24,.75,31-9,11.14-27.65,14.53-41.14,13.9-19.21-.9-24.89-12.37-30.25-29.34A101.59,101.59,0,0,1,667,458.91c15.85-20.74,56-51.25,78.9-23.48a42.77,42.77,0,0,1,7.56,14.86c1.09,4.36-.56,10.42,2.72,14.13,5.29,6,5.33-9.76,5.28-14.43-.09-8-1.25-14.89-5.91-21.42-14.91-20.91-40.58-25.82-63.27-14.28C636.32,442.76,609,522,628.31,580c1.94,5.81,4.3,11.78,3.51,17.85-.71,5.43-3.86,10.2-7,14.71-23.92,34.7-50.37,67.59-78.26,99.17q-21.46,24.3-43.95,47.66c-12.81,13.38-28.48,24.54-42.3,37.32-9,8.35-23.77,16-30.14,26.47-6.78.76-13.91.51-20.62,1.22-4.84.52-5.75.08-7.41,5-1.26,3.74-.62,8-1.93,11.83,14.74,1.4,27.48-4,39.83-11.36,5.82-3.45,13.11-8.8,11.91,2.37-.32,3-4.79,8.31-3.87,11.17,1.23,3.81,7.35,3.42,11.1,3.72,2.84-21.49,22.78-37.31,37.57-51.8q15.52-15.21,30.43-31c8.56-9.1,17.2-16.64,26.22-25.07,8.65-8.09,16.39-15.34,24.25-24.34,15.69-18,32.42-34.1,48.41-51.9,9.91-11,19.51-22.3,29-33.42Z"/><path class="cls-9" d="M655.58,628.37c7.31-8.59,14.71-16.75,22.1-25.43-4.22-1.11-26.67-.09-23-7.35,1.42-.13,2.35-1.06,3.65-1.27-5.41-6.59-11.53-9.62-15.6-17.68-3.28-6.49-8.22-13.85-9.35-21.17-1.25-8,.7-17.29,1.18-25.33.52-8.61.71-16.94,2-25.33,2.84-19,11.18-45.67,24.7-60.52,6.85-7.52,15.52-13.35,24.15-18.62,10.81-6.6,22.08-14.29,35-14.87-3.93-.36-5.16-2.24-9.51-2.25-6.13,0-13.19,3-18.54,5.73C636.32,442.76,609,522,628.31,580c1.94,5.81,4.3,11.78,3.51,17.85-.71,5.43-3.86,10.2-7,14.71-23.92,34.7-50.37,67.59-78.26,99.17q-21.46,24.3-43.95,47.66c-12.81,13.38-28.48,24.54-42.3,37.32-9,8.35-23.77,16-30.14,26.47-6.78.76-13.91.51-20.62,1.22-4.84.52-5.75.08-7.41,5-1.22,3.64-1.15,7.92-1.63,11.66,6.63,1.33,9,.08,14.51-2.07,3.92-1.54,8.41-.42,12.24-2.13,5.2-2.33,7.59-7.36,10.59-11.89,6.39-9.61,16.93-14.09,25.54-21.53s17.57-14.22,25.95-22c15.46-14.38,28.4-31.7,43-46.87,8-8.31,18.15-14.72,25-24.22,7.11-9.87,13.13-19.55,21.39-28.5,6.62-7.17,13.32-13.71,20.51-20.39,3.92-3.64,7.45-7.66,11.09-11.5,3.12-3.29,7.63-11,11.41-12.94,3.7,2.18,8.55,3.25,12.61,5.07,1.35.6,4.55,2.58,6,2.4,6.1-.76,11.32-11.58,14.82-15.7Z"/><path class="cls-10" d="M608,678.81c3.64-4.42,7.2-10.28,11.73-13.79,2.52-2,5.93-2.58,8.07-4.68-2.83-2.53-8.13-3.2-11.77-1.85-6.47,2.41-11.85,7.54-16.52,12.45C590,681,583.19,693.16,574,703.47c-6.9,7.76-12.06,16-19.65,23.15-9.66,9.14-19.71,18.71-29.85,27.39a418.83,418.83,0,0,0-31.12,29.63c-9.24,9.71-22.78,21.35-28.8,33.06,11.1,1.58,21.71-10.3,29.47-17.08a431.1,431.1,0,0,0,31.82-30.8c18.87-20.22,37-40.3,56-60.7C590.86,698.51,599.76,688.85,608,678.81Z"/><path class="cls-10" d="M640.4,502c-2,19.31-3.94,40.33,3.38,58.49a124,124,0,0,0,12.11,23c1.9,2.83,4.95,6,8.1,7.39,4.05,1.82,9.48.25,5.91-4.54-1.63-2.19-6.34-4.48-8.51-6.85-2-2.21-4.69-4.57-6.4-7a63.35,63.35,0,0,1-9.58-21c-3.8-16.37-5.2-32.16-2.53-49,1.36-8.56,5.48-18.21,9-26,3.78-8.34,9.75-14.24,14.62-21.86s5.52-13.28,13.85-18.14c5.26-3.07,19.79-7.84,21-14.42-5.11-1-11.27,4.39-15.43,6.8-4.91,2.83-9.61,4.5-13.52,8.65-4.12,4.38-7.63,9.3-11.86,13.59C647.51,464.3,642.24,484.12,640.4,502Z"/><path class="cls-9" d="M663.18,611l-2.54-3.16c-6.4-7.95-12-23.49-7.41-34.09-7.26,1.46-14.14,9.38-17,15.23l-3,6.13.18-6.83c0-.74,0-1.46,0-2.16.12-6.1.22-11.37,3.69-17.41,1-1.66,2.16-3.37,3.44-5.17a46,46,0,0,0,4.73-7.63c-5.89.07-8.72,3.88-12.23,8.58a53.18,53.18,0,0,1-4.59,5.6l-.88.9-1-.72c-4.2-2.9-1.48-11.85.31-17.77.3-1,.57-1.87.74-2.52,1.75-6.82,5-16,11-22-2.71-1.11-6.56,1.9-10.32,5.14-.68.58-1.29,1.11-1.81,1.52l-2,1.61-.37-2.57c-1.78-12.37,8.66-27.17,17.65-33.47-2.76-2.57-4.43-1.64-7.39,0a17.29,17.29,0,0,1-8.27,2.71l-2.59.06,1.24-2.27c5.52-10.14,14.13-23.36,26.47-24.69l-.19-.1c-2.12-1.06-6.49.61-9.68,1.84-2.33.89-4.34,1.69-5.81,1.65l-3.4,0,2.31-2.49c1.11-1.2,2.12-2.36,3.09-3.48a48.56,48.56,0,0,1,9.64-9.14,40.87,40.87,0,0,1,6.64-3.32c3.15-1.36,6.67-2.88,8.53-4.71-2.81-1.88-6.31-1.83-10-1.78-1.44,0-2.92,0-4.39-.06l-3.21-.21,2.23-2.32c3-3.17,7.73-5.18,11.87-7l1.78-.77c1.21-.53,2.67-1,4.2-1.55,3.09-1.05,6.82-2.32,8.86-4.15-3-1.49-7.22-1.46-10.18-1.43h-1v-3h1c3.87,0,9.69-.07,13.4,2.94l1,.84-.71,1.13c-2.12,3.36-7.06,5-11.41,6.52-1.47.5-2.87,1-4,1.46l-1.81.78a57.19,57.19,0,0,0-7.74,3.8h0c4.58-.06,9.31-.13,13.16,3.45l.9.84-.65,1c-1.92,3.11-6.4,5-10.73,6.91a39.15,39.15,0,0,0-6.13,3A44.1,44.1,0,0,0,640,475l.16-.06c4.12-1.58,8.79-3.38,12.1-1.72a5.71,5.71,0,0,1,2.92,3.78l.55,2-2-.07c-11.09-.35-19.35,10.85-24.92,20.54a21.13,21.13,0,0,0,4-1.87c3.53-2,7.19-4,12.31,1.92l1.17,1.35-1.54.92c-8.68,5.21-17.64,18.18-17.94,28.61,4.1-3.52,10.51-8.65,15.16-3.55l1,1.12-1.13,1c-6.19,5.51-9.6,14.9-11.37,21.81-.18.68-.45,1.59-.77,2.65-1,3.28-3.13,10.33-2.21,13.31,1.11-1.28,2.13-2.65,3.13-4,3.9-5.24,7.94-10.66,16.87-9.67l1.72.19-.43,1.68c-.89,3.44-3.39,7-5.8,10.38-1.23,1.74-2.4,3.39-3.28,4.93-2.48,4.31-3,8.16-3.2,12.57,4.31-5.95,11.36-12.27,19-12.27h.35l2.68.07-1.46,2.25c-5.21,8-1.59,21.35,3.53,29.75.75-6.53,3.15-17.18,10.78-22.8l2.2-1.62.19,2.72c.32,4.68.51,7.43,2.85,10.36,1.44-4.41,4.25-7,9.2-8.67l2.13-.72-.16,2.24a6.3,6.3,0,0,0,1.57,4.84c.86-4.31,2.32-11,6.78-11.46a1.29,1.29,0,0,0-.55,0l.28-.09c.45-.15,1.81-.6,2.37.69.37.86,0,1.6-1.1,2.19l-.3.17h-.34c-2.42.11-3.71,6.64-4.27,9.43-.14.72-.27,1.35-.39,1.85l-.41,1.71-1.62-.67a8.15,8.15,0,0,1-4.94-6.62c-3.55,1.63-5.19,4-6,8.37l-.49,2.68-2-1.85c-4.06-3.75-5-7-5.39-11.27-6.68,6.94-7.6,19-7.72,22.85Zm32.21-32.39.51.34.39-.28-.53-1A1.54,1.54,0,0,0,695.38,578.64Zm1-1.07,0,1,.68-.48A1.46,1.46,0,0,0,696.39,577.57Z"/><path class="cls-9" d="M469.09,824.07a2,2,0,0,1-.79-.16c-8.82-3.8-14-15-13.74-23.17l4,.13c-.19,6,3.19,13.92,8.71,17.88.06-1.42.11-2.92.16-4.46.31-9.53.66-20.34,4.14-27.69,1-2.15,2.7-5,5.59-5.35,3.42-.35,6,3,9.07,7,2.55,3.33,5.38,7,8.35,7.74l0-.29c.94-15.95,1.9-32.44,11.05-44.22a2,2,0,0,1,3.58,1.3c-.24,6.17,3,9.78,6.77,13.81,0-1,.07-2.05.1-3.11.36-11.52.76-24.57,7.37-33.62a2,2,0,0,1,1.62-.82h0a2,2,0,0,1,1.62.88,62.18,62.18,0,0,0,12,13.14l.07-1.21c.69-11.51,1.63-27.27,10.26-35.14a2,2,0,0,1,3.26.89c2.41,7.78,5.77,12.24,11.62,15.14.12-3,.13-6.25.14-9.62,0-11.26.07-22.9,4.14-31.76a2,2,0,0,1,1.82-1.17h0a2,2,0,0,1,1.82,1.17c4.28,9.34,7.93,14.69,16.78,19.55.24-3.36.52-6.77.79-10.09.42-5.08.85-10.34,1.15-15.45a92,92,0,0,1,1.76-11.91c.93-4.83,1.81-9.39,1.71-13.76a2,2,0,0,1,3.91-.64c3.17,10.29,7.28,18.18,12.49,23.95q-.11-2.53-.24-5.21c-.7-14.1-1.48-30.08,4.57-41.7a2,2,0,0,1,3.42-.2,36.43,36.43,0,0,1,4.09,9.24,33.34,33.34,0,0,0,3.43,8,22,22,0,0,0,5.24,4.77l1,.72c0-1.73,0-3.47,0-5.17a85.21,85.21,0,0,1,.57-13.33l-.33,0-.52-4a12.6,12.6,0,0,1,3.51.1,2,2,0,0,1,1.65,2.38c-1,4.8-.94,9.64-.88,14.75,0,3.11.06,6.33-.16,9.51a2,2,0,0,1-3.42,1.26,31.85,31.85,0,0,0-3.76-3.06,24.87,24.87,0,0,1-6.19-5.77,36.9,36.9,0,0,1-3.89-8.91c-.56-1.68-1.11-3.31-1.76-4.83-3.79,10.35-3.13,23.91-2.53,36,.18,3.62.35,7,.39,10.27a2,2,0,0,1-3.3,1.55c-5.73-4.92-10.37-11.68-14-20.51-.29,1.78-.63,3.56-1,5.31a89.16,89.16,0,0,0-1.69,11.38c-.3,5.15-.74,10.43-1.15,15.54-.35,4.31-.72,8.77-1,13.06a2,2,0,0,1-2.87,1.67c-10.21-4.95-14.95-10.23-19.26-18.57-2.15,7.52-2.18,16.8-2.21,25.83,0,4.52,0,8.8-.31,12.74a2,2,0,0,1-2.71,1.72c-7.67-2.93-12.31-7.54-15.43-15.54-5.48,7.45-6.26,20.35-6.84,30-.11,1.84-.22,3.59-.34,5.2a2,2,0,0,1-3.27,1.38c-5.25-4.35-9.71-8.25-14-14.05-4.42,8-4.76,19.08-5.07,29-.09,2.81-.17,5.46-.34,8a2,2,0,0,1-3.5,1.18c-.89-1-1.83-2-2.74-3-3.1-3.27-6.28-6.63-7.63-11.37-5.71,10.46-6.51,24.19-7.29,37.52l-.13,2.22a2,2,0,0,1-1.69,1.86c-5.89.9-10.22-4.77-13.71-9.33-1.77-2.31-4.18-5.46-5.4-5.46h-.07c-.45,0-1.35.88-2.39,3.08-3.12,6.6-3.46,17-3.76,26.1-.09,2.79-.18,5.43-.34,7.79a2,2,0,0,1-2,1.86Z"/><path class="cls-5" d="M655.87,628.62c7.2-8.72,12.81-19.29,22.14-26,10.37-7.44,21.86-10,32.66-16.05A99.93,99.93,0,0,0,723,578.31c6.54-5,12.72-11.7,16.38-19.16,3.3-6.73,5.54-17.84,1.05-24.66-2.51-3.82-5.49-5.5-9.77-6.4-7.23-1.51-4.59.93-8.87,6.79,14.7,2.37,6.44,24,.75,31-9,11.14-27.65,14.53-41.14,13.9-19.21-.9-24.89-12.37-30.25-29.34A101.59,101.59,0,0,1,667,458.91c15.85-20.74,56-51.25,78.9-23.48a42.77,42.77,0,0,1,7.56,14.86c1.09,4.36-.56,10.42,2.72,14.13,5.29,6,5.33-9.76,5.28-14.43-.09-8-1.25-14.89-5.91-21.42-14.91-20.91-40.58-25.82-63.27-14.28C636.32,442.76,609,522,628.31,580c1.94,5.81,4.3,11.78,3.51,17.85-.71,5.43-3.86,10.2-7,14.71-23.92,34.7-50.37,67.59-78.26,99.17q-21.46,24.3-43.95,47.66c-12.81,13.38-28.48,24.54-42.3,37.32-9,8.35-23.77,16-30.14,26.47-6.78.76-13.91.51-20.62,1.22-4.84.52-5.75.08-7.41,5-1.26,3.74-.62,8-1.93,11.83,14.74,1.4,27.48-4,39.83-11.36,5.82-3.45,13.11-8.8,11.91,2.37-.32,3-4.79,8.31-3.87,11.17,1.23,3.81,7.35,3.42,11.1,3.72,2.84-21.49,22.78-37.31,37.57-51.8q15.52-15.21,30.43-31c8.56-9.1,17.2-16.64,26.22-25.07,8.65-8.09,16.39-15.34,24.25-24.34,15.69-18,32.42-34.1,48.41-51.9,9.91-11,19.51-22.3,29-33.42Z"/><path class="cls-11" d="M659.73,472.09c-5.4,4-5.39,8.33-6.57,14.56-1.79,9.45-4.09,18.91-4.61,28.49-.31,5.72,29.74,56.73,37.44,60.18,7.94,3.56,20.49-3.1,28.25-5.3,14.74-4.18,29.58-7.28,41.43-17,3.29-2.7,16-48.2,13.73-54.93-6.51-19.08-27.74-62.31-33.32-62.55C727.27,435.16,664.14,468.81,659.73,472.09Z"/><path class="cls-12" d="M654.5,510c.44-7.23.85-19.83,5.32-26,3.35-4.62,8.64-2.63,13.57-1.89,2.64.4,10.6.53,12.52,2.36,4.14,4,0,19.82-.53,25-.88,8.86,5,14.12,9.13,21.5,1.8,3.2,3.49,6,5.49,9,3,4.42,3.52,6.28,8.38,5.15,7.68-1.79,15.54-4.94,22.76-8,1.17-.5,3.05-2,4.43-1.61,2.23.64,4.91,5.82,6.4,7.59s7.68,6.07,6.51,8.35c-.74,1.43-6.94,3.54-8.58,4.16-4.85,1.82-9.81,3-14.93,4.67-4.55,1.47-9,3.73-13.74,4.91-5.17,1.28-10.42,3.5-15.67,4.6-3.37.71-4.92.63-7.42-1.61-4.79-4.29-8.11-9.42-11.88-14.63A152,152,0,0,1,663,531.86C659.06,523.95,653.95,519.14,654.5,510Z"/><path class="cls-13" d="M744,461.73c-2-3.8-4.58-7.4-6.51-11.14-1.42-2.74-1.92-7.55-6-7.52-3.53,0-7.54,3.17-10.54,4.83-4.34,2.41-8.39,5.19-13.05,7-6.89,2.66-16.83,5.14-22,10.57,1.79,2.29,5,3.35,7.31,5.08,2.2,1.61,3.91,3.75,6.48,4.84,5.63,2.4,13.34-1.73,18.52-4a68,68,0,0,1,7.22-2.15c3.59-1.12,3.88-.59,5.93,2.9,3,5.16,6.55,9.83,9,15.33,2,4.46,6.84,9.45,6.91,14.34.07,5.19-1.94,10.5-3.26,15.4-1.28,4.74-4.61,10.21-4.75,15.27-.13,4.64,5.9,9.18,8.76,12.58a24.61,24.61,0,0,0,3.57,3.79c1.49-1.47,1.41-5.53,1.93-7.71.64-2.72,1.29-5.51,1.82-8.33,1-5.34,2.31-10.54,3.58-15.68s2.67-9.91,3-15.32-2-11.21-4.57-16.3C753.09,477.27,748.16,469.73,744,461.73Z"/><path class="cls-4" d="M689.56,482.47c1-.67,35.82-13.23,35.82-13.23l9.52-27.42v28.32L748.63,496l15.26,3.18-17.67,16.8-6.6,18.84L725,539.61l10.54-8.47,6-31.33-14.83-22.33Z"/><path class="cls-14" d="M666.27,492.58c.91,2.79,3.71,5.91,7.12,4.9,3.74-1.11,3.32-5.6,3.5-9a77.45,77.45,0,0,0-.53-11.5c-.29-2.93-2.48-7.81-2.09-10.5,1-6.81,16.74-9.43,22-14.35-.16,4.3,2.51,9.36,4.08,13.37A99.38,99.38,0,0,1,704,478c2.06,8.25,4.15,17.25,3.39,26-.65,7.42-4.43,15.19-8.6,21.51-1.16,1.76-3.35,2.78-3.93,5s1.1,4.4.91,6.14c-.43,3.94-3.39,6.71-6.86,9-5.34,3.55-11.12,7.29-12.53,14.37-6-1-12.27-15.61-14.33-20.36-3.1-7.11-2.18-18.16-4.68-25.65-2.86-8.57-7.1-12.2-5.47-21,.74-4,2.67-11.52,4.82-15,.89-1.45,7.7-7,9.5-7.33,3.75-.69,1.15,8.82.68,10.64C666,484.93,665.07,488.89,666.27,492.58Z"/><path class="cls-15" d="M648.56,501.47c10.84,22.21,40.47,13.71,38-11.33-1-9.85-7.36-18.79-9.33-28.7-.77-3.85-3.46-10.47-2-14.63,2.1-6,10.9-6.25,14.58-10.58-6.66,8.89-.64,22.46,2.79,31.91,3.75,10.36,6.25,21.58,6,32.67-.48,20-19,40.44-39.33,42.66a24.74,24.74,0,0,1-9.89-.78c-5.65-10.53-3.6-29.73-.11-40.55"/><path class="cls-15" d="M676.56,419.47c3.16-11,5.83-16.92,15.35-24.69,7.65-6.24,16-9.36,25.32-12.64,8.14-2.85,17.71-4.69,24.16-10.67,5-4.59,11.52-16,6.44-22.4,6.2,6,7.49,20.21,5.4,28.4-3.1,12.13-12.53,15.74-23.33,18-11.44,2.39-18.29,3.47-26,12C697.5,414.62,686,414.81,678,421l-.11.52"/><path class="cls-15" d="M669.13,606.9c-8.49,4.22-17.23,6.93-26.91,4.11-15.34-4.47-22.06-21.32-19.83-36,.44-2.87,1.65-5.94,1.89-8.61.29-3.23-1.64-6.31-2.23-9.41-.79-4.15-.11-8.12-.13-12.3-10.89,9.85-13.71,31.73-11.72,45.44a54.8,54.8,0,0,0,24.94,38.39c12.78,8.11,30.7,6.6,44,.57,6.87-3.12,13.21-7.79,17.35-14.19,1.74-2.69,3.91-6.1,4.76-9.2.33-1.2.34-13.88-.93-13.6C689.43,594.4,679.46,601.77,669.13,606.9Z"/><polygon class="cls-16" points="769.68 500.47 756.73 547.64 753.23 552.31 744.06 559.14 698.58 571.47 742 551.95 740.39 538.82 751.55 548.85 761.5 498.64 736.56 438.64 769.68 500.47"/><path class="cls-16" d="M691.28,613.36c1.67-2.47,7.32-13.25,4.06-15.67-3.84-2.86-8.46,6.84-10.08,8.66A63.11,63.11,0,0,1,672,618a31.3,31.3,0,0,1-11.81,4.56c-3,.45-6.74.84-9.81.2a55,55,0,0,1-17.69-7c-7.89-5.1-10.74-14.63-13.62-22.94-1.32-3.83-3.68-8.15-3.46-12.32.29-5.53,1.18-10.93,1.28-16.65-3.91,4.41-3.47,12.2-3.26,17.92.29,8.12,4,17.37,8.18,24.25,3.88,6.33,7.65,13.67,14.17,17.7a38.12,38.12,0,0,0,20.4,5.8c6.43,0,13.46-2.24,19.39-4.61S687.72,618.63,691.28,613.36Z"/><path class="cls-16" d="M722.89,392.47c14.24-3.53,23.41-7.11,26.51-21.85-2.63,12.49-21.26,16.7-31.54,19.35-8.18,2.11-25.42,6.67-25.9,17.92,5.26,1.35,10.56-5.65,14.43-8.41C711.11,396.11,717.13,393.9,722.89,392.47Z"/><path class="cls-17" d="M691.89,500c2.32-5.41,1.91-12.41.5-17.85-1.66,6.08.46,12.25-1.36,18.35-2.27,7.57-5.79,14.27-12.24,19.37-7.7,6.1-13.24,5.28-22.4,6.62-4.19.61-6.57,2.22-4.5,7s5.34,3.84,9.48,2c9.34-4.17,21.28-10.93,26.9-20.11,3.12-5.1,8.55-26.65,3.61-31.38"/><polygon class="cls-4" points="748.22 493.33 773.98 397.51 757.85 493.33 813.9 498.21 757.85 505.06 733.06 571.53 748.22 502.12 683.37 501.15 748.22 493.33"/><path class="cls-6" d="M363.71,697.55c2.65-.11,7.17,3.32,9.67,4.29,4.65,1.8,9.63,3.25,14.43,4.6,11.24,3.16,22.43,6.6,33.91,8.79,4.19.8,8.64,1.41,12.62-.11,24-9.2-1.61-67-7.5-82.25-7.11-18.32-34.56-24.59-51.69-25.74a12.5,12.5,0,0,1-5.72-1.32,9.63,9.63,0,0,1-3.39-4.05c-2.63-5.23-2.93-11.28-3.35-17.12s-1.1-11.94-4.33-16.82-9.81-8.06-15.12-5.59c-6.4,3-7.35,11.51-7.4,18.56-.08,10.38,3.51,22.33-8,25.52-18.83,5.22-43.2-8.88-59.58,3-5.91,4.28-9.81,10.75-13.21,17.2-10.76,20.44-20.64,44.57-21.77,67.82-.38,7.8,0,15.87,3.23,23,9.25,20.08,25.91,11.68,40,3.24a179.38,179.38,0,0,1,32.93-15.85c5.92-2.07,16.28-10.47,22.41-5.47,2.21,1.8,2.85,4.85,3.28,7.67,1.9,12.26,1.53,23.28-.21,35.39a1.2,1.2,0,0,1-1.92,1.06c-5.81-1.85-11.64-3.8-17.38-5.64-6.45-2.06-11.27-8.67-17.79-10.73-6.24-2-35.21,6-30,18.24a8.42,8.42,0,0,0,3.5,4.44c2.05,1.61,1.19.8,1.32,3.41.39,7.64-11.77,10.2-8.35,19.41,2.45,6.59,10.27,6.09,16.12,6.61,18.29,1.65,40.91-6.43,57.69,2.55,5.85,3.13,11.22,8.6,17.82,8,5.05-.49,8.93-4.47,13.08-7.4,11.17-7.9,25.7-7.78,38.83-7.14,8.32.4,28.32,4.27,30.29-7.92.56-3.47-1.54-6.82-4-9.33s-5.41-4.61-7.27-7.59-2.29-7.3.25-9.73c1-1,2.42-1.53,3.45-2.53,10.52-10.22-27.53-14.87-33.79-12.1-9.88,4.37-20,11.19-29.16,16.8a7.65,7.65,0,0,1-4.57,1.51c-3.27-.33-4.79-4.17-5.35-7.41-1-5.64-.87-11.28-.76-17C357,713.53,355.27,697.89,363.71,697.55Z"/><path class="cls-18" d="M323.52,630.15a29.64,29.64,0,0,0-23.46,12.34c5.31,1.19,10.81-.13,16.21-.77s11.43-.4,15.5,3.22a131.67,131.67,0,0,0-24.25,6.87c-4.68,1.83-10,4.88-10.2,9.9a72,72,0,0,1,29.77-4.52c-6.67,6-16.4,6.86-24.66,10.42a39.26,39.26,0,0,0-19.37,18.27c11.48-5.8,23.34-11.72,36.17-12.71-4.14,3.17-8.31,6.38-11.66,10.38s-5.84,8.92-6,14.13q16.52-10,33.65-18.83l-6.82,1.52a3.3,3.3,0,0,1-1.77.07c-1.89-.64-1.13-3.51.11-5.07a32.29,32.29,0,0,1,10.43-8.55q-6.75,1-13.55,1.56a27.66,27.66,0,0,1,15.72-12.24l-12.76-3.67a24,24,0,0,1,12.67-9.57,24.8,24.8,0,0,1-8.78-3.5A7,7,0,0,1,328,637c-1.25-2.31.09-5.35,2.26-6.85s4.9-1.85,7.51-2.16a9.78,9.78,0,0,1-8.94-9.39c0-4.69-9.33-7.81-12.89-4.61C310.84,618.59,320.86,627.06,323.52,630.15Z"/><path class="cls-18" d="M413,625.92c-2.77-.15-6.17,0-7.45,2.48a5,5,0,0,0,1,5.37,14.63,14.63,0,0,0,4.78,3.21l15.86,7.83c-6.48,1.32-13.5-1.53-19.68.82a5,5,0,0,0-3.06,2.55c-1.14,2.88,2.19,5.42,5,6.74l18.58,8.8a39.37,39.37,0,0,0-15.21-2.24c-3.3.17-7.39,1.58-7.6,4.88-.14,2.2,1.7,4.09,3.75,4.9s4.31.83,6.49,1.14a24.11,24.11,0,0,1,14.68,8l-19.46-2.15c-2.71-.3-6.16-.2-7.24,2.3-.73,1.69.09,3.64,1.16,5.14,4.19,5.81,11.63,8,18.18,10.89,6,2.65,11.74,6.28,15.78,11.45a23.24,23.24,0,0,1-6.38-13c-.26-1.92-.1-4.24,1.55-5.25,1.84-1.12,4.19.14,5.84,1.53a70.21,70.21,0,0,1-9.32-11.15c-1.47-2.18-2.87-4.83-2.07-7.33,1-3.15,5.82-4.14,8-1.65a35.81,35.81,0,0,1-10.82-11.07c-1.62-2.62-2.94-5.71-2.27-8.72s4.14-5.47,6.9-4.1c-4-2.17-8.06-4.59-10.46-8.43s-2.47-9.53,1-12.39a26.21,26.21,0,0,1-10.95-7.66c-2.77-3.24-4.75-7.36-9.64-5.87-4.69,1.43-7.72,5.44-2.49,7.82C401.66,622.68,408.42,625.67,413,625.92Z"/><path class="cls-19" d="M309.37,704.82c5.92-2.07,16.28-10.48,22.41-5.47,2,1.62,2.71,4.26,3.14,6.83,2.31-9.48,2.58-20.48-2.18-22.07a19.67,19.67,0,0,0-5.58-1,111.79,111.79,0,0,1-10.93,5c-7.71,2.88-13.46,10.57-19.68,15.69a44.69,44.69,0,0,1-5,3.56,73.07,73.07,0,0,0-4.27,7.18A163.1,163.1,0,0,1,309.37,704.82Z"/><path class="cls-20" d="M331.31,777.75c0-.36-.69-.45-.59-.1.32-.18.2.4-.11.61C330.93,778.21,331.27,778.06,331.31,777.75Z"/><polygon class="cls-20" points="318.52 616.84 318.52 616.84 318.52 616.84 318.52 616.84"/><path class="cls-20" d="M326.27,775.69c-1-1.42-1.55-3.07-2.5-4.5a21,21,0,0,0-6.18-5.77c.05.23.12.45.17.68,0-.24-.11-.45-.17-.68-7.15-4.6-17.45-6.85-24.27-5.11-2,.52-4.7,1.14-5.81-.64a2.94,2.94,0,0,1,.44-3.33,7,7,0,0,1,3-1.87,21.85,21.85,0,0,1,18.27,1.17,63.09,63.09,0,0,1,6.69,4.95c-6.12-12.92-21.83-11.15-35.18-16.49-6-2-6.22-7.63-3.57-12.62-6.76,3.28-11.88,8.09-9.43,13.86a8.42,8.42,0,0,0,3.5,4.44c2.05,1.61,1.19.8,1.32,3.41.39,7.64-11.77,10.2-8.35,19.41,2.45,6.59,10.27,6.09,16.12,6.62,9.08.57,18-.6,27-1.3,2.67-.21,5.71-.89,8.28-.93,3.07,0,5.64,1.67,8.65,2a17.88,17.88,0,0,0,6.16-.7.41.41,0,0,0,.14-.06l-.15,0A5.15,5.15,0,0,1,326.27,775.69Z"/><path class="cls-19" d="M280.75,744.1c13.35,5.34,29.06,3.57,35.18,16.49a23.73,23.73,0,0,0,4.23,2.69,137,137,0,0,0,15.79,6.56c-3.29-8.23-3.2-17.25-3.2-26.43-5.75-1.83-11.52-3.76-17.21-5.58-6.45-2.06-11.27-8.66-17.79-10.73-3.3-1-13,.7-20.57,4.38C274.53,736.47,274.71,742.09,280.75,744.1Z"/><path class="cls-20" d="M346.88,680.89A7.24,7.24,0,0,0,345.6,678c-1.48-1.59-4.08-1.07-6.13-.36a103.15,103.15,0,0,0-12.3,5.51,19.67,19.67,0,0,1,5.58,1c4.76,1.58,4.48,12.59,2.18,22.07,0,.28.09.56.14.84,1.9,12.26,1.53,23.28-.21,35.39a1.2,1.2,0,0,1-1.92,1.06l-.18-.06c0,9.18-.09,18.2,3.2,26.43l1.42.45c1.07.32,9,.45,9.15.62a27,27,0,0,1-4.91-15.76c.09-7.25,3.09-14.12,4.22-21.28,1.73-10.9-.91-22.08.18-33.06a15.71,15.71,0,0,1,2.29-7.52,7.47,7.47,0,0,1,4.71-3.12,5.22,5.22,0,0,1,2.11.07A15.38,15.38,0,0,1,346.88,680.89Z"/><path class="cls-20" d="M342.58,625.12c1.54.56,3.54-.58,5.15-.51,2.22.09,4.26,1.2,6.28,2a8.12,8.12,0,0,1,3.8-2.66q13.43-5.51,27-10.61c-9.49-2-19.18,1.33-28.51,4a13.17,13.17,0,0,1-3.11.61,36.22,36.22,0,0,0-4-.13c-1.43.21-2.13,1.12-3.27-.16l-4-4.51a2,2,0,0,1-.6-1c-.12-1,1.09-1.51,2-1.87a9,9,0,0,0,4.87-4.67c1.38-3.11.58-7.33.26-10.63a78.87,78.87,0,0,1,.46-19c.37-2.51.9-5.1,2.43-7.13s4.33-3.3,6.68-2.33c-3.62-4.16-9.42-6.68-14.86-4.15-6.4,3-7.35,11.51-7.4,18.56-.08,10.38,3.51,22.33-8,25.52-18.83,5.22-43.2-8.88-59.58,3-5.91,4.28-9.81,10.75-13.21,17.2-10.76,20.44-20.64,44.57-21.77,67.82-.38,7.8,0,15.87,3.23,23,9.25,20.08,25.91,11.68,40,3.24q5.34-3.21,10.86-6.12a73.07,73.07,0,0,1,4.27-7.18c-6,3.67-12.89,5.78-19.33,3.52a4.29,4.29,0,0,1-2.17-1.39c-1.19-1.68.08-4,1.43-5.53,6.83-7.86,16.26-12.92,25.6-17.53q17.91-8.84,36.47-16.29c-7.6,1.11-14.85,3.85-22,6.67-8.35,3.3-16.66,6.74-24.69,10.76a164.52,164.52,0,0,0-22,13.21c-2.79,2-5.28,4.41-6.63-.13-1-3.31,1.14-7.26,2.64-10.07,2.39-4.46,5.5-6.95,10-9.3a276.87,276.87,0,0,1,34.94-15.43,47.66,47.66,0,0,1,10.84-2.9c9.54-1.06,18.76-2,28.4-2.45l-.37-4.86c-21.53-.15-45,2.43-64.59,11.82-3.09,1.48-11.39,8.81-12.84,3.66-1.39-5,6.35-9.95,9.82-11.83,4.95-2.69,10.46-4.14,15.86-5.72,8.44-2.47,16.82-5.33,25.52-6.62s17.9-.91,25.83,2.89a21.57,21.57,0,0,1,.75-6.35c-10.24-2.39-21.11-4-31.46-2.21a151.28,151.28,0,0,0-16.33,3.21c-2.11.6-14.16,2.59-14.95,4.17,1.54-3.11.33-6.15,2.38-9.26a17,17,0,0,1,8.33-6.29c5.05-1.85,10.58-1.77,16-1.51a278.22,278.22,0,0,1,34,3.74,4.31,4.31,0,0,0-1.06-4.78,10.29,10.29,0,0,0-4.6-2.36c-7.39-2.12-15.21-1.85-22.88-2.43s-15.68-2.21-21.41-7.34c-6.56-5.87,11.23-4.54,13.45-4.09,4,.82,8.07,1.54,12.07,2.47l10.56-.51a30.94,30.94,0,0,0-10.52-7.49,86.93,86.93,0,0,1,14.23,7.31l.94,0a3.23,3.23,0,0,0,.28.9c1.11.78,2.2,1.61,3.29,2.52C339.12,621.06,340.31,624.3,342.58,625.12Z"/><path class="cls-20" d="M332.79,616.15c.41.27.81.57,1.22.86a3.23,3.23,0,0,1-.28-.9Z"/><path class="cls-20" d="M329.08,616.33l-10.56.51h0l13.13,2.69A30.32,30.32,0,0,0,329.08,616.33Z"/><path class="cls-20" d="M329.08,616.33a30.32,30.32,0,0,1,2.57,3.2l-13.13-2.69c2.23.52,4.44,1.11,6.6,1.81l14.42,4.74c-.38-2.85-4.39-3.91-5.54-6.39-.41-.29-.81-.58-1.22-.86Z"/><path class="cls-3" d="M369.35,686.05a15.74,15.74,0,0,1,7,.72c13.49,3.65,25.32,7.35,36.44,15.82a18.17,18.17,0,0,1,4.53,7,2.22,2.22,0,0,1-.49,2.22,2.68,2.68,0,0,1-1.44.49c-9.75,1.18-18.41-5.85-27.86-8.5-6.24-1.75-12.48-2.28-18.11-5.77C364.77,695.11,361.53,687.56,369.35,686.05Z"/><path class="cls-19" d="M433.91,712c-1.44-4.88-5.29-8.66-9.33-11.75-10.55-8-23.23-12.75-35.89-16.7a12.6,12.6,0,0,1-4.6-2.16c-8.56-1.57-16.64-3.07-25.21-4-.76,7-2.13,14.25-.08,21a8.51,8.51,0,0,1,9.73,1.24c-1.93-2.91-3.88-6.78-1.87-9.63,1.89-2.69,5.91-2.41,9.13-1.72a108.19,108.19,0,0,1,29.15,10.4c5,2.71,10.28,7,10,12.62l-5,.3c7.23,2.19,14.79,4.4,22.24,3.12a2.4,2.4,0,0,0,1.82-1A2.31,2.31,0,0,0,433.91,712Z"/><path class="cls-20" d="M425.59,665.26l2.49,2.07A26.69,26.69,0,0,0,425.59,665.26Z"/><path class="cls-20" d="M383.46,680.8c-1.28-1.54-1.34-4.27.41-5.26a5,5,0,0,1,2.36-.46,86.2,86.2,0,0,1,46.88,12.41,63.08,63.08,0,0,0-40-18.74c-3.67-.28-7.39-.24-11-1.07a4.34,4.34,0,0,1-3.13-1.92c-.9-1.86.88-3.9,2.68-4.92,4.37-2.47,9.6-2.78,14.63-2.8,10.24,0,21.24,1.21,29.32,7.21l-4.47-3.71a21.15,21.15,0,0,0-13-6c-11.36-2-23.07-4-34.33-1.48.12-3.57,3.65-6,7-7.35,13-5.32,27.65-3.62,41.58-1.84-11-6.41-24.41-10.1-36.7-6.62-4.49,1.27-9.2,3.47-13.6,1.93-.08-3.33,2.21-6.36,5-8.11s6.18-2.45,9.44-3.13l18.42-3.82a56.18,56.18,0,0,0-34.71,4.61c0-9.38,13.58-11.73,20.71-13.54l9.51-2.42c-8.58-3.82-18.73,1.47-27.3,3.54-5.22,1.26-10.59,2.59-15,5.7a21.26,21.26,0,0,0-4.62,4.47,117.92,117.92,0,0,1,5.37,49.91v0c8.58.94,16.66,2.43,25.21,4A5.65,5.65,0,0,1,383.46,680.8Z"/><path class="cls-3" d="M393.41,727c3.74-.75,7.62-1.5,11.35-.66s7.27,3.72,7.63,7.52c.27,2.94-1.43,5.8-3.76,7.63a22.32,22.32,0,0,1-8.06,3.55,2,2,0,0,1,3.26.54c-6.31-.59-12.68,1.32-18.17,4.51s-10.17,7.58-14.48,12.22c-2.74,2.94-6,6.47-10.31,6.46,1.87-2.43,2.51-7.64,3.24-10.75,1-4.32-.35-8.59-2.15-12.58,2-1.92,4.73-2.15,7-3.31,2.85-1.44,5.72-3.41,8.47-5.07Q385.54,732.19,393.41,727Z"/><path class="cls-21" d="M363.71,697.7c2.65-.11,7.17,3.32,9.67,4.29,4.65,1.8,9.63,3.25,14.43,4.6,11.24,3.16,22.43,6.6,33.91,8.79,4.19.8,8.64,1.41,12.62-.11,24-9.2-1.61-67-7.5-82.25-7.11-18.32-34.56-24.59-51.69-25.74a12.51,12.51,0,0,1-5.72-1.32A9.64,9.64,0,0,1,366,601.9c-2.63-5.23-2.93-11.28-3.35-17.12s-1.1-11.94-4.33-16.82-9.81-8.06-15.12-5.59c-6.4,3-7.35,11.51-7.4,18.56-.08,10.38,3.51,22.33-8,25.52-18.83,5.22-43.2-8.88-59.58,3-5.91,4.28-9.81,10.75-13.21,17.2-10.76,20.44-20.64,44.57-21.77,67.82-.38,7.8,0,15.87,3.23,23,9.25,20.08,25.91,11.68,40,3.24a179.29,179.29,0,0,1,32.93-15.85c5.92-2.07,16.28-10.48,22.41-5.47,2.21,1.8,2.85,4.85,3.28,7.67,1.9,12.26,1.53,23.28-.21,35.39a1.2,1.2,0,0,1-1.92,1.06c-5.81-1.85-11.64-3.8-17.38-5.64-6.45-2.06-11.27-8.66-17.79-10.73-6.24-2-35.21,6-30,18.24a8.42,8.42,0,0,0,3.5,4.44c2.05,1.61,1.19.8,1.32,3.41.39,7.64-11.77,10.2-8.35,19.41,2.45,6.59,10.27,6.09,16.12,6.62,18.29,1.65,40.91-6.44,57.69,2.55,5.85,3.13,11.22,8.6,17.82,8,5.05-.49,8.93-4.47,13.08-7.4,11.17-7.9,25.7-7.78,38.83-7.14,8.32.4,28.32,4.27,30.29-7.92.56-3.47-1.54-6.82-4-9.33s-5.41-4.61-7.27-7.59-2.29-7.3.25-9.72c1-1,2.42-1.53,3.45-2.53,10.52-10.22-27.53-14.87-33.79-12.1-9.88,4.37-20,11.19-29.16,16.8A7.64,7.64,0,0,1,363,744.3c-3.27-.33-4.79-4.17-5.35-7.41-1-5.64-.87-11.28-.76-17C357,713.69,355.27,698,363.71,697.7Z"/><path class="cls-21" d="M288.49,604.69a121.88,121.88,0,0,1,57.74,21.62c1.51,1.07,3.15,2.22,5,2.18,1.65,0,3.09-1,4.47-1.93a77.17,77.17,0,0,1,50-12.48"/><path class="cls-21" d="M259.12,728.91c17.13-5.57,34.06-25.1,50.88-34.81s27.65-19.26,47-17.66c8,.66,15.82,2.62,23.54,4.81,13.51,3.83,26.58,8.65,38.6,16,3.74,2.29,9.73,4.19,12.94,7,3.42,3,6.6,8.61.84,11.22"/><path class="cls-22" d="M344.25,631.35c-1.6,16.85.91,33.79,3.52,50.51a14.08,14.08,0,0,0,1.7,5.59c1.07,1.65,3.09,2.84,5,2.33,2.78-.75,3.52-4.29,3.73-7.17,1.24-16.5,2.45-33.34-1.57-49.4C354.47,624.63,345.44,618.82,344.25,631.35Z"/><path class="cls-21" d="M346.24,666.6s-47,8.29-77,32-29.12,21-33.81,16.24"/><path class="cls-21" d="M344.46,657s-31.72-4.47-65.72,14.06-40.54,24.46-45.06,17.87"/><path class="cls-21" d="M343.75,644.1s-26.05-7-61.53,6.57S240,654.83,240,654.83"/><path class="cls-21" d="M344.25,631.35s-26.5-5.17-44-7.24-15,1.78-26,4.38-19.5,2.86-15.13-9"/><path class="cls-21" d="M356.62,633.22s49.92-19.41,70.22-.2"/><path class="cls-21" d="M360.8,645.19s45.42-16.7,72.77,5"/><path class="cls-21" d="M360.8,658s51.41-15.73,81,18.25"/><path class="cls-21" d="M356.62,666.6s77-2.69,87.87,34"/><path class="cls-21" d="M333,680.18l2.58,27.14c1.35,14.19,2.64,28.89-2,42.37a8.28,8.28,0,0,0-.71,3.73c.15,1.1,2.31,15.41,3.4,15.63,8.11,1.58,13.37,3.32,21.45.85,5.15-7.27,6.28-14,3-23.54-1.52-4.44-3.37-8.22-4.38-12.81-1.54-7-1.19-14.27-.82-21.44q.63-12.31,1.25-24.62"/><path class="cls-21" d="M278.89,730.7c-5.63,4.82-1.9,13.9,4.58,15.71,4.29,1.2,8.86.36,13.29.74a24.36,24.36,0,0,1,12.4,4.72c4.94,3.69,8.41,9.21,13.74,12.32,13.61,8,35.92,10.92,48-1,3.78-3.71,7.07-8,11.48-10.94,5.36-3.57,11.9-4.82,17.86-7.27,4.56-1.88,12.91-6.75,12.52-12.72-.4-6.18-7.94-7.17-12.52-6.48"/><path class="cls-18" d="M352.44,676.12c.19.86.6,1.91,1.48,2a36.58,36.58,0,0,0,1.52-8.64c.63-6.82,1.13-13.75.27-20.58-.27-2.14-1.9-14.39-4.83-14.32C345.4,634.69,351.5,671.91,352.44,676.12Z"/><path class="cls-18" d="M347.61,711.57q.73,14.54,1.46,29.07a8,8,0,0,1-.32,3.37,25.68,25.68,0,0,1-1.87,2.9,9.49,9.49,0,0,0-1,4.8,26.41,26.41,0,0,0,1.72,9.13,6.4,6.4,0,0,0,2.43,3.43c3,1.76,6.61-1.5,7.66-4.8,2.52-7.95-1.82-16.22-3.86-24.3-1.79-7.12-1.79-14.54-1.77-21.88,0-2.06,1.26-9.51-2.18-10C346.76,702.86,347.61,709.58,347.61,711.57Z"/><path class="cls-18" d="M388.72,755c2.42-.92,5-1.42,7.45-2.23a30.74,30.74,0,0,0,13.5-9c2.73-3.15,5.43-7.2,9.59-7.4,1.2,1.72.35,4.09-.74,5.88s-2.46,3.66-2.2,5.74c.38,3,3.68,4.4,6.09,6.15a14.09,14.09,0,0,1,5.54,8.91c-3.09,1.06-5.64-2.35-8-4.65-3.58-3.55-8.87-5-13.91-4.76s-9.87,2.12-14.33,4.48a65.28,65.28,0,0,0-13.09,9.11c-3.61,3.24-6.87,6.88-10.67,9.89s-8.31,5.42-13.16,5.63c-4.54.2-10.16-2-11.88-6.55.43,1.12,13.35.88,14.87.53,4-.92,7.46-3.31,10.59-5.87C375,765.45,380.49,758.13,388.72,755Z"/><path class="cls-23" d="M299.15,626.85c-14-11.3-16.85-22.95-22.2-38.58-13.89-3.83-15.47,2.63-13.82,16.83,1.19,10.25,5.29,20.67,8.75,30s40.07,55.7,52.42,41c2.9-3.45,5.35-11.11,7.35-15.35s5.58-9.34,5.71-13.9C324.45,647.48,308.74,634.59,299.15,626.85Z"/><path class="cls-23" d="M396.12,644.1c26.42-5.58,40.3-24.91,41.2-50.9,15.4,8.61,11.53,28.64,7,42.92-3.58,11.39-13,36.11-26.09,39.87-.23-12.67-5.75-29.57-20.15-30.9"/><path class="cls-23" d="M415.21,686.44c6.72-15.59.28-30.7-13.39-39.75a60.08,60.08,0,0,0-22.18-8.7c-9.17-1.69-16.36-.48-25.51-.4-19.14.16-33,17-35.75,35.58-1.72,11.62,1.59,20.45,8.61,29.52,7.29,9.41,17.37,16.15,22.77,26.89,2.79,5.55,3.26,13,8,17.49,17.88,17,35-27.1,41.45-37.69C404,701.48,411.63,694.75,415.21,686.44Z"/><path class="cls-24" d="M375.12,715.1c0-4.84,3.29-30.73-6.79-28.77-.73,4.46,1.27,9,.79,13.56a122.15,122.15,0,0,1-3,15.24,48,48,0,0,0,1.56,27.42C376.89,743.86,375.12,720.84,375.12,715.1Z"/><path class="cls-18" d="M362.48,662.88a34.15,34.15,0,0,1,4.56,2.8c8.29,6.77,1.13,20.25,4,29.39,1.67-10.4,2-26.89,15.62-28.47,13.08-1.52,17.07,8.86,17,19.85,2.43-4.7,4-13.19,1.38-18.24-3.08-6-9.63-6.65-15.32-7.19,1.08-5.22,6.23-3.75,10.4-4-4.43-6.63-13-6.88-20.09-8.06s-15.91-2.78-22,2.53S357.45,660.08,362.48,662.88Z"/><path class="cls-25" d="M327.48,690.21c3.48,7.19,9,13.84,14.65,19.39,5.89,5.79,9.43,13.41,13.39,20.62,2.05,3.74,10.08,22.42,10.61,6.88.15-4.37-1.63-7.58-3-11.49-1.8-5.17-.42-5.75,1-10.49,2.09-6.89.87-17.72.47-25-.36-6.67-1.24-13.37-4.82-19.16-2.71-4.37-10.29-8.39-10.2-14,.15-8.81,15.86-12.06,22.48-13-6.17-3.44-18.24-.45-24.46,1.47-8.13,2.51-17,6.9-20,15.37C324.6,669.79,323.22,681.42,327.48,690.21Z"/><path class="cls-26" d="M352.79,673.43c-6.56-5.05-16.39,3.41-20.58,8.67,2.69,5.31,17.11,35.18,25.12,30.71,6.48-3.62,3.58-42.39-6.53-40.72"/><path class="cls-26" d="M375.46,714.1c7.83.66,18.63-17.94,20.81-24,1.47-4.06,1.34-9.44-2.3-12.68C380.39,665.34,371.64,713.77,375.46,714.1Z"/><path class="cls-27" d="M342.11,682.1c-.06,5.42,2.27,20.87,9.18,22.93,9,2.68,6.14-8.92,5.65-13.74s.12-12.48-3.51-16.14C348.27,669.95,342.18,675.6,342.11,682.1Z"/><path class="cls-27" d="M375.56,708c8.43,1,15.61-11.28,17.69-17.88,1-3.16,2.29-8.41-.58-11C381.57,669,374.29,701.27,375.56,708Z"/><path class="cls-18" d="M389.12,678.6c-1.63-.29-3.36,1.95-4.44,3.89,9.21.23-1.38,16.91-3.36,20.44,2.54-4.16,7.29-6.95,9.19-11.44.69-1.64,1.76-5.74,1.62-7.37-.29-3.45-1.17-2.73-3.51-5.51"/><path class="cls-18" d="M345.12,677.1c-.49.21-.88-.31-.93.41,3.09-3.17,4.66-1.51,8.36-.84,1.07,3.8.31,8,.69,11.92.35,3.69,1.85,6.95,2.52,10.43q.28.26,0,0c-4.57-2.89-5.47-12.45-5.76-17.32a12.41,12.41,0,0,0-3.4-1.54c-1.78,1.69-2,4.14-2.9,5.91-.19-2.57-.47-5.62.39-8"/><path class="cls-28" d="M384.23,685.66c-1.37,3.54-4.72,7-4.67,11.67,0,4.28,3.76,8.15-2,10.52-1.26-3.58-.84-10.9.59-14.27,1.51-3.54,3.94-9.07,6.69-11.82a16.78,16.78,0,0,1-1.27,5.57"/><path class="cls-28" d="M344.79,687.1c.69,6.74,3,15.53,11.36,12.46a12.28,12.28,0,0,1-.41,3.83c-2,.11-4.55.7-6-.27-.62-.43-2.64-3.57-3.31-4.42-2.1-2.69-3.41-8.32-2-11.59"/><path class="cls-25" d="M286.12,630.6c-3.79-6.37-7.51-12.8-10.83-19.43-1.38-2.75-2.62-5.56-4-8.28-.18-.35-3-5.13-3-4.73-.76,14.07,6.35,30.7,13.54,42.42a66.11,66.11,0,0,0,16,17.39c3.76,2.81,16.68,16.11,15.4,3.62-.57-5.55-9.64-11.67-13.89-15.11C293.75,642,289.68,636.57,286.12,630.6Z"/><path class="cls-25" d="M436.27,637.07a67,67,0,0,0,4.22-19.57c0-.84.21-4.46-1.54-3.29-1,.68-1.42,4.27-1.74,5.39-.89,3-2.25,6-3,9.1a30.24,30.24,0,0,1-2.93,8.2,85.61,85.61,0,0,1-4.87,7.38c-1.38,2-2.78,4.69-4.82,6-.57.38-2.32,1.14-2.54,1.86-.31,1,1.53,2.42,2,3.4a20,20,0,0,0,1.9,3c1.15-.67,2.1-2.53,3-3.6,1.41-1.73,2.63-3.49,3.91-5.35,1.44-2.09,2.21-4.56,3.47-6.76a39.34,39.34,0,0,0,2.78-5.5Z"/><path class="cls-25" d="M429.75,640.6a119,119,0,0,0,5.67-10.91c.75-1.82,1-8.88,1.61-9.54-4.12,4.35-5.8,10.07-10.14,14.21-1.42,1.35-14.09,11.77-15.69,10.37,1.37,1.21,7.43,8.31,7.92,8.29C422.41,652.89,428.33,643.21,429.75,640.6Z"/><path class="cls-29" d="M280.37,648.17a77.48,77.48,0,0,1-10.27-20.68c-1.25-4-1.67-7,.59-10.76,1.83-3,5.48-6.67,9.38-5.91,1.49,2.58-6.75,7.57-7.6,10.93-1.05,4.14.38,10.28,3.25,13.3,1.59-4.39,2.45-19,9.69-18.25,0,3.37-3,5.81-4,9a50.05,50.05,0,0,0-2.33,9.33c-.44,4.64,1.58,13.46,7.29,14,.19-4.47-2.16-23.72,6-22.91.31,6.91-3.88,12.87-3.95,19.95-.06,6.15.95,12.21,7.35,14.3,3.13-4.65-2.27-26.44,5.27-27.51.49,9.44-7.86,32.89,5,37.17,1.36-3.5,0-29.91,9.36-25.58.31,3.83-1.71,6.11-2.56,9.63a48.43,48.43,0,0,0-1.06,8.65,35.55,35.55,0,0,0,.66,8c.73,4.32-.87,3.69-4.33,1.73a93.05,93.05,0,0,1-15-10.8C288.84,657.92,283.67,652.86,280.37,648.17Z"/><path class="cls-18" d="M436.62,640.89c.9-2.79,1.74-5.61,2.63-8.39a79.81,79.81,0,0,0,3.16-13.29,44.69,44.69,0,0,0,.41-6.36c0-.88.46-3.51-.34-4.13-1.23-1-1.31,4.11-1.35,4.54-.15,1.56-.47,3.05-.63,4.61a61.78,61.78,0,0,1-2.77,13.34c-1.16,3.44-2.36,7-3.82,10.31-1.23,2.82-3.26,5-4.62,7.71a35.73,35.73,0,0,1-5.81,7.85c-1.31,1.4-1.33,1.92-.87,3.78.33,1.33.59,2.7,1,4,2-.29,3.07-3.09,3.68-4.69.76-2,2.31-3.13,3.41-4.92a37.54,37.54,0,0,0,2.43-4.75C434.47,647.38,435.58,644.15,436.62,640.89Z"/><path class="cls-18" d="M281.79,621.77c3.48,11.16,11.51,24.69,21.33,32.32,2.09,1.62,4.05,3.54,6.09,5.26,3.46,2.93,3.21,1.51,5.32-1.92,4.08-6.66-.43-9.86-6.81-12.91a56,56,0,0,1-14.59-10.34c-3.87-3.64-7-8.84-11-12.08"/><path class="cls-30" d="M316,684.53c.48-11.6,3.4-23.83,10.46-33.26,1.68-2.25,3.69-4.87,6.3-6,1.81-.81,4.93-1,4-4.1s-7.69-3.72-10.36-3.39a16.75,16.75,0,0,0-9.14,4.75C310.74,648.6,306.75,658.12,306,667c-.35,3.89-.12,8.14,1.75,11.66a11.3,11.3,0,0,0,3.34,3.94C311.45,682.84,316,684.88,316,684.53Z"/><path class="cls-30" d="M396.76,641.3c9.07,7.25,17.19,16.85,20.61,28.12.82,2.69,1.74,5.86,1.14,8.66-.42,1.94-2.08,4.59,1,5.63s7.54-4,8.86-6.34a16.75,16.75,0,0,0,1.58-10.17c-1.05-8.9-6.36-17.74-13-23.61-2.93-2.58-6.49-4.91-10.43-5.49a11.3,11.3,0,0,0-5.15.36C400.84,638.61,396.5,641.08,396.76,641.3Z"/><polygon class="cls-4" points="402.08 672.63 417.59 614.93 407.88 672.63 441.63 675.57 407.88 679.69 392.95 719.72 402.08 677.93 363.03 677.34 402.08 672.63"/><path class="cls-31" d="M498.69,513.15c-8.2-2.41-17.58-5.35-25.68-7.07-1.6,27.28-2.73,52.08-13.42,77.68-1.53,3.66-5.29,7.9-8.26,5.45-1.21-1-1.57-2.76-2.27-4.22-2.87-6.1-10.73-6.5-17.1-6.05l-81.52,5.71c-12.08.85-24.58,1.82-35.26,7.92-5.71,3.27-11.56,8.11-17.91,6.75-5.49-1.18-9.14-6.63-12.11-11.71q-10.85-18.55-19.92-38.2c-4.1-8.88-7.14-26.73-15.47-32.19a16.17,16.17,0,0,0-5.51-2.05c-9.87-2.15-56.07,2.27-56.6,16.59a17.23,17.23,0,0,0,1.53,6.64c6.87,18.1,15.45,37,31.3,46.72a25.28,25.28,0,0,0,9.83,3.8c17.13,2.2,24.12.15,35.2,16.53,13.2,19.51,36.84,21.92,57.51,22.68a493.19,493.19,0,0,0,66.45-2c22.93-2.26,44.53-1.11,66.17-10.77a23.66,23.66,0,0,0,6.58-3.84,24,24,0,0,0,4.5-6.4c7.89-14.54,12.59-32.21,18.19-47.84,5-13.92,12.14-29.13,13.92-44Z"/><path class="cls-20" d="M496.89,511.17c-8.2-2.41-17.57-5.35-25.68-7.07,3.67.78-7.9,62.69-8.55,69.39-.43-2.63,2.85-4.61,5.15-3.57s3.45,3.87,3.71,6.53-.13,5.35.17,8c-.41-3.66,5.75-13.75,6.94-17.75a119.31,119.31,0,0,1,5.65-14.57c5.58-12.65,11.11-27,12.78-40.92Z"/><path class="cls-3" d="M283.35,584.25a160.77,160.77,0,0,1-20.82-38.66C258.94,536,257,521.14,248,515.23a16.19,16.19,0,0,0-5.51-2.05c-9.87-2.15-56.07,2.27-56.6,16.59a17.24,17.24,0,0,0,1.54,6.64c6.87,18.1,15.45,37,31.3,46.72a25.27,25.27,0,0,0,9.83,3.8c7.92,1,16.66,1.11,23.73,5.55,8.5,5.34,12.82,14.23,20,21.07a30.19,30.19,0,0,0,20.85,8.32q-4.54-3.46-9.05-7c-4.43-3.44-8.91-7-12.24-11.64a52.75,52.75,0,0,1-5.25-9.79,155.7,155.7,0,0,1-5.9-15.86c-.79-2.54-1.29-5.89.78-7.4s4.7.11,6.67,1.66q3.63,2.86,7.1,5.87C277.52,579.71,281.76,581.7,283.35,584.25Z"/><path class="cls-5" d="M496.89,511.17c-8.2-2.41-17.57-5.35-25.68-7.07-1.6,27.28-2.73,52.08-13.42,77.68-1.53,3.66-5.29,7.9-8.26,5.45-1.21-1-1.58-2.76-2.27-4.22-2.88-6.1-10.73-6.5-17.1-6.05l-81.52,5.71c-12.08.85-24.58,1.82-35.26,7.92-5.71,3.27-11.56,8.11-17.91,6.75-5.49-1.18-9.14-6.63-12.11-11.71q-10.85-18.55-19.92-38.2c-4.1-8.88-7.15-26.73-15.47-32.19a16.18,16.18,0,0,0-5.51-2.05c-9.87-2.15-56.07,2.27-56.6,16.59a17.24,17.24,0,0,0,1.54,6.64c6.87,18.1,15.45,37,31.3,46.72a25.28,25.28,0,0,0,9.83,3.8c17.13,2.2,24.12.15,35.2,16.53,13.2,19.51,36.84,21.92,57.51,22.68a493.31,493.31,0,0,0,66.45-2c22.93-2.26,44.54-1.11,66.17-10.77a23.65,23.65,0,0,0,6.58-3.84,24,24,0,0,0,4.5-6.4c7.89-14.54,12.59-32.21,18.19-47.84,5-13.92,12.14-29.13,13.92-44Z"/><path class="cls-4" d="M389.11,607.5c-6,.17-12-.64-17.92-1.24a265.45,265.45,0,0,0-59.2.63c-1.87.23-3.87.53-5.29,1.77s-1.89,3.76-.43,5a5,5,0,0,0,3.06.78,766.86,766.86,0,0,0,85-2.21c14.14-1.15,28.91-1.89,42.83-4.71,3.27-.66,11.34-3.55,7.19-8.46-2.23-2.63-8.11-.51-10.84-.07C418.75,601.35,404.13,607.07,389.11,607.5Z"/><path class="cls-32" d="M312.8,581.12c1.38-1.62,3.64-2.55,5.54-1.73a7.82,7.82,0,0,1,2.81,2.59q3.37,4.35,6.43,9a8,8,0,0,1,1.6,3.69c.49,6.57-12.64,9.09-16.61,6.31C307.19,597.18,309.05,585.52,312.8,581.12Z"/><path class="cls-32" d="M345.45,599.55a8,8,0,0,0,3.89-6.51c.13-2.9-1.24-5.61-2.59-8.13-2.52-4.71-14.63-19.11-16.73-6.59C328.72,586.11,336.11,604.76,345.45,599.55Z"/><path class="cls-32" d="M348.45,575.94a7,7,0,0,0-1.58,3.32c-.3,2,.67,4,1.61,5.86l2.45,4.75a16.46,16.46,0,0,0,3.18,4.74,7.43,7.43,0,0,0,6.91,1.72,8,8,0,0,0,5.27-5.09c1.11-3.21.27-6.76-.59-10.06C363.4,572.28,355.09,567.63,348.45,575.94Z"/><path class="cls-32" d="M369.41,572.78a4.14,4.14,0,0,0-.67,2.17A74.47,74.47,0,0,0,368,587.2c.14,2.8.77,5.87,2.9,7.5a8,8,0,0,0,2.65,1.22,21.35,21.35,0,0,0,8.34.75,6.07,6.07,0,0,0,2.93-.92,6.8,6.8,0,0,0,2-2.86c2.34-5.23,4.11-16.2-.57-20.74C383,569,372.25,569.28,369.41,572.78Z"/><path class="cls-32" d="M392.59,572a5.76,5.76,0,0,0-1.9,2.21,8.3,8.3,0,0,0-.52,3.13,110.77,110.77,0,0,0,.32,12.46,6.38,6.38,0,0,0,.51,2.36c.89,1.76,3,2.17,4.9,2.37,3.7.41,7.77.72,10.78-1.61,4.34-3.35,6.22-15,3.34-19.83C407,568,396.53,569.05,392.59,572Z"/><path class="cls-32" d="M418,570.83c-2.33,3.06-3.3,7-4.22,10.82l-1.43,5.95c-.55,2.28-1,5,.52,6.72s4.17,1.35,6.17.37a17.91,17.91,0,0,0,8.11-8.91c1.73-3.87,4.42-13.69,1.25-17.49C425.5,564.86,420.19,567.9,418,570.83Z"/><path class="cls-32" d="M427.58,589.62a2.36,2.36,0,0,0,.4,1.79,2.12,2.12,0,0,0,1.34.5c3.06.38,6.64.56,8.71-1.9,1.26-1.5,1.59-3.62,1.88-5.61a29,29,0,0,0,.39-7.64c-1-7.59-4.71-6.62-7.72-1.27C430.14,579.81,427.9,584.5,427.58,589.62Z"/><path class="cls-33" d="M313.51,594.16a5.55,5.55,0,0,0,.88,2.26c1.13,1.52,3.18,1.71,5,1.77.35,0,.78,0,1-.34a1.1,1.1,0,0,0,0-.71,33.71,33.71,0,0,0-2.19-6.64c-.77-1.93-1.16-4.94-2.18-6.54C313.23,585.21,313,591.57,313.51,594.16Z"/><path class="cls-33" d="M333,583.45a26,26,0,0,0,1.9,6.22,15.88,15.88,0,0,0,2.85,5,5.14,5.14,0,0,0,5,1.72.67.67,0,0,0,.37-.22.82.82,0,0,0,.06-.62,19.68,19.68,0,0,0-1.66-4.63L337,581c-.45-1-1.66-3.94-3-3.51S332.89,582.37,333,583.45Z"/><path class="cls-33" d="M351.71,577.9l-1.37,1.38a1.73,1.73,0,0,0-.44.6,1.86,1.86,0,0,0,.16,1.27,59.67,59.67,0,0,0,3.73,7.94,7.39,7.39,0,0,0,2.62,3.06,7.07,7.07,0,0,0,3.82.48,4.33,4.33,0,0,0-1-2.93,35.34,35.34,0,0,1-3.2-6.73c-.78-2.2-.95-4.83-1.83-6.9A5.82,5.82,0,0,0,351.71,577.9Z"/><path class="cls-33" d="M370.87,587.1c.06,1.52.22,3.18,1.24,4.24a5.11,5.11,0,0,0,2.67,1.27,22.21,22.21,0,0,0,6,.51,13.91,13.91,0,0,0-1.34-3.25,53.49,53.49,0,0,1-4-10.81c-.54-2.11-2.25-4.95-3.59-1.91S370.74,584,370.87,587.1Z"/><path class="cls-33" d="M394.18,588.79a2.14,2.14,0,0,0,.63,1.75,1.8,1.8,0,0,0,1,.2h6.08a.67.67,0,0,0,.4-.09.74.74,0,0,0,.21-.58,11.18,11.18,0,0,0-1-4.27c-.89-2.39-2.71-11.64-6.28-11C392.28,575.41,394.18,586.28,394.18,588.79Z"/><path class="cls-33" d="M419.44,575.25a18.42,18.42,0,0,0-1.52,3.55,77.18,77.18,0,0,0-2.61,9.77c-.13.68-.22,1.51.28,2a1.21,1.21,0,0,0,1.57-.12,4,4,0,0,0,.92-1.53c1.59-3.84,3.19-7.69,4.45-11.67.34-1.06,1.91-4.3.56-5S420,574.31,419.44,575.25Z"/><path class="cls-33" d="M430,587.55a.72.72,0,0,0,.05.6.62.62,0,0,0,.46.16,3.09,3.09,0,0,0,2.66-.72,3.41,3.41,0,0,0,.54-1.16c.73-2.28,1-4.76,2-6.94a7.8,7.8,0,0,0,1.06-3.53.69.69,0,0,0-.22-.53.57.57,0,0,0-.38-.07C432.61,575.73,430.61,584.54,430,587.55Z"/><path class="cls-6" d="M450.12,541.72a19.24,19.24,0,0,1-3,5.76,20.16,20.16,0,0,1-5.75,4.53c-16.06,9.34-32.79,7.35-49.77,11.72-20,5.14-42.64,2.3-63,1.31-8.41-.41-17.29-1-24.29-6-12.56-9-17-29.66-35.65-21.83-7.06,3-12.85,8.56-19.55,12.36-5.69,3.23-14.17,5.69-20.1,1.66-6.82-4.65-2.9-11.59-7.5-17-1.53-1.82-4-2.32-6.26-2.53-9.14-.86-18.45,1.2-27.46-.63-7.68-1.56-14.6-5.85-21.36-10.07l-17.93-11.2c-67.19-42-61.86-154.8-14.29-211,24.08-28.44,56.08-47.93,89.13-62.85,22.08-10,44.73-18.78,68.07-24.79,69.73-17.94,144-3.78,200.14,45.37,13.34,11.9,29.66,28,34.46,46.68,5.12,19.86,2.8,45.64,4.12,66.55.37,5.91.84,12.13,3.9,17.07,2.33,3.77,5.93,6.39,8.92,9.58,10.17,10.87,12.56,27.62,11.64,43a127.8,127.8,0,0,1-9.86,42.06c-5.52,13-12.85,19.77-20.35,30.64-6.21,9-4.74,23.35-13.31,29.75-17.47,13-28.77-13.1-40.31-20.15-10.59-6.47-16.53,6.93-19.52,16.4C450.92,539.3,450.55,540.52,450.12,541.72Z"/><path class="cls-34" d="M392.82,449.79Q389,442.92,385.28,436c-1.6-2.93-3.3-6-6-7.84s-6.56-2.16-8.78.27a64.28,64.28,0,0,0-3.28-42.89,58.21,58.21,0,0,0-29.36-29.41A50.46,50.46,0,0,1,357.18,359c6.62,2.36,13,6.16,20,6.2,14.13.09,26.9-15.16,40.38-10.62-10.54,2.26-18.2,12.77-20.86,23.91s-1.27,22.89.4,34.25c1.91,13,4.18,26,8.68,38.16,8.75,23.69,25.29,36.11,46.14,46.75,6.24,3.19,12.64,6.22,18.06,10.82s9.85,11.05,10.59,18.41c-1.81-6.14-7.3-10.9-13.3-11.27a14.24,14.24,0,0,0-14,10,26.54,26.54,0,0,0-10.71-4.52c-.66,4.17-4.72,6.93-8.66,7.26s-7.78-1.19-11.48-2.69c3-14.57-3.07-29.51-10.51-42.13C405.41,472.45,399.07,461.15,392.82,449.79Z"/><path class="cls-20" d="M396.66,558.87c-6.39,1.92-12.83,3.86-19.46,4.37-3.38.27-6.79.16-10.18.34-6,.33-12.05,2.13-18,2.09-6.69-.06-13.57-1.06-20.23-1.75-7.14-.74-18.19-.4-24.44-4.87-12.56-9-17-29.66-35.65-21.83-7.06,3-12.85,8.56-19.55,12.36-5.69,3.23-14.17,5.69-20.1,1.66-6.82-4.65-2.9-11.59-7.5-17-1.53-1.82-4-2.32-6.26-2.53-9.14-.86-18.45,1.2-27.46-.63-7.68-1.56-14.6-5.85-21.36-10.07l-17.93-11.2c-67.19-42-61.86-154.8-14.29-211,24.08-28.44,56.08-47.93,89.13-62.85,29.34-13.25,57.5-22.81,89-27.1-11.13,1.52-26.28,17.28-34.28,25.07a23.91,23.91,0,0,1-5.77,4.65c-3,1.46-6.34,1.4-9.58,1.77-17.43,2-32.34,18.73-33.38,37.45-.21,3.77.07,7.64-1,11.23-1.68,5.59-6.67,9.72-7.9,15.42-1,4.81,0,12,.92,16.85,1.51,8.23,5.68,15.62,10.33,22.37,2.31,3.35,4.89,6.71,8.43,8.45,4.84,2.38,10.61,1.26,15.47-1.08s9.18-5.8,14-8.31c16.83-8.82,38.52-12.17,52.83.81-51.36,5.36-65.75,34.26-101.83,52.83-5.46,2.81-11.12,5.41-15.69,9.67-19.32,18-9.31,62.63-4.77,85.69,1.66,8.44,4.56,17.84,11.92,21.37,5.57,2.67,12.69,1.33,17.35,5.55,6.15,5.57,7.33,19.75,18.07,17.86,4.47-.79,8.2-3.93,12.14-6.32,19.14-11.61,37.69,3.89,55-11.77a145.25,145.25,0,0,0,19-20.87c5-6.73,7.29-13.9,11.54-20.87,10.21-16.78,18.78-34.13,24.6-52.94a166.31,166.31,0,0,1-16.39,57.39c-7.69,15.57-21,36.88-5.19,51.49a109.29,109.29,0,0,0,26,17.74c4.16,2.05,7.07,2.06,11.5,2.88C387.6,553.57,396.1,559,396.66,558.87Z"/><path class="cls-5" d="M450.12,541.72a19.24,19.24,0,0,1-3,5.76,20.16,20.16,0,0,1-5.75,4.53c-16.06,9.34-32.79,7.35-49.77,11.72-20,5.14-42.64,2.3-63,1.31-8.41-.41-17.29-1-24.29-6-12.56-9-17-29.66-35.65-21.83-7.06,3-12.85,8.56-19.55,12.36-5.69,3.23-14.17,5.69-20.1,1.66-6.82-4.65-2.9-11.59-7.5-17-1.53-1.82-4-2.32-6.26-2.53-9.14-.86-18.45,1.2-27.46-.63-7.68-1.56-14.6-5.85-21.36-10.07l-17.93-11.2c-67.19-42-61.86-154.8-14.29-211,24.08-28.44,56.08-47.93,89.13-62.85,22.08-10,44.73-18.78,68.07-24.79,69.73-17.94,144-3.78,200.14,45.37,13.34,11.9,29.66,28,34.46,46.68,5.12,19.86,2.8,45.64,4.12,66.55.37,5.91.84,12.13,3.9,17.07,2.33,3.77,5.93,6.39,8.92,9.58,10.17,10.87,12.56,27.62,11.64,43a127.8,127.8,0,0,1-9.86,42.06c-5.52,13-12.85,19.77-20.35,30.64-6.21,9-4.74,23.35-13.31,29.75-17.47,13-28.77-13.1-40.31-20.15-10.59-6.47-16.53,6.93-19.52,16.4C450.92,539.3,450.55,540.52,450.12,541.72Z"/><path class="cls-26" d="M386.75,485.88c2.72-2.27,5.76-4.79,8.89-3.58,3.55,1.37,4.61,6.85,8.22,8,2.72.89,5.65-1.27,6.83-4,6.63-15.53-10.19-38.61-17.42-50.7-11.4-19.08-17.06.11-17.08,12.88,0,13.27-7.86,25.37-8.25,38.63-.05,1.8.21,3.92,1.67,4.81a4.35,4.35,0,0,0,2.72.37,25.51,25.51,0,0,0,13.47-5.62Z"/><path class="cls-20" d="M504.73,334.81c-1.13,8.73,3.5,18,10.93,21.8a2.15,2.15,0,0,0,1.33.33,2.36,2.36,0,0,0,1.31-1.06,42,42,0,0,0,8.12-24.37q.45,10.46.9,20.91c.49,11.39,1.12,23.32,6.6,33.1-6.54.4-12.28-4.32-17.33-8.78-5.23-4.63-14.12-9.73-16.52-16.86C496.91,350.54,503.67,343.14,504.73,334.81Z"/><path class="cls-26" d="M313.79,492.2c-16.49,10.19-36.07,18.05-54.41,19.5-9.36.74-19.39-1.4-26-9.23-9.19-11-8.77-28.95-7.19-44.69,1-10.22,2.44-20.89,7.56-29.26,4.09-6.69,10.13-11.21,16.14-15.23a213.76,213.76,0,0,1,46.8-23.68c12.32-4.4,26.32-7.32,37.14.46,27.09,19.48,13.76,69-5.52,90.18A67.34,67.34,0,0,1,313.79,492.2Z"/><path class="cls-26" d="M426.23,461.49c15.38,18,36.51,27.2,57.44,33,5.17,1.44,10.66,2.7,15.67.77,10.13-3.92,13.64-18.49,15-31.05,1.8-16.16,2.33-33.61-4.59-47.88A54.87,54.87,0,0,0,497.17,400c-14.81-13.51-33.42-19.38-51.63-23.88-7.59-1.88-15.59-3.55-22.91-.75C393.21,386.61,411.52,444.28,426.23,461.49Z"/><path d="M202.51,343.53a82.57,82.57,0,0,1,6,9.36,71,71,0,0,1,4.69,10.16,56.68,56.68,0,0,1,3.51,22.65,43.49,43.49,0,0,1-2.22,11.69A34.12,34.12,0,0,1,212,403a41.45,41.45,0,0,1-3.24,5c-1.11,1.52-2.18,2.93-3.1,4.31a31.49,31.49,0,0,0-2.33,4.18,38.3,38.3,0,0,0-2.82,9.39c-.59,3.33-.94,6.81-1.23,10.4s-.57,7.32-1.14,11.13a46.6,46.6,0,0,1-3.1,11.58,31.43,31.43,0,0,1-3,5.5,34.48,34.48,0,0,1-4,4.77,43.73,43.73,0,0,1-9.69,7.07,52.45,52.45,0,0,1-10.78,4.46,42.41,42.41,0,0,1-11.4,1.59,29.43,29.43,0,0,1-11.27-2c3.71-1,7.15-1.94,10.53-3s6.64-2.22,9.84-3.47a60.56,60.56,0,0,0,9.18-4.37,36.73,36.73,0,0,0,7.7-6.05,26.08,26.08,0,0,0,2.92-3.67,22.92,22.92,0,0,0,2.13-4.1,41.47,41.47,0,0,0,2.37-9.53c.46-3.4.72-7,1-10.62a101.88,101.88,0,0,1,1.45-11.28,46.76,46.76,0,0,1,3.72-11.4,39.61,39.61,0,0,1,3.17-5.25c1.16-1.61,2.35-3.06,3.44-4.45a39.23,39.23,0,0,0,2.87-4.05,26.41,26.41,0,0,0,2.14-4.31,36.21,36.21,0,0,0,2.29-9.63,48.5,48.5,0,0,0-.07-10.2,93.31,93.31,0,0,0-1.84-10.28c-.78-3.45-1.73-6.9-2.65-10.42S203.23,347.2,202.51,343.53Z"/><path d="M506.93,324.42c-.19,3.78-.59,7.51-1.06,11.22s-1,7.41-1.67,11.09-1.31,7.22-.7,10.21,2.5,5.49,5,8a156.9,156.9,0,0,0,16.36,14.44q4.34,3.3,8.87,6.32c3,2,6.13,3.87,9.28,5.67l-4,7c-3.34-1.9-6.56-4-9.7-6.18s-6.19-4.52-9.11-7A137.52,137.52,0,0,1,503.94,369a31.82,31.82,0,0,1-3.56-5,16.81,16.81,0,0,1-2.06-6.28,21.48,21.48,0,0,1,.33-6.29c.37-2,.87-3.82,1.35-5.61,1-3.6,2-7.19,3.16-10.76S505.5,327.92,506.93,324.42Z"/><path class="cls-35" d="M195.42,379.09c-1-6-2.14-12.17-5.25-17.29s-8.76-9-14.36-7.85c-3.63.72-6.65,3.34-9.34,6-16.64,16.7-27,40.41-28.22,64.79-.47,9.13.4,18.72,5,26.45s13.54,13,21.77,10.57c8-2.37,13-10.92,15.41-19.37s3.17-17.5,6.55-25.57c3.64-8.66,10.29-16.12,11.38-25.54.89-7.7-2.13-15.24-5.21-22.27"/><path class="cls-4" d="M314.31,312.25c20,1.85,31.34,22.6,49.82,26.87,19.7,4.56,40.15-6.94,55.11-19.61,3.62-3.07,7.21-6.36,11.54-8.11,7.5-3,15.84-1,23.79.19s17.07.95,22.63-5.24c4.87-5.42,5.4-14.11,2.92-21.15s-7.44-12.72-12.62-17.81c-38.29-37.67-100.07-57-148.28-30.31-20.7,11.48-37,31.8-44.4,55.45-1.45,4.62-2.53,9.88-.42,14.19s6.67,6.33,11.08,7C295,315.14,304.7,311.36,314.31,312.25Z"/><path class="cls-4" d="M305.69,356.36c-25.63,6.11-49,28.39-70.52,42.51-8.14,5.33-17.05,9.84-23.33,17.53-9.55,11.72-10.94,30.21-3.25,43.41a6.81,6.81,0,0,0,1.79,2.21c2.61,1.86,6.28-.84,7.1-4.08s-.15-6.65-.57-10c-1.41-11.19,3.52-22.43,10.71-30.7s16.45-14.06,25.57-19.73l19.11-11.89c12.6-7.84,25.74-15.87,40.27-17.15s30.83,6.27,35.43,21.07c1,3.13,1.44,6.55,3.34,9.15s6,3.78,8,1.27a7.41,7.41,0,0,0,1.26-3.78c2.08-17.26-10.57-34-26.16-39A52.37,52.37,0,0,0,305.69,356.36Z"/><path class="cls-4" d="M431.85,365.3c10.38-1,20.75,1.74,30.58,5.36,19.62,7.22,38.57,18.77,50.28,36.71a75.17,75.17,0,0,1,11.52,48.75c-.44,4-1.2,8.12-.25,12s4.3,7.58,8.15,7.14c4.25-.48,6.61-5.28,8-9.49,6.41-19.27,8.27-42.47-3.87-58.46-4.92-6.48-11.67-11.12-18.17-15.85-13.6-9.89-26.67-20.71-41.33-28.78-18-9.92-48.25-19.41-66.31-4.2-6.76,5.69-14.37,21.66-11.08,30.49,4.32-3.16,6-9.32,9.85-13.34C415.21,369.45,423.55,366.07,431.85,365.3Z"/><path class="cls-4" d="M363.8,517.95c3.95-1.58,8.58-1.8,12.21.49,1.53,1,2.85,2.34,4.54,2.92,6.7,2.27,12.34-9.21,19.12-7.21,3,.88,4.88,4.17,7.82,5.18,5.84,2,11.25-5.88,17.33-5,3.53.51,6.53,4,10.06,3.45,3.37-.48,5.43-4.58,5.16-8.21s-2.2-6.83-4.08-9.87l-6.78-11c-.7-1.13-1.58-2.38-2.85-2.47a3.67,3.67,0,0,0-2.09.72c-4.59,2.83-8.15,7.21-12.46,10.51s-10.06,5.47-14.87,3.09c-1.64-.81-3-2.09-4.73-2.8-9.53-4-18.73,10.69-26.93,7.27-2-.83-3.3-2.85-4.86-4.43s-4-2.77-5.79-1.56a5.71,5.71,0,0,0-1.69,2.12c-2.1,3.85-6,18-1.35,21.65C355.18,525.7,360.35,519.33,363.8,517.95Z"/><path class="cls-27" d="M482,400.32a36.12,36.12,0,0,0-26.1-5.82c-1.06,6.94-2.12,13.95-1.66,21s2.6,14.12,7.16,19.18a20.72,20.72,0,0,0,21.08,6.07C504.68,434,496.87,410.4,482,400.32Z"/><path class="cls-27" d="M337,409.9a37.66,37.66,0,0,0-23.11-14.22c-3,6.24-6.07,12.55-7.67,19.36s-1.63,14.29,1.23,20.61c3.33,7.36,10.63,12.47,18.27,12.79C348.77,449.41,348.19,424.42,337,409.9Z"/><path class="cls-20" d="M238.54,276.33a7,7,0,0,0,.85,4.48,5.48,5.48,0,0,0,3.58,1.94c4.3.81,8.78-.52,12.58-2.82a50.61,50.61,0,0,0,10.14-8.83c1.54-1.63,3.14-3.46,3.38-5.76.32-3.07-1.89-5.73-4.05-7.79-7.35-7-10-8.34-17.28-1.12A30.94,30.94,0,0,0,238.54,276.33Z"/><path class="cls-20" d="M233,297.93a27.06,27.06,0,0,0-4,16.45,4.6,4.6,0,0,0,.8,2.61,4.32,4.32,0,0,0,2.75,1.19c3.24.54,6.66,1,9.7-.33s5.43-5,4.35-8.31a10.47,10.47,0,0,0-2.58-3.72l-5.19-5.54a7.5,7.5,0,0,0-3.44-2.5,2.59,2.59,0,0,0-3.21,2"/><path class="cls-20" d="M258.34,288.62a12.35,12.35,0,0,0-5.75,2c-1.49,1-2.91,2.67-2.54,4.5a5.59,5.59,0,0,0,1.32,2.31,16,16,0,0,0,4.32,4.14,5,5,0,0,0,5.52-.12,8.53,8.53,0,0,0,2.27-4.18c.8-2.53,1.48-5.72-.34-7.56-1.53-1.55-4-1.19-6-.72"/><path d="M131.17,299.2c1.51.21,2.78.46,4.13.75s2.63.6,3.94.93,2.59.71,3.87,1.08,2.55.79,3.81,1.23a103.79,103.79,0,0,1,14.63,6.26c2.38,1.16,4.62,2.58,6.9,3.89,2.18,1.49,4.44,2.83,6.49,4.48a90.48,90.48,0,0,1,11.68,10.4,89.5,89.5,0,0,0-12.72-8.82c-2.18-1.35-4.54-2.39-6.81-3.57-2.36-1-4.66-2.09-7.08-2.92a99,99,0,0,0-14.61-4.25c-1.24-.26-2.48-.47-3.72-.71s-2.49-.4-3.73-.57-2.49-.31-3.72-.41-2.52-.19-3.59-.21Z"/><path d="M227.89,237.88l-.79.91c-.28.31-.56.69-.84,1-.57.68-1.12,1.42-1.67,2.15s-1.08,1.48-1.61,2.23-1.07,1.49-1.55,2.29-1,1.57-1.49,2.34-.93,1.6-1.4,2.4-.94,1.6-1.37,2.42l-1.28,2.48c-.41.83-.88,1.64-1.25,2.5l-1.13,2.56-1.16,2.55-1,2.62c-.67,1.75-1.37,3.49-1.91,5.29s-1.19,3.57-1.72,5.38c-.88,3.67-2,7.3-2.59,11.05l-.56,2.8a27.09,27.09,0,0,0-.52,2.81l-.8,5.68c-.13,1-.34,1.9-.41,2.86l-.24,2.88-.58,5.78c-.18,1.94-.21,3.87-.33,5.83s-.24,3.91-.42,5.89c-.87-3.83-1.66-7.71-2.25-11.63l-.57-5.92-.24-3c-.09-1,0-2-.07-3l0-6a29.5,29.5,0,0,1,.14-3l.26-3a96.7,96.7,0,0,1,5-23.61l1-2.88,1.15-2.82,1.2-2.8c.4-.94.9-1.83,1.34-2.75l1.37-2.73c.48-.9,1-1.76,1.55-2.65s1-1.77,1.59-2.62,1.15-1.7,1.73-2.54,1.21-1.66,1.84-2.48,1.25-1.63,2-2.4,1.35-1.57,2.1-2.32c.38-.38.72-.75,1.13-1.12s.75-.72,1.27-1.17Z"/><path d="M453.75,225.51c1.74,1.22,3.28,2.37,4.85,3.63s3.08,2.5,4.57,3.81c3,2.59,5.86,5.33,8.65,8.14s5.43,5.77,8,8.77,5,6.19,7.3,9.4,4.44,6.6,6.47,10A91.13,91.13,0,0,1,499,279.89a72.69,72.69,0,0,1,3.79,11.31A55.78,55.78,0,0,1,504.37,303c-1.69-3.59-3.25-7.1-5-10.49s-3.55-6.72-5.51-10-3.9-6.46-6.07-9.55-4.42-6.11-6.78-9.06a201.6,201.6,0,0,0-15.21-16.8c-2.68-2.67-5.44-5.26-8.23-7.81-1.41-1.26-2.81-2.52-4.24-3.75s-2.88-2.49-4.25-3.58Z"/><path d="M326.58,343.53a87.67,87.67,0,0,1,14.91.73,86,86,0,0,1,14.7,3.19,66.12,66.12,0,0,1,14,6.13,52.82,52.82,0,0,1,12.1,9.74l-4.35.34h0a47.21,47.21,0,0,1,11.32-12,54.53,54.53,0,0,1,14.34-7.56,72,72,0,0,1,15.56-3.59,77.63,77.63,0,0,1,15.81-.35,77,77,0,0,0-15.59,1.67,70,70,0,0,0-14.77,4.75,51.2,51.2,0,0,0-12.82,8.2,42.54,42.54,0,0,0-9.25,11.65h0l-2.18,3.16-2.17-2.82A48.13,48.13,0,0,0,368,356.95a62.74,62.74,0,0,0-12.68-7,84,84,0,0,0-14-4.39A87,87,0,0,0,326.58,343.53Z"/><path class="cls-36" d="M312.41,534.65c.37.31.56-.71.1-.78s-.79.44-1,.89A58,58,0,0,0,306,559.5a7,7,0,0,0,.66,3.53,5.91,5.91,0,0,0,3.22,2.29,25.94,25.94,0,0,0,13.42,1.32c4.47-12-1-27.17-11.8-32.87"/><path class="cls-36" d="M348.23,570.4c12.52-6.39-1.54-33.11-6.09-40.79-8.28,4.82-9.55,25.08-7,33.43C337,568.62,343.21,573,348.23,570.4Z"/><path class="cls-36" d="M360.28,562.52c.22,2.42.89,5.22,3.43,6.26a20.74,20.74,0,0,0,4.11.72c2.9.53,5.31,2.41,8.24,2.78a9.78,9.78,0,0,0,9.48-5.25c1.63-3.18,1.51-6.8,1.1-10.26-.84-7-4.16-31.93-16.53-27.92C359.3,532.35,359.61,555.11,360.28,562.52Z"/><path class="cls-36" d="M391.1,563.16c-.16,1.82-.19,3.95,1.19,5.11a5.13,5.13,0,0,0,2.65.94,44.63,44.63,0,0,0,15.35-.45,7.24,7.24,0,0,0,3.56-1.5c2-1.87,1.67-5.2,1.14-8-1.48-7.75-2-32.27-13.17-31.67C389.28,528.3,391.81,554.85,391.1,563.16Z"/><path class="cls-36" d="M434.92,561.82c5.63-7.05-2.27-23.1-5.8-29.68-.79-1.48-1.82-3-3.38-3.38a4,4,0,0,0-3.89,1.83,11.41,11.41,0,0,0-1.62,4.44c-1.58,8-3.33,20.69,3.11,26.67C426.58,564.72,432.13,565.32,434.92,561.82Z"/><path class="cls-36" d="M452.19,555.64l.2-.16a4.84,4.84,0,0,0,1.38-1.43,5,5,0,0,0,.4-2.52c-.32-11.24-6-22.16-14.74-28.38-.36-.26-2.64,10.93-2.7,12A36.92,36.92,0,0,0,438.37,548C441.19,557,444.18,561.79,452.19,555.64Z"/><path class="cls-37" d="M310,560a1.46,1.46,0,0,0,.19.75,1.26,1.26,0,0,0,.57.39,16.65,16.65,0,0,0,9.57,1.08,17.16,17.16,0,0,1-5.68-8.74,36.19,36.19,0,0,1-.91-5.32c-.28-2.32-.25-5.26-1.07-7.35C309.65,546.32,310,553.93,310,560Z"/><path class="cls-37" d="M337.57,555.08c-.07,2.89,0,5.93,1.31,8.46s4.31,4.28,6.8,3.15a1.1,1.1,0,0,0,.42-.3c.41-.53-.09-1.29-.57-1.75a15.08,15.08,0,0,1-3.75-5.07,17.79,17.79,0,0,1-.89-5.13c-.45-6-.91-12.06-.13-18.12C337.64,542.18,337.73,548.5,337.57,555.08Z"/><path class="cls-37" d="M363.43,553.68a34.43,34.43,0,0,0,.2,9.31,2.8,2.8,0,0,0,.52,1.31c.73.85,2,.49,3.09.45,2.36-.1,4.41,1.58,6.56,2.65s5.2,1.26,6.39-.92c-4.53-1.12-7-6.28-8.33-11.06a57.83,57.83,0,0,1-1.8-10.41c-.13-1.6.74-8.92-1.2-9.49C365.26,534.44,363.61,551.24,363.43,553.68Z"/><path class="cls-37" d="M397.07,536.67c-2.88,7.94-2.8,16.78-2.69,25.34a4.24,4.24,0,0,0,.64,2.68,3.22,3.22,0,0,0,2.7.8q4.26-.11,8.5-.54c-1.26.13-4-14.78-4.29-16.39-.84-5.14.1-12.17-1.41-16.82C398.74,532.07,397.69,535,397.07,536.67Z"/><path class="cls-37" d="M422.1,544.42a22.89,22.89,0,0,0,.57,9.72c1,3.08,3.33,5.8,6.26,6.34.86.16,2-.11,2.13-1.07a2.31,2.31,0,0,0-.46-1.39c-4.29-7.29-4.57-15.49-6.15-23.72C423.06,537.13,422.47,541.16,422.1,544.42Z"/><path class="cls-37" d="M443.17,552.15a5.37,5.37,0,0,0,1.05,1.76,2.77,2.77,0,0,0,4.44-1.39c.14-.59-2.3-3.87-2.65-4.57a47,47,0,0,1-2.27-5.27,47.74,47.74,0,0,1-1.6-5.4c-.33-1.41-.3-3.86-1.09-5C439.41,538.62,440.67,546.28,443.17,552.15Z"/><path class="cls-38" d="M225.73,580.48a44.57,44.57,0,0,0,10.69,1c-.28-22.36-26.39-45.89-38.35-63.11-8.61-12.39-15.81-17.18-18.33-32.67C171.8,437,213.48,391.33,249.26,364c37.94-29,85.09-49.36,132.88-53.75,13.68-1.26,31.51-2,45-.08,29.38,4.28,63.17,35.17,80,57.94,29.11,39.29,47.29,79.15,37.62,113.39,21.83-61.75,10.84-107-16.73-149.06S389.23,203.71,389.23,203.71,191.94,322,146.8,399.33c-9.88,16.93-21.33,34.63-27.52,53.37-3.47,10.54-.28,17.18,5.26,26.58,9.6,16.3,23.26,28.49,40.08,34.87C195.9,526,192.43,573,225.73,580.48Z"/><path class="cls-39" d="M144.15,520.47c-11.58-40.85,1.32-85.73,25.62-120.54,46.1-66,125.44-107,203.34-121.26,23.75-4.34,38.06-3.22,58.49,7.57,23.2,12.25,40.55,21.3,59.46,39.44,23.85,22.87,48.32,46.63,61.21,77.07,10.69,25.23,4,55.47-1.82,81.81a133.06,133.06,0,0,1-4.74,17c-5.2,14.17-14.47,25.6-20.69,39.32-2.55,5.62-4.73,11.4-7.52,16.9-5.79,11.46-14,21.46-22.23,31.35q31.29-32.54,60.66-66.86c21.9-25.61,37.13-57.79,45.92-90.3,12-44.29,1.24-92.9-18.42-133.65-26.29-54.5-84.46-97.54-135.11-130.48-22.58-14.68-47.35-25.44-72.51-34.85-18.74-7-41.2-17.74-60.89-20.65-9.46-1.4-24.42,3.79-33.06.07-7.05-3-11.05-15.24-18.26-19.24-9.64-5.35-22,1.18-29.58-1.73-6.64-2.54-10.39-14.15-19.55-18.14-11.49-5-16.59-1.68-21.08-16.46C187,35.63,192.08,19.67,174.26,2.91c5.92,5.56-12.72,44.83-16.18,52-5.76,11.92-15.79,22.14-23.51,32.78-13.78,19-40.22,56.22-7.57,71.27-6.23,10.15-18.48,17.59-25.67,28.24-6.61,9.79-14.11,22-18.83,33.34-3.87,9.26-9.88,28.19-6.42,38.74,4.65,14.17,17.25,13,28,17.93-23.15,21.93-39,66.09-47,96.22-17.06,64.65.65,137.4,45.52,187,18.92,20.91,43.45,38.26,71.38,42.1-16.5-2.27-57.26,48.66-67,60.21-18.63,22.1-43.23,39.7-74.24,37.6,27.25,8.68,46.9,38,75.49,38.32,20.32.2,37.77-15.13,48.35-32.48s16.36-37.23,26.35-54.93c9.1-16.14,27.66-26.21,36.22-40.87,8.32-14.25,7.34-11.52-9.21-21.41C179.9,571,154.53,557.1,144.15,520.47Z"/><path class="cls-40" d="M169.08,176.78c.16.76,3.35.74,3.88.74,7.81-.08,16.07-4.86,22.7-8.49a201.25,201.25,0,0,0,28.07-18.72c10.84-8.56,39.76-32.09,14.56-42.57-3.68-1.53-8.49-.72-12.32-.3-6.07.67-10.86,3.45-15.91,6.69-3.81,2.45-6.78,5.62-10.32,8.42-1.89,1.49-4.09,2.57-5.89,4.18-1.44,1.29-2.25,3-3.65,4.23C179,141.24,165.61,160.27,169.08,176.78Z"/><path class="cls-40" d="M571,373.26c-7.3-27.18-21-51.74-38.91-74.93-19.26-24.93-54-39.43-82.35-51.31-31.3-13.1-65-20.26-98.59-24.11,20.1-14.91,46.47-4.16,69-2.81,11.32.68,22.73,1.71,33.95,2,5.75.12,11.59,2.69,11-6-.4-6-16.7-15.29-21-18.68q-13.28-10.46-27.24-20c-13.69-9.43-29.17-19.6-44.78-24-12.17-3.47-42.72-7.82-47,6.72-.24-.21-.47-.42-.72-.63-31.29-25.86-55.86,6.27-77.92,26.62-14.72,13.58-30.38,25.51-45,39-32.8,30.2-57.39,68.94-69.69,111.89,14.81-2.09,29.86-26.4,40.31-37.19,12.78-13.19,27.6-23.18,42-34.49,21.25-16.65,52-36.37,79-37.24-9.09,8.62-22,12.1-32.88,18.87-11.69,7.28-22.64,18.64-33.75,27.45-17.54,13.91-58.32,44.19-55.6,70.19,8.91.34,16.9-9.7,24.07-14.4A615.45,615.45,0,0,1,301.15,274.2c24.23-9.8,47.6-19.91,73.5-21,75-3.25,110.89,51.42,160.21,96.15,14.22,12.9,17.27,24.61,26.52,40.73,5.6,9.75,6.39,22.54,13.9,31-.76-.86.82-20.13.49-23A171.54,171.54,0,0,0,571,373.26Z"/><path class="cls-40" d="M199.29,81.93c-3-2.74-7.56-3-11.31-4-4.15-1.15-7.84-2.42-12-.5-6.76,3.12-12.77,10.89-9.94,18.7,2.07,5.73,10.48,4.26,15.21,3.49,4.55-.74,10.08-1.71,14.29-3.68,4.05-1.9,8.84-11.07,3.33-14.27a2.92,2.92,0,0,0-2.32-.49"/><path class="cls-41" d="M553.94,524l-.37.37c-6.42,6.54-11.31,15.2-17,22.39-11.68,14.7-24.54,28.66-39.84,39.67,48.76-47.71,87.67-114,86.36-183.85-.63-33.45-16.49-66.51-36.13-93.46-17.95-24.63-51.35-48.25-78.8-59.77-14.22-6-28.34-11.36-43-15.25-7.8-2.07-15.5-4.74-23-6-7.29-1.25-16.53-.78-23.69-4,13.89-5.09,27.84-1.84,41.69.78,30.82,5.83,69,17.77,92.75,39.5,12.45,11.41,25.24,22.29,35.31,35.75,6.24,8.34,20.71,41.76,30.79,41.82,2.18-19.58-20.26-48.78-30.85-63.62-11.27-15.8-22.9-29-38-41-22.59-17.89-41.27-41.7-65.2-58-13.53-9.2-29.93-17.19-44.85-23.25-32.79-13.33-67.3-38.07-104.92-30-19.09,4.11-37.08,16.3-53.65,26.09,11.66-6.89,25.06-33.71,14.22-46-5.32-6-35.51-11.35-41.81-6.24,10.82-8.77.52-18.33-7.8-21.83-10.07-4.24-19.81-5-23.59-17.07-4.19-13.39,3.13-28.47,3.15-42.05,7,11,4.91,24.89,8.22,36.89,4.11,14.91,11.3,14.36,23.63,23,13.94,9.75,11.77,12.59,29.63,12.37,17.7-.22,14.17,7.88,28.87,16.13,10.27,5.76,22.27,2.15,34.16,3.3,43.32,4.19,83.56,28.31,123,48,84.49,42.28,154,109.47,172.41,202.57,10.49,53.08-1.38,105-35.75,147.63C564.94,514.94,559.21,518.76,553.94,524Z"/><path class="cls-5" d="M144.15,520.47c-11.58-40.85,1.32-85.73,25.62-120.54C215,335.06,300.72,287.3,379.14,278.63c23.47-2.59,42.55,1,61.46,12.45,7.95,4.83,16.8,9,24.45,14.22,27.88,18.82,53.6,42.58,72.43,70.59,21.1,31.36,22.33,62.65,16.88,99.22-1.54,10.34-3.11,20.78-6.81,30.55-3.78,10-9.67,18.94-15.51,27.84-18.86,28.72-37.83,57.58-60.89,83l33.65-34.9c29.07-30.15,58.44-60.69,79.44-96.93,17-29.41,28.46-63.38,27.37-97.69-.46-14.31-6.51-24.52-10.16-37.9-4.8-17.57-10.07-34.36-18-50.84-26.29-54.5-84.46-97.54-135.11-130.48-22.58-14.68-47.35-25.44-72.51-34.85-18.74-7-41.2-17.74-60.89-20.65-9.46-1.4-24.42,3.79-33.06.07-7.05-3-11.05-15.24-18.26-19.24-9.64-5.35-22,1.18-29.58-1.73-6.64-2.54-10.39-14.15-19.55-18.14-11.49-5-16.59-1.68-21.08-16.46C187,35.63,192.08,19.67,174.26,2.91c5.92,5.56-12.72,44.83-16.18,52-5.76,11.92-15.79,22.14-23.51,32.78-13.78,19-40.22,56.22-7.57,71.27-6.23,10.15-18.48,17.59-25.67,28.24-6.61,9.79-14.11,22-18.83,33.34-3.87,9.26-9.88,28.19-6.42,38.74,4.65,14.17,17.25,13,28,17.93-23.15,21.93-39,66.09-47,96.22-17.06,64.65.65,137.4,45.52,187,18.92,20.91,43.45,38.26,71.38,42.1-16.5-2.27-57.26,48.66-67,60.21-18.63,22.1-43.23,39.7-74.24,37.6,27.25,8.68,46.9,38,75.49,38.32,20.32.2,37.77-15.13,48.35-32.48s16.36-37.23,26.35-54.93c9.1-16.14,27.66-26.21,36.22-40.87,8.32-14.25,7.34-11.52-9.21-21.41C179.9,571,154.53,557.1,144.15,520.47Z"/><path class="cls-42" d="M142,521.47a94.82,94.82,0,0,1-9.52-44.7C134.26,423.89,183.72,366,226,338.89c-14.35,13.68-40,23.26-58.42,32.43-5.9,2.94-26,16.31-33,10.95-10.08-7.73,9.37-27.2,14.7-33,16.44-18,32.07-38.35,49.87-55.62,16.71-16.22,43.75-47.14,67-52.48-35,14.9-65.65,41.17-92.51,67.48-13.21,12.94-25.73,26.27-39,39-11.21,10.76-28.11,35.63-44.81,34.34-2.18-15,5.54-35.23,10.23-49.27,13.32-39.85,55.62-79,81.87-111.08q9.63-11.77,19.4-23.43c2.59-3.11,5.69-5.9,8-9.14a68.37,68.37,0,0,1,8.22-9.94,34,34,0,0,0,5.92-7.73c-1.82.56-3.35,2.12-5.16,2.91-2.66,1.16-5.48,2.14-8.2,3.24-3.4,1.38-6.88,2.47-10.31,3.8a53.55,53.55,0,0,1-7.7,2.71c-3.31.75-6.43,3.09-9.52,4.67-15.3,7.82-30.2,13.5-30-9,.17-19.46,14.81-35.33,28.17-48,5-4.8,9.59-10.09,14.31-15.19,3.52-3.8,7.1-9.86,12.16-11.68-3.4.36-6.94,2.31-10.36,3.32-5.13,1.52-10,3.37-15.33,3.93-6.27.67-13.95.82-19.43-2.82-6.33-4.2-6.55-14.48-5.14-21.14,1.56-7.34,13.41-20,18.48-26.54,15-19.44,18.38-40.21-1.27-58.68,5.92,5.56-12.72,44.83-16.18,52-5.76,11.92-15.79,22.14-23.51,32.78-13.78,19-40.22,56.22-7.57,71.27-6.23,10.15-18.48,17.59-25.67,28.24-6.61,9.79-14.11,22-18.83,33.34-3.87,9.26-9.88,28.19-6.42,38.74,4.65,14.17,17.25,13,28,17.93-23.15,21.93-39,66.09-47,96.22-17.06,64.65.65,137.4,45.52,187,18.92,20.91,43.45,38.26,71.38,42.1-16.5-2.27-57.26,48.66-67,60.21-18.63,22.1-43.23,39.7-74.24,37.6,27.25,8.68,46.9,38,75.49,38.32,20.32.2,37.77-15.13,48.35-32.48s16.36-37.23,26.35-54.93c9.1-16.14,27.66-26.21,36.22-40.87,8.32-14.25,7.34-11.52-9.21-21.41C182.68,572.66,155.82,550.28,142,521.47Z"/><path class="cls-40" d="M164.65,625.19c-39.88-2.63-52.07,74.51-92.77,75.22-6,24.64,36.36-5.36,42.18-10.31,12.7-10.79,24.63-32.49,41.36-34.69-2.71,22.06-42,35.26-40,59.54,21.29-1.89,31.61-38.62,40.2-53.81,10-17.61,39.79-34.33,4.58-34.45"/><path class="cls-43" d="M260.44,198.26A138.24,138.24,0,0,0,234,217.54c-9.43,8.94-28.44,22.62-30.27,35.54,11.26-.89,24.11-13.83,35.57-18.25,9.45-3.64,19.17-5.87,28.86-8.63,12.09-3.43,35.14-14.76,45.22-3-8.25,12.37-36.93,17.07-49.75,27.07s-34.64,25-37.39,41.84c15.92-8.06,31.19-20,48.26-27.29,15.66-6.69,33.07-9.52,49.53-14.21,26.45-7.54,60.13-6.38,87.67-6.38-13,.74-24.59-5.64-37-7.42-10.81-1.54-39.13-1.22-24-17.51,11.37-12.24,41.61-8.2,56.5-12.92,6-1.92,11.48-2.47,9.25-8.5-1.18-3.19-12.07-10.1-15.22-11.75-38.65-20.31-85.36-13.67-124.1,3.73C271.48,192.34,265.88,195.15,260.44,198.26Z"/><path class="cls-2" d="M173.77,753c6.45,8.61,18.42,9.38,27.5,13.13,3.06,1.26,7.23,1.7,9.09-1,.93-1.37,1-3.14,1-4.79a37.31,37.31,0,0,0-.54-7.61c-.49-2.3-1.41-4.51-1.75-6.84-.46-3.14.15-6.33.76-9.45a51.18,51.18,0,0,1,3.17-11.4c3.74-8.24,12.16-7.9,16.69-14.51a20.51,20.51,0,0,0,2.21-19.71,3.7,3.7,0,0,1-.44-1.49,3.49,3.49,0,0,1,1.31-2.22c8-8.07,11.39-22.84,23.59-25.08,5-.92,7.26-1.63,11.24-5.44,2.38-2.29,4.83-4.66,6.12-7.7a17,17,0,0,0,1.18-6.56A28.14,28.14,0,0,0,266.26,622c-10.06-9.62-23.24-8.79-34.39-1.53-5.76,3.75-10.13,10.34-9.43,17.18.43,4.25,2.73,8.44,1.67,12.57a17.68,17.68,0,0,1-1.87,4.07c-4.15,7.47-5.54,19.5-13.58,24-6.91,3.9-13.52,4.38-15.79,13.64-1,4.1.5,6.11,1.65,9.74,1.5,4.76,1,8.38-.51,13.29l-4.79,15.14a18.8,18.8,0,0,1-2.48,5.61C182.5,741.53,165.71,742.23,173.77,753Z"/><path class="cls-3" d="M173.77,753c6.45,8.61,18.42,9.38,27.5,13.13,4,1.67,14.18.68,9.71-6.2-1.84-2.84-5.43-3.84-8.55-5.14a32.84,32.84,0,0,1-8.53-5.19,4.47,4.47,0,0,1-1.82-2.59,4.76,4.76,0,0,1,.44-2.26L202.41,718a6.68,6.68,0,0,1,2-3.29c1.66-1.19,3.93-.63,5.9-.11,6.23,1.65,14.35,1.66,17.45-4a20.93,20.93,0,0,1-13.26-4.33c-.29-.14-.58-.28-.87-.43a10.24,10.24,0,0,1,7.26-19,71.9,71.9,0,0,1,13-27.15c1-1.31,2.18-2.66,3.8-3,3.69-.83,8.54,3.49,10.63.35,1-1.47.13-3.54-1.22-4.68s-3.08-1.72-4.56-2.69c-3.74-2.46-5.4-7.35-4.85-11.8s3-8.47,5.92-11.84c4.43-5.07,10.39-8.52,17.25-7.9-2.95-8.58-24.2-.79-29,2.34-5.76,3.75-10.13,10.34-9.43,17.18.43,4.25,2.73,8.44,1.67,12.57a17.68,17.68,0,0,1-1.87,4.07c-4.15,7.47-5.54,19.5-13.58,24-6.91,3.9-13.52,4.38-15.79,13.64-1,4.1.5,6.11,1.65,9.74,1.5,4.76,1,8.38-.51,13.29l-4.79,15.14a18.8,18.8,0,0,1-2.48,5.61C182.5,741.53,165.71,742.23,173.77,753Z"/><path class="cls-4" d="M227.12,679.21a13.72,13.72,0,0,0-1.76,4.18c-.48,2.69.67,5.38,1.79,7.87-3.33-.44-7.14-.75-9.64,1.5a7.45,7.45,0,0,0-2,6.71,15,15,0,0,0,3.15,6.51,8.89,8.89,0,0,0,4.29,3.44c2.89.84,6-1.08,7.49-3.7s1.66-5.75,1.66-8.76-.12-6.09.84-8.94a24.56,24.56,0,0,1,3.88-6.58l10.55-14.25a16.23,16.23,0,0,1,3.4-3.72,9.12,9.12,0,0,1,4.82-1.58C239.47,654.71,233.86,667.17,227.12,679.21Z"/><path class="cls-4" d="M266.26,627.2c-3.79-.84-8.29.77-11.54,4.14a17.58,17.58,0,0,0-4.84,12.82,14.25,14.25,0,0,0,8.07,11.73,10.94,10.94,0,0,0,6.4,1.3c6.27-.85,11.56-9,11.48-16a17.12,17.12,0,0,0-9.67-15.07"/><path class="cls-4" d="M208.29,719.86a8.53,8.53,0,0,0-2.14,3.78c-2.09,5.85-4.2,11.74-5.16,17.88-.37,2.35-.51,5,.83,6.92a10.53,10.53,0,0,0,4.42,3.14c.82.39,1.89.75,2.55.13a2.33,2.33,0,0,0,.5-1.73c.08-8.06.38-16.41,4-23.63.74-1.5,3.54-5.26,2.42-6.92S209.56,718.77,208.29,719.86Z"/><path class="cls-5" d="M173.77,753c6.45,8.61,18.42,9.38,27.5,13.13,3.06,1.26,7.23,1.7,9.09-1,.93-1.37,1-3.14,1-4.79a37.31,37.31,0,0,0-.54-7.61c-.49-2.3-1.41-4.51-1.75-6.84-.46-3.14.15-6.33.76-9.45a51.18,51.18,0,0,1,3.17-11.4c3.74-8.24,12.16-7.9,16.69-14.51a20.51,20.51,0,0,0,2.21-19.71,3.7,3.7,0,0,1-.44-1.49,3.49,3.49,0,0,1,1.31-2.22c8-8.07,11.39-22.84,23.59-25.08,5-.92,7.26-1.63,11.24-5.44,2.38-2.29,4.83-4.66,6.12-7.7a17,17,0,0,0,1.18-6.56A28.14,28.14,0,0,0,266.26,622c-10.06-9.62-23.24-8.79-34.39-1.53-5.76,3.75-10.13,10.34-9.43,17.18.43,4.25,2.73,8.44,1.67,12.57a17.68,17.68,0,0,1-1.87,4.07c-4.15,7.47-5.54,19.5-13.58,24-6.91,3.9-13.52,4.38-15.79,13.64-1,4.1.5,6.11,1.65,9.74,1.5,4.76,1,8.38-.51,13.29l-4.79,15.14a18.8,18.8,0,0,1-2.48,5.61C182.5,741.53,165.71,742.23,173.77,753Z"/><path class="cls-6" d="M212,776.56c-1.06-11.7-14.7-13.14-22-18-11.11-7.45-26.37-9.91-35.69,1.73-4,5-1.35,14.85-6.34,18.75-1.11.86-2.51,1.25-3.68,2a6.78,6.78,0,0,0-2.5,7.91,23.9,23.9,0,0,1,1.09,2.52,8.49,8.49,0,0,1,.09,2.94,18.55,18.55,0,0,1-1.24,6.12,24,24,0,0,0-1.06,2.27c-1.2,3.57,2,7.47,5.68,8.24,1.92.4,3,1.61,5,1.59a6.69,6.69,0,0,0,5.3-3.46c2.21,6.08,4.49,10.84,8.94,12.46s11.63,1.79,13.52-2.2c1.79,4.12,3.06,7.9,6.82,9.54,4.87,2.13,9.51,1.27,13.62-1.87,2-1.5,3.79-3.73,3.42-6.17-.31-2.06-2.11-3.65-2.43-5.71-.46-3,2.25-5.55,2.5-8.54s-1.82-5.39-4.07-7.17c5-2.59,4.82-5.8,7.44-10.14C208.81,785.45,212.46,781.5,212,776.56Z"/><path class="cls-4" d="M181.45,765.32c1.1,1.12,2.78,1.36,4.33,1.62a45,45,0,0,1,17.29,6.84c-4.89,5.59-13.32,6.56-20.65,5.33-2.77-.47-5.54-1.19-8.35-1s-5.74,1.53-6.91,4.08c-2.12,4.62,1.84,5.63,4.87,6a21.48,21.48,0,0,1,13,5.69,3.12,3.12,0,0,0,1,.74,3.07,3.07,0,0,0,1.82-.09c3.52-.86,8.89.38,11.91-1.65,2.25-1.51,2.36-4.68,3.23-7.24s2.79-4.86,4.28-7.24,2.62-5.29,1.78-8-3.41-4.44-5.81-6c-4.18-2.63-8.12-4.58-13.13-4.2C188,760.42,177.24,761,181.45,765.32Z"/><path class="cls-3" d="M154.37,760.3c-4,5-1.35,14.85-6.34,18.75-1.11.86-2.51,1.25-3.68,2a6.78,6.78,0,0,0-2.5,7.91,23.9,23.9,0,0,1,1.09,2.52,8.49,8.49,0,0,1,.09,2.94,18.55,18.55,0,0,1-1.24,6.12,24,24,0,0,0-1.06,2.27c-1.2,3.57,2,7.47,5.68,8.24,1.92.4,3,1.61,5,1.59a6.69,6.69,0,0,0,5.3-3.46c2.21,6.08,4.49,10.84,8.94,12.46s11.63,1.79,13.52-2.2c-.62,1.3,3.39,7.14,4.47,8,2.41,1.9,6.77,2.57,9.76,3.23a2.08,2.08,0,0,0,1,.05c1-.28,1-1.87.21-2.6-2.21-2.09-3.31-1.42-4.68-4.58a30.31,30.31,0,0,1-2.21-8.59,32,32,0,0,1,2.54-16.72c-3.45-2.12-8.3-.49-10.74,2.75s-2.91,7.57-2.56,11.61c.22,2.48.61,5.31-1,7.17-2.15,2.41-6.11,1.43-9-.09-1.67-.89-3.37-2-4.13-3.75-.88-2-.29-4.33.44-6.4a49.94,49.94,0,0,1,10.25-17.06,12.59,12.59,0,0,0-11.34,2,17.77,17.77,0,0,0-6.37,9.86c-.44,1.67-.74,3.51-2,4.73s-3.78,1.2-4.3-.45a3.7,3.7,0,0,1,0-1.53l2.74-23.75a10.52,10.52,0,0,1,7.94,3.49.81.81,0,0,0-.08,1.13l-1.66.61c1.32.17,1.64-1.77,1.49-3.09a26.14,26.14,0,0,1,1.15-10.9,4.8,4.8,0,0,1,.9-1.78,4.32,4.32,0,0,1,2.14-1.14c9-2.41,17.57,6.38,26.84,5.72a23.79,23.79,0,0,0,8.16-2.5A78.38,78.38,0,0,0,174.59,766a4.69,4.69,0,0,1-1.9-.62c-1.27-.88-1.28-2.89-.39-4.15a7.11,7.11,0,0,1,3.89-2.37,23.48,23.48,0,0,1,14,.13C180,750.55,163.17,749.31,154.37,760.3Z"/><path class="cls-4" d="M155,786.53a4.35,4.35,0,0,0-.75,1.5,41.89,41.89,0,0,0-1.08,23.12l.94.29c1.47-3.14,2-6.61,3-9.93s5-7.11,5.06-10.28C162.23,788.48,157.63,783.54,155,786.53Z"/><path class="cls-4" d="M169.46,816.49c.65,5.11,5.29,7.36,7.61,1.68,2.09-5.12-.17-11.62,3.08-16.1a3.94,3.94,0,0,0,.86-1.52,3.17,3.17,0,0,0-.71-2.15,6.14,6.14,0,0,0-1.75-2c-2.34-1.48-4.5.76-5.43,2.68C170.49,804.47,168.7,810.52,169.46,816.49Z"/><path class="cls-4" d="M191.74,813.19c.15,3.72,1.34,7.54,4,10.12a3,3,0,0,0,2.84,1.08,2.67,2.67,0,0,0,1.24-1c1.43-1.88,1.58-4.4,1.66-6.76.16-4.33,2.7-14.83-2.53-17.13C191.87,796.39,191.58,809.17,191.74,813.19Z"/><path class="cls-5" d="M212,776.56c-1.06-11.7-14.7-13.14-22-18-11.11-7.45-26.37-9.91-35.69,1.73-4,5-1.35,14.85-6.34,18.75-1.11.86-2.51,1.25-3.68,2a6.78,6.78,0,0,0-2.5,7.91,23.9,23.9,0,0,1,1.09,2.52,8.49,8.49,0,0,1,.09,2.94,18.55,18.55,0,0,1-1.24,6.12,24,24,0,0,0-1.06,2.27c-1.2,3.57,2,7.47,5.68,8.24,1.92.4,3,1.61,5,1.59a6.69,6.69,0,0,0,5.3-3.46c2.21,6.08,4.49,10.84,8.94,12.46s11.63,1.79,13.52-2.2c1.79,4.12,3.06,7.9,6.82,9.54,4.87,2.13,9.51,1.27,13.62-1.87,2-1.5,3.79-3.73,3.42-6.17-.31-2.06-2.11-3.65-2.43-5.71-.46-3,2.25-5.55,2.5-8.54s-1.82-5.39-4.07-7.17c5-2.59,4.82-5.8,7.44-10.14C208.81,785.45,212.46,781.5,212,776.56Z"/><path class="cls-7" d="M230.13,805.2c1.81-2.16,3.91-4.54,3.53-7.38a6.2,6.2,0,0,0-3.48-4.72c-1.51-.69-3.22-.75-4.82-1.19s-3.24-1.51-3.49-3.15a6.28,6.28,0,0,1,.23-2.2,12.13,12.13,0,0,0,.19-4.94c-2-9.54-13.22-6.6-16.36.32-1.71,3.76-1.7,8.09-1,12.18a3.17,3.17,0,0,0,1.07,2.26c2,1.33,4.9-.44,7.12,1.13,2.53,1.79,1.88,4.35,2.06,7,.19,2.91,2.83,5.27,5.71,5.72,3.58.56,6.17-1,8.14-3.62C229.32,806.18,229.72,805.69,230.13,805.2Z"/><path d="M146.8,783.7a18.46,18.46,0,0,1,5.94-.73,12.69,12.69,0,0,1,6,1.67,11.3,11.3,0,0,1,4.3,4.81,18.89,18.89,0,0,1,1.69,6.2h0l-1.53,1.78h0a3.26,3.26,0,0,0-1,.78,9.47,9.47,0,0,0-1.14,1.64,15.72,15.72,0,0,0-1.54,4,13.66,13.66,0,0,0-.37,4.15,7.33,7.33,0,0,0,1.07,3.46L155.89,814a12.15,12.15,0,0,1-1.37-5.85,18,18,0,0,1,.92-5.44,19.68,19.68,0,0,1,2.35-4.87,13,13,0,0,1,1.83-2.19,5.65,5.65,0,0,1,3.16-1.62h0l-1.53,1.79a16,16,0,0,0-.63-5.36,9.12,9.12,0,0,0-2.89-4.38,11.39,11.39,0,0,0-5.08-2.24A18,18,0,0,0,146.8,783.7Z"/><path d="M162.11,791.68a34.64,34.64,0,0,1,5.76-.83,25,25,0,0,1,5.88.26,9.19,9.19,0,0,1,5.54,3,13,13,0,0,1,2.82,5.2h0l.16.43-.38.48a14.34,14.34,0,0,0-2.31,4.31,14.79,14.79,0,0,0-.81,4.76c0,.4,0,.8.05,1.19a6.65,6.65,0,0,0,.13,1.18l.2,1.17.32,1.15.16.57.22.56.44,1.11c.33.73.73,1.43,1.08,2.14l-4.52,2.14c-.31-.93-.64-1.84-.9-2.78l-.33-1.43-.16-.71-.09-.73-.17-1.46c0-.49,0-1,0-1.47a9.12,9.12,0,0,1,.06-1.47c.06-.49.06-1,.17-1.45a17.73,17.73,0,0,1,1.82-5.47A16.21,16.21,0,0,1,180.7,799l-.22.91h0a12,12,0,0,0-3-3.83,6.72,6.72,0,0,0-1.95-1.11,7.07,7.07,0,0,0-2.14-.35,21.39,21.39,0,0,0-4.93.49,38.39,38.39,0,0,0-4.86,1.34Z"/><path class="cls-6" d="M199,799.53s-7.61-3-18.74.1"/><path d="M198.08,801.86a7.89,7.89,0,0,0-.86-.35c-.33-.12-.67-.23-1-.33-.69-.2-1.4-.39-2.12-.54a31.77,31.77,0,0,0-4.43-.59,34.81,34.81,0,0,0-4.54,0,40,40,0,0,0-4.57.6l-.59-2.12a43.08,43.08,0,0,1,4.72-1.35,38.53,38.53,0,0,1,4.91-.77,35.83,35.83,0,0,1,5-.08c.85,0,1.7.13,2.56.25.43.06.86.14,1.3.22a13.45,13.45,0,0,1,1.41.35Z"/><path d="M167.76,754.58c-.34.19-.86.51-1.26.79a6.85,6.85,0,0,0-1.07.91,2.76,2.76,0,0,0-.57.78.55.55,0,0,0-.07.35,1.79,1.79,0,0,0,.27.63,6.26,6.26,0,0,0,.87,1,16.94,16.94,0,0,0,2.68,2c2,1.26,4.22,2.63,6.46,3.84a32.85,32.85,0,0,0,7.1,2.86,57.32,57.32,0,0,0,7.49,1.58c2.52.35,5.06.56,7.52.66,1.23.06,2.44.08,3.6,0a17.88,17.88,0,0,0,3.14-.32,5.22,5.22,0,0,0,.91-.27c.14-.08,0,.07-.07.32s.12.18.11-.14a7,7,0,0,0-.17-1.29l4.38-2.41a7.5,7.5,0,0,1,1.31,2.27,5.65,5.65,0,0,1,.09,3.67,5.47,5.47,0,0,1-1.13,1.91,6.26,6.26,0,0,1-1.51,1.19,8.84,8.84,0,0,1-2.75.94,23.05,23.05,0,0,1-8.67-.64,72.15,72.15,0,0,1-7.65-2.39l-7.4-2.66a77.22,77.22,0,0,0-7.49-2.32,42.77,42.77,0,0,1-7.64-2.52,19.31,19.31,0,0,1-3.74-2.34,10.69,10.69,0,0,1-1.77-1.85,6.7,6.7,0,0,1-1.24-2.89,5.91,5.91,0,0,1,.49-3.42,8,8,0,0,1,1.72-2.32,11.69,11.69,0,0,1,2-1.47,12.2,12.2,0,0,1,2.14-1.05Z"/><path d="M196.36,689.57c-.49-.53-1.42-.25-1.92.39a3.4,3.4,0,0,0-.51,2.54,8.17,8.17,0,0,0,1.09,3,12.8,12.8,0,0,0,2.16,2.71,26,26,0,0,0,6,4.15,51,51,0,0,0,6.93,3,50.22,50.22,0,0,0,7.29,2,26.76,26.76,0,0,0,7.21.56c2.22-.2,4.24-1,5.12-2.28a3.81,3.81,0,0,0,.79-2.18,1.8,1.8,0,0,0-.17-.81,1.38,1.38,0,0,0-.43-.44l4.61-4.23a7.76,7.76,0,0,1,1.65,6.07,9.78,9.78,0,0,1-2.29,5,9.93,9.93,0,0,1-2,1.81,11,11,0,0,1-2.29,1.16,15.18,15.18,0,0,1-4.64.91,34,34,0,0,1-8.48-.95,54.6,54.6,0,0,1-7.9-2.36,50.75,50.75,0,0,1-7.42-3.57,31.4,31.4,0,0,1-6.72-5.1,18.23,18.23,0,0,1-2.7-3.5,12.78,12.78,0,0,1-1.67-4.34,8.66,8.66,0,0,1,.66-5.14,9.51,9.51,0,0,1,4.06-4.44Z"/><path class="cls-2" d="M284.38,908.22a7.78,7.78,0,0,0,4.85-7.41c-.23-10.92-7.62-19.94-6.55-31.42.21-2.26.45-4.6,1.8-6.6,1.18-1.74,3.1-3.09,4.46-4.75,8.15-10-7.87-22.5-5.49-34.21,1.26-6.2,7.49-11,11-16.62,7.28-11.88-.25-31.28-16.4-36.76-15.69-5.33-32.81,5.11-36,17.18a19.79,19.79,0,0,0-.17,9.36,23.4,23.4,0,0,0,7.06,12c1.6,1.49,3.45,2.86,4.55,4.61,1.24,2,1.42,4.22,1.58,6.4q.41,5.59.83,11.18a14.72,14.72,0,0,1-.34,5.79c-1.71,5.14-8.88,9-8.07,14.3.45,2.93,3.31,5.21,5.45,7.63,6,6.82,6.82,15,7.36,23,.25,3.63.48,7.37-1.07,10.79-2,4.49-9.79,11.21-5.27,16.21,1.46,1.61,3.5,3,4.38,4.81,1.93,4-2.34,8.11-6,11.35s-7,8.16-3.59,11.55c1.8,1.79,4.91,2.37,7.8,2.62a56.57,56.57,0,0,0,13.51-.48c3.68-.58,7.43-1.52,11.09-.9,11.81,2,14.05,7.8,26.21,1.09,6.35-3.5,17.19-13.8,13-20.57S292.59,909.79,284.38,908.22Z"/><path class="cls-3" d="M261.28,798.6a21.24,21.24,0,0,1-2.51-15.49c.33-1.44,5.49-14,7.06-13.35-9.29-3.7-21.66,9.68-23.85,17.89a19.79,19.79,0,0,0-.17,9.36,23.4,23.4,0,0,0,7.06,12c1.6,1.49,3.45,2.86,4.55,4.61,1.24,2,1.42,4.22,1.58,6.4q.41,5.59.83,11.18a14.72,14.72,0,0,1-.34,5.79c-1.71,5.14-8.88,9-8.07,14.3.45,2.93,3.31,5.21,5.45,7.63,6,6.82,6.82,15,7.36,23,.25,3.63.48,7.37-1.07,10.79-2,4.49-9.79,11.21-5.27,16.21,1.46,1.61,3.5,3,4.38,4.81,1.93,4-2.34,8.11-6,11.35s-7,8.16-3.59,11.55c1.8,1.79,4.91,2.37,7.8,2.62a56.57,56.57,0,0,0,13.51-.48c3.68-.58,7.43-1.52,11.09-.9,7,1.18,14.63,6.12,21.85,3.64a31.44,31.44,0,0,0,8-4.66,7.73,7.73,0,0,0,3-3.22,33.38,33.38,0,0,1-9.59-4.46c-5.14-3.48-8.63-2.65-14.84-2.69l-14.81-.1a7.51,7.51,0,0,0-3.35.49c-1.56.76-2.38,2.47-3.56,3.75s-3.39,2.09-4.55.79c-1.26-1.56-.75-4,.56-5.5a15.36,15.36,0,0,1,5-3.27,56.81,56.81,0,0,0,15.91-12c-2.49-1.46-5.61-.38-8.46.08s-6.63-.45-7-3.31c-.21-1.76,1-3.3,2-4.79,3.89-6,3.91-13.76,2-20.64s-5.38-13.16-8.28-19.67c-.58-1.31-1.1-3-.17-4.06s2.45-.9,3.75-.64a58.56,58.56,0,0,1,13.8,4.55,13.1,13.1,0,0,0,4.77-8.73c-8.49-3.84-18-7.76-26.85-5,6.08-6,7.7-15,8.27-23.54.46-6.85.36-14.09-3.05-20C264.28,802.73,262.6,800.77,261.28,798.6Z"/><path class="cls-5" d="M284.38,908.22a7.78,7.78,0,0,0,4.85-7.41c-.23-10.92-7.62-19.94-6.55-31.42.21-2.26.45-4.6,1.8-6.6,1.18-1.74,3.1-3.09,4.46-4.75,8.15-10-7.87-22.5-5.49-34.21,1.26-6.2,7.49-11,11-16.62,7.28-11.88-.25-31.28-16.4-36.76-15.69-5.33-32.81,5.11-36,17.18a19.79,19.79,0,0,0-.17,9.36,23.4,23.4,0,0,0,7.06,12c1.6,1.49,3.45,2.86,4.55,4.61,1.24,2,1.42,4.22,1.58,6.4q.41,5.59.83,11.18a14.72,14.72,0,0,1-.34,5.79c-1.71,5.14-8.88,9-8.07,14.3.45,2.93,3.31,5.21,5.45,7.63,6,6.82,6.82,15,7.36,23,.25,3.63.48,7.37-1.07,10.79-2,4.49-9.79,11.21-5.27,16.21,1.46,1.61,3.5,3,4.38,4.81,1.93,4-2.34,8.11-6,11.35s-7,8.16-3.59,11.55c1.8,1.79,4.91,2.37,7.8,2.62a56.57,56.57,0,0,0,13.51-.48c3.68-.58,7.43-1.52,11.09-.9,11.81,2,14.05,7.8,26.21,1.09,6.35-3.5,17.19-13.8,13-20.57S292.59,909.79,284.38,908.22Z"/><path class="cls-4" d="M267.76,794.76c1.21,3.95,3.32,7.57,4.71,11.45a34,34,0,0,1,1.14,19c-.9,3.95-2.53,7.86-2.17,11.89s3.77,8.23,7.75,7.5q-1.61-12.37-2.32-24.83a15.6,15.6,0,0,1,.43-5.92c1-2.88,3.46-4.92,5.53-7.14,7.24-7.77,8.79-20.25-1.28-26.56C271.28,773.69,265,785.7,267.76,794.76Z"/><path class="cls-4" d="M278,883.58a21.18,21.18,0,0,1-1.22,13c-1.51,3.21-4.13,6.45-3.18,9.87,2.8.74,5.81-1.18,7-3.79s1-5.7.3-8.5c-.91-3.47-3-6.78-3.66-10.25-1-4.87-.3-10.64-.42-15.61A5.09,5.09,0,0,0,276,865c-1.15-1.33-3.24-1.1-5-.76C269.95,871.22,276.65,876.92,278,883.58Z"/><path class="cls-4" d="M294.85,915c-3.21-.52-6.56-.84-9.66.12s-5.92,3.5-6.32,6.72c4.35.56,8.71-.61,13.07-1.11s9.2-.17,12.45,2.77c3,2.74,9.3,2.5,7-2.89C309.67,916.64,298.36,915.55,294.85,915Z"/><path class="cls-2" d="M331.12,919.25a8.21,8.21,0,0,1,.79.39c1.5.85,2.65,2.09,4.32,2.7,2.91,1.08,6.47,0,9.52.77a6.21,6.21,0,0,1,4.38,3.92,6,6,0,0,1-1.08,5.25c-1.45,2-3.15,2.06-6,2.61,1.39.73,1.08,3.64.81,4.94a8.18,8.18,0,0,1-2.13,3.53,10.76,10.76,0,0,1-5.49,3.73c-2.26.53-4.67,0-7,.06a2.58,2.58,0,0,0-1.17.23,2.26,2.26,0,0,0-.75.85,7.7,7.7,0,0,1-5.59,3.09,8.75,8.75,0,0,1-6.42-1.84c-.84-.72-1.44-1.61-2.31-2.31-1.51-1.23-3.68-1.79-5.76-2.3-1.69-.42-3.4-.81-5.08-1.26-.73-.2-2.82-1.16-3.47-1a28.09,28.09,0,0,0,12.7-8.36c3.25-3.59,5.69-7.58,8.46-11.42,1.27-1.75,2.6-3.84,5.25-4.3A10.77,10.77,0,0,1,331.12,919.25Z"/><path class="cls-3" d="M298.7,942.65a14.45,14.45,0,0,0,3.92-2c.63-.45,1.06-1.15,1.67-1.63,1.17-.91,3.49-.28,4.77.05a32.43,32.43,0,0,1,11.47,5.58,10.72,10.72,0,0,0,2.79,1.77,3,3,0,0,0,3.11-.49,2.94,2.94,0,0,0,.24-3.36A8.6,8.6,0,0,0,324.2,940l-7.37-5.77c-.63-.49-1.28-1.47-.64-2a1.2,1.2,0,0,1,.81-.16c2.63.16,4.83,1.95,7,3.41a55.83,55.83,0,0,0,10.83,5.28,10.52,10.52,0,0,0,3.59.91,3.71,3.71,0,0,0,3.22-1.52,3.76,3.76,0,0,0-.59-4.25,11,11,0,0,0-3.77-2.56l-13.72-6.74,13.26,1.58a13.54,13.54,0,0,0,4.11.07,4.58,4.58,0,0,0,3.3-2.23,2.81,2.81,0,0,0-.9-3.63,6.08,6.08,0,0,1,5.19,9.84c-.76.91-4.2,3.28-5.47,2.62,1.39.73,1.08,3.64.81,4.94a8.18,8.18,0,0,1-2.13,3.53,10.76,10.76,0,0,1-5.49,3.73c-2.26.53-4.67,0-7,.06a2.58,2.58,0,0,0-1.17.23,2.26,2.26,0,0,0-.75.85,7.7,7.7,0,0,1-5.59,3.09,8.75,8.75,0,0,1-6.42-1.84c-.84-.72-1.44-1.61-2.31-2.31-1.51-1.23-3.68-1.79-5.76-2.3-1.69-.42-3.4-.81-5.08-1.26C301.44,943.42,299.35,942.46,298.7,942.65Z"/><path class="cls-5" d="M331.12,919.25a8.21,8.21,0,0,1,.79.39c1.5.85,2.65,2.09,4.32,2.7,2.91,1.08,6.47,0,9.52.77a6.21,6.21,0,0,1,4.38,3.92,6,6,0,0,1-1.08,5.25c-1.45,2-3.15,2.06-6,2.61,1.39.73,1.08,3.64.81,4.94a8.18,8.18,0,0,1-2.13,3.53,10.76,10.76,0,0,1-5.49,3.73c-2.26.53-4.67,0-7,.06a2.58,2.58,0,0,0-1.17.23,2.26,2.26,0,0,0-.75.85,7.7,7.7,0,0,1-5.59,3.09,8.75,8.75,0,0,1-6.42-1.84c-.84-.72-1.44-1.61-2.31-2.31-1.51-1.23-3.68-1.79-5.76-2.3-1.69-.42-3.4-.81-5.08-1.26-.73-.2-2.82-1.16-3.47-1a28.09,28.09,0,0,0,12.7-8.36c3.25-3.59,5.69-7.58,8.46-11.42,1.27-1.75,2.6-3.84,5.25-4.3A10.77,10.77,0,0,1,331.12,919.25Z"/><path class="cls-21" d="M320.92,925.24c2,3.28,6.44,5.09,10.62,6.63,4.72,1.73,10,3.43,15,2.4"/><path class="cls-21" d="M315,934.37a66.11,66.11,0,0,1,8.62,5.75,17.4,17.4,0,0,1,5.67,7.59l-.92.54"/><path class="cls-21" d="M249.9,854.22s7.65,0,18.75-6.09c5.15,3.93,19.1,4.54,22.4,5.6"/><path class="cls-21" d="M253.9,908.94s8.62,8.28,30.48-.71"/><path class="cls-21" d="M258.12,918.41s25,8.56,11.91,20.37"/><path class="cls-2" d="M419.6,903.7a7.78,7.78,0,0,0,4.85-7.41c-.23-10.92-7.62-19.94-6.55-31.42.21-2.26.45-4.6,1.8-6.6,1.17-1.74,3.1-3.09,4.46-4.75,8.15-10-7.87-22.5-5.49-34.21,1.26-6.2,7.49-11,11-16.62,7.28-11.88-.26-31.28-16.4-36.76-15.69-5.33-32.81,5.11-36,17.18a19.77,19.77,0,0,0-.17,9.36,23.42,23.42,0,0,0,7.06,12c1.6,1.49,3.45,2.86,4.55,4.61,1.24,2,1.42,4.22,1.58,6.4l.83,11.18a14.69,14.69,0,0,1-.34,5.79c-1.71,5.14-8.88,9-8.07,14.3.45,2.93,3.31,5.21,5.45,7.63,6,6.82,6.82,15,7.36,23,.25,3.63.47,7.37-1.07,10.79-2,4.49-9.79,11.21-5.27,16.21,1.46,1.61,3.5,3,4.38,4.81,1.93,4-2.34,8.11-6,11.35s-7,8.16-3.59,11.55c1.8,1.79,4.91,2.37,7.8,2.62a56.58,56.58,0,0,0,13.51-.48c3.67-.58,7.42-1.52,11.09-.9,11.81,2,14.06,7.8,26.21,1.09,6.35-3.5,17.19-13.8,13-20.57S427.82,905.27,419.6,903.7Z"/><path class="cls-3" d="M396.51,794.07A21.24,21.24,0,0,1,394,778.58c.33-1.44,5.49-14,7.06-13.35-9.29-3.7-21.67,9.68-23.85,17.89a19.77,19.77,0,0,0-.17,9.36,23.42,23.42,0,0,0,7.06,12c1.6,1.49,3.45,2.86,4.55,4.61,1.24,2,1.42,4.22,1.58,6.4l.83,11.18a14.69,14.69,0,0,1-.34,5.79c-1.71,5.14-8.88,9-8.07,14.3.45,2.93,3.31,5.21,5.45,7.63,6,6.82,6.82,15,7.36,23,.25,3.63.47,7.37-1.07,10.79-2,4.49-9.79,11.21-5.27,16.21,1.46,1.61,3.5,3,4.38,4.81,1.93,4-2.34,8.11-6,11.35s-7,8.16-3.59,11.55c1.8,1.79,4.91,2.37,7.8,2.62a56.58,56.58,0,0,0,13.51-.48c3.67-.58,7.42-1.52,11.09-.9,7,1.18,14.63,6.12,21.85,3.64a31.43,31.43,0,0,0,8-4.66,7.72,7.72,0,0,0,3-3.22,33.34,33.34,0,0,1-9.59-4.46c-5.14-3.48-8.64-2.65-14.84-2.69l-14.81-.1a7.51,7.51,0,0,0-3.35.49c-1.56.76-2.38,2.47-3.56,3.75s-3.39,2.09-4.55.79c-1.26-1.56-.75-4,.56-5.5a15.37,15.37,0,0,1,5-3.27,56.8,56.8,0,0,0,15.91-12c-2.49-1.46-5.61-.38-8.46.08s-6.63-.45-7-3.31c-.21-1.76,1-3.3,2-4.79,3.89-6,3.91-13.76,2-20.64s-5.38-13.16-8.28-19.67c-.58-1.31-1.1-3-.17-4.06s2.44-.9,3.75-.64a58.57,58.57,0,0,1,13.8,4.55,13.11,13.11,0,0,0,4.77-8.73c-8.49-3.84-18-7.76-26.85-5,6.08-6,7.7-15,8.27-23.54.46-6.85.36-14.09-3.05-20C399.51,798.2,397.83,796.25,396.51,794.07Z"/><path class="cls-5" d="M419.6,903.7a7.78,7.78,0,0,0,4.85-7.41c-.23-10.92-7.62-19.94-6.55-31.42.21-2.26.45-4.6,1.8-6.6,1.17-1.74,3.1-3.09,4.46-4.75,8.15-10-7.87-22.5-5.49-34.21,1.26-6.2,7.49-11,11-16.62,7.28-11.88-.26-31.28-16.4-36.76-15.69-5.33-32.81,5.11-36,17.18a19.77,19.77,0,0,0-.17,9.36,23.42,23.42,0,0,0,7.06,12c1.6,1.49,3.45,2.86,4.55,4.61,1.24,2,1.42,4.22,1.58,6.4l.83,11.18a14.69,14.69,0,0,1-.34,5.79c-1.71,5.14-8.88,9-8.07,14.3.45,2.93,3.31,5.21,5.45,7.63,6,6.82,6.82,15,7.36,23,.25,3.63.47,7.37-1.07,10.79-2,4.49-9.79,11.21-5.27,16.21,1.46,1.61,3.5,3,4.38,4.81,1.93,4-2.34,8.11-6,11.35s-7,8.16-3.59,11.55c1.8,1.79,4.91,2.37,7.8,2.62a56.58,56.58,0,0,0,13.51-.48c3.67-.58,7.42-1.52,11.09-.9,11.81,2,14.06,7.8,26.21,1.09,6.35-3.5,17.19-13.8,13-20.57S427.82,905.27,419.6,903.7Z"/><path class="cls-4" d="M403,790.24c1.21,3.95,3.32,7.57,4.71,11.45a34,34,0,0,1,1.14,19c-.9,3.95-2.53,7.86-2.17,11.89s3.77,8.23,7.75,7.5q-1.61-12.37-2.32-24.83a15.66,15.66,0,0,1,.43-5.92c1-2.88,3.46-4.92,5.53-7.14,7.24-7.77,8.79-20.25-1.28-26.56C406.51,769.16,400.21,781.18,403,790.24Z"/><path class="cls-4" d="M413.19,879.06a21.18,21.18,0,0,1-1.22,13c-1.51,3.21-4.13,6.45-3.18,9.87,2.8.74,5.81-1.18,7-3.79s1-5.7.3-8.5c-.91-3.47-3-6.78-3.66-10.25-1-4.87-.3-10.64-.42-15.61a5.1,5.1,0,0,0-.85-3.3c-1.15-1.33-3.24-1.1-5-.76C405.18,866.69,411.88,872.39,413.19,879.06Z"/><path class="cls-4" d="M430.08,910.46c-3.21-.52-6.56-.84-9.66.12s-5.92,3.5-6.32,6.72c4.35.56,8.71-.61,13.07-1.11s9.2-.17,12.45,2.77c3,2.74,9.3,2.5,7-2.89C444.9,912.12,433.59,911,430.08,910.46Z"/><path class="cls-2" d="M466.35,914.72a8.33,8.33,0,0,1,.79.39c1.5.85,2.65,2.09,4.32,2.7,2.91,1.08,6.47,0,9.52.77a6.21,6.21,0,0,1,4.38,3.92,6,6,0,0,1-1.08,5.25c-1.45,2-3.15,2.06-6,2.61,1.39.73,1.08,3.64.81,4.94a8.19,8.19,0,0,1-2.13,3.53,10.76,10.76,0,0,1-5.49,3.73c-2.26.53-4.67,0-7,.06a2.59,2.59,0,0,0-1.17.23,2.26,2.26,0,0,0-.75.85,7.7,7.7,0,0,1-5.59,3.09,8.75,8.75,0,0,1-6.42-1.84c-.84-.72-1.44-1.61-2.31-2.31-1.51-1.23-3.68-1.79-5.76-2.3-1.69-.42-3.4-.81-5.08-1.26-.73-.2-2.82-1.16-3.47-1a28.1,28.1,0,0,0,12.7-8.36c3.25-3.59,5.69-7.58,8.46-11.41,1.27-1.75,2.6-3.84,5.25-4.3A10.77,10.77,0,0,1,466.35,914.72Z"/><path class="cls-3" d="M433.93,938.13a14.44,14.44,0,0,0,3.92-2c.63-.45,1.06-1.15,1.67-1.63,1.17-.91,3.49-.28,4.77.05a32.43,32.43,0,0,1,11.47,5.58,10.69,10.69,0,0,0,2.79,1.77,3,3,0,0,0,3.11-.49,2.94,2.94,0,0,0,.24-3.36,8.61,8.61,0,0,0-2.48-2.57l-7.37-5.77c-.63-.49-1.28-1.47-.64-2a1.2,1.2,0,0,1,.81-.16c2.63.16,4.83,1.95,7,3.41a55.78,55.78,0,0,0,10.83,5.28,10.52,10.52,0,0,0,3.59.91,3.71,3.71,0,0,0,3.22-1.52,3.76,3.76,0,0,0-.59-4.25,11,11,0,0,0-3.77-2.56l-13.72-6.74,13.26,1.58a13.54,13.54,0,0,0,4.11.07,4.58,4.58,0,0,0,3.3-2.23,2.8,2.8,0,0,0-.9-3.63,6.08,6.08,0,0,1,5.19,9.84c-.76.91-4.2,3.28-5.47,2.62,1.39.73,1.07,3.64.81,4.94a8.19,8.19,0,0,1-2.13,3.53,10.76,10.76,0,0,1-5.49,3.73c-2.26.53-4.67,0-7,.06a2.59,2.59,0,0,0-1.17.23,2.26,2.26,0,0,0-.75.85,7.7,7.7,0,0,1-5.59,3.09,8.75,8.75,0,0,1-6.42-1.84c-.84-.72-1.44-1.61-2.31-2.31-1.51-1.23-3.68-1.79-5.76-2.3-1.69-.42-3.4-.81-5.08-1.26C436.67,938.9,434.58,937.93,433.93,938.13Z"/><path class="cls-5" d="M466.35,914.72a8.33,8.33,0,0,1,.79.39c1.5.85,2.65,2.09,4.32,2.7,2.91,1.08,6.47,0,9.52.77a6.21,6.21,0,0,1,4.38,3.92,6,6,0,0,1-1.08,5.25c-1.45,2-3.15,2.06-6,2.61,1.39.73,1.08,3.64.81,4.94a8.19,8.19,0,0,1-2.13,3.53,10.76,10.76,0,0,1-5.49,3.73c-2.26.53-4.67,0-7,.06a2.59,2.59,0,0,0-1.17.23,2.26,2.26,0,0,0-.75.85,7.7,7.7,0,0,1-5.59,3.09,8.75,8.75,0,0,1-6.42-1.84c-.84-.72-1.44-1.61-2.31-2.31-1.51-1.23-3.68-1.79-5.76-2.3-1.69-.42-3.4-.81-5.08-1.26-.73-.2-2.82-1.16-3.47-1a28.1,28.1,0,0,0,12.7-8.36c3.25-3.59,5.69-7.58,8.46-11.41,1.27-1.75,2.6-3.84,5.25-4.3A10.77,10.77,0,0,1,466.35,914.72Z"/><path class="cls-21" d="M456.15,920.71c2,3.28,6.44,5.09,10.62,6.63,4.72,1.73,10,3.43,15,2.4"/><path class="cls-21" d="M450.28,929.85a66,66,0,0,1,8.62,5.75,17.39,17.39,0,0,1,5.67,7.59l-.92.54"/><path class="cls-21" d="M385.13,849.7s7.65,0,18.75-6.09c5.15,3.93,19.1,4.54,22.4,5.6"/><path class="cls-21" d="M389.13,904.41s8.62,8.28,30.48-.71"/><path class="cls-21" d="M393.35,913.89s25,8.56,11.91,20.37"/></g></g></svg>