<svg xmlns="http://www.w3.org/2000/svg" viewBox="0 0 117.03 190.35"><defs><style>.cls-1{fill:#d6c9b9;}.cls-2{fill:#7f7a73;}.cls-3,.cls-5{fill:none;stroke:#000;stroke-miterlimit:10;}.cls-3{stroke-width:8px;}.cls-4{fill:#f4efe9;}.cls-5{stroke-width:5px;}</style></defs><title>2_sk_left leg</title><g id="Слой_2" data-name="Слой 2"><g id="Слой_1-2" data-name="Слой 1"><path class="cls-1" d="M47,143.19a7.78,7.78,0,0,0,4.85-7.41c-.23-10.92-7.62-19.94-6.55-31.42.21-2.26.45-4.6,1.8-6.6C48.32,96,50.25,94.68,51.6,93c8.15-10-7.87-22.5-5.49-34.21,1.26-6.2,7.49-11,11-16.62,7.28-11.88-.25-31.28-16.4-36.76C25,.1,7.86,10.54,4.65,22.6A19.79,19.79,0,0,0,4.48,32a23.4,23.4,0,0,0,7.06,12c1.6,1.49,3.45,2.86,4.55,4.61,1.24,2,1.42,4.22,1.58,6.4q.41,5.59.83,11.18A14.72,14.72,0,0,1,18.16,72c-1.71,5.14-8.88,9-8.07,14.3.45,2.93,3.31,5.21,5.45,7.63,6,6.82,6.82,15,7.36,23,.25,3.63.48,7.37-1.07,10.79-2,4.49-9.79,11.21-5.27,16.21,1.46,1.61,3.5,3,4.38,4.81,1.93,4-2.34,8.11-6,11.35s-7,8.16-3.59,11.55c1.8,1.79,4.91,2.37,7.8,2.62a56.57,56.57,0,0,0,13.51-.48c3.68-.58,7.43-1.52,11.09-.9,11.81,2,14.05,7.8,26.21,1.09,6.35-3.5,17.19-13.8,13-20.57S55.26,144.76,47,143.19Z"/><path class="cls-2" d="M23.95,33.56a21.24,21.24,0,0,1-2.51-15.49c.33-1.44,5.49-14,7.06-13.35C19.21,1,6.83,14.39,4.65,22.6A19.79,19.79,0,0,0,4.48,32a23.4,23.4,0,0,0,7.06,12c1.6,1.49,3.45,2.86,4.55,4.61,1.24,2,1.42,4.22,1.58,6.4q.41,5.59.83,11.18A14.72,14.72,0,0,1,18.16,72c-1.71,5.14-8.88,9-8.07,14.3.45,2.93,3.31,5.21,5.45,7.63,6,6.82,6.82,15,7.36,23,.25,3.63.48,7.37-1.07,10.79-2,4.49-9.79,11.21-5.27,16.21,1.46,1.61,3.5,3,4.38,4.81,1.93,4-2.34,8.11-6,11.35s-7,8.16-3.59,11.55c1.8,1.79,4.91,2.37,7.8,2.62a56.57,56.57,0,0,0,13.51-.48c3.68-.58,7.43-1.52,11.09-.9,7,1.18,14.63,6.12,21.85,3.64a31.44,31.44,0,0,0,8-4.66,7.73,7.73,0,0,0,3-3.22A33.38,33.38,0,0,1,67,164.14c-5.14-3.48-8.63-2.65-14.84-2.69l-14.81-.1a7.51,7.51,0,0,0-3.35.49c-1.56.76-2.38,2.47-3.56,3.75s-3.39,2.09-4.55.79c-1.26-1.56-.75-4,.56-5.5a15.36,15.36,0,0,1,5-3.27,56.81,56.81,0,0,0,15.91-12c-2.49-1.46-5.61-.38-8.46.08s-6.63-.45-7-3.31c-.21-1.76,1-3.3,2-4.79,3.89-6,3.91-13.76,2-20.64s-5.38-13.16-8.28-19.67c-.58-1.31-1.1-3-.17-4.06s2.45-.9,3.75-.64a58.56,58.56,0,0,1,13.8,4.55,13.1,13.1,0,0,0,4.77-8.73c-8.49-3.84-18-7.76-26.85-5,6.08-6,7.7-15,8.27-23.54.46-6.85.36-14.09-3.05-20C26.94,37.69,25.27,35.74,23.95,33.56Z"/><path class="cls-3" d="M47,143.19a7.78,7.78,0,0,0,4.85-7.41c-.23-10.92-7.62-19.94-6.55-31.42.21-2.26.45-4.6,1.8-6.6C48.32,96,50.25,94.68,51.6,93c8.15-10-7.87-22.5-5.49-34.21,1.26-6.2,7.49-11,11-16.62,7.28-11.88-.25-31.28-16.4-36.76C25,.1,7.86,10.54,4.65,22.6A19.79,19.79,0,0,0,4.48,32a23.4,23.4,0,0,0,7.06,12c1.6,1.49,3.45,2.86,4.55,4.61,1.24,2,1.42,4.22,1.58,6.4q.41,5.59.83,11.18A14.72,14.72,0,0,1,18.16,72c-1.71,5.14-8.88,9-8.07,14.3.45,2.93,3.31,5.21,5.45,7.63,6,6.82,6.82,15,7.36,23,.25,3.63.48,7.37-1.07,10.79-2,4.49-9.79,11.21-5.27,16.21,1.46,1.61,3.5,3,4.38,4.81,1.93,4-2.34,8.11-6,11.35s-7,8.16-3.59,11.55c1.8,1.79,4.91,2.37,7.8,2.62a56.57,56.57,0,0,0,13.51-.48c3.68-.58,7.43-1.52,11.09-.9,11.81,2,14.05,7.8,26.21,1.09,6.35-3.5,17.19-13.8,13-20.57S55.26,144.76,47,143.19Z"/><path class="cls-4" d="M30.43,29.73c1.21,3.95,3.32,7.57,4.71,11.45a34,34,0,0,1,1.14,19C35.37,64.1,33.75,68,34.11,72s3.77,8.23,7.75,7.5q-1.61-12.37-2.32-24.83A15.6,15.6,0,0,1,40,48.79c1-2.88,3.46-4.92,5.53-7.14,7.24-7.77,8.79-20.25-1.28-26.56C33.95,8.65,27.64,20.66,30.43,29.73Z"/><path class="cls-4" d="M40.63,118.55a21.18,21.18,0,0,1-1.22,13c-1.51,3.21-4.13,6.45-3.18,9.87,2.8.74,5.81-1.18,7-3.79s1-5.7.3-8.5c-.91-3.47-3-6.78-3.66-10.25-1-4.87-.3-10.64-.42-15.61a5.09,5.09,0,0,0-.85-3.3c-1.15-1.33-3.24-1.1-5-.76C32.61,106.18,39.32,111.88,40.63,118.55Z"/><path class="cls-4" d="M57.51,149.95c-3.21-.52-6.56-.84-9.66.12s-5.92,3.5-6.32,6.72c4.35.56,8.71-.61,13.07-1.11s9.2-.17,12.45,2.77c3,2.74,9.3,2.5,7-2.89C72.34,151.6,61,150.52,57.51,149.95Z"/><path class="cls-1" d="M93.79,154.21a8.21,8.21,0,0,1,.79.39c1.5.85,2.65,2.09,4.32,2.7,2.91,1.08,6.47,0,9.52.77A6.21,6.21,0,0,1,112.8,162a6,6,0,0,1-1.08,5.25c-1.45,2-3.15,2.06-6,2.61,1.39.73,1.08,3.64.81,4.94a8.18,8.18,0,0,1-2.13,3.53,10.76,10.76,0,0,1-5.49,3.73c-2.26.53-4.67,0-7,.06a2.58,2.58,0,0,0-1.17.23,2.26,2.26,0,0,0-.75.85,7.7,7.7,0,0,1-5.59,3.09A8.75,8.75,0,0,1,78,184.46c-.84-.72-1.44-1.61-2.31-2.31-1.51-1.23-3.68-1.79-5.76-2.3-1.69-.42-3.4-.81-5.08-1.26-.73-.2-2.82-1.16-3.47-1a28.09,28.09,0,0,0,12.7-8.36c3.25-3.59,5.69-7.58,8.46-11.41,1.27-1.75,2.6-3.84,5.25-4.3A10.77,10.77,0,0,1,93.79,154.21Z"/><path class="cls-2" d="M61.36,177.61a14.45,14.45,0,0,0,3.92-2c.63-.45,1.06-1.15,1.67-1.63,1.17-.91,3.49-.28,4.77.05a32.43,32.43,0,0,1,11.47,5.58A10.72,10.72,0,0,0,86,181.39a3,3,0,0,0,3.11-.49,2.94,2.94,0,0,0,.24-3.36A8.6,8.6,0,0,0,86.87,175L79.5,169.2c-.63-.49-1.28-1.47-.64-2a1.2,1.2,0,0,1,.81-.16c2.63.16,4.83,1.95,7,3.41a55.83,55.83,0,0,0,10.83,5.28,10.52,10.52,0,0,0,3.59.91,3.71,3.71,0,0,0,3.22-1.52,3.76,3.76,0,0,0-.59-4.25,11,11,0,0,0-3.77-2.56L86.24,161.6l13.26,1.58a13.54,13.54,0,0,0,4.11.07,4.58,4.58,0,0,0,3.3-2.23,2.81,2.81,0,0,0-.9-3.63,6.08,6.08,0,0,1,5.19,9.84c-.76.91-4.2,3.28-5.47,2.62,1.39.73,1.08,3.64.81,4.94a8.18,8.18,0,0,1-2.13,3.53,10.76,10.76,0,0,1-5.49,3.73c-2.26.53-4.67,0-7,.06a2.58,2.58,0,0,0-1.17.23,2.26,2.26,0,0,0-.75.85,7.7,7.7,0,0,1-5.59,3.09A8.75,8.75,0,0,1,78,184.46c-.84-.72-1.44-1.61-2.31-2.31-1.51-1.23-3.68-1.79-5.76-2.3-1.69-.42-3.4-.81-5.08-1.26C64.1,178.38,62,177.42,61.36,177.61Z"/><path class="cls-3" d="M93.79,154.21a8.21,8.21,0,0,1,.79.39c1.5.85,2.65,2.09,4.32,2.7,2.91,1.08,6.47,0,9.52.77A6.21,6.21,0,0,1,112.8,162a6,6,0,0,1-1.08,5.25c-1.45,2-3.15,2.06-6,2.61,1.39.73,1.08,3.64.81,4.94a8.18,8.18,0,0,1-2.13,3.53,10.76,10.76,0,0,1-5.49,3.73c-2.26.53-4.67,0-7,.06a2.58,2.58,0,0,0-1.17.23,2.26,2.26,0,0,0-.75.85,7.7,7.7,0,0,1-5.59,3.09A8.75,8.75,0,0,1,78,184.46c-.84-.72-1.44-1.61-2.31-2.31-1.51-1.23-3.68-1.79-5.76-2.3-1.69-.42-3.4-.81-5.08-1.26-.73-.2-2.82-1.16-3.47-1a28.09,28.09,0,0,0,12.7-8.36c3.25-3.59,5.69-7.58,8.46-11.41,1.27-1.75,2.6-3.84,5.25-4.3A10.77,10.77,0,0,1,93.79,154.21Z"/><path class="cls-5" d="M83.58,160.2c2,3.28,6.44,5.09,10.62,6.63,4.72,1.73,10,3.43,15,2.4"/><path class="cls-5" d="M77.72,169.34a66.11,66.11,0,0,1,8.62,5.75A17.4,17.4,0,0,1,92,182.68l-.92.54"/><path class="cls-5" d="M12.57,89.18s7.65,0,18.75-6.09c5.15,3.93,19.1,4.54,22.4,5.6"/><path class="cls-5" d="M16.57,143.9s8.62,8.28,30.48-.71"/><path class="cls-5" d="M20.79,153.38s25,8.56,11.91,20.37"/></g></g></svg>