<svg xmlns="http://www.w3.org/2000/svg" viewBox="0 0 142.37 223.22"><defs><style>.cls-1{fill:#d6c9b9;}.cls-2{fill:#7f7a73;}.cls-3{fill:#f4efe9;}.cls-4{fill:none;}.cls-4,.cls-6{stroke:#000;stroke-miterlimit:10;stroke-width:8px;}.cls-5,.cls-6{fill:#e5ddd1;}</style></defs><title>2_sk_left arm</title><g id="Слой_2" data-name="Слой 2"><g id="Слой_1-2" data-name="Слой 1"><path class="cls-1" d="M37.29,142c6.45,8.61,18.42,9.38,27.5,13.13,3.06,1.26,7.23,1.7,9.09-1,.93-1.37,1-3.14,1-4.79a37.31,37.31,0,0,0-.54-7.61c-.49-2.3-1.41-4.51-1.75-6.84-.46-3.14.15-6.33.76-9.45A51.18,51.18,0,0,1,76.47,114c3.74-8.24,12.16-7.9,16.69-14.51a20.51,20.51,0,0,0,2.21-19.71,3.7,3.7,0,0,1-.44-1.49,3.49,3.49,0,0,1,1.31-2.22c8-8.07,11.39-22.84,23.59-25.08,5-.92,7.26-1.63,11.24-5.44,2.38-2.29,4.83-4.66,6.12-7.7a17,17,0,0,0,1.18-6.56,28.14,28.14,0,0,0-8.58-20.23c-10.06-9.62-23.24-8.79-34.39-1.53C89.63,13.32,85.26,19.91,86,26.75c.43,4.25,2.73,8.44,1.67,12.57a17.68,17.68,0,0,1-1.87,4.07c-4.15,7.47-5.54,19.5-13.58,24-6.91,3.9-13.52,4.38-15.79,13.64-1,4.1.5,6.11,1.65,9.74,1.5,4.76,1,8.38-.51,13.29l-4.79,15.14a18.8,18.8,0,0,1-2.48,5.61C46,130.58,29.24,131.28,37.29,142Z"/><path class="cls-2" d="M37.29,142c6.45,8.61,18.42,9.38,27.5,13.13,4,1.67,14.18.68,9.71-6.2-1.84-2.84-5.43-3.84-8.55-5.14a32.84,32.84,0,0,1-8.53-5.19A4.47,4.47,0,0,1,55.59,136a4.76,4.76,0,0,1,.44-2.26l9.91-26.69a6.68,6.68,0,0,1,2-3.29c1.66-1.19,3.93-.63,5.9-.11,6.23,1.65,14.35,1.66,17.45-4a20.93,20.93,0,0,1-13.26-4.33c-.29-.14-.58-.28-.87-.43a10.24,10.24,0,0,1,7.26-19,71.9,71.9,0,0,1,13-27.15c1-1.31,2.18-2.66,3.8-3,3.69-.83,8.54,3.49,10.63.35,1-1.47.13-3.54-1.22-4.68s-3.08-1.72-4.56-2.69c-3.74-2.46-5.4-7.35-4.85-11.8s3-8.47,5.92-11.84c4.43-5.07,10.39-8.52,17.25-7.9-2.95-8.58-24.2-.79-29,2.34C89.63,13.32,85.26,19.91,86,26.75c.43,4.25,2.73,8.44,1.67,12.57a17.68,17.68,0,0,1-1.87,4.07c-4.15,7.47-5.54,19.5-13.58,24-6.91,3.9-13.52,4.38-15.79,13.64-1,4.1.5,6.11,1.65,9.74,1.5,4.76,1,8.38-.51,13.29l-4.79,15.14a18.8,18.8,0,0,1-2.48,5.61C46,130.58,29.24,131.28,37.29,142Z"/><path class="cls-3" d="M90.64,68.26a13.72,13.72,0,0,0-1.76,4.18c-.48,2.69.67,5.38,1.79,7.87-3.33-.44-7.14-.75-9.64,1.5a7.45,7.45,0,0,0-2,6.71A15,15,0,0,0,82.15,95a8.89,8.89,0,0,0,4.29,3.44c2.89.84,6-1.08,7.49-3.7S95.58,89,95.59,86s-.12-6.09.84-8.94a24.56,24.56,0,0,1,3.88-6.58l10.55-14.25a16.23,16.23,0,0,1,3.4-3.72A9.12,9.12,0,0,1,119.09,51C103,43.76,97.39,56.22,90.64,68.26Z"/><path class="cls-3" d="M129.78,16.25c-3.79-.84-8.29.77-11.54,4.14a17.58,17.58,0,0,0-4.84,12.82,14.25,14.25,0,0,0,8.07,11.73,10.94,10.94,0,0,0,6.4,1.3c6.27-.85,11.56-9,11.48-16a17.12,17.12,0,0,0-9.67-15.07"/><path class="cls-3" d="M71.82,108.91a8.53,8.53,0,0,0-2.14,3.78c-2.09,5.85-4.2,11.74-5.16,17.88-.37,2.35-.51,5,.83,6.92a10.53,10.53,0,0,0,4.42,3.14c.82.39,1.89.75,2.55.13a2.33,2.33,0,0,0,.5-1.73c.08-8.06.38-16.41,4-23.63.74-1.5,3.54-5.26,2.42-6.92S73.08,107.82,71.82,108.91Z"/><path class="cls-4" d="M37.29,142c6.45,8.61,18.42,9.38,27.5,13.13,3.06,1.26,7.23,1.7,9.09-1,.93-1.37,1-3.14,1-4.79a37.31,37.31,0,0,0-.54-7.61c-.49-2.3-1.41-4.51-1.75-6.84-.46-3.14.15-6.33.76-9.45A51.18,51.18,0,0,1,76.47,114c3.74-8.24,12.16-7.9,16.69-14.51a20.51,20.51,0,0,0,2.21-19.71,3.7,3.7,0,0,1-.44-1.49,3.49,3.49,0,0,1,1.31-2.22c8-8.07,11.39-22.84,23.59-25.08,5-.92,7.26-1.63,11.24-5.44,2.38-2.29,4.83-4.66,6.12-7.7a17,17,0,0,0,1.18-6.56,28.14,28.14,0,0,0-8.58-20.23c-10.06-9.62-23.24-8.79-34.39-1.53C89.63,13.32,85.26,19.91,86,26.75c.43,4.25,2.73,8.44,1.67,12.57a17.68,17.68,0,0,1-1.87,4.07c-4.15,7.47-5.54,19.5-13.58,24-6.91,3.9-13.52,4.38-15.79,13.64-1,4.1.5,6.11,1.65,9.74,1.5,4.76,1,8.38-.51,13.29l-4.79,15.14a18.8,18.8,0,0,1-2.48,5.61C46,130.58,29.24,131.28,37.29,142Z"/><path class="cls-5" d="M75.54,165.61c-1.06-11.7-14.7-13.14-22-18-11.11-7.45-26.37-9.91-35.69,1.73-4,5-1.35,14.85-6.34,18.75-1.11.86-2.51,1.25-3.68,2A6.78,6.78,0,0,0,5.37,178a23.9,23.9,0,0,1,1.09,2.52,8.49,8.49,0,0,1,.09,2.94,18.55,18.55,0,0,1-1.24,6.12,24,24,0,0,0-1.06,2.27c-1.2,3.57,2,7.47,5.68,8.24,1.92.4,3,1.61,5,1.59a6.69,6.69,0,0,0,5.3-3.46c2.21,6.08,4.49,10.84,8.94,12.46s11.63,1.79,13.52-2.2c1.79,4.12,3.06,7.9,6.82,9.54,4.87,2.13,9.51,1.27,13.62-1.87,2-1.5,3.79-3.73,3.41-6.17-.31-2.06-2.11-3.65-2.43-5.71-.46-3,2.25-5.55,2.5-8.54s-1.82-5.39-4.07-7.17c5-2.59,4.82-5.8,7.44-10.14C72.33,174.5,76,170.55,75.54,165.61Z"/><path class="cls-3" d="M45,154.37c1.1,1.12,2.78,1.36,4.33,1.62a45,45,0,0,1,17.29,6.84c-4.89,5.59-13.32,6.56-20.65,5.33-2.77-.47-5.54-1.19-8.35-1s-5.74,1.53-6.91,4.08c-2.12,4.62,1.84,5.63,4.87,6a21.48,21.48,0,0,1,13,5.69,3.12,3.12,0,0,0,1,.74,3.07,3.07,0,0,0,1.82-.09c3.52-.86,8.89.38,11.91-1.65,2.25-1.51,2.36-4.68,3.23-7.24s2.79-4.86,4.28-7.24,2.62-5.29,1.78-8-3.41-4.44-5.81-6c-4.18-2.63-8.12-4.58-13.13-4.2C51.56,149.47,40.76,150.06,45,154.37Z"/><path class="cls-2" d="M17.89,149.35c-4,5-1.35,14.85-6.34,18.75-1.11.86-2.51,1.25-3.68,2A6.78,6.78,0,0,0,5.37,178a23.9,23.9,0,0,1,1.09,2.52,8.49,8.49,0,0,1,.09,2.94,18.55,18.55,0,0,1-1.24,6.12,24,24,0,0,0-1.06,2.27c-1.2,3.57,2,7.47,5.68,8.24,1.92.4,3,1.61,5,1.59a6.69,6.69,0,0,0,5.3-3.46c2.21,6.08,4.49,10.84,8.94,12.46s11.63,1.79,13.52-2.2c-.62,1.3,3.39,7.14,4.47,8,2.41,1.9,6.77,2.57,9.76,3.23a2.08,2.08,0,0,0,1,.05c1-.28,1-1.87.21-2.6-2.21-2.09-3.31-1.42-4.68-4.58A30.31,30.31,0,0,1,51.2,204a32,32,0,0,1,2.54-16.72c-3.45-2.12-8.3-.49-10.74,2.75s-2.91,7.57-2.56,11.61c.22,2.48.61,5.31-1,7.17-2.15,2.41-6.11,1.43-9-.09-1.67-.89-3.37-2-4.13-3.75-.88-2-.29-4.33.44-6.4A49.94,49.94,0,0,1,37,181.51a12.59,12.59,0,0,0-11.34,2,17.77,17.77,0,0,0-6.37,9.86c-.44,1.67-.74,3.51-2,4.73s-3.78,1.2-4.3-.45a3.7,3.7,0,0,1,0-1.53l2.74-23.75a10.52,10.52,0,0,1,7.94,3.49A.81.81,0,0,0,23.6,177l-1.66.61c1.32.17,1.64-1.77,1.49-3.09a26.14,26.14,0,0,1,1.15-10.9,4.8,4.8,0,0,1,.9-1.78,4.32,4.32,0,0,1,2.14-1.14c9-2.41,17.57,6.38,26.84,5.72a23.79,23.79,0,0,0,8.16-2.5A78.38,78.38,0,0,0,38.11,155a4.69,4.69,0,0,1-1.9-.62c-1.27-.88-1.28-2.89-.39-4.15a7.11,7.11,0,0,1,3.89-2.37,23.48,23.48,0,0,1,14,.13C43.48,139.6,26.69,138.36,17.89,149.35Z"/><path class="cls-3" d="M18.56,175.58a4.35,4.35,0,0,0-.75,1.5,41.89,41.89,0,0,0-1.08,23.12l.94.29c1.47-3.14,2-6.61,3-9.93s5-7.11,5.06-10.28C25.76,177.53,21.15,172.59,18.56,175.58Z"/><path class="cls-3" d="M33,205.54c.65,5.11,5.29,7.36,7.61,1.68,2.09-5.12-.16-11.62,3.08-16.1a3.94,3.94,0,0,0,.86-1.52,3.17,3.17,0,0,0-.71-2.15,6.14,6.14,0,0,0-1.75-2c-2.34-1.48-4.5.76-5.43,2.68C34,193.52,32.22,199.57,33,205.54Z"/><path class="cls-3" d="M55.27,202.24c.15,3.72,1.34,7.54,4,10.12a3,3,0,0,0,2.84,1.08,2.67,2.67,0,0,0,1.24-1c1.43-1.88,1.58-4.4,1.66-6.76.16-4.33,2.7-14.83-2.53-17.13C55.39,185.44,55.11,198.22,55.27,202.24Z"/><path class="cls-4" d="M75.54,165.61c-1.06-11.7-14.7-13.14-22-18-11.11-7.45-26.37-9.91-35.69,1.73-4,5-1.35,14.85-6.34,18.75-1.11.86-2.51,1.25-3.68,2A6.78,6.78,0,0,0,5.37,178a23.9,23.9,0,0,1,1.09,2.52,8.49,8.49,0,0,1,.09,2.94,18.55,18.55,0,0,1-1.24,6.12,24,24,0,0,0-1.06,2.27c-1.2,3.57,2,7.47,5.68,8.24,1.92.4,3,1.61,5,1.59a6.69,6.69,0,0,0,5.3-3.46c2.21,6.08,4.49,10.84,8.94,12.46s11.63,1.79,13.52-2.2c1.79,4.12,3.06,7.9,6.82,9.54,4.87,2.13,9.51,1.27,13.62-1.87,2-1.5,3.79-3.73,3.41-6.17-.31-2.06-2.11-3.65-2.43-5.71-.46-3,2.25-5.55,2.5-8.54s-1.82-5.39-4.07-7.17c5-2.59,4.82-5.8,7.44-10.14C72.33,174.5,76,170.55,75.54,165.61Z"/><path class="cls-6" d="M93.65,194.25c1.81-2.16,3.91-4.54,3.53-7.38a6.2,6.2,0,0,0-3.48-4.72c-1.51-.69-3.22-.75-4.82-1.19s-3.24-1.51-3.49-3.15a6.28,6.28,0,0,1,.23-2.2,12.13,12.13,0,0,0,.19-4.94c-2-9.54-13.22-6.6-16.36.32-1.71,3.76-1.7,8.09-1,12.18a3.17,3.17,0,0,0,1.07,2.26c2,1.33,4.9-.44,7.12,1.13,2.53,1.79,1.88,4.35,2.06,7,.19,2.91,2.83,5.27,5.71,5.72,3.58.56,6.17-1,8.14-3.62C92.84,195.23,93.24,194.75,93.65,194.25Z"/><path d="M10.32,172.75a18.46,18.46,0,0,1,5.94-.73,12.69,12.69,0,0,1,6,1.67,11.3,11.3,0,0,1,4.3,4.81,18.89,18.89,0,0,1,1.69,6.2h0l-1.53,1.78h0a3.26,3.26,0,0,0-1,.78,9.47,9.47,0,0,0-1.14,1.64,15.72,15.72,0,0,0-1.54,4,13.66,13.66,0,0,0-.37,4.15,7.33,7.33,0,0,0,1.07,3.46L19.41,203A12.15,12.15,0,0,1,18,197.19a18,18,0,0,1,.92-5.44,19.68,19.68,0,0,1,2.35-4.87,13,13,0,0,1,1.83-2.19,5.65,5.65,0,0,1,3.16-1.62h0l-1.53,1.79a16,16,0,0,0-.63-5.36,9.12,9.12,0,0,0-2.89-4.38,11.39,11.39,0,0,0-5.08-2.24A18,18,0,0,0,10.32,172.75Z"/><path d="M25.64,180.73a34.64,34.64,0,0,1,5.76-.83,25,25,0,0,1,5.88.26,9.19,9.19,0,0,1,5.54,3,13,13,0,0,1,2.82,5.2h0l.16.43-.38.48a14.34,14.34,0,0,0-2.31,4.31,14.79,14.79,0,0,0-.81,4.76c0,.4,0,.8.05,1.19a6.65,6.65,0,0,0,.13,1.18l.2,1.17.32,1.15.16.57.22.56.44,1.11c.33.73.73,1.43,1.08,2.14l-4.52,2.14c-.31-.93-.64-1.84-.9-2.78l-.33-1.43-.16-.71-.09-.73-.17-1.46c0-.49,0-1,0-1.47a9.12,9.12,0,0,1,.06-1.47c.06-.49.06-1,.17-1.45a17.73,17.73,0,0,1,1.82-5.47,16.21,16.21,0,0,1,3.45-4.54L44,189h0a12,12,0,0,0-3-3.83A6.72,6.72,0,0,0,39,184a7.07,7.07,0,0,0-2.14-.35,21.39,21.39,0,0,0-4.93.49,38.39,38.39,0,0,0-4.86,1.34Z"/><path class="cls-5" d="M62.52,188.58s-7.61-3-18.74.1"/><path d="M61.61,190.91a7.89,7.89,0,0,0-.86-.35c-.33-.12-.67-.23-1-.33-.69-.2-1.4-.39-2.12-.54a31.77,31.77,0,0,0-4.43-.59,34.81,34.81,0,0,0-4.54,0,40,40,0,0,0-4.57.6l-.59-2.12a43.08,43.08,0,0,1,4.72-1.35,38.53,38.53,0,0,1,4.91-.77,35.83,35.83,0,0,1,5-.08c.85,0,1.7.13,2.56.25.43.06.86.14,1.3.22a13.45,13.45,0,0,1,1.41.35Z"/><path d="M31.28,143.63c-.34.19-.86.51-1.26.79a6.85,6.85,0,0,0-1.07.91,2.76,2.76,0,0,0-.57.78.55.55,0,0,0-.07.35,1.79,1.79,0,0,0,.27.63,6.26,6.26,0,0,0,.87,1,16.94,16.94,0,0,0,2.68,2c2,1.26,4.22,2.63,6.46,3.84a32.85,32.85,0,0,0,7.1,2.86,57.32,57.32,0,0,0,7.49,1.58c2.52.35,5.06.56,7.52.66,1.23.06,2.44.08,3.6,0a17.88,17.88,0,0,0,3.14-.32,5.22,5.22,0,0,0,.91-.27c.14-.08,0,.07-.07.32s.12.18.11-.14a7,7,0,0,0-.17-1.29l4.38-2.41a7.5,7.5,0,0,1,1.31,2.27,5.65,5.65,0,0,1,.09,3.67,5.47,5.47,0,0,1-1.13,1.91,6.26,6.26,0,0,1-1.51,1.19,8.84,8.84,0,0,1-2.75.94,23.05,23.05,0,0,1-8.67-.64,72.15,72.15,0,0,1-7.65-2.39l-7.4-2.66a77.22,77.22,0,0,0-7.49-2.32,42.77,42.77,0,0,1-7.64-2.52A19.31,19.31,0,0,1,26.05,152a10.69,10.69,0,0,1-1.77-1.85A6.7,6.7,0,0,1,23,147.28a5.91,5.91,0,0,1,.49-3.42,8,8,0,0,1,1.72-2.32,11.69,11.69,0,0,1,2-1.47A12.2,12.2,0,0,1,29.36,139Z"/><path d="M59.88,78.62c-.49-.53-1.42-.25-1.92.39a3.4,3.4,0,0,0-.51,2.54,8.17,8.17,0,0,0,1.09,3,12.8,12.8,0,0,0,2.16,2.71,26,26,0,0,0,6,4.15,51,51,0,0,0,6.93,3,50.22,50.22,0,0,0,7.29,2,26.76,26.76,0,0,0,7.21.56c2.22-.2,4.24-1,5.12-2.28a3.81,3.81,0,0,0,.79-2.18,1.8,1.8,0,0,0-.17-.81,1.38,1.38,0,0,0-.43-.44L98.1,87a7.76,7.76,0,0,1,1.65,6.07,9.78,9.78,0,0,1-2.29,5,9.93,9.93,0,0,1-2,1.81A11,11,0,0,1,93.16,101a15.18,15.18,0,0,1-4.64.91A34,34,0,0,1,80,101a54.6,54.6,0,0,1-7.9-2.36,50.75,50.75,0,0,1-7.42-3.57A31.4,31.4,0,0,1,58,90a18.23,18.23,0,0,1-2.7-3.5,12.78,12.78,0,0,1-1.67-4.34A8.66,8.66,0,0,1,54.27,77a9.51,9.51,0,0,1,4.06-4.44Z"/></g></g></svg>