<svg xmlns="http://www.w3.org/2000/svg" viewBox="0 0 615.69 742.62"><defs><style>.cls-1{opacity:0.4;}.cls-2{fill:#121523;}.cls-2,.cls-5,.cls-6{stroke:#000;stroke-miterlimit:10;}.cls-3{fill:#2c3654;}.cls-4{fill:#6a98e2;}.cls-5{fill:none;stroke-width:8px;}.cls-7{fill:#3e4a68;}</style></defs><title>2_sk_hood</title><g id="Слой_2" data-name="Слой 2"><g id="Слой_1-2" data-name="Слой 1"><path class="cls-1" d="M225.73,580.48a44.57,44.57,0,0,0,10.69,1c-.28-22.36-26.39-45.89-38.35-63.11-8.61-12.39-15.81-17.18-18.33-32.67C171.8,437,213.48,391.33,249.26,364c37.94-29,85.09-49.36,132.88-53.75,13.68-1.26,31.51-2,45-.08,29.38,4.28,63.17,35.17,80,57.94,29.11,39.29,47.29,79.15,37.62,113.39,21.83-61.75,10.84-107-16.73-149.06S389.23,203.71,389.23,203.71,191.94,322,146.8,399.33c-9.88,16.93-21.33,34.63-27.52,53.37-3.47,10.54-.28,17.18,5.26,26.58,9.6,16.3,23.26,28.49,40.08,34.87C195.9,526,192.43,573,225.73,580.48Z"/><path class="cls-2" d="M144.15,520.47c-11.58-40.85,1.32-85.73,25.62-120.54,46.1-66,125.44-107,203.34-121.26,23.75-4.34,38.06-3.22,58.49,7.57,23.2,12.25,40.55,21.3,59.46,39.44,23.85,22.87,48.32,46.63,61.21,77.07,10.69,25.23,4,55.47-1.82,81.81a133.06,133.06,0,0,1-4.74,17c-5.2,14.17-14.47,25.6-20.69,39.32-2.55,5.62-4.73,11.4-7.52,16.9-5.79,11.46-14,21.46-22.23,31.35q31.29-32.54,60.66-66.86c21.9-25.61,37.13-57.79,45.92-90.3,12-44.29,1.24-92.9-18.42-133.65-26.29-54.5-84.46-97.54-135.11-130.48-22.58-14.68-47.35-25.44-72.51-34.85-18.74-7-41.2-17.74-60.89-20.65-9.46-1.4-24.42,3.79-33.06.07-7.05-3-11.05-15.24-18.26-19.24-9.64-5.35-22,1.18-29.58-1.73-6.64-2.54-10.39-14.15-19.55-18.14-11.49-5-16.59-1.68-21.08-16.46C187,35.63,192.08,19.67,174.26,2.91c5.92,5.56-12.72,44.83-16.18,52-5.76,11.92-15.79,22.14-23.51,32.78-13.78,19-40.22,56.22-7.57,71.27-6.23,10.15-18.48,17.59-25.67,28.24-6.61,9.79-14.11,22-18.83,33.34-3.87,9.26-9.88,28.19-6.42,38.74,4.65,14.17,17.25,13,28,17.93-23.15,21.93-39,66.09-47,96.22-17.06,64.65.65,137.4,45.52,187,18.92,20.91,43.45,38.26,71.38,42.1-16.5-2.27-57.26,48.66-67,60.21-18.63,22.1-43.23,39.7-74.24,37.6,27.25,8.68,46.9,38,75.49,38.32,20.32.2,37.77-15.13,48.35-32.48s16.36-37.23,26.35-54.93c9.1-16.14,27.66-26.21,36.22-40.87,8.32-14.25,7.34-11.52-9.21-21.41C179.9,571,154.53,557.1,144.15,520.47Z"/><path class="cls-3" d="M169.08,176.78c.16.76,3.35.74,3.88.74,7.81-.08,16.07-4.86,22.7-8.49a201.25,201.25,0,0,0,28.07-18.72c10.84-8.56,39.76-32.09,14.56-42.57-3.68-1.53-8.49-.72-12.32-.3-6.07.67-10.86,3.45-15.91,6.69-3.81,2.45-6.78,5.62-10.32,8.42-1.89,1.49-4.09,2.57-5.89,4.18-1.44,1.29-2.25,3-3.65,4.23C179,141.24,165.61,160.27,169.08,176.78Z"/><path class="cls-3" d="M571,373.26c-7.3-27.18-21-51.74-38.91-74.93-19.26-24.93-54-39.43-82.35-51.31-31.3-13.1-65-20.26-98.59-24.11,20.1-14.91,46.47-4.16,69-2.81,11.32.68,22.73,1.71,33.95,2,5.75.12,11.59,2.69,11-6-.4-6-16.7-15.29-21-18.68q-13.28-10.46-27.24-20c-13.69-9.43-29.17-19.6-44.78-24-12.17-3.47-42.72-7.82-47,6.72-.24-.21-.47-.42-.72-.63-31.29-25.86-55.86,6.27-77.92,26.62-14.72,13.58-30.38,25.51-45,39-32.8,30.2-57.39,68.94-69.69,111.89,14.81-2.09,29.86-26.4,40.31-37.19,12.78-13.19,27.6-23.18,42-34.49,21.25-16.65,52-36.37,79-37.24-9.09,8.62-22,12.1-32.88,18.87-11.69,7.28-22.64,18.64-33.75,27.45-17.54,13.91-58.32,44.19-55.6,70.19,8.91.34,16.9-9.7,24.07-14.4A615.45,615.45,0,0,1,301.15,274.2c24.23-9.8,47.6-19.91,73.5-21,75-3.25,110.89,51.42,160.21,96.15,14.22,12.9,17.27,24.61,26.52,40.73,5.6,9.75,6.39,22.54,13.9,31-.76-.86.82-20.13.49-23A171.54,171.54,0,0,0,571,373.26Z"/><path class="cls-3" d="M199.29,81.93c-3-2.74-7.56-3-11.31-4-4.15-1.15-7.84-2.42-12-.5-6.76,3.12-12.77,10.89-9.94,18.7,2.07,5.73,10.48,4.26,15.21,3.49,4.55-.74,10.08-1.71,14.29-3.68,4.05-1.9,8.84-11.07,3.33-14.27a2.92,2.92,0,0,0-2.32-.49"/><path class="cls-4" d="M553.94,524l-.37.37c-6.42,6.54-11.31,15.2-17,22.39-11.68,14.7-24.54,28.66-39.84,39.67,48.76-47.71,87.67-114,86.36-183.85-.63-33.45-16.49-66.51-36.13-93.46-17.95-24.63-51.35-48.25-78.8-59.77-14.22-6-28.34-11.36-43-15.25-7.8-2.07-15.5-4.74-23-6-7.29-1.25-16.53-.78-23.69-4,13.89-5.09,27.84-1.84,41.69.78,30.82,5.83,69,17.77,92.75,39.5,12.45,11.41,25.24,22.29,35.31,35.75,6.24,8.34,20.71,41.76,30.79,41.82,2.18-19.58-20.26-48.78-30.85-63.62-11.27-15.8-22.9-29-38-41-22.59-17.89-41.27-41.7-65.2-58-13.53-9.2-29.93-17.19-44.85-23.25-32.79-13.33-67.3-38.07-104.92-30-19.09,4.11-37.08,16.3-53.65,26.09,11.66-6.89,25.06-33.71,14.22-46-5.32-6-35.51-11.35-41.81-6.24,10.82-8.77.52-18.33-7.8-21.83-10.07-4.24-19.81-5-23.59-17.07-4.19-13.39,3.13-28.47,3.15-42.05,7,11,4.91,24.89,8.22,36.89,4.11,14.91,11.3,14.36,23.63,23,13.94,9.75,11.77,12.59,29.63,12.37,17.7-.22,14.17,7.88,28.87,16.13,10.27,5.76,22.27,2.15,34.16,3.3,43.32,4.19,83.56,28.31,123,48,84.49,42.28,154,109.47,172.41,202.57,10.49,53.08-1.38,105-35.75,147.63C564.94,514.94,559.21,518.76,553.94,524Z"/><path class="cls-5" d="M144.15,520.47c-11.58-40.85,1.32-85.73,25.62-120.54C215,335.06,300.72,287.3,379.14,278.63c23.47-2.59,42.55,1,61.46,12.45,7.95,4.83,16.8,9,24.45,14.22,27.88,18.82,53.6,42.58,72.43,70.59,21.1,31.36,22.33,62.65,16.88,99.22-1.54,10.34-3.11,20.78-6.81,30.55-3.78,10-9.67,18.94-15.51,27.84-18.86,28.72-37.83,57.58-60.89,83l33.65-34.9c29.07-30.15,58.44-60.69,79.44-96.93,17-29.41,28.46-63.38,27.37-97.69-.46-14.31-6.51-24.52-10.16-37.9-4.8-17.57-10.07-34.36-18-50.84-26.29-54.5-84.46-97.54-135.11-130.48-22.58-14.68-47.35-25.44-72.51-34.85-18.74-7-41.2-17.74-60.89-20.65-9.46-1.4-24.42,3.79-33.06.07-7.05-3-11.05-15.24-18.26-19.24-9.64-5.35-22,1.18-29.58-1.73-6.64-2.54-10.39-14.15-19.55-18.14-11.49-5-16.59-1.68-21.08-16.46C187,35.63,192.08,19.67,174.26,2.91c5.92,5.56-12.72,44.83-16.18,52-5.76,11.92-15.79,22.14-23.51,32.78-13.78,19-40.22,56.22-7.57,71.27-6.23,10.15-18.48,17.59-25.67,28.24-6.61,9.79-14.11,22-18.83,33.34-3.87,9.26-9.88,28.19-6.42,38.74,4.65,14.17,17.25,13,28,17.93-23.15,21.93-39,66.09-47,96.22-17.06,64.65.65,137.4,45.52,187,18.92,20.91,43.45,38.26,71.38,42.1-16.5-2.27-57.26,48.66-67,60.21-18.63,22.1-43.23,39.7-74.24,37.6,27.25,8.68,46.9,38,75.49,38.32,20.32.2,37.77-15.13,48.35-32.48s16.36-37.23,26.35-54.93c9.1-16.14,27.66-26.21,36.22-40.87,8.32-14.25,7.34-11.52-9.21-21.41C179.9,571,154.53,557.1,144.15,520.47Z"/><path class="cls-6" d="M142,521.47a94.82,94.82,0,0,1-9.52-44.7C134.26,423.89,183.72,366,226,338.89c-14.35,13.68-40,23.26-58.42,32.43-5.9,2.94-26,16.31-33,10.95-10.08-7.73,9.37-27.2,14.7-33,16.44-18,32.07-38.35,49.87-55.62,16.71-16.22,43.75-47.14,67-52.48-35,14.9-65.65,41.17-92.51,67.48-13.21,12.94-25.73,26.27-39,39-11.21,10.76-28.11,35.63-44.81,34.34-2.18-15,5.54-35.23,10.23-49.27,13.32-39.85,55.62-79,81.87-111.08q9.63-11.77,19.4-23.43c2.59-3.11,5.69-5.9,8-9.14a68.37,68.37,0,0,1,8.22-9.94,34,34,0,0,0,5.92-7.73c-1.82.56-3.35,2.12-5.16,2.91-2.66,1.16-5.48,2.14-8.2,3.24-3.4,1.38-6.88,2.47-10.31,3.8a53.55,53.55,0,0,1-7.7,2.71c-3.31.75-6.43,3.09-9.52,4.67-15.3,7.82-30.2,13.5-30-9,.17-19.46,14.81-35.33,28.17-48,5-4.8,9.59-10.09,14.31-15.19,3.52-3.8,7.1-9.86,12.16-11.68-3.4.36-6.94,2.31-10.36,3.32-5.13,1.52-10,3.37-15.33,3.93-6.27.67-13.95.82-19.43-2.82-6.33-4.2-6.55-14.48-5.14-21.14,1.56-7.34,13.41-20,18.48-26.54,15-19.44,18.38-40.21-1.27-58.68,5.92,5.56-12.72,44.83-16.18,52-5.76,11.92-15.79,22.14-23.51,32.78-13.78,19-40.22,56.22-7.57,71.27-6.23,10.15-18.48,17.59-25.67,28.24-6.61,9.79-14.11,22-18.83,33.34-3.87,9.26-9.88,28.19-6.42,38.74,4.65,14.17,17.25,13,28,17.93-23.15,21.93-39,66.09-47,96.22-17.06,64.65.65,137.4,45.52,187,18.92,20.91,43.45,38.26,71.38,42.1-16.5-2.27-57.26,48.66-67,60.21-18.63,22.1-43.23,39.7-74.24,37.6,27.25,8.68,46.9,38,75.49,38.32,20.32.2,37.77-15.13,48.35-32.48s16.36-37.23,26.35-54.93c9.1-16.14,27.66-26.21,36.22-40.87,8.32-14.25,7.34-11.52-9.21-21.41C182.68,572.66,155.82,550.28,142,521.47Z"/><path class="cls-3" d="M164.65,625.19c-39.88-2.63-52.07,74.51-92.77,75.22-6,24.64,36.36-5.36,42.18-10.31,12.7-10.79,24.63-32.49,41.36-34.69-2.71,22.06-42,35.26-40,59.54,21.29-1.89,31.61-38.62,40.2-53.81,10-17.61,39.79-34.33,4.58-34.45"/><path class="cls-7" d="M260.44,198.26A138.24,138.24,0,0,0,234,217.54c-9.43,8.94-28.44,22.62-30.27,35.54,11.26-.89,24.11-13.83,35.57-18.25,9.45-3.64,19.17-5.87,28.86-8.63,12.09-3.43,35.14-14.76,45.22-3-8.25,12.37-36.93,17.07-49.75,27.07s-34.64,25-37.39,41.84c15.92-8.06,31.19-20,48.26-27.29,15.66-6.69,33.07-9.52,49.53-14.21,26.45-7.54,60.13-6.38,87.67-6.38-13,.74-24.59-5.64-37-7.42-10.81-1.54-39.13-1.22-24-17.51,11.37-12.24,41.61-8.2,56.5-12.92,6-1.92,11.48-2.47,9.25-8.5-1.18-3.19-12.07-10.1-15.22-11.75-38.65-20.31-85.36-13.67-124.1,3.73C271.48,192.34,265.88,195.15,260.44,198.26Z"/></g></g></svg>