<svg xmlns="http://www.w3.org/2000/svg" viewBox="0 0 184.01 200.07"><defs><style>.cls-1{fill:#d6c9b9;}.cls-2{fill:#7f7a73;}.cls-3{fill:#f4efe9;}.cls-4{fill:none;}.cls-4,.cls-6{stroke:#000;stroke-miterlimit:10;stroke-width:8px;}.cls-5,.cls-6{fill:#e5ddd1;}</style></defs><title>2_sk_right arm</title><g id="Слой_2" data-name="Слой 2"><g id="Слой_1-2" data-name="Слой 1"><path class="cls-1" d="M101.37,144.12c10.5-2.34,16.12-12.94,23.27-19.67,2.41-2.27,4.52-5.89,2.79-8.71-.87-1.41-2.47-2.16-4-2.84a37.38,37.38,0,0,0-7.16-2.63c-2.3-.5-4.69-.57-7-1.21-3.06-.87-5.71-2.74-8.3-4.58a51.2,51.2,0,0,1-9.09-7.57c-6-6.79-2.2-14.33-6.37-21.18A20.51,20.51,0,0,0,68.5,65.6,3.69,3.69,0,0,1,67,65.39a3.49,3.49,0,0,1-1.48-2.11C61.42,52.64,49.33,43.52,52.3,31.47,53.51,26.55,53.8,24.18,52,19c-1.1-3.11-2.26-6.32-4.51-8.74A17,17,0,0,0,42,6.48,28.15,28.15,0,0,0,20,6C7.07,11.22,2.42,23.57,4.46,36.72c1.05,6.79,5.27,13.49,11.79,15.66,4,1.35,8.82,1,12.15,3.64a17.68,17.68,0,0,1,2.94,3.37c5.11,6.85,15.5,13.06,16.33,22.26.72,7.9-1.56,14.13,5.95,20,3.33,2.6,5.78,2.05,9.55,2.5,5,.59,8.07,2.49,11.91,5.93l11.83,10.58A18.81,18.81,0,0,1,91,125.23C94.51,131.45,88.25,147,101.37,144.12Z"/><path class="cls-2" d="M101.37,144.12c10.5-2.34,16.12-12.94,23.27-19.67,3.17-3,6.45-12.65-1.66-11.4-3.35.52-5.73,3.37-8.2,5.69a32.87,32.87,0,0,1-8.23,5.65,4.48,4.48,0,0,1-3.11.59,4.76,4.76,0,0,1-1.88-1.33l-20.27-20a6.68,6.68,0,0,1-2.17-3.21c-.4-2,1-3.84,2.33-5.42,4.06-5,7.4-12.4,3.53-17.55a20.93,20.93,0,0,1-9.4,10.31c-.25.21-.49.42-.75.61A10.24,10.24,0,0,1,60.51,74,71.9,71.9,0,0,1,41.08,51c-.78-1.46-1.53-3.08-1.2-4.7.75-3.7,6.7-6.35,4.68-9.55-.94-1.5-3.17-1.57-4.77-.81S37,38,35.47,39c-3.78,2.4-8.92,1.9-12.75-.42s-6.51-6.19-8.37-10.26c-2.8-6.13-3.5-13-.12-19C5.2,8.46,3.58,31,4.46,36.72c1.05,6.79,5.27,13.49,11.79,15.66,4,1.35,8.82,1,12.15,3.64a17.68,17.68,0,0,1,2.94,3.37c5.11,6.85,15.5,13.06,16.33,22.26.72,7.9-1.56,14.13,5.95,20,3.33,2.6,5.78,2.05,9.55,2.5,5,.59,8.07,2.49,11.91,5.93l11.83,10.58A18.81,18.81,0,0,1,91,125.23C94.51,131.45,88.25,147,101.37,144.12Z"/><path class="cls-3" d="M56,65.17a13.73,13.73,0,0,0,3.09,3.33c2.26,1.54,5.18,1.6,7.91,1.6-1.77,2.86-3.62,6.2-2.59,9.4A7.44,7.44,0,0,0,69.7,84.1a15,15,0,0,0,7.23-.2,8.9,8.9,0,0,0,4.9-2.49c2-2.29,1.48-5.93-.3-8.35s-4.57-3.87-7.3-5.12-5.6-2.39-7.8-4.44A24.55,24.55,0,0,1,62,57.27L53.37,41.79a16.22,16.22,0,0,1-2-4.63,9.12,9.12,0,0,1,.54-5C38.76,43.84,47.81,54.07,56,65.17Z"/><path class="cls-3" d="M24.68,8.12c-2.32,3.1-2.7,7.88-1,12.23A17.57,17.57,0,0,0,33.41,30a14.25,14.25,0,0,0,14-2.54,10.93,10.93,0,0,0,3.81-5.3c1.8-6.07-3.48-14.25-9.89-17A17.12,17.12,0,0,0,23.63,7.76"/><path class="cls-3" d="M85.34,99a8.54,8.54,0,0,0,2.56,3.5c4.47,4.31,9,8.65,14.18,12,2,1.3,4.31,2.5,6.65,2.08a10.51,10.51,0,0,0,4.68-2.73c.69-.59,1.46-1.42,1.17-2.28a2.33,2.33,0,0,0-1.37-1.16c-7.31-3.38-14.8-7.09-19.92-13.31-1.06-1.29-3.34-5.39-5.31-5S84.87,97.43,85.34,99Z"/><path class="cls-4" d="M101.37,144.12c10.5-2.34,16.12-12.94,23.27-19.67,2.41-2.27,4.52-5.89,2.79-8.71-.87-1.41-2.47-2.16-4-2.84a37.38,37.38,0,0,0-7.16-2.63c-2.3-.5-4.69-.57-7-1.21-3.06-.87-5.71-2.74-8.3-4.58a51.2,51.2,0,0,1-9.09-7.57c-6-6.79-2.2-14.33-6.37-21.18A20.51,20.51,0,0,0,68.5,65.6,3.69,3.69,0,0,1,67,65.39a3.49,3.49,0,0,1-1.48-2.11C61.42,52.64,49.33,43.52,52.3,31.47,53.51,26.55,53.8,24.18,52,19c-1.1-3.11-2.26-6.32-4.51-8.74A17,17,0,0,0,42,6.48,28.15,28.15,0,0,0,20,6C7.07,11.22,2.42,23.57,4.46,36.72c1.05,6.79,5.27,13.49,11.79,15.66,4,1.35,8.82,1,12.15,3.64a17.68,17.68,0,0,1,2.94,3.37c5.11,6.85,15.5,13.06,16.33,22.26.72,7.9-1.56,14.13,5.95,20,3.33,2.6,5.78,2.05,9.55,2.5,5,.59,8.07,2.49,11.91,5.93l11.83,10.58A18.81,18.81,0,0,1,91,125.23C94.51,131.45,88.25,147,101.37,144.12Z"/><path class="cls-5" d="M138.57,118.93c-11.1-3.84-18,8-25.42,12.62-11.36,7.07-19.87,20-13.08,33.25,2.91,5.69,13,7.33,14.49,13.48.33,1.36.11,2.8.33,4.19a6.77,6.77,0,0,0,6.18,5.52,23.87,23.87,0,0,1,2.75,0,8.46,8.46,0,0,1,2.71,1.13,18.55,18.55,0,0,1,5.07,3.65,24.28,24.28,0,0,0,1.63,1.9c2.77,2.56,7.63,1.25,9.84-1.79,1.16-1.59,2.69-2.05,3.49-3.87a6.7,6.7,0,0,0-1-6.26c6.45.48,11.72.36,15-3s6.41-9.87,3.55-13.23c4.49.06,8.46.45,11.5-2.3,3.94-3.56,5.06-8.15,3.89-13.19-.56-2.41-1.85-5-4.23-5.65-2-.56-4.2.42-6.21-.13-2.9-.8-4.13-4.33-6.77-5.79s-5.66-.56-8.21.76c-.3-5.64-3.31-6.78-6.19-10.95C145.36,125.5,143.26,120.55,138.57,118.93Z"/><path class="cls-3" d="M120.45,138.9c1.47-.54,2.38-2,3.26-3.28a45,45,0,0,1,13.34-13c3.09,6.76.52,14.84-3.62,21-1.56,2.34-3.36,4.57-4.34,7.2s-1,5.86.88,8c3.34,3.83,5.89.63,7.45-2a21.47,21.47,0,0,1,10.52-9.49,3.11,3.11,0,0,0,1.07-.59,3.07,3.07,0,0,0,.67-1.7c.66-3.56,4-8,3.39-11.53-.45-2.67-3.29-4.07-5.27-5.92s-3.28-4.54-4.85-6.88-3.75-4.56-6.54-4.9-5.45,1.29-7.81,2.85c-4.12,2.72-7.51,5.52-9.22,10.25C118.69,130.89,114.8,141,120.45,138.9Z"/><path class="cls-2" d="M100.06,164.81c2.91,5.69,13,7.33,14.49,13.48.33,1.36.11,2.8.33,4.19a6.77,6.77,0,0,0,6.18,5.52,23.87,23.87,0,0,1,2.75,0,8.46,8.46,0,0,1,2.71,1.13,18.55,18.55,0,0,1,5.07,3.65,24.28,24.28,0,0,0,1.63,1.9c2.77,2.56,7.63,1.25,9.84-1.79,1.16-1.59,2.69-2.05,3.49-3.87a6.7,6.7,0,0,0-1-6.26c6.45.48,11.72.36,15-3s6.41-9.87,3.55-13.23c.93,1.1,7.91-.16,9.12-.79,2.72-1.41,5.13-5.12,7-7.57a2.08,2.08,0,0,0,.46-.89c.16-1-1.31-1.66-2.29-1.26-2.81,1.15-2.65,2.43-6.1,2.39a30.28,30.28,0,0,1-8.74-1.52,32,32,0,0,1-14.2-9.19c-3.35,2.28-3.85,7.37-1.9,10.92s5.71,5.76,9.53,7.1c2.35.82,5.09,1.62,6.1,3.9,1.31,2.95-1.2,6.16-3.76,8.13-1.5,1.16-3.22,2.24-5.12,2.22-2.19,0-4.07-1.51-5.65-3a49.87,49.87,0,0,1-11.34-16.36,12.58,12.58,0,0,0-2.85,11.15,17.76,17.76,0,0,0,6.38,9.86c1.34,1.09,2.89,2.12,3.5,3.74s-.46,3.94-2.18,3.73a3.73,3.73,0,0,1-1.41-.6c-3.93-2.34-7.87-4.66-11.78-7-1.45-.88-6.64-2.81-6.65-4.57a3.21,3.21,0,0,1,.44-1.41c1.48-3,4.06-6,7.36-5.76a1.78,1.78,0,0,0,1-.08,1.51,1.51,0,0,0,.59-.93l2.25-7c-2.7.11-5.51.13-8-1s-4.51-3.63-4.17-6.31a9.61,9.61,0,0,1,1.41-3.44c2.28-4,5.94-8.26,7.5-12.49A23.77,23.77,0,0,0,131.7,130a78.3,78.3,0,0,0-18.14,18.71,4.74,4.74,0,0,1-1.35,1.47c-1.33.79-3.16,0-3.95-1.35a7.12,7.12,0,0,1-.56-4.52,23.48,23.48,0,0,1,5.86-12.69C101.68,137.47,93.66,152.27,100.06,164.81Z"/><path class="cls-3" d="M124.25,175a4.4,4.4,0,0,0,1.06,1.3,41.9,41.9,0,0,0,20.63,10.48l.65-.73c-2.26-2.63-5.18-4.58-7.8-6.84s-4.41-7.53-7.3-8.83C129,169.21,122.6,171.38,124.25,175Z"/><path class="cls-3" d="M157.5,174.13c4.93,1.5,8.89-1.8,4.66-6.25-3.81-4-10.66-4.62-13.41-9.43a4,4,0,0,0-1-1.41,3.18,3.18,0,0,0-2.25-.24,6.15,6.15,0,0,0-2.57.76c-2.31,1.53-1.15,4.42.21,6.06C147,168.25,151.74,172.37,157.5,174.13Z"/><path class="cls-3" d="M163.64,152.46c3.45,1.39,7.42,1.87,10.88.5,1-.39,2-1.08,2.15-2.14a2.66,2.66,0,0,0-.39-1.53c-1.13-2.08-3.37-3.25-5.48-4.3-3.88-1.93-12.42-8.55-16.66-4.73C148.37,145.44,159.91,151,163.64,152.46Z"/><path class="cls-4" d="M138.57,118.93c-11.1-3.84-18,8-25.42,12.62-11.36,7.07-19.87,20-13.08,33.25,2.91,5.69,13,7.33,14.49,13.48.33,1.36.11,2.8.33,4.19a6.77,6.77,0,0,0,6.18,5.52,23.87,23.87,0,0,1,2.75,0,8.46,8.46,0,0,1,2.71,1.13,18.55,18.55,0,0,1,5.07,3.65,24.28,24.28,0,0,0,1.63,1.9c2.77,2.56,7.63,1.25,9.84-1.79,1.16-1.59,2.69-2.05,3.49-3.87a6.7,6.7,0,0,0-1-6.26c6.45.48,11.72.36,15-3s6.41-9.87,3.55-13.23c4.49.06,8.46.45,11.5-2.3,3.94-3.56,5.06-8.15,3.89-13.19-.56-2.41-1.85-5-4.23-5.65-2-.56-4.2.42-6.21-.13-2.9-.8-4.13-4.33-6.77-5.79s-5.66-.56-8.21.76c-.3-5.64-3.31-6.78-6.19-10.95C145.36,125.5,143.26,120.55,138.57,118.93Z"/><path d="M118.29,181.32a18.46,18.46,0,0,1,1.77-5.71,12.67,12.67,0,0,1,4-4.75,11.3,11.3,0,0,1,6.16-1.95,18.89,18.89,0,0,1,6.34,1h0l1,2.13h0a3.22,3.22,0,0,0,.31,1.2,9.32,9.32,0,0,0,1,1.72,15.71,15.71,0,0,0,3,3,13.63,13.63,0,0,0,3.63,2,7.31,7.31,0,0,0,3.59.44l.52,5a12.15,12.15,0,0,1-5.89-1.16,18.06,18.06,0,0,1-4.58-3.08,19.68,19.68,0,0,1-3.48-4.14,13,13,0,0,1-1.25-2.57,5.64,5.64,0,0,1-.18-3.54h0l1,2.13a16,16,0,0,0-5.14-1.62,9.12,9.12,0,0,0-5.18.84A11.38,11.38,0,0,0,120.8,176,18,18,0,0,0,118.29,181.32Z"/><path d="M131.85,170.63a34.53,34.53,0,0,1,1.61-5.59,25.22,25.22,0,0,1,2.65-5.26,9.19,9.19,0,0,1,5-3.8,13,13,0,0,1,5.89-.44h0l.46,0,.28.54a14.3,14.3,0,0,0,3,3.88,14.76,14.76,0,0,0,4,2.69c.35.19.75.29,1.11.45a6.74,6.74,0,0,0,1.13.36l1.15.3,1.18.18.58.09.6,0,1.19.06c.8,0,1.61-.08,2.39-.11l.09,5c-1-.1-1.94-.17-2.9-.32l-1.44-.29-.71-.15-.71-.22-1.4-.44c-.46-.18-.91-.39-1.36-.58a9.18,9.18,0,0,1-1.31-.66c-.42-.25-.86-.46-1.26-.75a17.72,17.72,0,0,1-4.24-3.91,16.21,16.21,0,0,1-2.72-5l.74.57h0a12,12,0,0,0-4.74,1.2,6.76,6.76,0,0,0-1.81,1.32,7.09,7.09,0,0,0-1.2,1.81,21.42,21.42,0,0,0-1.58,4.7,38.53,38.53,0,0,0-.77,5Z"/><path class="cls-5" d="M154.16,140.24s-5.83,5.72-7.6,17.12"/><path d="M155.91,142a7.84,7.84,0,0,0-.67.64c-.24.25-.49.51-.72.79-.47.54-.93,1.11-1.36,1.71a31.73,31.73,0,0,0-2.36,3.8,35,35,0,0,0-1.83,4.16,40.57,40.57,0,0,0-1.33,4.41l-2.17-.34a42.85,42.85,0,0,1,.71-4.86,38.13,38.13,0,0,1,1.31-4.79,35.68,35.68,0,0,1,2-4.63c.39-.76.82-1.5,1.28-2.23.23-.37.48-.73.74-1.09a13.77,13.77,0,0,1,.9-1.14Z"/><path d="M100.35,150.25c0,.39.11,1,.2,1.47a6.85,6.85,0,0,0,.39,1.35,2.77,2.77,0,0,0,.47.84.55.55,0,0,0,.29.21,1.83,1.83,0,0,0,.69,0,6.17,6.17,0,0,0,1.24-.39,16.91,16.91,0,0,0,2.88-1.64c2-1.35,4.13-2.77,6.16-4.31a32.74,32.74,0,0,0,5.52-5.3,57.13,57.13,0,0,0,4.52-6.17c1.35-2.16,2.59-4.38,3.69-6.58.56-1.1,1.07-2.2,1.51-3.27a17.64,17.64,0,0,0,1-3,5.24,5.24,0,0,0,.13-.94c0-.16,0,.07.26.2s.22,0-.08-.16a6.94,6.94,0,0,0-1.25-.38l-.4-5a7.51,7.51,0,0,1,2.61-.26,5.66,5.66,0,0,1,3.38,1.42,5.47,5.47,0,0,1,1.28,1.82,6.25,6.25,0,0,1,.47,1.87,8.8,8.8,0,0,1-.27,2.89,23.07,23.07,0,0,1-4.15,7.64,72.13,72.13,0,0,1-5.32,6l-5.46,5.65a77.15,77.15,0,0,0-5.19,5.88,42.76,42.76,0,0,1-5.44,5.92,19.2,19.2,0,0,1-3.67,2.45,10.6,10.6,0,0,1-2.41.86,6.71,6.71,0,0,1-3.14-.05,5.91,5.91,0,0,1-2.91-1.85A8,8,0,0,1,96,154.89a11.72,11.72,0,0,1-.53-2.4,12.29,12.29,0,0,1-.08-2.38Z"/><path d="M52.82,97.47c-.69.23-.81,1.19-.43,1.91a3.4,3.4,0,0,0,2.1,1.5,8.17,8.17,0,0,0,3.2.24,12.72,12.72,0,0,0,3.35-.86,26,26,0,0,0,6.27-3.8,50.89,50.89,0,0,0,5.61-5.08,50.15,50.15,0,0,0,4.79-5.84,26.78,26.78,0,0,0,3.48-6.34c.73-2.1.84-4.27,0-5.61A3.81,3.81,0,0,0,79.54,72a1.83,1.83,0,0,0-.81-.18,1.38,1.38,0,0,0-.58.21l-2-5.94a7.76,7.76,0,0,1,6.21,1A9.78,9.78,0,0,1,86,71.19a9.9,9.9,0,0,1,.82,2.58,11.05,11.05,0,0,1,.12,2.56,15.23,15.23,0,0,1-1.08,4.61,33.89,33.89,0,0,1-4.35,7.34,54.72,54.72,0,0,1-5.4,6.24,50.79,50.79,0,0,1-6.3,5.3,31.4,31.4,0,0,1-7.41,4,18.22,18.22,0,0,1-4.3,1,12.77,12.77,0,0,1-4.64-.26A8.64,8.64,0,0,1,49,101.91a9.49,9.49,0,0,1-2.38-5.53Z"/><path class="cls-6" d="M164.79,130.85a5.65,5.65,0,0,0,.29-4.31,11.89,11.89,0,0,0-5.22-7.06c-2.54-1.36-5.74-.75-8-2.89a12.48,12.48,0,0,1-3.12-6.08,4,4,0,0,0-1-2,3.49,3.49,0,0,0-2.66-.56c-3.92.34-10.4,2.28-12.18,6.21-1.27,2.79-2.44,9.53.58,11.58a7,7,0,0,0,4,.78c4.07,0,7.47.35,10.12,3.87,2.27,3,3.38,7.43,7.74,7.86C159.5,138.61,163.26,134.35,164.79,130.85Z"/></g></g></svg>