<svg xmlns="http://www.w3.org/2000/svg" viewBox="0 0 216.32 233.27"><defs><style>.cls-1,.cls-7{fill:#e5ddd1;}.cls-2{fill:#fffcf8;}.cls-3{fill:#68625c;}.cls-4{fill:#aaa49b;}.cls-5{fill:#7f7a73;}.cls-6{fill:none;}.cls-6,.cls-7{stroke:#000;stroke-miterlimit:10;stroke-width:5px;}</style></defs><title>1_sk_body</title><g id="Слой_2" data-name="Слой 2"><g id="Слой_1-2" data-name="Слой 1"><path class="cls-1" d="M133.08,138.54c2.65-.11,7.17,3.32,9.67,4.29,4.65,1.8,9.63,3.25,14.43,4.6,11.24,3.16,22.43,6.6,33.91,8.79,4.19.8,8.64,1.41,12.62-.12,24.05-9.2-1.61-67-7.5-82.24-7.11-18.32-34.56-24.59-51.69-25.74a12.52,12.52,0,0,1-5.72-1.32,9.64,9.64,0,0,1-3.39-4.06c-2.63-5.23-2.93-11.28-3.35-17.13S131,13.68,127.73,8.79,117.92.73,112.61,3.2c-6.4,3-7.35,11.51-7.4,18.56-.08,10.38,3.51,22.32-8,25.52-18.83,5.22-43.2-8.88-59.58,3C31.69,54.57,27.79,61,24.39,67.49,13.63,87.93,3.75,112.05,2.62,135.3c-.38,7.8,0,15.87,3.23,23,9.25,20.08,25.91,11.68,40,3.24a179.38,179.38,0,0,1,32.93-15.85c5.92-2.07,16.28-10.48,22.41-5.47,2.21,1.8,2.85,4.85,3.28,7.67,1.9,12.26,1.53,23.28-.21,35.39a1.2,1.2,0,0,1-1.92,1.06c-5.81-1.85-11.64-3.8-17.38-5.64-6.45-2.06-11.27-8.66-17.79-10.73-6.24-2-35.21,6-30,18.24a8.42,8.42,0,0,0,3.5,4.44c2.05,1.61,1.19.8,1.32,3.41.39,7.64-11.77,10.2-8.35,19.41C36,220,43.86,219.52,49.71,220c18.29,1.65,40.91-6.44,57.69,2.55,5.85,3.13,11.22,8.6,17.82,8,5.05-.49,8.93-4.47,13.08-7.4,11.17-7.9,25.7-7.78,38.83-7.14,8.32.4,28.32,4.27,30.29-7.92.56-3.47-1.54-6.82-4-9.33s-5.41-4.61-7.27-7.59-2.29-7.3.25-9.72c1-1,2.42-1.53,3.45-2.53,10.52-10.22-27.53-14.87-33.78-12.1-9.88,4.37-20,11.19-29.16,16.8a7.65,7.65,0,0,1-4.57,1.51c-3.27-.33-4.79-4.18-5.35-7.41-1-5.64-.87-11.28-.76-17C126.33,154.53,124.64,138.88,133.08,138.54Z"/><path class="cls-2" d="M92.89,71.14A29.64,29.64,0,0,0,69.43,83.49c5.31,1.19,10.81-.13,16.22-.77s11.43-.4,15.5,3.22A131.67,131.67,0,0,0,76.9,92.81c-4.68,1.83-10,4.88-10.2,9.9a72,72,0,0,1,29.77-4.52c-6.68,6-16.4,6.86-24.66,10.42a39.26,39.26,0,0,0-19.37,18.27c11.48-5.8,23.34-11.72,36.17-12.71-4.14,3.17-8.31,6.38-11.66,10.38s-5.84,8.92-6,14.13q16.52-10,33.65-18.83l-6.82,1.52a3.31,3.31,0,0,1-1.77.07c-1.89-.64-1.13-3.51.11-5.07a32.29,32.29,0,0,1,10.43-8.55q-6.75,1-13.55,1.56a27.65,27.65,0,0,1,15.72-12.24L96,93.46a24,24,0,0,1,12.67-9.57,24.8,24.8,0,0,1-8.79-3.5A7,7,0,0,1,97.35,78c-1.26-2.31.09-5.35,2.26-6.85s4.9-1.85,7.51-2.16a9.78,9.78,0,0,1-8.94-9.39c0-4.69-9.33-7.81-12.89-4.61C80.21,59.58,90.23,68.05,92.89,71.14Z"/><path class="cls-2" d="M182.37,66.91c-2.77-.15-6.16,0-7.45,2.48a5,5,0,0,0,1,5.37A14.63,14.63,0,0,0,180.7,78l15.86,7.83c-6.48,1.32-13.5-1.53-19.68.82a5,5,0,0,0-3.05,2.55c-1.14,2.88,2.19,5.42,5,6.74l18.58,8.79a39.39,39.39,0,0,0-15.21-2.24c-3.3.17-7.39,1.58-7.6,4.88-.14,2.2,1.7,4.1,3.75,4.9s4.31.83,6.49,1.14a24.1,24.1,0,0,1,14.68,8L180,119.27c-2.71-.3-6.15-.2-7.24,2.3-.73,1.69.09,3.64,1.16,5.14,4.19,5.81,11.63,8,18.18,10.89,6,2.65,11.74,6.28,15.78,11.45a23.23,23.23,0,0,1-6.38-13c-.26-1.92-.1-4.24,1.55-5.25,1.84-1.12,4.19.14,5.84,1.52a70.2,70.2,0,0,1-9.32-11.14c-1.47-2.19-2.87-4.83-2.07-7.34,1-3.15,5.82-4.14,8-1.65a35.8,35.8,0,0,1-10.82-11.06c-1.62-2.62-2.94-5.71-2.27-8.72s4.14-5.47,6.9-4.1c-4-2.17-8.06-4.59-10.46-8.43s-2.47-9.53,1-12.39A26.2,26.2,0,0,1,179,59.82c-2.77-3.24-4.75-7.36-9.63-5.87-4.69,1.43-7.73,5.44-2.49,7.82C171,63.67,177.79,66.66,182.37,66.91Z"/><path class="cls-3" d="M78.73,145.81c5.92-2.07,16.28-10.47,22.41-5.47,2,1.62,2.71,4.26,3.14,6.83,2.31-9.48,2.58-20.48-2.17-22.07a19.68,19.68,0,0,0-5.58-1,111.76,111.76,0,0,1-10.93,5C77.9,132,72.14,139.68,65.93,144.8a44.55,44.55,0,0,1-5,3.56,73.34,73.34,0,0,0-4.27,7.18A163.39,163.39,0,0,1,78.73,145.81Z"/><path class="cls-4" d="M100.68,218.74c0-.36-.69-.45-.59-.1.32-.18.2.4-.11.61C100.31,219.2,100.64,219.06,100.68,218.74Z"/><polygon class="cls-4" points="87.89 57.84 87.89 57.84 87.89 57.84 87.89 57.84"/><path class="cls-4" d="M95.64,216.68c-1-1.42-1.55-3.07-2.5-4.5A21,21,0,0,0,87,206.41c.05.23.12.45.16.68,0-.24-.11-.46-.16-.68-7.15-4.6-17.45-6.85-24.27-5.11-2,.52-4.7,1.14-5.81-.64a2.94,2.94,0,0,1,.44-3.33,7,7,0,0,1,3-1.87,21.85,21.85,0,0,1,18.27,1.17,63.15,63.15,0,0,1,6.69,4.95c-6.12-12.92-21.83-11.15-35.18-16.49-6-2-6.22-7.63-3.57-12.62-6.76,3.28-11.88,8.09-9.43,13.86a8.43,8.43,0,0,0,3.5,4.44c2.05,1.61,1.19.8,1.32,3.41.39,7.64-11.77,10.2-8.35,19.41,2.45,6.59,10.27,6.09,16.12,6.61,9.08.57,18-.6,27-1.3,2.67-.21,5.71-.89,8.28-.93,3.07-.05,5.64,1.67,8.65,2a17.84,17.84,0,0,0,6.16-.7.42.42,0,0,0,.14-.06l-.15,0A5.16,5.16,0,0,1,95.64,216.68Z"/><path class="cls-3" d="M50.12,185.09c13.35,5.34,29.06,3.56,35.18,16.49a23.74,23.74,0,0,0,4.23,2.69,137,137,0,0,0,15.79,6.56c-3.29-8.23-3.2-17.25-3.2-26.43-5.75-1.83-11.52-3.76-17.21-5.58-6.45-2.06-11.27-8.66-17.79-10.72-3.3-1-13,.7-20.57,4.38C43.9,177.46,44.08,183.08,50.12,185.09Z"/><path class="cls-4" d="M116.25,121.88A7.23,7.23,0,0,0,115,119c-1.48-1.59-4.08-1.07-6.13-.36a103,103,0,0,0-12.3,5.51,19.68,19.68,0,0,1,5.58,1c4.76,1.58,4.48,12.59,2.17,22.07,0,.28.09.56.14.84,1.9,12.26,1.53,23.28-.21,35.39a1.2,1.2,0,0,1-1.92,1.06l-.18-.06c0,9.18-.09,18.2,3.2,26.43l1.42.45c1.07.32,9,.45,9.15.61A26.94,26.94,0,0,1,111,196.13c.09-7.25,3.09-14.12,4.22-21.28,1.73-10.9-.91-22.07.18-33.06a15.72,15.72,0,0,1,2.29-7.52,7.47,7.47,0,0,1,4.71-3.12,5.22,5.22,0,0,1,2.11.07A15.38,15.38,0,0,1,116.25,121.88Z"/><path class="cls-4" d="M112,66.11c1.54.55,3.54-.58,5.15-.52,2.22.09,4.26,1.2,6.28,2a8.12,8.12,0,0,1,3.8-2.66q13.43-5.51,27-10.61c-9.49-2-19.18,1.33-28.51,4a13.16,13.16,0,0,1-3.11.61,36.49,36.49,0,0,0-4-.13c-1.43.21-2.13,1.12-3.27-.16l-4-4.51a2,2,0,0,1-.6-1c-.12-1,1.09-1.51,2-1.87a9,9,0,0,0,4.87-4.67c1.38-3.11.58-7.33.26-10.63a78.94,78.94,0,0,1,.46-19c.37-2.51.9-5.1,2.43-7.13s4.33-3.29,6.68-2.32c-3.62-4.16-9.42-6.68-14.86-4.15-6.4,3-7.35,11.51-7.4,18.56-.08,10.38,3.51,22.33-8,25.52-18.83,5.22-43.2-8.88-59.58,3-5.91,4.28-9.82,10.75-13.21,17.21C13.63,88.08,3.75,112.21,2.62,135.46c-.38,7.8,0,15.87,3.23,23,9.25,20.08,25.91,11.68,40,3.24q5.34-3.21,10.86-6.12a73.34,73.34,0,0,1,4.27-7.18c-6,3.67-12.89,5.78-19.33,3.52a4.29,4.29,0,0,1-2.17-1.39c-1.19-1.68.08-4,1.43-5.53,6.83-7.86,16.26-12.92,25.6-17.53q17.92-8.84,36.47-16.29c-7.6,1.11-14.85,3.85-22,6.67-8.35,3.3-16.66,6.74-24.69,10.77a164.28,164.28,0,0,0-22,13.21c-2.79,2-5.28,4.41-6.63-.13-1-3.31,1.14-7.26,2.65-10.07,2.39-4.46,5.5-6.95,10-9.3a276.87,276.87,0,0,1,34.94-15.43A47.58,47.58,0,0,1,86,104c9.54-1.06,18.76-2,28.4-2.45l-.37-4.86c-21.53-.15-45,2.43-64.59,11.82-3.09,1.48-11.39,8.81-12.84,3.66-1.39-5,6.35-9.95,9.82-11.83,4.95-2.69,10.45-4.14,15.86-5.72,8.44-2.47,16.82-5.33,25.51-6.62s17.9-.91,25.83,2.89a21.57,21.57,0,0,1,.75-6.35c-10.24-2.39-21.11-4-31.46-2.21a151.24,151.24,0,0,0-16.33,3.21c-2.11.6-14.16,2.59-14.95,4.17,1.54-3.11.33-6.15,2.38-9.26a17,17,0,0,1,8.33-6.29c5.05-1.85,10.58-1.77,16-1.51a278.38,278.38,0,0,1,34,3.74,4.31,4.31,0,0,0-1.06-4.78,10.28,10.28,0,0,0-4.6-2.36c-7.39-2.12-15.21-1.85-22.88-2.43s-15.68-2.21-21.41-7.34c-6.56-5.87,11.23-4.54,13.45-4.09,4,.82,8.07,1.54,12.07,2.47l10.56-.51a30.93,30.93,0,0,0-10.52-7.49,87.06,87.06,0,0,1,14.23,7.31l.94,0a3.24,3.24,0,0,0,.28.9c1.11.78,2.2,1.6,3.29,2.51C108.49,62.05,109.69,65.29,112,66.11Z"/><path class="cls-4" d="M102.16,57.14c.41.27.81.57,1.22.86a3.24,3.24,0,0,1-.28-.9Z"/><path class="cls-4" d="M98.45,57.32l-10.56.51h0L101,60.52A30.23,30.23,0,0,0,98.45,57.32Z"/><path class="cls-4" d="M98.45,57.32a30.23,30.23,0,0,1,2.57,3.2L87.89,57.84c2.23.52,4.44,1.1,6.6,1.81l14.43,4.74c-.38-2.85-4.39-3.91-5.54-6.39-.41-.29-.81-.58-1.22-.86Z"/><path class="cls-5" d="M138.72,127a15.72,15.72,0,0,1,7,.72c13.49,3.65,25.32,7.35,36.44,15.82a18.17,18.17,0,0,1,4.53,7,2.22,2.22,0,0,1-.49,2.22,2.68,2.68,0,0,1-1.44.49c-9.75,1.18-18.41-5.85-27.86-8.5-6.24-1.74-12.48-2.28-18.11-5.77C134.14,136.1,130.9,128.56,138.72,127Z"/><path class="cls-3" d="M203.29,153c-1.44-4.88-5.29-8.66-9.33-11.75-10.55-8-23.23-12.75-35.89-16.7a12.64,12.64,0,0,1-4.61-2.17c-8.55-1.57-16.63-3.07-25.21-4-.76,7-2.13,14.25-.08,21a8.51,8.51,0,0,1,9.73,1.24C136,137.75,134,133.88,136,131c1.89-2.69,5.91-2.41,9.13-1.72a108.17,108.17,0,0,1,29.15,10.4c5,2.71,10.28,7,10,12.62l-5.05.3c7.23,2.19,14.79,4.4,22.24,3.11a2.39,2.39,0,0,0,1.82-1A2.32,2.32,0,0,0,203.29,153Z"/><path class="cls-4" d="M195,106.25l2.49,2.07A26.39,26.39,0,0,0,195,106.25Z"/><path class="cls-4" d="M152.83,121.79c-1.29-1.54-1.34-4.27.41-5.26a5,5,0,0,1,2.35-.46,86.2,86.2,0,0,1,46.87,12.41,63.06,63.06,0,0,0-40-18.73c-3.67-.28-7.39-.24-11-1.07a4.34,4.34,0,0,1-3.13-1.92c-.9-1.86.88-3.9,2.68-4.92,4.37-2.47,9.6-2.78,14.62-2.8,10.24,0,21.24,1.21,29.32,7.21l-4.47-3.71a28.16,28.16,0,0,0-5.9-4.1,28.2,28.2,0,0,0-7.14-1.91c-11.36-2-23.07-4-34.33-1.48.12-3.57,3.65-6,7-7.35,13-5.32,27.65-3.62,41.58-1.84-11-6.41-24.41-10.1-36.7-6.62-4.49,1.27-9.2,3.47-13.6,1.93-.08-3.33,2.21-6.36,5-8.11s6.18-2.45,9.44-3.13l18.42-3.82a56.17,56.17,0,0,0-34.71,4.61c0-9.38,13.58-11.73,20.71-13.54l9.51-2.42c-8.58-3.82-18.73,1.47-27.3,3.54-5.22,1.26-10.59,2.59-15,5.7a21.24,21.24,0,0,0-4.62,4.47,117.93,117.93,0,0,1,5.37,49.91v0c8.58.94,16.66,2.43,25.21,4A5.53,5.53,0,0,1,152.83,121.79Z"/><path class="cls-5" d="M162.78,168c3.74-.75,7.62-1.5,11.34-.66s7.28,3.72,7.62,7.52c.27,2.94-1.43,5.8-3.76,7.62a22.31,22.31,0,0,1-8.06,3.55,2,2,0,0,1,3.26.54c-6.31-.59-12.68,1.32-18.17,4.51s-10.17,7.58-14.48,12.22c-2.73,2.94-6,6.47-10.31,6.47,1.86-2.43,2.51-7.65,3.24-10.75,1-4.32-.35-8.59-2.15-12.58,2-1.92,4.73-2.14,7-3.31,2.85-1.44,5.72-3.41,8.47-5.07Q154.91,173.18,162.78,168Z"/><path class="cls-6" d="M133.08,138.69c2.65-.11,7.17,3.32,9.67,4.29,4.65,1.8,9.63,3.25,14.43,4.6,11.24,3.16,22.43,6.6,33.91,8.79,4.19.8,8.64,1.41,12.62-.11,24.05-9.2-1.61-67-7.5-82.25-7.11-18.32-34.56-24.59-51.69-25.74A12.52,12.52,0,0,1,138.8,47a9.64,9.64,0,0,1-3.39-4.05c-2.63-5.23-2.93-11.28-3.35-17.12S131,13.83,127.73,8.95,117.92.89,112.61,3.36c-6.4,3-7.35,11.51-7.4,18.56-.08,10.38,3.51,22.33-8,25.52-18.83,5.22-43.2-8.88-59.58,3-5.91,4.28-9.82,10.75-13.21,17.21C13.63,88.08,3.75,112.21,2.62,135.46c-.38,7.8,0,15.87,3.23,23,9.25,20.08,25.91,11.68,40,3.24a179.39,179.39,0,0,1,32.93-15.85c5.92-2.07,16.28-10.47,22.41-5.47,2.21,1.8,2.85,4.85,3.28,7.67,1.9,12.26,1.53,23.28-.21,35.39a1.2,1.2,0,0,1-1.92,1.06c-5.81-1.85-11.64-3.8-17.38-5.64-6.45-2.06-11.27-8.66-17.79-10.72-6.24-2-35.21,6-30,18.24a8.43,8.43,0,0,0,3.5,4.44c2.05,1.61,1.19.8,1.32,3.41.39,7.64-11.77,10.2-8.35,19.41,2.45,6.59,10.27,6.09,16.12,6.61,18.29,1.65,40.91-6.44,57.69,2.55,5.85,3.13,11.22,8.6,17.82,8,5.05-.49,8.93-4.47,13.08-7.4,11.17-7.9,25.7-7.78,38.83-7.14,8.32.4,28.32,4.27,30.29-7.92.56-3.47-1.54-6.82-4-9.33s-5.41-4.61-7.27-7.59-2.29-7.3.25-9.73c1-1,2.42-1.53,3.45-2.53,10.52-10.22-27.53-14.87-33.78-12.1-9.88,4.37-20,11.19-29.16,16.8a7.64,7.64,0,0,1-4.57,1.51c-3.27-.33-4.79-4.17-5.35-7.41-1-5.64-.87-11.28-.76-17C126.33,154.68,124.64,139,133.08,138.69Z"/><path class="cls-6" d="M57.86,45.68A121.86,121.86,0,0,1,115.6,67.31c1.51,1.07,3.15,2.22,5,2.18,1.64,0,3.09-1,4.47-1.93a77.18,77.18,0,0,1,50-12.48"/><path class="cls-6" d="M28.49,169.91c17.13-5.57,34.05-25.11,50.88-34.81s27.65-19.26,47-17.66c8,.66,15.82,2.62,23.54,4.81,13.51,3.83,26.58,8.65,38.6,16,3.74,2.29,9.73,4.19,12.94,7,3.42,3,6.6,8.61.84,11.22"/><path class="cls-7" d="M113.62,72.35c-1.6,16.85.91,33.79,3.52,50.51a14.08,14.08,0,0,0,1.7,5.59c1.07,1.65,3.09,2.84,5,2.33,2.79-.75,3.52-4.29,3.73-7.17,1.24-16.5,2.45-33.34-1.57-49.4C123.84,65.62,114.81,59.81,113.62,72.35Z"/><path class="cls-6" d="M115.62,107.59s-47,8.29-77,32-29.12,21-33.81,16.24"/><path class="cls-6" d="M113.83,98s-31.72-4.47-65.72,14.06S7.58,136.52,3.05,129.94"/><path class="cls-6" d="M113.12,85.09s-26.05-7-61.53,6.57S9.33,95.83,9.33,95.83"/><path class="cls-6" d="M113.62,72.35s-26.5-5.17-44-7.24-15,1.78-26,4.38-19.5,2.86-15.13-9"/><path class="cls-6" d="M126,74.21s49.92-19.41,70.22-.2"/><path class="cls-6" d="M130.17,86.19s45.42-16.7,72.77,5"/><path class="cls-6" d="M130.17,99s51.41-15.73,81,18.25"/><path class="cls-6" d="M126,107.59s77-2.7,87.87,34"/><path class="cls-6" d="M102.42,121.17,105,148.31c1.35,14.19,2.64,28.89-2,42.37a8.3,8.3,0,0,0-.71,3.73c.15,1.1,2.31,15.41,3.4,15.62,8.11,1.58,13.37,3.32,21.45.85,5.15-7.27,6.28-14,3-23.54-1.52-4.44-3.37-8.22-4.38-12.81-1.54-7-1.19-14.27-.82-21.44l1.25-24.62"/><path class="cls-6" d="M48.26,171.69c-5.63,4.82-1.9,13.9,4.58,15.71,4.29,1.2,8.86.36,13.3.74a24.35,24.35,0,0,1,12.41,4.72c4.94,3.69,8.41,9.21,13.74,12.32,13.61,8,35.92,10.91,48-1,3.78-3.71,7.07-8,11.48-10.94,5.36-3.57,11.9-4.82,17.86-7.28,4.56-1.88,12.91-6.75,12.52-12.72-.4-6.18-7.94-7.17-12.52-6.48"/><path class="cls-2" d="M121.82,117.12c.19.86.6,1.91,1.48,2a36.55,36.55,0,0,0,1.53-8.64c.63-6.82,1.13-13.76.27-20.58-.27-2.14-1.89-14.39-4.83-14.32C114.77,75.68,120.87,112.9,121.82,117.12Z"/><path class="cls-2" d="M117,152.57q.73,14.53,1.46,29.07a8,8,0,0,1-.32,3.37,25.62,25.62,0,0,1-1.87,2.9,9.48,9.48,0,0,0-1,4.8,26.38,26.38,0,0,0,1.72,9.13,6.4,6.4,0,0,0,2.43,3.43c3,1.76,6.61-1.49,7.66-4.8,2.52-7.95-1.82-16.22-3.86-24.3-1.79-7.12-1.79-14.54-1.77-21.88,0-2.06,1.26-9.51-2.18-10C116.13,143.86,117,150.58,117,152.57Z"/><path class="cls-2" d="M158.09,196c2.42-.92,5-1.42,7.45-2.23a30.76,30.76,0,0,0,13.51-9c2.73-3.15,5.43-7.2,9.59-7.4,1.2,1.72.35,4.09-.74,5.88s-2.46,3.67-2.2,5.74c.38,3,3.68,4.4,6.1,6.15a14.08,14.08,0,0,1,5.54,8.91c-3.09,1.06-5.64-2.35-8-4.65-3.58-3.55-8.87-5-13.91-4.76s-9.87,2.12-14.33,4.48A65.25,65.25,0,0,0,148,208.23c-3.61,3.24-6.86,6.88-10.66,9.89s-8.31,5.42-13.16,5.63c-4.54.2-10.16-2-11.88-6.55.43,1.12,13.35.88,14.87.53,4-.92,7.46-3.31,10.59-5.87C144.4,206.44,149.86,199.13,158.09,196Z"/></g></g></svg>