<svg xmlns="http://www.w3.org/2000/svg" viewBox="0 0 362.27 464.8"><defs><style>.cls-1{fill:#686868;}.cls-2{fill:#898785;}.cls-3{fill:#fcd49a;}.cls-13,.cls-4,.cls-5{fill:#f4efe9;}.cls-4{opacity:0.5;}.cls-5{opacity:0.3;}.cls-6{fill:#874a18;}.cls-7{fill:#442610;}.cls-8{fill:none;stroke:#000;stroke-miterlimit:10;stroke-width:8px;}.cls-9{fill:#383837;}.cls-10{fill:#1e1e1c;}.cls-11{fill:#3f2a16;}.cls-12{fill:#775433;}</style></defs><title>1_sk_sword</title><g id="Слой_2" data-name="Слой 2"><g id="Слой_1-2" data-name="Слой 1"><path class="cls-1" d="M71,343.21,288,34.35S318.95,4.16,358,4c-6.74,104.77-16.86,147.35-16.86,147.35l-227.58,224Z"/><path class="cls-2" d="M113.56,375.37l227.58-224S351.26,108.79,358,4a85.62,85.62,0,0,0-26.1,4.38c-8,37.51-25.57,114.46-38.56,135.25C278.42,167.52,138.1,321.41,98.87,364.27Z"/><path class="cls-3" d="M352.6,10.66s-11.17,88.17-32.5,136.13C294,179.14,132.64,349.61,132.64,349.61s183.71-170,202.86-200.15S352.6,10.66,352.6,10.66Z"/><polygon class="cls-4" points="282.49 158 267.67 223.68 238.56 252.34 243.34 203.84 282.49 158"/><polygon class="cls-5" points="316.7 73.75 306.64 176.25 335.5 149.46 352.6 10.66 330.93 12.91 316.7 73.75"/><polygon class="cls-5" points="201.27 251.21 197.7 288.62 168.4 321.39 174.4 281.16 201.27 251.21"/><path class="cls-6" d="M110.09,296.59c3.52-5.22,8.24-11.22,10.9-16.72,2,6.87-.58,17.46-4.65,23.92-2,3.16-6.42,4.73-6.78,8.88-.21,2.37,4.15,2.32,4.09,4.25-.09,2.92-1.12,3.9-1.9,7.06-.82,3.33-7.1,7-2.59,10.44,3.71,2.87,7.17-2.18,10.07-4.88,3.33-3.1,5.68-7.5,9-10.54s7-3.76,10.36-6.84c-2-3.27-1.36-12.43,3.33-14.18,2.74-1,4.29,4.36,6.67,4,4-.64,3.69-3.71,6.62-6,4.69-3.62,7.58-6.35,9.79-11.2,2.33-5.1,1-12,3.78-17,6-10.54,15.21-4,23.38-10.88,9.4-7.95,11.8-19,22.92-25.86,7.62,6.12-23.08,31.31-28.05,36.87-5.52,6.17-8.58,12.28-11.43,19-1.79,4.19-1.18,4.57-4.31,8.86-1.54,2.11-6.2,4.94-7.26,7.16-1.88,3.91.63,4.44-.28,8.14-1.28,5.25-2.58,6.36-5,11.17-4.42,8.84-6,10.22-13.06,16.15-12.1,10.2-19,27-32.19,35-7.43-6.28-17.38-6.55-24.71-13.51-4.91-4.66-13.54-13.33-12.55-20.34,1.13-8,12.12-19.92,17.38-26.86,3-4,6-9.25,9.53-12.64,3.38-3.22,7.79-4.51,9.2-7.93"/><path class="cls-7" d="M89.48,318.22a12.35,12.35,0,0,0,2.7,1.85c3.3-3.06,4.42-7.32,6.43-10.89,7.22,4.24,1.44,23.94-8.22,24.61-7.58,15.65,13.93,31.12,22.48,12.27,1.57-3.47-3.35-5.05,1.69-8.64,2.68-1.91,5.72,2,9,.44,4.16-1.94,4.72-6.47,7.15-9.54,2.6-3.28,4.74-4.22,7.21-6.93,6.4-7,7.57-12.69,14.12-16.95,7.62-5,9.45-7.79,13.62-16.69,2-4.22,3-5.62,4.12-9.6.91-3.27-3.78-7.65,3.17-8.8,9.93-1.64-2.34,13.28-4.81,16.28-4.2,5.09-3.79,4.69-5.93,10.95-1.61,4.7-2.36,9.52-6.11,13.71-5.46,6.09-21.76,12.55-12.43,21.82-4.22,13-20.88,27.26-29.71,37.93-10.79-4.25-22.65-9.29-29.33-18.61-4.8-6.68-6.28-7.95-3.4-15.59,1.55-4.13,6.82-15.15,8.91-17.11"/><path class="cls-8" d="M71,343.21,288,34.35S318.95,4.16,358,4c-6.74,104.77-16.86,147.35-16.86,147.35l-227.58,224Z"/><path class="cls-9" d="M279.75,76.13l-131,185.61S281.85,126.1,279.75,76.13Z"/><path class="cls-2" d="M290.78,48.05S119.37,289.38,92.47,325.14C155.32,245.2,267.4,92.71,290.78,48.05Z"/><polyline class="cls-10" points="206.76 276.64 229.55 215.26 230.66 257.23 208.75 278.14"/><polyline class="cls-10" points="273.36 209.17 289.43 167.28 293.99 195.12 273.6 215.06"/><polygon class="cls-3" points="293.15 189.98 289.43 167.28 300.88 182.82 293.15 189.98"/><polygon class="cls-3" points="239.4 243.79 230.54 252.88 229.55 215.26 239.4 243.79"/><rect class="cls-11" x="-2" y="403.75" width="92.99" height="23.94" transform="translate(-304.14 184.96) rotate(-50.39)"/><path class="cls-12" d="M44.07,397.46,37.81,405a87.22,87.22,0,0,1,12.65,1.45c4.81,1,9.8,2,14.87,2.85l5.9-7.12c-6-1-12.25-2.15-19.17-3.57A78,78,0,0,0,44.07,397.46Z"/><path class="cls-12" d="M59,388l-5.6-1.81-5.5,6.64c2.9.92,5.78,1.85,8.62,2.78,5.22,1.7,10.57,3.42,16,5l5.56-6.72C71.66,392.06,65.26,390,59,388Z"/><path class="cls-12" d="M52.2,413.24c-5.69-2-11.2-3.65-16.91-5.18l-5.62,6.8c6.84,1.75,13.25,3.59,19.86,5.93l4.06,1.41.84.29,5.44-6.58-3.68-1.28Z"/><path class="cls-12" d="M29.2,444.8c1.74.58,3.54,1.14,5.35,1.7l5.52-6.68c-2.91-.88-5.69-1.73-8.35-2.62-5.41-1.8-10.92-3.45-16.38-5l-5.56,6.72C16.26,440.75,22.82,442.68,29.2,444.8Z"/><path class="cls-12" d="M28.44,433.64c2.47.6,4.95,1.26,7.57,2,2,.54,4.12,1.09,6.22,1.63l5.67-6.85c-3.28-.77-6.57-1.64-9.83-2.51-2.55-.68-5.19-1.38-7.73-2-2.33-.57-5.16-1.2-8.29-1.8l-5.85,7.07C20.92,431.91,25.19,432.85,28.44,433.64Z"/><rect class="cls-8" x="-2" y="403.75" width="92.99" height="23.94" transform="translate(-304.14 184.96) rotate(-50.39)"/><rect class="cls-1" x="73.71" y="324.38" width="23.94" height="92.99" transform="translate(-254.67 200.43) rotate(-50.39)"/><rect class="cls-8" x="73.71" y="324.38" width="23.94" height="92.99" transform="translate(-254.67 200.43) rotate(-50.39)"/><ellipse class="cls-13" cx="91.67" cy="370.31" rx="2.13" ry="33.75" transform="translate(-252.06 204.84) rotate(-50.39)"/></g></g></svg>