<svg xmlns="http://www.w3.org/2000/svg" viewBox="0 0 234.71 277.17"><defs><style>.cls-1{fill:#5e4224;}.cls-2,.cls-6{fill:none;}.cls-3{fill:#775433;}.cls-4{fill:#2d1d0f;}.cls-5{fill:#3f2a16;}.cls-6{stroke:#000;stroke-miterlimit:10;stroke-width:8px;}.cls-7{fill:#d39b75;}.cls-8{fill:#5b5b5b;}.cls-9{fill:#707070;}.cls-10{fill:#fcd49a;}</style></defs><title>1_sk_shield</title><g id="Слой_2" data-name="Слой 2"><g id="Слой_1-2" data-name="Слой 1"><path class="cls-1" d="M229.38,24.37C164.88,2.29,123.9,4,117.36,4.05v.19h0V4.05c-4.61,0-64,.22-112,20.31-3,76.41,0,125.27,0,125.27s10,77.14,112,123.14h0c102-46,112-123.14,112-123.14S232.38,100.78,229.38,24.37Z"/><path class="cls-2" d="M204.64,206.74c.29-1,.53-2.16.74-3.31q-.82,1.16-1.68,2.34A5.74,5.74,0,0,0,204.64,206.74Z"/><path class="cls-1" d="M61.5,9l-1.14.19a33.09,33.09,0,0,1,.66,7C61.26,13.75,61.4,11.35,61.5,9Z"/><path class="cls-1" d="M186.61,23.29c-.19,3.79-1.59,8.11,0,11.79,4.71-3.46,4-13.35,5-18.61.2-1,.35-2,.49-3.07-2-.5-4-1-6-1.42A68.86,68.86,0,0,1,186.61,23.29Z"/><path class="cls-1" d="M64.46,65.13c-1,19-2.19,36.74-.1,55.84,2.83,25.82-.42,51.63,4.86,77.55a188.61,188.61,0,0,1-.79-25.59c.8-14,.64-27.19,2.6-41.06,1.36-9.6-.73-18.16-1.17-27.65-.5-10.7.92-21.65,2-32.22,2-19.52,8.4-38.47,9.8-58.29.18-2.55.47-5.08.81-7.61-5,.54-10.36,1.21-16,2.05a87.44,87.44,0,0,1,1,11C67.63,34.7,65.3,49.82,64.46,65.13Z"/><path class="cls-1" d="M10.23,52.18c1.7,6.95,1.17,14.22,1.57,21.36.53,9.43,2.29,18.66,1.48,28.07-.75,8.7-2.43,17.31-3.89,25.88,3.33-14.34,4.61-28.79,8.14-43.13,2.32-9.42,1.58-18.9,2.45-28.52.45-5,.4-12.45,1.82-18.62,1.46-1.47,2.86-2.86,4.18-4.15.22,3.48.66,7,.89,10.6.48,7.56-1.46,18.1,1.41,25.11.14-6.83.62-16.48,3.06-22.6.18,4.52,1.81,8,2.89,12.37,1.63,6.54-.36,12.91-.43,19.44-.07,8.19.66,17,1,25.78A378.84,378.84,0,0,1,41.74,58.8c2.52-11.37,7-21.83,8.89-33.41.57-3.53.92-9.17,1.65-14.77-15.39,3-31.74,7.38-47,13.74-.44,11.1-.74,21.62-1,31.49,1.8-2.05,3.57-4,5.31-5.94C9.86,50.65,10,51.4,10.23,52.18Z"/><path class="cls-1" d="M11.74,148.91c-.07-.48-2.84-15.27-3.87-13.72-1.53,2.3-.67,5-1.11,7.44a23.88,23.88,0,0,1-1.58,4.1c.1,1.92.16,2.91.16,2.91S7.2,163.9,17.42,183.81a140.55,140.55,0,0,0-2.12-15C13.93,162.22,12.72,155.57,11.74,148.91Z"/><path class="cls-1" d="M127.89,40.69c.35,11.59,1.64,23.43,2.85,35,.85,8.14.23,16.41.92,24.59.76,9.09,2,19.43,1.24,28.37,4.63-6.47.82-23.94,1.19-31.46.65-13.1,2.49-26.29,1.64-39.41-.67-10.25-2.11-20.35-1.32-30.56.62-7.94,2.42-15,3.64-22.67-3-.21-5.66-.35-8-.44C129.9,16.36,127.53,29.07,127.89,40.69Z"/><path class="cls-1" d="M93.86,31.82c-.78,15.31-1.59,32.36-.58,47.66,1.5,22.76-3.54,44.94-.78,67.92,1.46,12.15,3.22,24.87,3.61,37.06.24,7.48,3.18,20.78.21,27.32,2.38-3,2.24-10.26,2.77-14.38.9-6.91,1.8-13.62,2.23-20.51,1-16.31-3-33,1.52-48.79,5.29-18.46,10.39-36.74,9-56.36a291.78,291.78,0,0,1,.33-36.5c.52-8.88,3.34-17.43,4.08-26.42.13-1.59.28-3.18.44-4.77-2.67,0-11.08.1-22.84,1C94.12,14,94.31,23,93.86,31.82Z"/><path class="cls-1" d="M163.1,83.36c-.68,10.2.3,20.31,1.61,30.49,1.19,9.21,0,18,.55,27.14,1,15.63-1.6,31-.8,46.68.7,13.6,4.43,27.58,4.3,40.95,2-6.45.39-13.4.33-19.87-.15-17.13-1.53-33.21,1.12-50.23,2.89-18.61,1.13-38.8,2.09-57.73,1.11-21.82,4.17-42.7,6.81-64.39,1-8.38.32-17.21-.13-26q-8-1.66-15.05-2.79c.42,4,.83,7.91,1.16,11.9C166.92,41.21,164.52,62,163.1,83.36Z"/><path class="cls-1" d="M120.64,22.26c.19,9.43,2.66,20,1.14,29.32,2.65-11.71.87-25.6,1-37.79A54,54,0,0,1,124.18,4h-3C120.73,10.06,120.52,16.12,120.64,22.26Z"/><path class="cls-1" d="M4,100.41q0,4.77.09,9.12A172.31,172.31,0,0,1,8,87.17,107.8,107.8,0,0,1,4,100.41Z"/><path class="cls-1" d="M158.46,118.57c-1.19-17.43-4.05-34.25-3.82-51.84.23-16.9.39-33.55-.45-50.49-.17-3.34-.28-6.7-.38-10-4.93-.64-9.41-1.09-13.42-1.42-1.67,18.39-3,36.85-1.2,55.38,1.66,17.55-.55,34.87-1.54,52.29-.91,16,2.23,31.89,1.42,47.95-1.12,22.19,0,44.32.18,66.57.1,10.12.47,23.15-1.12,34.82q-4.24-.62-8.28-1.37c-.49-6-.39-12.07-.65-18-.77-17.74-.62-35.61-2.18-53.33-2.36-26.82-4-53.06-4.83-80-.49-15.51-1.72-30.79-3.37-46.2,1.52,13-3.94,26-7.3,38.12-4.22,15.26-2.1,31.72-2.71,47.46-.64,16.55-2.68,32.89-3.56,49.41-.71,13.53-2,27-3,40.53-.29,4.36.1,9.67-.09,14.72q-3.8-1.3-7.3-2.67c-1.76-8-2-17-2.67-23.72-2-18.5,2.16-36.79-.28-55.35-4.16-31.69-4.09-63.25-3.79-95.07C88.37,54.56,90.65,31,85.95,9.39c-4.83,9.67-2.81,27.19-5,38.37-3.31,16.63-4.68,33.55-5.25,50.58-.34,10.24.55,20.54.3,30.78-.32,13.48-2.47,27-3.67,40.46-1.74,19.46.9,38.9,1.95,58.4.15,2.75.8,7.87,1.29,13.54-3-1.62-5.66-3.18-8-4.64-.17-4.76-.29-9.37-.7-13.44-2.21-22.1-7-42.93-5.24-65.22,2.1-26.86-3.52-52.06-4.43-78.8-.43-12.87.6-25.82,1.05-38.63.19-5.47,3.08-17.59-1.56-22C54,23,54.44,28.87,53.76,33.87c-1,7.54-3.36,14.94-4.87,22.37a369.58,369.58,0,0,0-6.93,53c-1,17.43-2.39,35.2-4.43,52.52-1.78,15.09-2.86,33.27,1.15,48.73l-.55-.61c-6-18.59-5.5-39.2-8-58.4-1.8-13.74-4.2-29-3.82-42.75.26-9.36,3-23.2-1.6-32.08-6.07,17.19-5.51,37.91-6.41,56.24-.65,13.17.3,25.37,1,38.55.33,5.8.31,11.53.73,17.32,14.46,25.86,42.7,59.4,97.29,84h0a243.07,243.07,0,0,0,49.08-29.13c-3.29-10-3.86-22.14-5.18-32.07C157.1,180.32,160.6,149.82,158.46,118.57Z"/><path class="cls-1" d="M226.64,106.92c-.61-12.79,0-25.6-.45-38.41-.27-8-.06-15.86-.07-23.75l4.07,5q-.3-12.11-.81-25.38c-12.23-4.19-23.61-7.51-34.08-10.16,2,19-.17,38.36.87,57.43.61,11.19,2.55,22.29,2.73,33.5.15,9.55-2.57,19.46-1.33,29,1.66,12.7,2.78,25.38,4.26,38.18a171.54,171.54,0,0,1,.77,23.85c-.08,3.15-.93,7,1.09,9.63q.86-1.17,1.68-2.34c1.81-9.88.72-23.08-.35-32.62-1.38-12.3-1.72-23.5-2.29-35.87-1.28-27.76-1.9-58.08,2.27-85.26a167.41,167.41,0,0,1,5.52-23.6q2.71,3.2,5.21,6.17c-1.4,7.74-2.73,15.58-2.63,23.43.3,21.76,1.76,43.78.27,65.46-1.59,23-1.25,45.8-.54,68.91,0,.6,0,1.2,0,1.8,10.56-17.92,14.56-32.62,15.9-38.91,0-3.73.11-7.45.22-11.13C229.37,130,227.21,118.69,226.64,106.92Z"/><path class="cls-1" d="M189.51,96.4c-.2-11.14-.33-22.19-.75-33.29-.2-5.13,2.87-15.49-1.39-19.34-6.1,4-6.87,19.6-7.53,25.94-2.07,19.94-.76,39.72-1.25,59.76-.54,21.71-2.31,43.45-3,65.21-.36,12.21-1.17,24.08-2.41,36.2-.18,1.79-.08,4.5-.08,7.37a190.67,190.67,0,0,0,24.32-24.45c-1.18-15.37-2.39-30.76-3.44-46.16C192.38,143.83,189.93,120.29,189.51,96.4Z"/><path class="cls-3" d="M202.61,196.14a171.54,171.54,0,0,0-.77-23.85c-1.48-12.8-2.6-25.48-4.26-38.18-1.25-9.52,1.48-19.43,1.33-29-.18-11.21-2.12-22.31-2.73-33.5-1-19.07,1.1-38.4-.87-57.43l-3.21-.79c-.13,1-.29,2-.49,3.07-1,5.25-.25,15.15-5,18.61-1.62-3.69-.22-8,0-11.79A68.86,68.86,0,0,0,186.1,12c-2.43-.55-4.8-1.06-7.12-1.54.45,8.74,1.15,17.58.13,26-2.63,21.69-5.7,42.57-6.81,64.39-1,18.94.8,39.12-2.09,57.73-2.64,17-1.27,33.1-1.12,50.23.06,6.47,1.67,13.42-.33,19.87.13-13.36-3.6-27.35-4.3-40.95-.8-15.66,1.78-31,.8-46.68-.58-9.15.64-17.93-.55-27.14-1.31-10.17-2.29-20.29-1.61-30.49,1.42-21.39,3.81-42.15,2-63.81-.34-4-.74-7.94-1.16-11.9-3.56-.58-6.93-1.06-10.11-1.47.1,3.35.22,6.71.38,10,.84,16.94.68,33.59.45,50.49-.23,17.6,2.63,34.41,3.82,51.84,2.14,31.25-1.36,61.75,2.79,93,1.32,9.93,1.89,22.11,5.18,32.07q3.47-2.69,6.7-5.41c0-2.87-.1-5.58.08-7.37,1.24-12.11,2-24,2.41-36.2.64-21.76,2.42-43.5,3-65.21.49-20-.82-39.82,1.25-59.76.66-6.34,1.43-22,7.53-25.94,4.26,3.86,1.2,14.21,1.39,19.34.42,11.1.56,22.15.75,33.29.42,23.89,2.87,47.43,4.5,71.24,1.05,15.4,2.26,30.79,3.44,46.16q3.35-4.06,6.25-8C201.68,203.12,202.53,199.29,202.61,196.14Z"/><path class="cls-3" d="M213.38,121.15c1.5-21.68,0-43.7-.27-65.46-.11-7.85,1.23-15.69,2.63-23.43q-2.5-3-5.21-6.17A167.41,167.41,0,0,0,205,49.69c-4.17,27.18-3.55,57.5-2.27,85.26.57,12.37.9,23.57,2.29,35.87,1.07,9.53,2.16,22.73.35,32.62,2.8-4,5.29-7.84,7.49-11.57,0-.6,0-1.2,0-1.8C212.13,167,211.79,144.14,213.38,121.15Z"/><path class="cls-3" d="M59.31,4.47q-3.82,2.79-6.9,5.2c0,.32-.08.63-.12.95q4.09-.8,8.07-1.47C60.05,7.56,59.68,6,59.31,4.47Z"/><path class="cls-3" d="M3.88,150.55a12.09,12.09,0,0,1,1.3-3.83c-.27-5.43-.82-18.29-1.06-37.2A216.39,216.39,0,0,0,3.88,150.55Z"/><path class="cls-3" d="M17.72,187l2.41,2.75c0-.34,0-.67-.06-1q-1.41-2.52-2.65-4.94Q17.58,185.41,17.72,187Z"/><path class="cls-3" d="M18.29,132.88c.9-18.34.35-39.05,6.41-56.24,4.63,8.88,1.86,22.72,1.6,32.08-.38,13.78,2,29,3.82,42.75,2.51,19.2,2,39.81,8,58.4l.55.61c-4-15.46-2.93-33.64-1.15-48.73,2-17.32,3.39-35.09,4.43-52.52a369.58,369.58,0,0,1,6.93-53c1.51-7.43,3.84-14.84,4.87-22.37.68-5,.28-10.87,2.89-15.11,4.64,4.43,1.75,16.56,1.56,22-.45,12.8-1.49,25.76-1.05,38.63.91,26.74,6.53,51.94,4.43,78.8-1.75,22.3,3,43.12,5.24,65.22.41,4.08.53,8.68.7,13.44,2.35,1.46,5,3,8,4.64-.49-5.67-1.14-10.79-1.29-13.54-1-19.5-3.69-38.94-1.95-58.4,1.2-13.41,3.35-27,3.67-40.46.24-10.24-.65-20.55-.3-30.78.57-17,1.94-34,5.25-50.58,2.23-11.18.21-28.69,5-38.37C90.65,31,88.37,54.56,88.17,76.33c-.3,31.82-.37,63.38,3.79,95.07,2.44,18.56-1.71,36.85.28,55.35.72,6.68.91,15.71,2.67,23.72q3.5,1.37,7.3,2.67c.18-5.05-.21-10.36.09-14.72.92-13.51,2.25-27,3-40.53.87-16.52,2.92-32.86,3.56-49.41.61-15.74-1.51-32.21,2.71-47.46,3.36-12.14,8.82-25.14,7.3-38.12,1.65,15.41,2.89,30.69,3.37,46.2.84,26.92,2.47,53.16,4.83,80,1.56,17.73,1.41,35.59,2.18,53.33.26,5.92.16,12,.65,18q4,.76,8.28,1.37c1.6-11.67,1.22-24.7,1.12-34.82-.21-22.25-1.3-44.39-.18-66.57.81-16.05-2.33-31.94-1.42-47.95,1-17.42,3.2-34.73,1.54-52.29-1.75-18.53-.47-37,1.2-55.38l-2.34-.18c-1.22,7.63-3,14.73-3.64,22.67-.79,10.21.66,20.31,1.32,30.56.85,13.11-1,26.31-1.64,39.41-.37,7.52,3.44,25-1.19,31.46.71-8.93-.48-19.27-1.24-28.37-.69-8.18-.07-16.45-.92-24.59-1.21-11.61-2.5-23.45-2.85-35s2-24.32,2.13-36.54c-2.2-.08-4.15-.12-5.83-.14a54,54,0,0,0-1.41,9.78c-.12,12.19,1.66,26.08-1,37.79,1.52-9.28-.95-19.88-1.14-29.32-.12-6.14.09-12.2.54-18.26-1.75,0-3,0-3.83,0v.19h0V4.05h-.62c-.16,1.59-.31,3.18-.44,4.77-.74,9-3.56,17.54-4.08,26.42a291.78,291.78,0,0,0-.33,36.5c1.34,19.62-3.75,37.9-9,56.36-4.51,15.75-.5,32.48-1.52,48.79-.43,6.88-1.33,13.59-2.23,20.51-.54,4.12-.39,11.34-2.77,14.38,3-6.54,0-19.84-.21-27.32-.39-12.19-2.15-24.91-3.61-37.06-2.76-23,2.28-45.16.78-67.92-1-15.3-.21-32.35.58-47.66.45-8.78.25-17.8,0-26.76-3.52.27-7.34.62-11.4,1-.34,2.52-.63,5.05-.81,7.61C80.27,33.53,73.9,52.48,71.88,72c-1.09,10.57-2.52,21.52-2,32.22.44,9.49,2.53,18,1.17,27.65-2,13.87-1.8,27.09-2.6,41.06a188.61,188.61,0,0,0,.79,25.59c-5.28-25.93-2-51.74-4.86-77.55-2.09-19.1-.94-36.85.1-55.84.84-15.31,3.18-30.43,3.09-46a87.44,87.44,0,0,0-1-11q-2.49.38-5,.8c-.1,2.39-.23,4.78-.48,7.2a33.09,33.09,0,0,0-.66-7q-4,.68-8.07,1.47c-.73,5.6-1.08,11.24-1.65,14.77-1.88,11.58-6.37,22-8.89,33.41a378.84,378.84,0,0,0-6.94,44.95C34.46,95,33.73,86.17,33.8,78c.06-6.53,2.06-12.91.43-19.44-1.08-4.32-2.7-7.85-2.89-12.37-2.44,6.12-2.92,15.77-3.06,22.6-2.87-7-.92-17.55-1.41-25.11-.23-3.56-.67-7.12-.89-10.6-1.33,1.29-2.73,2.68-4.18,4.15C20.37,43.38,20.43,50.84,20,55.83c-.87,9.62-.13,19.1-2.45,28.52C14,98.69,12.72,113.14,9.39,127.48c1.46-8.56,3.14-17.17,3.89-25.88.81-9.41-.95-18.64-1.48-28.07-.4-7.13.13-14.41-1.57-21.36-.19-.78-.37-1.53-.54-2.26C8,51.82,6.18,53.81,4.38,55.86,4,72.7,3.95,87.66,4,100.41A107.8,107.8,0,0,0,8,87.17a172.31,172.31,0,0,0-3.86,22.36c.24,18.91.79,31.77,1.06,37.2a23.88,23.88,0,0,0,1.58-4.1c.43-2.46-.42-5.14,1.11-7.44,1-1.55,3.8,13.25,3.87,13.72,1,6.66,2.19,13.31,3.57,19.91a140.55,140.55,0,0,1,2.12,15q1.24,2.42,2.65,4.94c-.42-5.79-.4-11.52-.73-17.32C18.59,158.25,17.64,146.06,18.29,132.88Z"/><path class="cls-3" d="M230.19,49.75l-4.07-5c0,7.89-.21,15.78.07,23.75.44,12.81-.16,25.63.45,38.41.56,11.77,2.72,23.09,2.35,34.89-.12,3.69-.18,7.4-.22,11.13.46-2.14.61-3.31.61-3.31S231.73,111.43,230.19,49.75Z"/><path class="cls-4" d="M230.57,69.33c-.19-4.74,1.49-44.07-1.19-45C164.88,2.29,123.9,4,117.36,4.05c-4.61,0-64,.22-112,20.31-3,76.41,0,125.27,0,125.27s10,77.14,112,123.14c2.4,1.08,15-7.29,17.5-8.66q8.41-4.56,16.45-9.75a217.59,217.59,0,0,0,26.63-19.87c5.11-4.62,10.53-8.71,15.54-13.89a90.66,90.66,0,0,0,13.28-18.2,30.64,30.64,0,0,0,4.41-8.07c1.43-2.73,2.85-5.47,4.29-8.23,1-1.92,2.47-4.46,2.68-6.91,2.67-4.07,5.48-7.81,7-12.59,5.1-16.5,5.86-33.76,5.86-51.5C231,99.85,231.19,84.55,230.57,69.33ZM219.47,51.1c0,11-1.06,21.67-1.5,32.63-.8,20,.49,40.31-.5,60.38a169.87,169.87,0,0,1-4.14,30.18c-1,1.22-1.54,3.62-2,5.18-2.07,7.12-6.56,13.62-9.72,20.28A105.27,105.27,0,0,1,188.84,220c-7.24,9.39-16.2,14.63-25.71,21.2a230.41,230.41,0,0,1-36.24,20.3c-93.4-42.13-102.6-112.79-102.6-112.79s-2.75-44.75,0-114.73a209.79,209.79,0,0,1,32.6-10.35l9,26.7,8.4,4,12,49.64-2-52.42-3.79-5.33L79.25,19.28a326.52,326.52,0,0,1,47.64-3.93,282.75,282.75,0,0,1,41.94,3.18c14.51,2.31,29.3,5.32,43.28,9.89C223.14,32,219.47,41.61,219.47,51.1Z"/><polygon class="cls-5" points="73.82 23.09 84.15 65.9 94.46 72.91 104.69 148.49 84.46 74.76 69.61 68.54 53.68 26.98 52.7 11.99 71.57 8.96 73.82 23.09"/><path class="cls-4" d="M72.84,9l1,14.13L84.15,65.9l10.31,7,10.22,75.58-2.6-78.06-6.74-9.18-2.14-41L85.74,6.19S84.34,6.23,72.84,9Z"/><path class="cls-6" d="M229.38,24.37C164.88,2.29,123.9,4,117.36,4.05v.19h0V4.05c-4.61,0-64,.22-112,20.31-3,76.41,0,125.27,0,125.27s10,77.14,112,123.14h0c102-46,112-123.14,112-123.14S232.38,100.78,229.38,24.37Z"/><path class="cls-5" d="M124.18,12.56s9.89,89.79,8.77,89.75,2.68-88.11,2.68-88.11l30.8,4,7.95,57.15,2.92-56.71,18,2,6.49,1.67,2.75,49.33,4.23-47.18S153.73,10.18,124.18,12.56Z"/><polygon class="cls-7" points="24.29 33.96 53.51 24.43 69.61 68.54 84.46 74.76 104.2 146.71 80.21 78.73 64.25 73.44 49.97 30.61 24.29 33.96"/><path class="cls-7" d="M91.66,17.61c-1,.12,2.46,4.25,2.46,4.25a353.62,353.62,0,0,1,66.59.26C196.05,25.77,215,36.61,215,36.61l2.77,72.92,2.72-78.92S159.86,9.35,91.66,17.61Z"/><path class="cls-5" d="M44.63,209.95,50,68.59l6.35,152L88.76,247V118.14l8.7,135.47,23.14,10.5L133,258.64l3-99.2,5.87,95L176.29,232V110l6.34,112.63,26.13-35.83-3.38-95.41,10.36,85.24s-18.89,52-68.33,80.23l-30.05,15.94S57.13,231.95,44.63,209.95Z"/><path class="cls-7" d="M212.75,30.86h-4s-3.6,33.79-3.53,33"/><circle class="cls-4" cx="197.45" cy="51.58" r="14.59"/><circle class="cls-8" cx="197.85" cy="51.58" r="11.36" transform="translate(-0.85 3.37) rotate(-0.98)"/><circle class="cls-9" cx="197.85" cy="51.58" r="6.82" transform="translate(-0.84 3.35) rotate(-0.97)"/><path class="cls-10" d="M197.56,40.23a11.21,11.21,0,0,0-10.44,7.83,10.62,10.62,0,0,1,9-5.39A10.77,10.77,0,0,1,207,53.34,10.91,10.91,0,0,1,204.07,61a11.42,11.42,0,0,0,4.87-9.59A11.29,11.29,0,0,0,197.56,40.23Z"/><circle class="cls-4" cx="201.79" cy="152.95" r="14.59"/><circle class="cls-8" cx="202.18" cy="152.95" r="11.36" transform="translate(-2.57 3.46) rotate(-0.98)"/><circle class="cls-9" cx="202.18" cy="152.95" r="6.82" transform="translate(-2.55 3.44) rotate(-0.97)"/><path class="cls-10" d="M201.89,141.59a11.21,11.21,0,0,0-10.44,7.83,10.62,10.62,0,0,1,9-5.39,10.77,10.77,0,0,1,10.86,10.67,10.91,10.91,0,0,1-2.94,7.66,11.42,11.42,0,0,0,4.87-9.59A11.29,11.29,0,0,0,201.89,141.59Z"/><circle class="cls-4" cx="132.95" cy="232.61" r="14.59"/><circle class="cls-8" cx="133.34" cy="232.61" r="11.36" transform="translate(-3.94 2.3) rotate(-0.98)"/><circle class="cls-9" cx="133.34" cy="232.61" r="6.82" transform="translate(-3.91 2.29) rotate(-0.97)"/><path class="cls-10" d="M133.06,221.26a11.21,11.21,0,0,0-10.44,7.83,10.62,10.62,0,0,1,9-5.39,10.77,10.77,0,0,1,10.86,10.67,10.91,10.91,0,0,1-2.94,7.66,11.42,11.42,0,0,0,4.87-9.59A11.29,11.29,0,0,0,133.06,221.26Z"/><circle class="cls-4" cx="56.32" cy="170.68" r="14.59"/><circle class="cls-8" cx="56.71" cy="170.68" r="11.36" transform="translate(-2.9 0.99) rotate(-0.98)"/><circle class="cls-9" cx="56.71" cy="170.68" r="6.82" transform="translate(-2.88 0.98) rotate(-0.97)"/><path class="cls-10" d="M56.43,159.33A11.21,11.21,0,0,0,46,167.16a10.62,10.62,0,0,1,9-5.39,10.77,10.77,0,0,1,10.86,10.67,10.91,10.91,0,0,1-2.94,7.66,11.42,11.42,0,0,0,4.87-9.59A11.29,11.29,0,0,0,56.43,159.33Z"/><circle class="cls-4" cx="41.67" cy="56.98" r="14.59"/><circle class="cls-8" cx="42.06" cy="56.98" r="11.36" transform="translate(-0.96 0.72) rotate(-0.98)"/><circle class="cls-9" cx="42.06" cy="56.98" r="6.82" transform="translate(-0.96 0.72) rotate(-0.97)"/><path class="cls-10" d="M41.77,45.63a11.21,11.21,0,0,0-10.44,7.83,10.62,10.62,0,0,1,9-5.39A10.77,10.77,0,0,1,51.23,58.75a10.91,10.91,0,0,1-2.94,7.66,11.42,11.42,0,0,0,4.87-9.59A11.29,11.29,0,0,0,41.77,45.63Z"/><circle class="cls-4" cx="130.19" cy="40.22" r="14.59"/><circle class="cls-8" cx="130.58" cy="40.22" r="11.36" transform="translate(-0.67 2.23) rotate(-0.98)"/><circle class="cls-9" cx="130.58" cy="40.22" r="6.82" transform="translate(-0.66 2.21) rotate(-0.97)"/><path class="cls-10" d="M130.29,28.87a11.21,11.21,0,0,0-10.44,7.83,10.62,10.62,0,0,1,9-5.39A10.77,10.77,0,0,1,139.75,42a10.91,10.91,0,0,1-2.94,7.66,11.42,11.42,0,0,0,4.87-9.59A11.29,11.29,0,0,0,130.29,28.87Z"/></g></g></svg>