<svg xmlns="http://www.w3.org/2000/svg" viewBox="0 0 681.98 448.02"><defs><style>.cls-1{fill:#1e1811;opacity:0.5;}.cls-2{fill:#5b5b5b;}.cls-3{fill:#5e4224;}.cls-4{fill:#a55711;}.cls-5{fill:#2b1b0d;}.cls-6{fill:#7f7f7e;}.cls-7{fill:#1e1e1c;}.cls-8{fill:#fcd49a;}.cls-10,.cls-9{fill:none;stroke:#000;stroke-miterlimit:10;}.cls-9{stroke-width:8px;}.cls-10{stroke-width:5px;}.cls-11{fill:#383837;}.cls-12{fill:#757575;}.cls-13{fill:#e2e2e2;}.cls-14{fill:#777;}.cls-15{fill:#686868;}</style></defs><title>1_sk_helmet</title><g id="Слой_2" data-name="Слой 2"><g id="Слой_1-2" data-name="Слой 1"><path class="cls-1" d="M176.89,417.22l27.25,29.71s54.67-57.76,107.26-93.47,111.07-53,111.07-53,52.83,22.73,69.15,13.73,33.27-34.07,33.27-34.07l77.74,5.94.59-23.35s-93.75-38-217,14.48S176.89,417.22,176.89,417.22Z"/><path class="cls-2" d="M508.81,164.14c4,10.3,9.37,16.44,20.82,26.86,2.27,2.07,4.62,4.19,7.4,5.17a19.57,19.57,0,0,0,7.92.62,202.25,202.25,0,0,0,61.32-13.88c4-1.58,8.62-4.36,8.61-9.16,0-1.76-.67-3.59-.12-5.22s2.19-2.47,3.67-3.12c10.31-4.5,23.64-7.54,32.85-14.45,5-3.76,7.89-10.15,10.56-16.26l11.3-25.91c1.88-4.31,3.78-8.69,4.51-13.45,1.2-7.85-.91-15.88-3-23.56-2.45-9-4.94-18.14-9.34-26.18-9.89-18.06-27.8-28.09-44.76-37.18,4.35,12.1,10.73,23.36,13.52,36s1,27.81-8.29,35.27c-6.33,5.09-17.49,12.42-25.56,10.71-8.63-1.82-10.36-9.75-21-7.05L516.28,99.23c-2.3.58-4.76,1.26-6.34,3.22a14,14,0,0,0-2.24,5.66l-4.42,18.67a40,40,0,0,0-1.45,9.43,40.68,40.68,0,0,0,1.49,9.26A145.59,145.59,0,0,0,508.81,164.14Z"/><path class="cls-3" d="M598.43,135.1a66,66,0,0,0,10.42,22c2.18,3,4.69,5.76,7.85,7.17,5.59,2.49,11.66-2.59,16.88-4.54,6.11-2.28,12.31-4.72,17.7-8.76,5-3.76,7.89-10.15,10.56-16.26l11.3-25.91c1.88-4.31,3.78-8.69,4.51-13.45,1.2-7.85-.91-15.88-3-23.56-2.45-9-4.94-18.14-9.34-26.18-9.89-18.06-27.8-28.09-44.76-37.18,4.35,12.1,10.73,23.36,13.52,36s1,27.81-8.29,35.27c-4.52,3.63-9.83,7.68-15.27,9.29-3.07.91-9.08-.56-10.44,3.09C595,105.51,594.63,121,598.43,135.1Z"/><path class="cls-4" d="M634.29,105.35c-7.24,10.4-24.76,10.81-31.56-2.19a41.34,41.34,0,0,1-3.1-9.87c.14-.4.27-.8.42-1.19,1.37-3.64,7.37-2.18,10.44-3.09,5.44-1.61,10.76-5.66,15.27-9.29,9.28-7.46,11.08-22.63,8.29-35.27-2.69-12.17-8.7-23.07-13-34.66C645.88,32.36,655,77.35,634.29,105.35Z"/><path class="cls-3" d="M599.64,93.28a41.34,41.34,0,0,0,3.1,9.87c6.8,13,24.31,12.59,31.56,2.19,20.73-28,11.59-73-13.25-95.56-.17-.45-.34-.89-.5-1.34,17,9.09,34.87,19.12,44.76,37.18,4.4,8,6.89,17.17,9.34,26.18,2.08,7.68,4.19,15.71,3,23.56-.73,4.75-2.63,9.14-4.51,13.45l-11.3,25.91c-2.67,6.11-5.54,12.5-10.56,16.26-5.38,4-11.58,6.48-17.7,8.76-5.22,1.95-11.29,7-16.88,4.54-3.16-1.41-5.67-4.22-7.85-7.17a66,66,0,0,1-10.42-22A71.69,71.69,0,0,1,599.64,93.28Z"/><path class="cls-5" d="M597.42,103.82c1.91,10.49,6.57,21.21,13.19,28.51,8.45,9.32,18.42,7.62,28.51,3.17a14.91,14.91,0,0,0,4.74-2.85,16.92,16.92,0,0,0,3.24-5.59c4-9.57,7.21-19.51,10.44-29.44,2.11-6.48,4.25-13.14,4.13-20.08-.12-6.46-2.19-12.71-4.63-18.6-4-9.73-9.65-17.71-14.73-26.66-2.08-3.66-3.79-7.22-6.37-10.63-2-2.61-5.62-8.81-8.47-10a77.62,77.62,0,0,1,30.85,24c8.5,10.93,13,22.88,16.25,36.89,1.57,6.76,3,13.75,2.18,20.62-.63,5.32-2.57,10.29-4.49,15.18l-10.38,26.44c-1.53,3.89-3.09,7.84-5.55,11.05-3.86,5-9.51,7.76-15,10.33l-23.61,11.1a10.12,10.12,0,0,0-1.42.79,118.77,118.77,0,0,1-10.23-19.21c-2.56-6.06-4.17-12.43-6.18-18.79a79.67,79.67,0,0,1-3.26-32C596.81,99.92,597.07,101.87,597.42,103.82Z"/><path class="cls-6" d="M578.77,91.54c-1.43,8.21,10.26,21.95,4.06,26.45-3.13,2.27-33.66,7.29-37.35,8-16.33,3-19.65-3.64-36.07-1.31a3.22,3.22,0,0,1-1.68-.06c-1.68-.68-1.59-3.36-1.18-5.3l2.12-9.87c.57-2.67,1.2-5.46,2.83-7.48,1.89-2.34,4.78-3.23,7.51-4Q536.47,93,554.15,89.1q8.61-1.91,17.27-3.58C577,84.43,580.17,83.51,578.77,91.54Z"/><path class="cls-7" d="M520.31,183.57a42.07,42.07,0,0,1-5.27-5.8l-.21-.31Z"/><path class="cls-7" d="M520.31,183.57l-5.49-6.11.21.31a48.32,48.32,0,0,1-9.2-22.71c3.58,10.21,13.52,16.15,23.14,17.28s19.16-1.61,28.56-3.92q9-2.22,18.14-3.93c5.79-1.09,12.49-1,18-3.21q-5.85-19.93-10.24-40.34a80,80,0,0,1-2-13c-.41-8.69,1.82-17.18,4-25.46,3.25,1.27,6.62,2.61,9.12,5.29,5.1,5.47,1.3,13.3,1.45,20.1a81.67,81.67,0,0,0,4.33,24.56c4.33,12.65,8.69,24.61,16,35.64a3.36,3.36,0,0,0-1.48,1.94c-.29,1.16.19,2.4.22,3.62.08,3.57-3.48,5.57-6.46,6.68-19.16,7.11-38.72,13.34-58.84,15.77-6,.73-12.35,1.08-18-1.46-7-3.12-12-10.09-16.66-16.83A42.07,42.07,0,0,0,520.31,183.57Z"/><polygon class="cls-8" points="533.65 98.36 585.46 82.46 585.46 82.46 582.83 117.99 576.65 94.36 533.65 98.36"/><path class="cls-9" d="M508.81,164.14c4,10.3,9.37,16.44,20.82,26.86,2.27,2.07,4.62,4.19,7.4,5.17a19.57,19.57,0,0,0,7.92.62,202.25,202.25,0,0,0,61.32-13.88c4-1.58,8.62-4.36,8.61-9.16,0-1.76-.67-3.59-.12-5.22s2.19-2.47,3.67-3.12c10.31-4.5,23.64-7.54,32.85-14.45,5-3.76,7.89-10.15,10.56-16.26l11.3-25.91c1.88-4.31,3.78-8.69,4.51-13.45,1.2-7.85-.91-15.88-3-23.56-2.45-9-4.94-18.14-9.34-26.18-9.89-18.06-27.8-28.09-44.76-37.18,4.35,12.1,10.73,23.36,13.52,36s1,27.81-8.29,35.27c-6.33,5.09-17.49,12.42-25.56,10.71-8.63-1.82-10.36-9.75-21-7.05L516.28,99.23c-2.3.58-4.76,1.26-6.34,3.22a14,14,0,0,0-2.24,5.66l-4.42,18.67a40,40,0,0,0-1.45,9.43,40.68,40.68,0,0,0,1.49,9.26A145.59,145.59,0,0,0,508.81,164.14Z"/><path class="cls-10" d="M597.37,89.52s-8.56,40.85,18.83,76.84"/><path class="cls-2" d="M181.16,441.58c1.77-2.06,78-90.65,195.39-144,118.82-54,199.66-40,240.55-31.7-3.59-.73-11.29-64.59-12.87-74-11.63-.58-12.92-11.51-17.31-20.32-7.23-14.5-15-28.78-22.45-43.16a42.23,42.23,0,0,0-5.93-9.31c-3.48-3.79-8.19-6.16-12.79-8.46-26.09-13-62.51-26.56-90.58-34.47-50.69-5.13-88.52-2.62-135.1,11.55-45.42,13.82-86.75,39-121,71.75-7.4,7.07-14.83,14.3-20.17,23-4.8,7.85-7.75,16.66-10.66,25.39l-22.75,68.17c-2,6-4,12.13-4.57,18.47-.76,9.12,1.62,18.19,4,27L154.6,358c2,7.34,1.32,14.29-5.56,18.54C152.82,383.61,176,434.54,181.16,441.58Z"/><path class="cls-11" d="M376.55,297.6a433.39,433.39,0,0,1,98.53-31.68,383.71,383.71,0,0,1,50.34-6.12c7.17-.39,14.37-1.14,21.47-1.56,3.58-.21,7,.83,10.57,1,1.85.07,8.86-2,9.9-1.49-7.75-3.82-17.34-2.72-24.83-7-5.39-3.1-8.94-8.57-12.06-14a130.67,130.67,0,0,1-10.12-21.92c-.82-2.32-5.58-24.88-6.45-25l-21.14-1.77c2.43,9.63,16.2,48.42,10,56.58-5,6.56-36.49,3.94-44.61,5.48a203.57,203.57,0,0,0-24.71,6.7c-3.86,1.24-8.7,2.26-11.48-.7a10.84,10.84,0,0,1-2-4L401.39,199a155.94,155.94,0,0,0-7.32,55.08c.17,3.57.46,7.19-.41,10.66-3.05,12.28-21.26,15.09-31.23,19.53-12.47,5.56-29.73,19.25-42.87,21.27-11.72,1.8-22.41,10.34-31.54,17.33-5.08,3.89-9.83,8.5-15.14,12.06-3.48,2.33-9.65,7.13-13.93,7.2-4.93.09-7.68-5.54-9.2-10.23-2.64-8.12-5.26-17.09-2-25,1.64-3.94,4.6-7.17,7.55-10.25,10.57-11,21.24-20.5,33.91-28.84,34.21-22.51,68.91-49.69,109.84-51.06.54-28.75-18.36-53.76-36.33-76.2a220.75,220.75,0,0,1,17,49.84c.44,2.07.83,4.34-.13,6.23a9.07,9.07,0,0,1-4.47,3.7c-22.61,10.68-44.95,22-66.77,34.19Q295,242,281.94,250c-6.29,3.85-14.38,11.73-21.07,14a4.29,4.29,0,0,1-4.66-2,11.54,11.54,0,0,1-1.52-5.16,90.43,90.43,0,0,1,3.48-37.39c3.42-11.19,3.88-24.26-1.15-35.12-2.89-6.24-7.56-11.48-11-17.45s-5.53-13.38-2.78-19.69c5.6-12.87,33.11-27.44,45.71-31.15,22.14-6.51,37.48,9.21,58.43,12.28l-15.62-12.93a9.21,9.21,0,0,1-3.15-3.75c-1.74-5,5-8.36,10.18-9.3l43.83-8c10.35-1.89,21-3.78,31.3-1.6s19.27,8.21,27.27,15a150.81,150.81,0,0,1,49.48,81.6L557,185.46l-44.33-9.81a10.44,10.44,0,0,1-4-1.46c-1.55-1.12-2.35-3-3.11-4.72a212.43,212.43,0,0,0-41.94-63c-2.27-2.36-4.76-5-4.79-8.29-.08-6.87,9.44-8.81,16.25-7.92a131.06,131.06,0,0,1,41,12.45,369.47,369.47,0,0,0-42.9-18.29c-19-6.67-40.22-8.59-60.22-9.12C364.87,74,316.27,84,273.2,105.89c-18,9.18-38.53,20.79-53.14,34.92-13.87,13.42-32.11,28.74-43.09,44.65-5.29,7.66-8.62,16.47-11.73,25.25q-10.35,29.19-18.17,59.2c-5.4,20.74-8.63,41.67-.95,62.2C148,337,159.51,364.43,156,368.47l-8.59,9.94,33.7,63.2S257.74,351.56,376.55,297.6Z"/><path class="cls-12" d="M488.2,104.47a134.83,134.83,0,0,1,23.55,20.4,166.13,166.13,0,0,1,21,29.25c1.61,2.85,13.82,32.35,14.21,32.34a64.66,64.66,0,0,1,13.71,1.16c.11,0,12.29,4.89,7.88,6.44l-19,6.68c-2,.7-4.16,1.55-5.13,3.42s-.47,4,.05,6c3.74,14.11,8.95,27.63,11.82,42a5.59,5.59,0,0,0,1.36,3.17,5.46,5.46,0,0,0,2.57,1.06,313.86,313.86,0,0,0,53.49,7.07c-.58,0-3.68-31.52-4.07-34.47-1.44-10.9-1.3-21.37-2.08-32.34a5.93,5.93,0,0,0-.85-3.19c-1.64-2.21-5.07-1.19-7.79-1.56-4.38-.6-7-5-9-9a182.12,182.12,0,0,1-11.36-26.63c-2.89-8.79-10.12-20.86-16.36-27.69-3.13-4.72-6.3-9.5-10.51-13.29C540,104.81,525.17,102,510.94,96.71c-15.68-5.84-30.75-12.19-47.2-16.05-5.45-1.28-11.35-2.35-16.49-.12C461.13,88.07,475.28,95.47,488.2,104.47Z"/><path class="cls-13" d="M413.07,75.29c3.32-.54,8.34,1.34,11.55,2,12,2.35,23.63,5.88,35.51,8.62,27.49,6.33,53.7,21,75.5,38.84A68,68,0,0,1,548,137a73.42,73.42,0,0,1,7.15,13.09A386.59,386.59,0,0,1,570,188l10.44,1.16a4.69,4.69,0,0,1,2.36.7,4.55,4.55,0,0,1,1.33,2.22c7.68,21.71,4.42,45.78,9.44,68.25-.54-2.4,21.49,4.57,23.57,5.52L605.53,201l-14.31-19.3s-25.36-59.13-35.42-65.06S493.2,88.09,477.73,83.19s-22.56-7-22.56-7S423,73.69,413.07,75.29Z"/><path class="cls-13" d="M600.94,212.27s-63.93-19.86-93.39-19c24-5.61,76.88-4.67,84.19-3.58l7.31,1.08Z"/><path class="cls-7" d="M233.16,365.11a4.49,4.49,0,0,0,2.35.44c4.41-.4,9.52-6.24,12.75-8.93,5.34-4.45,10.69-8.9,16.09-13.29A329.34,329.34,0,0,1,296,320c13.81-8.71,28.57-15.78,42.86-23.68,26.07-14.41,51.68-32,81.23-35.73l5.64,15.78-43.59,20.75c-19.36,9.21-38.74,18.43-57.56,28.72A575.59,575.59,0,0,0,240.4,382c-11.08,8.89-21.83,18.19-32.09,28-9.79,9.35-18.4,21.16-28.52,29.72-12.82-17-19.27-40.64-29.55-59.53a6.85,6.85,0,0,1-1.2-4c.25-1.84,1.89-3.11,3.17-4.46,3.75-4,4.83-9.85,4.2-15.27s-2.78-10.52-4.76-15.59c-4.61-11.82-8.51-24.07-9.5-36.72s1.09-25.82,7.72-36.64c-.06.11,24.36,9.59,27.59,10a67.67,67.67,0,0,0,33.3-4.87c12.05-5.21,22.37-15.59,25-28.44l-5.32,31c-.68,4-1.33,8.17.23,11.86,2.92,6.91,10.08,3.87,15.74,3.09L217.8,321.89c-1.83,2-3.72,4.17-4.28,6.84-.71,3.38.88,6.77,2.47,9.83q5.88,11.27,12.73,22C229.87,362.33,231.34,364.26,233.16,365.11Z"/><path class="cls-7" d="M591,241.19c7.15.87,14.38,2,21,4.88a3,3,0,0,1,1,.64,3.07,3.07,0,0,1,.6,1.62l2.58,15.5c-4.29.73-8.61-.93-13-1.08-4.12-.15-8.19,1.07-12.32,1.11-4.83.05-9.53-1.49-14.33-2-6.07-.7-12.19.19-18.29.59a172.38,172.38,0,0,1-22.46-.26q-11.38-.74-22.7-2.2c-.14,0-1.51-16.7-.83-18.18,1.95-4.2,10.74-2.93,14.45-3.09a394.65,394.65,0,0,1,41.21.39Q579.53,239.8,591,241.19Z"/><path class="cls-9" d="M181.16,441.58c1.77-2.06,78-90.65,195.39-144,118.82-54,199.66-40,240.55-31.7.48-4.52-11.29-64.59-12.87-74-11.63-.58-12.92-11.51-17.31-20.32-7.23-14.5-15-28.78-22.45-43.16a42.23,42.23,0,0,0-5.93-9.31c-3.48-3.79-8.19-6.16-12.79-8.46-26.09-13-62.51-26.56-90.58-34.47-50.69-5.13-88.52-2.62-135.1,11.55-45.42,13.82-86.75,39-121,71.75-7.4,7.07-14.83,14.3-20.17,23-4.8,7.85-7.75,16.66-10.66,25.39l-22.75,68.17c-2,6-4,12.13-4.57,18.47-.76,9.12,1.62,18.19,4,27L154.6,358c2,7.34,1.32,14.29-5.56,18.54C152.82,383.61,176,434.54,181.16,441.58Z"/><path class="cls-13" d="M153.29,382.42s-1.42-11.17,20.16-30.93S257.08,274.07,310.74,249s95.1-38.86,95.1-38.86l5.84,11s-76.2,20-140.8,64.14C198.8,334.55,176.86,356.4,153.29,382.42Z"/><path class="cls-2" d="M473.87,295.59c2.25.36,4.64.64,6.76-.19a13.24,13.24,0,0,0,4.23-3.12,184.24,184.24,0,0,0,26.57-32.73c1.91-3,3.78-6.18,4.23-9.71.52-4.1-.91-8.16-2.36-12-9.59-25.65-20.28-51.49-30.7-76.48a158.86,158.86,0,0,0-44-59.21c-46.72-38.51-86.8-42.93-126.2-36.89-36.66,14.47-73.9,34.83-73.9,34.83s-9.85,20.35-6.19,30.53c19.64-14.19,34.42-23.16,34.42-23.16s30-17,83.32,20.87c20.51,14.56,36.33,34.89,47.64,57.21a208.89,208.89,0,0,1,14,35.6q2.59,8.85,4.46,17.88c1.23,6,.6,11.57,2.33,17.43l2.59,8.77a39.5,39.5,0,0,0,1.88,5.38C430.29,286.52,458.36,293.12,473.87,295.59Z"/><path class="cls-14" d="M324.88,82.78c13.07,9.79,29.53,13.93,43.38,22.57,13,8.13,23.35,20,31.69,32.91s14.86,26.85,21.68,40.6a15.8,15.8,0,0,0,3.64,5.32,12.62,12.62,0,0,0,6.32,2.45c12.6,1.89,24.85-4.29,36.09-10.28a18.29,18.29,0,0,0,5.92-4.26c4.34-5.4,1.37-13.36-1.94-19.45a311.65,311.65,0,0,0-22.51-35.46c-4.16-5.67-8.56-11.25-14-15.69-5-4.08-10.76-7.11-15.89-11-5.6-4.26-10.39-9.52-16.12-13.6-14.26-10.15-33.27-12.3-50.33-12.56a105.55,105.55,0,0,0-20.87,2C322.89,68.06,315.05,75.42,324.88,82.78Z"/><path class="cls-7" d="M439.5,269.12l-.1-.14c-1.69-2.53-1.87-10.72-2.86-14.06q-5-16.87-11.15-33.36c-1.43-3.8-4.79-10.88-1.47-14.55,1.56-1.72,8.23-3.14,10.46-4,9.33-3.66,19.45-4.64,28.85-8.1,4.58-1.69,9-4,13.69-5.21s10-1.43,14.26,1l-6.87-16c-16.52,11.71-35,22.43-55.26,22.91a19.11,19.11,0,0,1-7.58-1c-7.2-2.89-8.43-9.91-10.33-16.33-2.36-8-7.67-15.72-11.94-22.84C364.14,98.92,322.91,94.5,295.75,87.89c-18.65-4.54-38.68,2.89-49.41,8-5,2.59-7.86,4.18-7.86,4.18s-9.85,20.35-6.19,30.53c19.64-14.19,34.42-23.16,34.42-23.16s30-17,83.32,20.87c20.55,14.59,36,35.3,47.76,57.38,12.88,24.29,16.82,54.11,23.85,80.74a20.83,20.83,0,0,0,2.43,6.32c9.4,14.16,34.27,20.37,49.81,22.85,2.25.36,4.64.64,6.76-.19a13.23,13.23,0,0,0,4.23-3.12,184.24,184.24,0,0,0,26.57-32.73l-35.11,25.81-29.88-12.75C444.44,271.76,440.86,270.93,439.5,269.12Z"/><path class="cls-14" d="M488.54,198.33c-4.66-.74-9.37.6-13.9,1.94l-27.29,8a8.48,8.48,0,0,0-4,2c-1.65,1.77-1.48,4.52-1.2,6.93l4.21,36.37a14.74,14.74,0,0,0,6.38,12.08c5.15,4.64,10.46,9.38,16.94,11.86a12.11,12.11,0,0,0,6.57.92,14.26,14.26,0,0,0,5.23-2.59A100,100,0,0,0,507,250.1a16.06,16.06,0,0,0,2.78-5.68c.59-2.93-.35-5.93-1.33-8.76-2.8-8.08-7.14-15.86-9.65-24C496.87,205.36,496.85,199.65,488.54,198.33Z"/><path class="cls-13" d="M492.76,188.09c-18.37-43.59-49-93-85-107.18s-90.32-16.46-90.32-16.46l-17.05,6.66s42.83-13.2,99.93,20.81,81.59,96.91,81.59,96.91L484,195.1l-62.9,12.69,67.08.07,13.55,41.41-25.38,36.08,35.11-25.81S511.13,231.68,492.76,188.09Z"/><path class="cls-9" d="M266.7,107.43s30-17,83.32,20.87c29.63,21,46.84,55.23,58.28,88.81,5.83,17.11,8.95,34.58,13.31,51.93,4.58,18.22,33.22,22.56,49.92,29.16,1.74.69,3.64,1.39,5.45.9a8.62,8.62,0,0,0,3.55-2.42c10.13-9.88,26.87-26.14,30.48-40.31,2.24-8.81-2.81-20.77-5.38-29.39-5.69-19.13-12.2-38.19-19.53-56.76-10.17-25.78-26-50.34-47.52-68.1-46.72-38.51-86.8-42.93-126.2-36.89-36.66,14.47-73.9,34.83-73.9,34.83s-9.85,20.35-6.19,30.53C251.92,116.4,266.7,107.43,266.7,107.43Z"/><path class="cls-9" d="M605.77,192.06s-83.91-20.58-217.19,23.06S151.88,373.26,151.88,373.26"/><path class="cls-15" d="M257.42,165.87l.68.93c4.12,5.86,7.85,13.13,11.18,19.52a65.37,65.37,0,0,1,3.21,52.34c1.41-3.51,14.42-8.78,17.85-10.9q8.89-5.5,17.72-11.1c11.85-7.52,23.21-15,35.52-21.79a14.4,14.4,0,0,0,5-3.82c2.2-3.07,1.66-7.24,1-11L346,159.16c-.6-3.5-1.23-7.11-3.15-10.1-2.75-4.31-7.64-6.63-11.88-9.49-4.94-3.33-9.25-7.62-14.56-10.31-7.75-3.93-17-4.06-25.44-2s-16.2,6.24-23.7,10.62c-5.53,3.23-11.27,6.92-13.95,12.74C250.1,157.71,253.84,161.05,257.42,165.87Z"/><path class="cls-6" d="M269.33,160.19l.47.66a124.33,124.33,0,0,1,7.86,13.73,46,46,0,0,1,2.26,36.81c1-2.47,10.14-6.18,12.55-7.67q6.25-3.87,12.47-7.81c8.33-5.29,16.33-10.53,25-15.33a10.12,10.12,0,0,0,3.51-2.69c1.55-2.16,1.17-5.09.72-7.71l-2.51-14.71a18.86,18.86,0,0,0-2.21-7.1c-1.94-3-5.37-4.66-8.36-6.68-3.47-2.34-6.5-5.36-10.24-7.25-5.45-2.76-12-2.85-17.89-1.38s-11.39,4.39-16.67,7.47c-3.89,2.27-7.92,4.87-9.81,9C264.18,154.46,266.82,156.81,269.33,160.19Z"/><path class="cls-15" d="M274.79,314.22c.67,3,1.94,6,4.77,6.63,5.09,1.18,15-7.83,19.23-10.3,7.68-4.48,15.45-8.83,23.24-13.11,15.24-8.37,30.62-16.48,45.88-24.82,4.32-2.36,8.83-4.94,11.27-9.21,1.81-3.17,2.26-6.92,2.46-10.57.85-15.86-10.93-11.55-20.61-7.62q-18.18,7.4-35.84,16-16.56,8.07-32.6,17.16c-7.62,4.3-18,6.8-20.31,16.85a14.31,14.31,0,0,0,.2,5.46l2,11.92C274.57,313.14,274.67,313.68,274.79,314.22Z"/><path class="cls-2" d="M243.8,225.49c-1.85,12.87-6.65,21.52-17.85,37-2.23,3.08-4.53,6.23-7.73,8.27-2.94,1.87-6.43,2.66-9.84,3.36a297.87,297.87,0,0,1-82.18,5.18c-5.56-.42-12.32-2-13.84-7.33-.55-2-.29-4.24-1.51-5.87s-3.57-2-5.64-2.24c-14.51-1.54-32.38-.45-46.26-5.06-7.56-2.51-13.24-8.68-18.57-14.6L17.78,219.08c-3.76-4.18-7.56-8.43-10-13.5-4-8.36-3.91-18-3.71-27.32.23-10.89.48-21.92,3.5-32.39,6.79-23.5,26.31-40.74,44.92-56.61-1.66,15-6.16,29.71-5.68,44.77s7.6,31.39,21.74,36.59c9.65,3.55,26.13,8,35.83,3.34,10.36-4.94,10-14.38,24.44-15l84.81-3.48c3.11-.13,6.43-.2,9.07,1.45,2.07,1.3,3.39,3.47,4.64,5.57l11.56,19.36a41.92,41.92,0,0,1,4.84,10,42,42,0,0,1,1.06,10.84C244.89,212.14,244.68,219.3,243.8,225.49Z"/><path class="cls-3" d="M120.89,223.27a71.6,71.6,0,0,1-6.2,28.09c-1.82,4-4.11,8-7.67,10.65-6.3,4.67-15.62,1-22.85.62-8.48-.49-17.12-1.12-25.23-3.81-7.56-2.51-13.24-8.68-18.57-14.6L17.78,219.08c-3.76-4.18-7.56-8.43-10-13.5-4-8.36-3.91-18-3.71-27.32.23-10.89.48-21.92,3.5-32.39,6.79-23.5,26.31-40.74,44.92-56.61-1.66,15-6.16,29.71-5.68,44.77s7.6,31.39,21.74,36.59c6.88,2.53,14.91,5.27,22.33,5.23,4.18,0,11.33-3.68,14.23-.07A74.12,74.12,0,0,1,120.89,223.27Z"/><path class="cls-4" d="M65.93,202.13c12.49,9.17,34.84,3.73,39.32-13.09A43.4,43.4,0,0,0,106,177c-.3-.4-.6-.8-.91-1.19-2.89-3.61-10,0-14.23.07-7.41,0-15.44-2.7-22.33-5.23-14.14-5.2-21.26-21.53-21.74-36.59-.47-14.5,3.68-28.7,5.47-43.1C28,124.52,30.73,177.85,65.93,202.13Z"/><path class="cls-3" d="M106,177a43.4,43.4,0,0,1-.78,12.07c-4.48,16.81-26.82,22.26-39.32,13.09C30.73,177.85,28,124.52,52.3,90.93c.07-.56.14-1.11.2-1.67-18.61,15.87-38.14,33.11-44.92,56.61-3,10.46-3.27,21.5-3.5,32.39-.2,9.28-.31,19,3.71,27.32,2.43,5.06,6.24,9.32,10,13.5l22.59,25.13c5.33,5.93,11,12.09,18.57,14.6,8.11,2.7,16.75,3.33,25.23,3.81,7.24.42,16.55,4,22.85-.62,3.55-2.63,5.85-6.62,7.67-10.65a71.6,71.6,0,0,0,6.2-28.09A74.3,74.3,0,0,0,106,177Z"/><path class="cls-5" d="M112.2,188c.92,12.36-1.58,25.91-7.65,36.29C96.81,237.54,83.62,239,69.41,237.44a20.64,20.64,0,0,1-6.92-1.59,19.74,19.74,0,0,1-5.89-5.16c-8.08-9.35-15.35-19.36-22.62-29.36-4.74-6.52-9.58-13.24-11.63-21-1.91-7.25-1.27-14.93,0-22.33,2-12.22,6.6-23,10.18-34.75,1.47-4.79,2.51-9.34,4.69-14,1.67-3.58,4.32-11.73,7.55-14a98.7,98.7,0,0,0-31.47,37.22C6,147.46,4.06,162.33,4.4,179.07c.16,8.08.58,16.36,3.8,23.77,2.49,5.73,6.54,10.63,10.53,15.44l21.59,26c3.18,3.83,6.42,7.72,10.56,10.47,6.5,4.33,14.54,5.46,22.28,6.49l33.48,4.44a14.3,14.3,0,0,1,2.05.4,130.4,130.4,0,0,0,6.86-24.9c1.31-7.63,1.33-15.28,1.85-23.07a82,82,0,0,0-6.08-36.89A62.3,62.3,0,0,1,112.2,188Z"/><path class="cls-6" d="M131.94,168c4.43,8.68,1.71,20.72,11,23.66,4.7,1.48-4.55,6.06.35,5.56,21.65-2.21,96.89-7.64,97.5-8.06,1.91-1.32-7.29-12.51-8.44-14.53l-5.83-10.31c-1.58-2.79-3.26-5.69-6-7.4-3.14-2-7.09-2-10.8-1.94q-23.71.39-47.39,2-11.53.77-23,1.83C131.89,159.47,127.6,159.5,131.94,168Z"/><path class="cls-7" d="M235.39,251.07a50.27,50.27,0,0,0,4.84-8.25l.17-.41Z"/><path class="cls-7" d="M235.39,251.07l5-8.67-.17.41a51.73,51.73,0,0,0,4.43-28.46c-1.29,12.6-12,22.59-23.84,27.1s-24.81,4.67-37.47,5.25q-12.15.57-24.26,1.73c-7.68.74-21.65,3.13-29.34,2.53.71-16.16,6.24-32.39,5.61-48.55a82.34,82.34,0,0,0-1.6-15.22c-2.25-9.84-7.77-18.57-13.2-27.08-3.72,2.51-7.56,5.14-9.88,9-4.72,7.83,2.58,15.29,4.56,22.93a84.27,84.27,0,0,1,2.33,28.89c-1.46,15.59-3.18,30.41-8.89,45.19a4.1,4.1,0,0,1,2.5,1.66c.74,1.2.52,2.74.88,4.11,1,4,6.18,5,10.32,5.28C149,278.63,175.74,279,202,274.93c7.89-1.22,16-3,22.42-7.71,7.88-5.85,12-15.32,15.77-24.41A50.27,50.27,0,0,1,235.39,251.07Z"/><path class="cls-8" d="M120.57,160.11s14.46,24,14.16,32.47c-.21,18.35-5,58.38-5,58.38s7.72-40.26,12.8-51.91c5.62-2.78,53.48-6.22,53.48-6.22s-37.71-.74-54-2.71c-3.93-10.78-5.9-20.93-9.64-30.29C126.09,160.6,129.93,161.25,120.57,160.11Z"/><path class="cls-9" d="M243.8,225.49c-1.85,12.87-6.65,21.52-17.85,37-2.23,3.08-4.53,6.23-7.73,8.27-2.94,1.87-6.43,2.66-9.84,3.36a297.87,297.87,0,0,1-82.18,5.18c-5.56-.42-12.32-2-13.84-7.33-.55-2-.29-4.24-1.51-5.87s-3.57-2-5.64-2.24c-14.51-1.54-32.38-.45-46.26-5.06-7.56-2.51-13.24-8.68-18.57-14.6L17.78,219.08c-3.76-4.18-7.56-8.43-10-13.5-4-8.36-3.91-18-3.71-27.32.23-10.89.48-21.92,3.5-32.39,6.79-23.5,26.31-40.74,44.92-56.61-1.66,15-6.16,29.71-5.68,44.77s7.6,31.39,21.74,36.59c9.65,3.55,26.13,8,35.83,3.34,10.36-4.94,10-14.38,24.44-15l84.81-3.48c3.11-.13,6.43-.2,9.07,1.45,2.07,1.3,3.39,3.47,4.64,5.57l11.56,19.36a41.92,41.92,0,0,1,4.84,10,42,42,0,0,1,1.06,10.84C244.89,212.14,244.68,219.3,243.8,225.49Z"/><path class="cls-10" d="M107.72,172s23.86,42.74.6,92.16"/><ellipse class="cls-2" cx="310.44" cy="70.59" rx="26.61" ry="10.33" transform="translate(-5.92 34.9) rotate(-6.37)"/><path class="cls-13" d="M332.06,65.57c-.28,2.64-7.75,4.77-16.69,4.77s-16-2.15-15.67-4.79,7.75-4.77,16.69-4.77S332.34,62.94,332.06,65.57Z"/><ellipse class="cls-9" cx="310.44" cy="70.59" rx="26.61" ry="10.33" transform="translate(-5.92 34.9) rotate(-6.37)"/><ellipse class="cls-2" cx="373.62" cy="79.24" rx="26.61" ry="14.49"/><ellipse class="cls-13" cx="379.58" cy="73.08" rx="6.66" ry="16.28" transform="translate(248.33 436.66) rotate(-81.05)"/><ellipse class="cls-9" cx="373.62" cy="79.24" rx="26.61" ry="14.49"/><ellipse class="cls-2" cx="437.03" cy="132.12" rx="26.61" ry="14.49"/><ellipse class="cls-13" cx="443" cy="125.95" rx="6.66" ry="16.28" transform="translate(249.64 543.95) rotate(-81.05)"/><ellipse class="cls-9" cx="437.03" cy="132.12" rx="26.61" ry="14.49"/><ellipse class="cls-2" cx="474.85" cy="227.82" rx="26.61" ry="17.5" transform="translate(-24.99 61.85) rotate(-7.26)"/><path class="cls-13" d="M496.15,224.34c0,4.43-7.34,7.57-16.36,7s-16.33-4.59-16.31-9,7.34-7.57,16.36-7S496.17,219.92,496.15,224.34Z"/><ellipse class="cls-9" cx="474.85" cy="227.82" rx="26.61" ry="17.5" transform="translate(-24.99 61.85) rotate(-7.26)"/></g></g></svg>