<svg xmlns="http://www.w3.org/2000/svg" viewBox="0 0 157.36 259.49"><defs><style>.cls-1{fill:#d6c9b9;}.cls-2{fill:#7f7a73;}.cls-3{fill:#f4efe9;}.cls-4{fill:none;}.cls-4,.cls-6,.cls-7{stroke:#000;stroke-miterlimit:10;stroke-width:8px;}.cls-5,.cls-6{fill:#e5ddd1;}.cls-7,.cls-9{fill:#1e1e1c;}.cls-8{fill:#5b5b5b;}.cls-10{fill:#383837;}.cls-11{fill:#a3a3a3;}.cls-12{fill:#e2e2e2;}</style></defs><title>1_sk_left arm</title><g id="Слой_2" data-name="Слой 2"><g id="Слой_1-2" data-name="Слой 1"><path class="cls-1" d="M37.29,178.31c6.45,8.61,18.42,9.38,27.5,13.13,3.06,1.26,7.23,1.7,9.09-1,.93-1.37,1-3.14,1-4.79a37.28,37.28,0,0,0-.54-7.61c-.49-2.3-1.41-4.51-1.75-6.84-.46-3.14.15-6.33.76-9.45a51.14,51.14,0,0,1,3.17-11.4c3.74-8.24,12.16-7.89,16.69-14.51a20.5,20.5,0,0,0,2.21-19.71,3.7,3.7,0,0,1-.44-1.49,3.48,3.48,0,0,1,1.31-2.22c8-8.07,11.39-22.84,23.59-25.08,5-.92,7.26-1.62,11.24-5.44,2.39-2.29,4.83-4.66,6.12-7.7a17,17,0,0,0,1.18-6.56,28.15,28.15,0,0,0-8.58-20.23c-10.06-9.62-23.24-8.79-34.39-1.53C89.63,49.59,85.26,56.18,86,63c.43,4.25,2.73,8.44,1.67,12.58a17.68,17.68,0,0,1-1.87,4.07c-4.15,7.47-5.54,19.5-13.58,24-6.91,3.9-13.52,4.38-15.79,13.64-1,4.1.5,6.11,1.65,9.74,1.5,4.76,1,8.38-.51,13.29l-4.79,15.13a18.79,18.79,0,0,1-2.48,5.61C46,166.85,29.24,167.55,37.29,178.31Z"/><path class="cls-2" d="M37.29,178.31c6.45,8.61,18.42,9.38,27.5,13.13,4,1.66,14.18.68,9.71-6.2-1.84-2.84-5.43-3.84-8.55-5.14a32.86,32.86,0,0,1-8.53-5.19,4.47,4.47,0,0,1-1.82-2.59,4.76,4.76,0,0,1,.44-2.26l9.91-26.7a6.69,6.69,0,0,1,2-3.29c1.66-1.19,3.93-.63,5.9-.11,6.23,1.64,14.35,1.65,17.45-4a20.93,20.93,0,0,1-13.26-4.33c-.29-.14-.58-.28-.87-.43a10.24,10.24,0,0,1,7.26-19,71.93,71.93,0,0,1,13-27.15c1-1.31,2.19-2.66,3.8-3,3.69-.83,8.54,3.49,10.64.35,1-1.47.13-3.54-1.22-4.68S107.57,76,106.1,75c-3.74-2.46-5.4-7.35-4.85-11.8s3-8.47,5.92-11.84c4.43-5.07,10.39-8.52,17.25-7.9-2.94-8.59-24.2-.79-29,2.34C89.63,49.59,85.26,56.18,86,63c.43,4.25,2.73,8.44,1.67,12.58a17.68,17.68,0,0,1-1.87,4.07c-4.15,7.47-5.54,19.5-13.58,24-6.91,3.9-13.52,4.38-15.79,13.64-1,4.1.5,6.11,1.65,9.74,1.5,4.76,1,8.38-.51,13.29l-4.79,15.13a18.79,18.79,0,0,1-2.48,5.61C46,166.85,29.24,167.55,37.29,178.31Z"/><path class="cls-3" d="M90.64,104.53a13.72,13.72,0,0,0-1.76,4.18c-.48,2.69.67,5.38,1.79,7.87-3.33-.45-7.14-.75-9.63,1.5a7.45,7.45,0,0,0-2,6.71,15,15,0,0,0,3.15,6.51,8.89,8.89,0,0,0,4.29,3.44c2.89.84,6-1.08,7.49-3.7s1.66-5.75,1.66-8.76-.12-6.09.84-8.94a24.48,24.48,0,0,1,3.88-6.57l10.55-14.25a16.28,16.28,0,0,1,3.41-3.72,9.11,9.11,0,0,1,4.82-1.58C103,80,97.39,92.49,90.64,104.53Z"/><path class="cls-3" d="M129.78,52.52c-3.78-.84-8.29.77-11.54,4.14a17.58,17.58,0,0,0-4.84,12.82,14.25,14.25,0,0,0,8.07,11.72,11,11,0,0,0,6.4,1.3c6.27-.85,11.56-9,11.48-16a17.12,17.12,0,0,0-9.67-15.07"/><path class="cls-3" d="M71.82,145.18A8.56,8.56,0,0,0,69.67,149c-2.09,5.85-4.2,11.74-5.16,17.88-.37,2.35-.51,5,.83,6.92a10.52,10.52,0,0,0,4.42,3.14c.82.39,1.89.75,2.56.13a2.33,2.33,0,0,0,.49-1.73c.08-8.06.38-16.41,4-23.63.74-1.5,3.54-5.26,2.42-6.92S73.08,144.09,71.82,145.18Z"/><path class="cls-4" d="M37.29,178.31c6.45,8.61,18.42,9.38,27.5,13.13,3.06,1.26,7.23,1.7,9.09-1,.93-1.37,1-3.14,1-4.79a37.28,37.28,0,0,0-.54-7.61c-.49-2.3-1.41-4.51-1.75-6.84-.46-3.14.15-6.33.76-9.45a51.14,51.14,0,0,1,3.17-11.4c3.74-8.24,12.16-7.89,16.69-14.51a20.5,20.5,0,0,0,2.21-19.71,3.7,3.7,0,0,1-.44-1.49,3.48,3.48,0,0,1,1.31-2.22c8-8.07,11.39-22.84,23.59-25.08,5-.92,7.26-1.62,11.24-5.44,2.39-2.29,4.83-4.66,6.12-7.7a17,17,0,0,0,1.18-6.56,28.15,28.15,0,0,0-8.58-20.23c-10.06-9.62-23.24-8.79-34.39-1.53C89.63,49.59,85.26,56.18,86,63c.43,4.25,2.73,8.44,1.67,12.58a17.68,17.68,0,0,1-1.87,4.07c-4.15,7.47-5.54,19.5-13.58,24-6.91,3.9-13.52,4.38-15.79,13.64-1,4.1.5,6.11,1.65,9.74,1.5,4.76,1,8.38-.51,13.29l-4.79,15.13a18.79,18.79,0,0,1-2.48,5.61C46,166.85,29.24,167.55,37.29,178.31Z"/><path class="cls-5" d="M75.54,201.88c-1.06-11.7-14.7-13.13-22-18-11.11-7.45-26.37-9.91-35.69,1.73-4,5-1.35,14.85-6.34,18.75-1.11.86-2.51,1.25-3.68,2a6.77,6.77,0,0,0-2.5,7.91,23.66,23.66,0,0,1,1.09,2.52,8.5,8.5,0,0,1,.09,2.94,18.57,18.57,0,0,1-1.24,6.12,24.39,24.39,0,0,0-1.06,2.27c-1.19,3.57,2,7.47,5.68,8.24,1.92.4,3,1.61,5,1.59a6.7,6.7,0,0,0,5.3-3.46c2.21,6.08,4.49,10.83,8.94,12.46s11.63,1.79,13.52-2.2c1.79,4.12,3.06,7.9,6.82,9.54,4.87,2.13,9.51,1.27,13.62-1.87,2-1.5,3.78-3.73,3.41-6.17-.31-2.06-2.11-3.65-2.43-5.71-.46-3,2.25-5.55,2.5-8.54s-1.82-5.39-4.07-7.17c5-2.59,4.82-5.8,7.44-10.14C72.33,210.77,76,206.82,75.54,201.88Z"/><path class="cls-3" d="M45,190.64c1.1,1.12,2.78,1.36,4.33,1.62a45,45,0,0,1,17.29,6.84c-4.89,5.6-13.32,6.57-20.65,5.34-2.77-.47-5.54-1.19-8.35-1s-5.74,1.53-6.91,4.08c-2.12,4.62,1.84,5.63,4.87,6a21.48,21.48,0,0,1,13,5.69,3.12,3.12,0,0,0,1,.74,3.07,3.07,0,0,0,1.82-.09c3.52-.86,8.89.38,11.9-1.65,2.25-1.51,2.36-4.68,3.23-7.24s2.79-4.86,4.28-7.24,2.62-5.29,1.78-8-3.41-4.44-5.81-6c-4.17-2.63-8.12-4.58-13.13-4.2C51.56,185.74,40.76,186.33,45,190.64Z"/><path class="cls-2" d="M17.89,185.62c-4,5-1.35,14.85-6.34,18.75-1.11.86-2.51,1.25-3.68,2a6.77,6.77,0,0,0-2.5,7.91,23.66,23.66,0,0,1,1.09,2.52,8.5,8.5,0,0,1,.09,2.94,18.57,18.57,0,0,1-1.24,6.12,24.39,24.39,0,0,0-1.06,2.27c-1.19,3.57,2,7.47,5.68,8.24,1.92.4,3,1.61,5,1.59a6.7,6.7,0,0,0,5.3-3.46c2.21,6.08,4.49,10.83,8.94,12.46s11.63,1.79,13.52-2.2c-.62,1.3,3.39,7.14,4.47,8,2.41,1.9,6.77,2.57,9.76,3.23a2.08,2.08,0,0,0,1,.05c1-.28,1-1.87.21-2.6-2.21-2.09-3.31-1.42-4.68-4.58a30.29,30.29,0,0,1-2.21-8.59,32,32,0,0,1,2.54-16.72c-3.45-2.12-8.3-.48-10.74,2.75s-2.91,7.57-2.56,11.61c.22,2.48.61,5.31-1,7.16-2.15,2.41-6.11,1.43-9-.09-1.67-.89-3.37-2-4.13-3.76-.88-2-.29-4.33.44-6.4A49.91,49.91,0,0,1,37,217.78a12.59,12.59,0,0,0-11.34,2,17.77,17.77,0,0,0-6.37,9.86c-.44,1.67-.74,3.51-2,4.73s-3.78,1.2-4.3-.45a3.72,3.72,0,0,1,0-1.54l2.74-23.75a10.52,10.52,0,0,1,7.94,3.49.81.81,0,0,0-.08,1.13l-1.66.61c1.32.17,1.63-1.77,1.49-3.09a26.13,26.13,0,0,1,1.15-10.9,4.82,4.82,0,0,1,.9-1.78,4.32,4.32,0,0,1,2.14-1.14c9-2.41,17.57,6.38,26.84,5.72a23.77,23.77,0,0,0,8.16-2.5,78.3,78.3,0,0,0-24.51-8.85,4.72,4.72,0,0,1-1.9-.62c-1.27-.88-1.28-2.89-.39-4.15a7.12,7.12,0,0,1,3.89-2.37,23.5,23.5,0,0,1,14,.13C43.48,175.86,26.69,174.63,17.89,185.62Z"/><path class="cls-3" d="M18.56,211.85a4.37,4.37,0,0,0-.75,1.5,41.91,41.91,0,0,0-1.08,23.12l.94.29c1.47-3.14,2-6.61,3-9.93s5-7.12,5.06-10.29C25.76,213.8,21.15,208.86,18.56,211.85Z"/><path class="cls-3" d="M33,241.81c.66,5.11,5.29,7.36,7.61,1.68,2.09-5.12-.16-11.62,3.08-16.1a4,4,0,0,0,.86-1.52,3.17,3.17,0,0,0-.71-2.15,6.12,6.12,0,0,0-1.75-2c-2.34-1.48-4.5.76-5.43,2.68C34,229.79,32.22,235.84,33,241.81Z"/><path class="cls-3" d="M55.27,238.51c.15,3.72,1.34,7.54,4,10.12a3,3,0,0,0,2.84,1.08,2.65,2.65,0,0,0,1.24-1c1.43-1.88,1.58-4.4,1.66-6.76.16-4.33,2.7-14.83-2.53-17.13C55.39,221.71,55.11,234.49,55.27,238.51Z"/><path class="cls-4" d="M75.54,201.88c-1.06-11.7-14.7-13.13-22-18-11.11-7.45-26.37-9.91-35.69,1.73-4,5-1.35,14.85-6.34,18.75-1.11.86-2.51,1.25-3.68,2a6.77,6.77,0,0,0-2.5,7.91,23.66,23.66,0,0,1,1.09,2.52,8.5,8.5,0,0,1,.09,2.94,18.57,18.57,0,0,1-1.24,6.12,24.39,24.39,0,0,0-1.06,2.27c-1.19,3.57,2,7.47,5.68,8.24,1.92.4,3,1.61,5,1.59a6.7,6.7,0,0,0,5.3-3.46c2.21,6.08,4.49,10.83,8.94,12.46s11.63,1.79,13.52-2.2c1.79,4.12,3.06,7.9,6.82,9.54,4.87,2.13,9.51,1.27,13.62-1.87,2-1.5,3.78-3.73,3.41-6.17-.31-2.06-2.11-3.65-2.43-5.71-.46-3,2.25-5.55,2.5-8.54s-1.82-5.39-4.07-7.17c5-2.59,4.82-5.8,7.44-10.14C72.33,210.77,76,206.82,75.54,201.88Z"/><path class="cls-6" d="M93.65,230.52c1.81-2.16,3.91-4.54,3.53-7.38a6.19,6.19,0,0,0-3.48-4.72c-1.51-.69-3.22-.74-4.82-1.19s-3.24-1.51-3.49-3.15a6.23,6.23,0,0,1,.23-2.2,12.1,12.1,0,0,0,.19-4.94c-2-9.54-13.22-6.6-16.36.32-1.71,3.76-1.69,8.1-1,12.18a3.16,3.16,0,0,0,1.07,2.26c2,1.33,4.9-.44,7.12,1.13,2.53,1.79,1.88,4.35,2.06,7,.19,2.91,2.83,5.28,5.71,5.73,3.58.56,6.17-1,8.14-3.62C92.84,231.49,93.24,231,93.65,230.52Z"/><path d="M10.32,209a18.43,18.43,0,0,1,5.94-.73,12.67,12.67,0,0,1,6,1.67,11.3,11.3,0,0,1,4.3,4.81,18.92,18.92,0,0,1,1.69,6.2h0l-1.53,1.78h0a3.25,3.25,0,0,0-1,.78,9.4,9.4,0,0,0-1.14,1.64,15.72,15.72,0,0,0-1.54,4,13.63,13.63,0,0,0-.37,4.15,7.32,7.32,0,0,0,1.07,3.46l-4.32,2.52A12.15,12.15,0,0,1,18,233.46,18,18,0,0,1,19,228a19.63,19.63,0,0,1,2.35-4.87A12.86,12.86,0,0,1,23.14,221a5.64,5.64,0,0,1,3.16-1.62h0l-1.53,1.79a16,16,0,0,0-.63-5.36,9.12,9.12,0,0,0-2.89-4.38,11.39,11.39,0,0,0-5.08-2.24A18,18,0,0,0,10.32,209Z"/><path d="M25.64,217a34.74,34.74,0,0,1,5.76-.83,25,25,0,0,1,5.88.26,9.17,9.17,0,0,1,5.54,3,13,13,0,0,1,2.82,5.2h0l.16.43-.38.48a14.27,14.27,0,0,0-2.31,4.31,14.75,14.75,0,0,0-.81,4.76c0,.4,0,.8.05,1.19a6.65,6.65,0,0,0,.13,1.18l.2,1.17.32,1.15.16.57.22.56.44,1.11c.33.73.73,1.43,1.08,2.14l-4.52,2.14c-.31-.93-.65-1.84-.91-2.78l-.33-1.43-.16-.71-.09-.73-.17-1.46c0-.49,0-1,0-1.47a9.21,9.21,0,0,1,.06-1.46c.06-.49.06-1,.17-1.46a17.74,17.74,0,0,1,1.82-5.47,16.21,16.21,0,0,1,3.45-4.54l-.22.91h0a12,12,0,0,0-3-3.83A6.73,6.73,0,0,0,39,220.3a7,7,0,0,0-2.14-.35,21.33,21.33,0,0,0-4.93.49,38.38,38.38,0,0,0-4.85,1.34Z"/><path class="cls-5" d="M62.52,224.85s-7.61-3-18.74.1"/><path d="M61.61,227.18a8.29,8.29,0,0,0-.86-.35c-.33-.12-.67-.23-1-.33-.69-.2-1.4-.39-2.12-.54a31.62,31.62,0,0,0-4.43-.59,35,35,0,0,0-4.55,0,40.56,40.56,0,0,0-4.57.6l-.58-2.12a43.23,43.23,0,0,1,4.72-1.35,38.31,38.31,0,0,1,4.91-.77,35.84,35.84,0,0,1,5-.08c.85,0,1.7.13,2.56.26.43.06.86.13,1.3.22a13.1,13.1,0,0,1,1.41.35Z"/><path d="M31.28,179.9c-.33.2-.86.51-1.26.79a6.82,6.82,0,0,0-1.07.91,2.74,2.74,0,0,0-.57.78.55.55,0,0,0-.07.35,1.76,1.76,0,0,0,.27.63,6.16,6.16,0,0,0,.87,1,17,17,0,0,0,2.68,2c2,1.26,4.22,2.63,6.46,3.84a32.71,32.71,0,0,0,7.1,2.86,57.49,57.49,0,0,0,7.49,1.59c2.52.35,5.06.56,7.52.66,1.23.06,2.44.08,3.6,0a17.77,17.77,0,0,0,3.14-.32,5.26,5.26,0,0,0,.91-.27c.14-.08,0,.07-.07.32s.12.18.11-.14a7,7,0,0,0-.17-1.29l4.38-2.41a7.53,7.53,0,0,1,1.31,2.27,5.65,5.65,0,0,1,.09,3.67A5.5,5.5,0,0,1,72.9,199a6.27,6.27,0,0,1-1.51,1.19,8.83,8.83,0,0,1-2.75.94,23.12,23.12,0,0,1-8.67-.64,72.4,72.4,0,0,1-7.65-2.39l-7.4-2.66a77.28,77.28,0,0,0-7.49-2.32,42.9,42.9,0,0,1-7.64-2.53,19.31,19.31,0,0,1-3.74-2.34,10.72,10.72,0,0,1-1.77-1.85A6.7,6.7,0,0,1,23,183.54a5.92,5.92,0,0,1,.49-3.42,8,8,0,0,1,1.72-2.32,11.71,11.71,0,0,1,2-1.47,12.21,12.21,0,0,1,2.14-1.05Z"/><path d="M59.88,114.89c-.49-.53-1.42-.25-1.92.39a3.4,3.4,0,0,0-.51,2.54,8.19,8.19,0,0,0,1.09,3,12.76,12.76,0,0,0,2.16,2.71,26,26,0,0,0,6,4.15,51.06,51.06,0,0,0,6.93,3,50.2,50.2,0,0,0,7.29,2,26.75,26.75,0,0,0,7.21.56c2.22-.2,4.24-1,5.12-2.28a3.81,3.81,0,0,0,.79-2.18,1.81,1.81,0,0,0-.17-.81,1.38,1.38,0,0,0-.43-.44l4.61-4.23a7.76,7.76,0,0,1,1.65,6.07,9.79,9.79,0,0,1-2.29,5,10,10,0,0,1-2,1.81,11.05,11.05,0,0,1-2.29,1.16,15.17,15.17,0,0,1-4.64.91,34,34,0,0,1-8.48-.95,54.71,54.71,0,0,1-7.9-2.36,50.81,50.81,0,0,1-7.42-3.57,31.37,31.37,0,0,1-6.72-5.1,18.17,18.17,0,0,1-2.7-3.5,12.79,12.79,0,0,1-1.67-4.34,8.66,8.66,0,0,1,.66-5.14,9.5,9.5,0,0,1,4.06-4.44Z"/><path class="cls-7" d="M44.15,58.61c-.42,5.13,2.15,10,5,14.31A97.76,97.76,0,0,0,75.24,99.63c4.11-5.54,16.15-20.74,12.66-27.25-4.14-7.73-14.11-14.21-21.71-18S45.23,45.29,44.15,58.61Z"/><path class="cls-8" d="M83.1,37.89a22.06,22.06,0,0,1-2.75,2c-2.08,1.27-4.68,1.14-7.12,1.21a37.77,37.77,0,0,0-22.88,8.65C64.4,53.81,71.77,59.14,82.52,67c15,11,26.25,31.25,33.12,48.11,2.94-6.33,7.9-10.84,15.13-12.37a20.14,20.14,0,0,1,18.15,5.32c4.14-20.19,6.18-41.1,2.57-61.39-1.87-10.51-12-49.29-26-41.69-5.35,2.9-7.68,11.33-13.87,14.72-5.55,3-11.61,5-17.1,8.18C90,30.45,86.88,34.69,83.1,37.89Z"/><path class="cls-9" d="M151.47,85.09a130.36,130.36,0,0,0-4.37-20.45c-.75-2.49-1.63-5.06-3.46-6.91s-4.9-2.74-7.1-1.35a6.81,6.81,0,0,0-2.27,2.73c-2.41,4.67-2.16,10.21-1.86,15.45l.25,4.31A122.37,122.37,0,0,0,121.54,47C115,34.17,99.26,27,85.77,34.09a66.09,66.09,0,0,1,28.58-16.75c2.46-.7,5-1.27,7.14-2.71,3.44-2.33,5.44-6.75,9.41-8,3.44-1.07,7.26.78,9.52,3.58s3.3,6.37,4.21,9.86a225.82,225.82,0,0,1,6.11,35A108.73,108.73,0,0,1,151,69.08c-.08,2.72.66,5.48.76,8.21C151.88,79.79,151.15,82.66,151.47,85.09Z"/><path class="cls-10" d="M89.61,54.35c5.84,5.7,10.76,12.29,16.55,18C101,66.9,95.7,61.32,92,54.69s-5.65-14.52-3.8-21.86a17,17,0,0,1-8.88,6.68c-2.79,1-6.64.95-9,2.31.79,2.14,7.63,3.69,9.86,5A52.6,52.6,0,0,1,89.61,54.35Z"/><path class="cls-11" d="M68.1,46.66C78.36,49.25,85.69,56.13,92.18,64a174,174,0,0,1,19.16,28.8c1.62,3,3.18,6.51,2.28,9.84q-7-10.45-14-20.9C96,76.37,90,71.82,85.15,67.43A130.52,130.52,0,0,0,70.11,57c-3.26-2.05-13.12-6.4-14-10.23C59.86,44.72,64.18,45.67,68.1,46.66Z"/><path class="cls-12" d="M138.41,102.14a25.42,25.42,0,0,0-7.88-.06c-5.84,1.18-10.06,6.12-13.79,10.76.37-.46-1-4.28-1.07-5a3.14,3.14,0,0,0,2.88-2.12,7.48,7.48,0,0,0,.3-4.25,28.2,28.2,0,0,0-3.35-8.34,329.33,329.33,0,0,0-22-35.34c4.1,2,7,5.75,9.61,9.47A231,231,0,0,1,123,101.42a3.64,3.64,0,0,0,1.06,1.51,3.16,3.16,0,0,0,1.64.45,12.21,12.21,0,0,0,6.28-1.31,3.71,3.71,0,0,0,1.5-1.2,3.91,3.91,0,0,0,.45-2.12,36.48,36.48,0,0,0-1-7.38c-3.49-16.76-7.05-33.73-14.58-49.1,9.47,14.29,13.16,31.5,17.28,48.14a9.24,9.24,0,0,0,1.57,3.78c1.4,1.69,6,4,7.44,1.37a6.47,6.47,0,0,0,.59-2.74C146,81.94,147,71,149.47,60.45c-.7,3,.87,8.33,1.12,11.58q.52,6.65.76,13.31c.16,4.09.7,8.53.25,12.61-.3,2.76-1.24,5.45-1.61,8.23C146.67,103.37,142.64,102.62,138.41,102.14Z"/><path class="cls-4" d="M83.1,37.89a22.06,22.06,0,0,1-2.75,2c-2.08,1.27-4.68,1.14-7.12,1.21a37.77,37.77,0,0,0-22.88,8.65C64.4,53.81,71.77,59.14,82.52,67c15,11,26.25,31.25,33.12,48.11,2.94-6.33,7.9-10.84,15.13-12.37a20.14,20.14,0,0,1,18.15,5.32c4.14-20.19,6.18-41.1,2.57-61.39-1.87-10.51-12-49.29-26-41.69-5.35,2.9-7.68,11.33-13.87,14.72-5.55,3-11.61,5-17.1,8.18C90,30.45,86.88,34.69,83.1,37.89Z"/></g></g></svg>