<svg xmlns="http://www.w3.org/2000/svg" viewBox="0 0 184.01 232.95"><defs><style>.cls-1{fill:#d6c9b9;}.cls-2{fill:#7f7a73;}.cls-3{fill:#f4efe9;}.cls-4{fill:none;}.cls-4,.cls-6,.cls-7{stroke:#000;stroke-miterlimit:10;stroke-width:8px;}.cls-5,.cls-6{fill:#e5ddd1;}.cls-7,.cls-9{fill:#1e1e1c;}.cls-8{fill:#5b5b5b;}.cls-10{fill:#383837;}.cls-11{fill:#a3a3a3;}.cls-12{fill:#e2e2e2;}</style></defs><title>1_sk_right arm</title><g id="Слой_2" data-name="Слой 2"><g id="Слой_1-2" data-name="Слой 1"><path class="cls-1" d="M101.37,177c10.5-2.34,16.12-12.94,23.27-19.67,2.41-2.27,4.52-5.89,2.79-8.71-.87-1.41-2.47-2.16-4-2.84a37.34,37.34,0,0,0-7.16-2.63c-2.3-.5-4.69-.57-7-1.21-3.06-.87-5.71-2.74-8.31-4.58a51.27,51.27,0,0,1-9.09-7.57c-6-6.79-2.2-14.33-6.37-21.18A20.51,20.51,0,0,0,68.5,98.48,3.69,3.69,0,0,1,67,98.27a3.49,3.49,0,0,1-1.49-2.11C61.41,85.52,49.33,76.4,52.3,64.35c1.21-4.92,1.5-7.29-.34-12.48-1.1-3.11-2.26-6.32-4.51-8.74A17,17,0,0,0,42,39.36a28.16,28.16,0,0,0-22-.49C7.07,44.1,2.42,56.45,4.46,69.6,5.51,76.4,9.73,83.09,16.25,85.27c4.05,1.35,8.82,1,12.15,3.64a17.71,17.71,0,0,1,2.94,3.37c5.11,6.85,15.5,13.06,16.33,22.26.72,7.9-1.57,14.13,5.95,20,3.33,2.6,5.78,2.05,9.55,2.5,5,.59,8.07,2.49,11.91,5.93l11.83,10.59A18.75,18.75,0,0,1,91,158.11C94.51,164.33,88.25,179.92,101.37,177Z"/><path class="cls-2" d="M101.37,177c10.5-2.34,16.12-12.94,23.27-19.67,3.17-3,6.45-12.65-1.66-11.4-3.35.52-5.73,3.37-8.2,5.69a32.84,32.84,0,0,1-8.24,5.65,4.47,4.47,0,0,1-3.11.59,4.74,4.74,0,0,1-1.88-1.33l-20.27-20a6.68,6.68,0,0,1-2.17-3.21c-.4-2,1-3.84,2.33-5.42,4.06-5,7.4-12.4,3.53-17.55a20.92,20.92,0,0,1-9.4,10.31c-.25.21-.5.42-.75.61A10.24,10.24,0,0,1,60.5,106.85a71.9,71.9,0,0,1-19.43-23c-.78-1.46-1.53-3.08-1.2-4.7.75-3.7,6.7-6.36,4.69-9.55-.94-1.5-3.17-1.57-4.77-.81s-2.83,2.1-4.32,3.05c-3.78,2.4-8.92,1.9-12.75-.42s-6.5-6.19-8.37-10.26c-2.8-6.13-3.5-13-.12-19-9-.84-10.66,21.74-9.78,27.42C5.51,76.4,9.73,83.09,16.25,85.27c4.05,1.35,8.82,1,12.15,3.64a17.71,17.71,0,0,1,2.94,3.37c5.11,6.85,15.5,13.06,16.33,22.26.72,7.9-1.57,14.13,5.95,20,3.33,2.6,5.78,2.05,9.55,2.5,5,.59,8.07,2.49,11.91,5.93l11.83,10.59A18.75,18.75,0,0,1,91,158.11C94.51,164.33,88.25,179.92,101.37,177Z"/><path class="cls-3" d="M56,98a13.7,13.7,0,0,0,3.09,3.32c2.25,1.54,5.17,1.6,7.91,1.6-1.77,2.86-3.62,6.2-2.59,9.4A7.45,7.45,0,0,0,69.7,117a15,15,0,0,0,7.23-.2,8.89,8.89,0,0,0,4.9-2.49c2-2.29,1.48-5.93-.3-8.35s-4.57-3.87-7.3-5.12-5.6-2.39-7.8-4.44A24.55,24.55,0,0,1,62,90.15L53.37,74.67a16.23,16.23,0,0,1-2-4.63,9.12,9.12,0,0,1,.54-5C38.76,76.72,47.81,87,56,98Z"/><path class="cls-3" d="M24.68,41c-2.33,3.1-2.7,7.88-1,12.22a17.57,17.57,0,0,0,9.7,9.68,14.26,14.26,0,0,0,14-2.54,11,11,0,0,0,3.81-5.3C53,49,47.75,40.82,41.34,38a17.13,17.13,0,0,0-17.71,2.62"/><path class="cls-3" d="M85.34,131.91a8.55,8.55,0,0,0,2.56,3.51c4.47,4.31,9,8.65,14.18,12,2,1.3,4.31,2.5,6.65,2.08a10.5,10.5,0,0,0,4.68-2.73c.69-.59,1.46-1.41,1.17-2.28a2.33,2.33,0,0,0-1.38-1.16c-7.31-3.38-14.8-7.09-19.92-13.31-1.06-1.29-3.34-5.39-5.31-5S84.87,130.31,85.34,131.91Z"/><path class="cls-4" d="M101.37,177c10.5-2.34,16.12-12.94,23.27-19.67,2.41-2.27,4.52-5.89,2.79-8.71-.87-1.41-2.47-2.16-4-2.84a37.34,37.34,0,0,0-7.16-2.63c-2.3-.5-4.69-.57-7-1.21-3.06-.87-5.71-2.74-8.31-4.58a51.27,51.27,0,0,1-9.09-7.57c-6-6.79-2.2-14.33-6.37-21.18A20.51,20.51,0,0,0,68.5,98.48,3.69,3.69,0,0,1,67,98.27a3.49,3.49,0,0,1-1.49-2.11C61.41,85.52,49.33,76.4,52.3,64.35c1.21-4.92,1.5-7.29-.34-12.48-1.1-3.11-2.26-6.32-4.51-8.74A17,17,0,0,0,42,39.36a28.16,28.16,0,0,0-22-.49C7.07,44.1,2.42,56.45,4.46,69.6,5.51,76.4,9.73,83.09,16.25,85.27c4.05,1.35,8.82,1,12.15,3.64a17.71,17.71,0,0,1,2.94,3.37c5.11,6.85,15.5,13.06,16.33,22.26.72,7.9-1.57,14.13,5.95,20,3.33,2.6,5.78,2.05,9.55,2.5,5,.59,8.07,2.49,11.91,5.93l11.83,10.59A18.75,18.75,0,0,1,91,158.11C94.51,164.33,88.25,179.92,101.37,177Z"/><path class="cls-5" d="M138.57,151.81c-11.1-3.84-18,8-25.42,12.62-11.36,7.07-19.87,20-13.08,33.25,2.91,5.69,13,7.33,14.49,13.48.33,1.36.11,2.8.33,4.19a6.77,6.77,0,0,0,6.18,5.52,24.28,24.28,0,0,1,2.75,0,8.51,8.51,0,0,1,2.71,1.13,18.57,18.57,0,0,1,5.07,3.65,23.72,23.72,0,0,0,1.63,1.9c2.77,2.56,7.62,1.25,9.84-1.79,1.16-1.59,2.69-2.05,3.49-3.87a6.69,6.69,0,0,0-1-6.25c6.45.48,11.72.36,15-3s6.41-9.87,3.55-13.23c4.49.06,8.46.45,11.5-2.3,3.94-3.56,5.06-8.15,3.89-13.19-.56-2.41-1.85-5-4.23-5.65-2-.56-4.2.42-6.21-.13-2.9-.8-4.13-4.33-6.77-5.79s-5.66-.55-8.21.76c-.3-5.64-3.31-6.78-6.19-10.95C145.36,158.38,143.26,153.43,138.57,151.81Z"/><path class="cls-3" d="M120.45,171.78c1.47-.54,2.38-2,3.26-3.28a45,45,0,0,1,13.34-13c3.09,6.76.52,14.84-3.62,21-1.56,2.33-3.36,4.56-4.34,7.2s-1,5.86.88,8c3.34,3.83,5.89.63,7.45-2a21.46,21.46,0,0,1,10.52-9.49,3.13,3.13,0,0,0,1.07-.59,3.07,3.07,0,0,0,.67-1.7c.66-3.56,4-8,3.39-11.53-.45-2.67-3.29-4.07-5.27-5.92s-3.28-4.54-4.85-6.88-3.75-4.56-6.54-4.9S131,150,128.6,151.61c-4.12,2.72-7.51,5.52-9.22,10.25C118.69,163.77,114.8,173.85,120.45,171.78Z"/><path class="cls-2" d="M100.06,197.69c2.91,5.69,13,7.33,14.49,13.48.33,1.36.11,2.8.33,4.19a6.77,6.77,0,0,0,6.18,5.52,24.28,24.28,0,0,1,2.75,0,8.51,8.51,0,0,1,2.71,1.13,18.57,18.57,0,0,1,5.07,3.65,23.72,23.72,0,0,0,1.63,1.9c2.77,2.56,7.62,1.25,9.84-1.79,1.16-1.59,2.69-2.05,3.49-3.87a6.69,6.69,0,0,0-1-6.25c6.45.48,11.72.36,15-3s6.41-9.87,3.55-13.23c.93,1.1,7.91-.16,9.12-.79,2.72-1.42,5.12-5.12,7-7.57a2.08,2.08,0,0,0,.46-.88c.16-1-1.31-1.66-2.29-1.26-2.81,1.15-2.65,2.43-6.1,2.39a30.3,30.3,0,0,1-8.74-1.51,32,32,0,0,1-14.2-9.19c-3.35,2.28-3.85,7.37-1.9,10.92s5.71,5.77,9.53,7.1c2.35.82,5.09,1.63,6.1,3.9,1.31,2.95-1.2,6.16-3.76,8.13-1.5,1.16-3.22,2.24-5.12,2.22-2.19,0-4.07-1.51-5.65-3a49.92,49.92,0,0,1-11.34-16.36,12.58,12.58,0,0,0-2.84,11.15,17.76,17.76,0,0,0,6.38,9.86c1.34,1.09,2.89,2.12,3.5,3.74s-.46,3.94-2.18,3.73a3.75,3.75,0,0,1-1.41-.6c-3.93-2.35-7.87-4.66-11.78-7-1.45-.88-6.64-2.81-6.65-4.57a3.21,3.21,0,0,1,.44-1.41c1.48-3,4.06-6,7.36-5.76a1.78,1.78,0,0,0,1-.08,1.5,1.5,0,0,0,.59-.93l2.25-7c-2.7.11-5.51.13-8-1s-4.51-3.63-4.17-6.31a9.62,9.62,0,0,1,1.41-3.44c2.28-4,5.94-8.26,7.5-12.48a23.8,23.8,0,0,0,1.07-8.47,78.29,78.29,0,0,0-18.14,18.71,4.73,4.73,0,0,1-1.35,1.47c-1.33.79-3.16,0-3.95-1.35a7.11,7.11,0,0,1-.56-4.52,23.48,23.48,0,0,1,5.86-12.69C101.68,170.35,93.66,185.15,100.06,197.69Z"/><path class="cls-3" d="M124.25,207.85a4.4,4.4,0,0,0,1.06,1.3,41.91,41.91,0,0,0,20.63,10.48l.65-.73c-2.26-2.63-5.18-4.58-7.8-6.84s-4.41-7.53-7.3-8.83C129,202.09,122.6,204.26,124.25,207.85Z"/><path class="cls-3" d="M157.5,207c4.93,1.5,8.89-1.8,4.65-6.25-3.81-4-10.66-4.62-13.41-9.43a4,4,0,0,0-1-1.41,3.18,3.18,0,0,0-2.25-.24,6.14,6.14,0,0,0-2.57.76c-2.31,1.53-1.15,4.42.21,6.06C147,201.13,151.74,205.25,157.5,207Z"/><path class="cls-3" d="M163.64,185.34c3.45,1.39,7.42,1.87,10.88.5,1-.39,2-1.09,2.15-2.14a2.66,2.66,0,0,0-.39-1.53c-1.13-2.08-3.37-3.25-5.48-4.3-3.88-1.93-12.42-8.55-16.66-4.73C148.37,178.32,159.91,183.83,163.64,185.34Z"/><path class="cls-4" d="M138.57,151.81c-11.1-3.84-18,8-25.42,12.62-11.36,7.07-19.87,20-13.08,33.25,2.91,5.69,13,7.33,14.49,13.48.33,1.36.11,2.8.33,4.19a6.77,6.77,0,0,0,6.18,5.52,24.28,24.28,0,0,1,2.75,0,8.51,8.51,0,0,1,2.71,1.13,18.57,18.57,0,0,1,5.07,3.65,23.72,23.72,0,0,0,1.63,1.9c2.77,2.56,7.62,1.25,9.84-1.79,1.16-1.59,2.69-2.05,3.49-3.87a6.69,6.69,0,0,0-1-6.25c6.45.48,11.72.36,15-3s6.41-9.87,3.55-13.23c4.49.06,8.46.45,11.5-2.3,3.94-3.56,5.06-8.15,3.89-13.19-.56-2.41-1.85-5-4.23-5.65-2-.56-4.2.42-6.21-.13-2.9-.8-4.13-4.33-6.77-5.79s-5.66-.55-8.21.76c-.3-5.64-3.31-6.78-6.19-10.95C145.36,158.38,143.26,153.43,138.57,151.81Z"/><path d="M118.29,214.2a18.43,18.43,0,0,1,1.77-5.71,12.66,12.66,0,0,1,4-4.75,11.3,11.3,0,0,1,6.16-1.95,18.89,18.89,0,0,1,6.34,1h0l1,2.13h0a3.24,3.24,0,0,0,.31,1.21,9.47,9.47,0,0,0,1,1.72,15.71,15.71,0,0,0,3,3,13.62,13.62,0,0,0,3.63,2,7.32,7.32,0,0,0,3.59.44l.52,5a12.14,12.14,0,0,1-5.89-1.16,18,18,0,0,1-4.58-3.08,19.62,19.62,0,0,1-3.48-4.14,13,13,0,0,1-1.25-2.57,5.65,5.65,0,0,1-.18-3.54h0l1,2.13a16,16,0,0,0-5.14-1.62,9.11,9.11,0,0,0-5.18.84,11.37,11.37,0,0,0-4.13,3.72A18,18,0,0,0,118.29,214.2Z"/><path d="M131.85,203.52a34.61,34.61,0,0,1,1.61-5.59,25.18,25.18,0,0,1,2.65-5.26,9.2,9.2,0,0,1,5-3.79,13,13,0,0,1,5.89-.44h0l.46,0,.28.54a14.29,14.29,0,0,0,3,3.88,14.77,14.77,0,0,0,4,2.69c.35.19.75.29,1.11.45a6.83,6.83,0,0,0,1.13.36l1.15.3,1.18.18.58.09.6,0,1.19.05c.8,0,1.6-.08,2.39-.11l.09,5c-1-.1-1.94-.17-2.9-.32l-1.44-.29-.71-.15-.71-.22-1.4-.44c-.46-.18-.91-.39-1.35-.58a9.21,9.21,0,0,1-1.31-.66c-.42-.25-.86-.46-1.26-.75a17.72,17.72,0,0,1-4.24-3.91,16.24,16.24,0,0,1-2.72-5l.74.57h0a12,12,0,0,0-4.74,1.2,6.78,6.78,0,0,0-1.81,1.32,7.16,7.16,0,0,0-1.2,1.81,21.38,21.38,0,0,0-1.58,4.7,38.36,38.36,0,0,0-.77,5Z"/><path class="cls-5" d="M154.16,173.12s-5.83,5.72-7.6,17.12"/><path d="M155.91,174.9a8.18,8.18,0,0,0-.68.64c-.24.25-.48.51-.72.79-.47.54-.93,1.11-1.36,1.71a31.91,31.91,0,0,0-2.36,3.8A35.07,35.07,0,0,0,149,186a40.31,40.31,0,0,0-1.33,4.41l-2.18-.34a43.3,43.3,0,0,1,.71-4.86,38.4,38.4,0,0,1,1.31-4.79,35.66,35.66,0,0,1,2-4.63c.39-.76.82-1.5,1.28-2.23.23-.37.48-.73.74-1.09a13,13,0,0,1,.9-1.14Z"/><path d="M100.35,183.13c0,.39.11,1,.2,1.47a6.86,6.86,0,0,0,.39,1.35,2.76,2.76,0,0,0,.47.84.55.55,0,0,0,.29.21,1.74,1.74,0,0,0,.69,0,6.1,6.1,0,0,0,1.24-.39,16.79,16.79,0,0,0,2.88-1.64c2-1.35,4.13-2.77,6.16-4.31a32.69,32.69,0,0,0,5.52-5.3,57.19,57.19,0,0,0,4.52-6.18c1.35-2.16,2.59-4.38,3.69-6.58.56-1.1,1.07-2.19,1.51-3.27a17.68,17.68,0,0,0,1-3,5.23,5.23,0,0,0,.12-.94c0-.16,0,.07.26.2s.22,0-.08-.16A7,7,0,0,0,128,155l-.4-5a7.55,7.55,0,0,1,2.61-.26,5.66,5.66,0,0,1,3.38,1.43,5.49,5.49,0,0,1,1.28,1.81,6.29,6.29,0,0,1,.47,1.87,8.84,8.84,0,0,1-.27,2.9,23,23,0,0,1-4.15,7.64,72,72,0,0,1-5.32,6l-5.46,5.65a77.12,77.12,0,0,0-5.19,5.88,42.71,42.71,0,0,1-5.44,5.92,19.16,19.16,0,0,1-3.67,2.45,10.68,10.68,0,0,1-2.41.86,6.71,6.71,0,0,1-3.14-.05,5.91,5.91,0,0,1-2.91-1.85A8.06,8.06,0,0,1,96,187.77a11.81,11.81,0,0,1-.53-2.4,12.43,12.43,0,0,1-.08-2.38Z"/><path d="M52.82,130.35c-.69.23-.81,1.19-.43,1.91a3.4,3.4,0,0,0,2.1,1.51,8.16,8.16,0,0,0,3.2.24,12.76,12.76,0,0,0,3.35-.86,26,26,0,0,0,6.26-3.8,51.09,51.09,0,0,0,5.61-5.08,50,50,0,0,0,4.78-5.84,26.79,26.79,0,0,0,3.48-6.35c.73-2.1.84-4.27,0-5.61a3.81,3.81,0,0,0-1.67-1.61,1.84,1.84,0,0,0-.81-.18,1.42,1.42,0,0,0-.58.21l-2-5.94a7.75,7.75,0,0,1,6.21,1,9.78,9.78,0,0,1,3.6,4.13,9.93,9.93,0,0,1,.82,2.58,11,11,0,0,1,.12,2.56,15.19,15.19,0,0,1-1.07,4.61,34,34,0,0,1-4.35,7.35,54.82,54.82,0,0,1-5.4,6.24,50.8,50.8,0,0,1-6.3,5.3,31.46,31.46,0,0,1-7.41,4,18.2,18.2,0,0,1-4.3,1,12.77,12.77,0,0,1-4.64-.26A8.67,8.67,0,0,1,49,134.79a9.5,9.5,0,0,1-2.38-5.53Z"/><path class="cls-6" d="M164.79,163.73a5.65,5.65,0,0,0,.29-4.31,11.88,11.88,0,0,0-5.22-7.05c-2.54-1.36-5.74-.75-8-2.89a12.48,12.48,0,0,1-3.12-6.08,4,4,0,0,0-1-2,3.5,3.5,0,0,0-2.66-.56c-3.92.34-10.4,2.28-12.18,6.21-1.26,2.79-2.44,9.53.59,11.58a7,7,0,0,0,4,.78c4.07,0,7.47.35,10.12,3.87,2.27,3,3.38,7.43,7.74,7.86C159.49,171.49,163.26,167.23,164.79,163.73Z"/><path class="cls-7" d="M85.72,51.65c.31,4.48-1.6,8.73-3.69,12.49a80.58,80.58,0,0,1-19.35,23.3c-3-4.84-12-18.09-9.38-23.78,3.07-6.74,10.46-12.4,16.09-15.7S84.92,40,85.72,51.65Z"/><path class="cls-8" d="M56.85,33.57a16.82,16.82,0,0,0,2,1.75c1.54,1.11,3.47,1,5.28,1.05a25.7,25.7,0,0,1,17,7.54c-10.43,3.54-15.89,8.19-23.86,15-11.15,9.6-19.46,27.27-24.55,42-2.18-5.53-5.85-9.46-11.22-10.8A13.53,13.53,0,0,0,8.06,94.8C5,77.18,3.48,58.93,6.16,41.23c1.39-9.17,8.9-43,19.29-36.38,4,2.53,5.69,9.89,10.28,12.84,4.11,2.64,8.61,4.4,12.68,7.13C51.76,27.08,54,30.78,56.85,33.57Z"/><path class="cls-9" d="M6.18,74.76A131.57,131.57,0,0,1,9.42,56.92a15,15,0,0,1,2.56-6c1.36-1.61,3.63-2.39,5.26-1.18a5.82,5.82,0,0,1,1.68,2.38c1.79,4.07,1.6,8.9,1.38,13.48l-.18,3.76a120,120,0,0,1,8.23-27.86c4.88-11.15,16.52-17.41,26.52-11.22A48,48,0,0,0,33.69,15.64a16.26,16.26,0,0,1-5.29-2.37c-2.55-2-4-5.89-7-7C18.88,5.37,16,7,14.37,9.43S11.92,15,11.25,18A229.09,229.09,0,0,0,6.72,48.61a111.69,111.69,0,0,0-.21,12.17c.06,2.37-.49,4.78-.57,7.16C5.87,70.13,6.41,72.64,6.18,74.76Z"/><path class="cls-10" d="M52,47.93c-4.33,5-8,10.73-12.27,15.75,3.86-4.8,7.76-9.67,10.49-15.45s4.19-12.66,2.82-19.07A13,13,0,0,0,59.64,35c2.07.88,4.92.83,6.7,2-.58,1.87-5.65,3.22-7.31,4.39A40.78,40.78,0,0,0,52,47.93Z"/><path class="cls-11" d="M68,41.22c-7.61,2.26-13,8.27-17.85,15.18a156.14,156.14,0,0,0-14.2,25.13c-1.2,2.66-2.36,5.68-1.69,8.58Q39.42,81,44.62,71.87c2.7-4.72,7.1-8.7,10.71-12.52A98.09,98.09,0,0,1,66.48,50.2c2.42-1.79,9.72-5.58,10.35-8.92C74.08,39.52,70.88,40.35,68,41.22Z"/><path class="cls-12" d="M15.85,89.63a16.06,16.06,0,0,1,5.84-.05c4.33,1,7.45,5.34,10.22,9.39-.27-.4.73-3.74.79-4.36-1,0-1.74-.78-2.13-1.85A7.62,7.62,0,0,1,30.36,89a27.27,27.27,0,0,1,2.48-7.28,299.85,299.85,0,0,1,16.3-30.83c-3,1.72-5.18,5-7.12,8.26A212.48,212.48,0,0,0,27.24,89a3.24,3.24,0,0,1-.78,1.31,2.08,2.08,0,0,1-1.21.39,7.9,7.9,0,0,1-4.66-1.14,2.87,2.87,0,0,1-1.11-1,3.91,3.91,0,0,1-.33-1.85,37.11,37.11,0,0,1,.75-6.44C22.49,65.6,25.12,50.8,30.71,37.38c-7,12.46-9.76,27.49-12.81,42a8.87,8.87,0,0,1-1.16,3.3c-1,1.47-4.42,3.53-5.51,1.2a6.52,6.52,0,0,1-.44-2.39A201.36,201.36,0,0,0,7.65,53.25c.52,2.59-.65,7.27-.83,10.11Q6.44,69.16,6.26,75a90.35,90.35,0,0,0-.19,11c.22,2.41.92,4.75,1.2,7.18C9.73,90.7,12.72,90,15.85,89.63Z"/><path class="cls-4" d="M56.85,33.57a16.82,16.82,0,0,0,2,1.75c1.54,1.11,3.47,1,5.28,1.05a25.7,25.7,0,0,1,17,7.54c-10.43,3.54-15.89,8.19-23.86,15-11.15,9.6-19.46,27.27-24.55,42-2.18-5.53-5.85-9.46-11.22-10.8A13.53,13.53,0,0,0,8.06,94.8C5,77.18,3.48,58.93,6.16,41.23c1.39-9.17,8.9-43,19.29-36.38,4,2.53,5.69,9.89,10.28,12.84,4.11,2.64,8.61,4.4,12.68,7.13C51.76,27.08,54,30.78,56.85,33.57Z"/></g></g></svg>