<svg xmlns="http://www.w3.org/2000/svg" viewBox="0 0 227.21 280"><defs><style>.cls-1,.cls-7{fill:#e5ddd1;}.cls-2{fill:#fffcf8;}.cls-3{fill:#68625c;}.cls-4{fill:#aaa49b;}.cls-5{fill:#7f7a73;}.cls-10,.cls-6{fill:none;}.cls-10,.cls-12,.cls-6,.cls-7{stroke:#000;stroke-miterlimit:10;}.cls-6,.cls-7{stroke-width:5px;}.cls-8{fill:#5e4224;}.cls-9{fill:#3f2916;}.cls-10,.cls-12{stroke-width:8px;}.cls-11{fill:#dbb872;}.cls-12{fill:#7f7f7e;}.cls-13{fill:#7f601b;}.cls-14{fill:#adadad;}.cls-15{fill:#494947;}.cls-16{fill:#f4f4f4;}.cls-17{fill:#2d1d0f;}.cls-18{fill:#5b5b5b;}.cls-19{fill:#707070;}</style></defs><title>3_sk_body</title><g id="Слой_2" data-name="Слой 2"><g id="Слой_1-2" data-name="Слой 1"><path class="cls-1" d="M136.46,138.54c2.65-.11,7.17,3.32,9.67,4.29,4.65,1.8,9.63,3.25,14.43,4.6,11.24,3.16,22.43,6.6,33.91,8.79,4.19.8,8.64,1.41,12.62-.11,24.05-9.2-1.61-67-7.5-82.25C192.48,55.54,165,49.27,147.9,48.11a12.52,12.52,0,0,1-5.72-1.32,9.63,9.63,0,0,1-3.39-4.06c-2.63-5.23-2.93-11.28-3.35-17.13s-1.1-11.94-4.33-16.82S121.3.73,116,3.2c-6.4,3-7.35,11.51-7.4,18.56-.08,10.38,3.51,22.33-8,25.52-18.83,5.22-43.2-8.88-59.58,3C35.07,54.56,31.16,61,27.77,67.49,17,87.93,7.13,112.05,6,135.3c-.38,7.8,0,15.87,3.23,23,9.25,20.08,25.91,11.68,40,3.24a179.33,179.33,0,0,1,32.93-15.85c5.92-2.07,16.28-10.48,22.41-5.47,2.21,1.8,2.85,4.85,3.28,7.67,1.9,12.26,1.53,23.28-.21,35.39a1.2,1.2,0,0,1-1.92,1.06c-5.81-1.85-11.64-3.8-17.38-5.64C81.84,176.6,77,170,70.5,167.94c-6.24-2-35.21,6-30,18.24a8.42,8.42,0,0,0,3.5,4.44c2.05,1.61,1.19.8,1.32,3.41.39,7.64-11.77,10.2-8.35,19.41,2.45,6.59,10.27,6.09,16.12,6.61,18.29,1.65,40.91-6.43,57.69,2.55,5.85,3.13,11.22,8.6,17.82,8,5.06-.49,8.93-4.47,13.08-7.4,11.17-7.9,25.69-7.78,38.83-7.14,8.32.4,28.32,4.27,30.29-7.92.56-3.47-1.54-6.82-4-9.33s-5.41-4.61-7.27-7.59-2.29-7.3.25-9.73c1-1,2.42-1.53,3.45-2.53,10.52-10.22-27.53-14.87-33.78-12.1-9.88,4.37-20,11.19-29.16,16.8a7.64,7.64,0,0,1-4.57,1.51c-3.27-.33-4.79-4.17-5.35-7.41-1-5.64-.87-11.28-.76-17C129.71,154.53,128,138.88,136.46,138.54Z"/><path class="cls-2" d="M96.27,71.14A29.64,29.64,0,0,0,72.81,83.49c5.31,1.19,10.81-.13,16.22-.77s11.43-.4,15.5,3.22a131.65,131.65,0,0,0-24.25,6.87c-4.68,1.83-10,4.88-10.2,9.9a72,72,0,0,1,29.77-4.52c-6.68,6-16.4,6.86-24.65,10.42a39.27,39.27,0,0,0-19.37,18.27c11.48-5.8,23.34-11.72,36.17-12.71-4.14,3.17-8.31,6.38-11.66,10.38s-5.84,8.92-6,14.13q16.52-10,33.65-18.83l-6.82,1.52a3.3,3.3,0,0,1-1.77.07c-1.89-.64-1.13-3.51.11-5.07a32.28,32.28,0,0,1,10.43-8.55q-6.75,1-13.55,1.56a27.65,27.65,0,0,1,15.72-12.24L99.33,93.46A24,24,0,0,1,112,83.9a24.78,24.78,0,0,1-8.78-3.5,7,7,0,0,1-2.5-2.38c-1.26-2.31.09-5.35,2.26-6.85s4.9-1.85,7.51-2.16a9.78,9.78,0,0,1-8.94-9.39c0-4.69-9.33-7.81-12.89-4.61C83.58,59.58,93.61,68.05,96.27,71.14Z"/><path class="cls-2" d="M185.75,66.91c-2.77-.15-6.16,0-7.45,2.48a5,5,0,0,0,1,5.37A14.63,14.63,0,0,0,184.08,78l15.86,7.83c-6.48,1.32-13.5-1.53-19.68.82a5,5,0,0,0-3.06,2.55c-1.14,2.88,2.19,5.41,5,6.74l18.58,8.8a39.37,39.37,0,0,0-15.21-2.24c-3.3.17-7.39,1.58-7.6,4.88-.14,2.2,1.7,4.09,3.75,4.9s4.31.83,6.49,1.14a24.1,24.1,0,0,1,14.68,8l-19.46-2.15c-2.71-.3-6.16-.2-7.24,2.3-.73,1.69.09,3.64,1.17,5.14,4.19,5.81,11.63,8,18.18,10.89,6,2.65,11.74,6.28,15.79,11.45a23.24,23.24,0,0,1-6.38-13c-.26-1.92-.1-4.24,1.55-5.25,1.84-1.12,4.19.14,5.84,1.52A70.3,70.3,0,0,1,203,121.19c-1.47-2.18-2.87-4.83-2.07-7.34,1-3.15,5.82-4.14,8-1.65a35.81,35.81,0,0,1-10.82-11.07c-1.63-2.62-2.94-5.71-2.27-8.72s4.14-5.47,6.9-4.1c-4-2.17-8.06-4.59-10.46-8.43s-2.47-9.53,1-12.39a26.21,26.21,0,0,1-10.95-7.66c-2.77-3.24-4.75-7.36-9.63-5.87-4.69,1.43-7.73,5.44-2.49,7.82C174.41,63.67,181.17,66.66,185.75,66.91Z"/><path class="cls-3" d="M82.11,145.81c5.92-2.07,16.28-10.48,22.41-5.47,2,1.62,2.71,4.26,3.14,6.83,2.31-9.48,2.58-20.48-2.18-22.07a19.68,19.68,0,0,0-5.58-1,112,112,0,0,1-10.93,5C81.27,132,75.52,139.68,69.31,144.8a44.67,44.67,0,0,1-5,3.56A72.93,72.93,0,0,0,60,155.54,163.25,163.25,0,0,1,82.11,145.81Z"/><path class="cls-4" d="M104.06,218.74c0-.36-.69-.45-.59-.1.32-.18.2.4-.11.61C103.68,219.2,104,219.06,104.06,218.74Z"/><polygon class="cls-4" points="91.27 57.84 91.27 57.84 91.27 57.84 91.27 57.84"/><path class="cls-4" d="M99,216.68c-1-1.42-1.55-3.07-2.5-4.5a21,21,0,0,0-6.18-5.77c.05.23.12.45.16.68,0-.24-.11-.45-.16-.68-7.15-4.6-17.45-6.85-24.27-5.11-2,.52-4.7,1.14-5.81-.64a2.94,2.94,0,0,1,.44-3.33,7,7,0,0,1,3-1.87A21.85,21.85,0,0,1,82,196.63a63.28,63.28,0,0,1,6.69,4.95c-6.12-12.92-21.83-11.15-35.18-16.49-6-2-6.22-7.63-3.57-12.62-6.76,3.28-11.88,8.09-9.43,13.86a8.42,8.42,0,0,0,3.5,4.44c2.05,1.61,1.19.8,1.32,3.41.39,7.64-11.77,10.2-8.35,19.41,2.45,6.59,10.27,6.09,16.12,6.61,9.08.57,18-.6,27-1.3,2.67-.21,5.71-.89,8.28-.93,3.07,0,5.64,1.67,8.65,2a17.88,17.88,0,0,0,6.16-.7.43.43,0,0,0,.14-.06l-.15,0A5.16,5.16,0,0,1,99,216.68Z"/><path class="cls-3" d="M53.49,185.09c13.35,5.34,29.06,3.57,35.18,16.49a23.69,23.69,0,0,0,4.23,2.69,136.93,136.93,0,0,0,15.79,6.56c-3.29-8.23-3.2-17.25-3.2-26.43-5.75-1.83-11.52-3.76-17.21-5.58-6.45-2.06-11.27-8.66-17.79-10.73-3.3-1-13,.7-20.57,4.38C47.27,177.46,47.45,183.08,53.49,185.09Z"/><path class="cls-4" d="M119.63,121.88a7.25,7.25,0,0,0-1.28-2.92c-1.48-1.59-4.08-1.07-6.13-.36a103.21,103.21,0,0,0-12.3,5.51,19.68,19.68,0,0,1,5.58,1c4.76,1.59,4.48,12.59,2.18,22.07,0,.28.09.56.14.84,1.9,12.26,1.53,23.28-.21,35.39a1.2,1.2,0,0,1-1.92,1.06l-.18-.06c0,9.18-.09,18.2,3.2,26.43l1.42.45c1.07.32,9,.45,9.15.61a26.94,26.94,0,0,1-4.91-15.76c.08-7.25,3.09-14.12,4.22-21.28,1.73-10.9-.91-22.07.18-33.06a15.7,15.7,0,0,1,2.29-7.52,7.47,7.47,0,0,1,4.71-3.12,5.22,5.22,0,0,1,2.11.07A15.37,15.37,0,0,1,119.63,121.88Z"/><path class="cls-4" d="M115.33,66.11c1.54.56,3.54-.58,5.15-.51,2.22.09,4.26,1.2,6.28,2a8.13,8.13,0,0,1,3.8-2.66q13.43-5.51,27-10.61c-9.49-2-19.18,1.33-28.51,4a13.16,13.16,0,0,1-3.11.61,36.23,36.23,0,0,0-4-.13c-1.43.21-2.13,1.12-3.27-.16l-4-4.51a2,2,0,0,1-.6-1c-.12-1,1.09-1.51,2-1.87A9,9,0,0,0,121,46.55c1.38-3.11.58-7.33.26-10.63a79,79,0,0,1,.46-19c.37-2.51.9-5.1,2.43-7.13s4.33-3.3,6.68-2.33C127.23,3.35,121.43.83,116,3.36c-6.4,3-7.35,11.51-7.4,18.56-.08,10.38,3.51,22.33-8,25.52-18.83,5.22-43.2-8.88-59.58,3-5.91,4.28-9.82,10.75-13.21,17.2C17,88.08,7.13,112.21,6,135.46c-.38,7.8,0,15.87,3.23,23,9.25,20.08,25.91,11.68,40,3.24q5.34-3.21,10.86-6.12a72.93,72.93,0,0,1,4.27-7.18c-6,3.66-12.89,5.78-19.33,3.52a4.28,4.28,0,0,1-2.17-1.39c-1.19-1.68.08-4,1.43-5.53,6.83-7.86,16.26-12.92,25.6-17.53q17.91-8.84,36.47-16.29c-7.6,1.11-14.85,3.85-22,6.67-8.35,3.3-16.66,6.74-24.69,10.77a164.38,164.38,0,0,0-22,13.21c-2.79,2-5.28,4.41-6.63-.13-1-3.31,1.14-7.26,2.65-10.07,2.39-4.46,5.5-6.95,10-9.3a276.74,276.74,0,0,1,34.94-15.43A47.68,47.68,0,0,1,89.41,104c9.54-1.06,18.76-2,28.4-2.45l-.37-4.86c-21.53-.15-45,2.43-64.59,11.82C49.76,110,41.45,117.3,40,112.15c-1.39-5,6.35-9.95,9.82-11.83,4.95-2.69,10.45-4.14,15.86-5.72,8.44-2.47,16.81-5.33,25.51-6.62s17.9-.91,25.83,2.89a21.54,21.54,0,0,1,.75-6.35c-10.24-2.39-21.11-4-31.46-2.21A151.29,151.29,0,0,0,70,85.51c-2.11.6-14.16,2.59-14.95,4.17,1.54-3.11.33-6.15,2.38-9.26a17,17,0,0,1,8.33-6.29c5.05-1.85,10.58-1.77,16-1.51a278.4,278.4,0,0,1,34,3.74,4.31,4.31,0,0,0-1.06-4.78,10.28,10.28,0,0,0-4.6-2.36c-7.39-2.12-15.21-1.85-22.88-2.43s-15.68-2.21-21.41-7.34C59.18,53.58,77,54.91,79.19,55.36c4,.82,8.07,1.54,12.07,2.47l10.56-.51a30.93,30.93,0,0,0-10.52-7.49,87,87,0,0,1,14.23,7.31l.94,0a3.23,3.23,0,0,0,.28.9c1.11.78,2.21,1.6,3.29,2.51C111.87,62.05,113.06,65.29,115.33,66.11Z"/><path class="cls-4" d="M105.54,57.14c.41.27.81.57,1.22.86a3.23,3.23,0,0,1-.28-.9Z"/><path class="cls-4" d="M101.83,57.32l-10.56.51h0l13.13,2.69A30.46,30.46,0,0,0,101.83,57.32Z"/><path class="cls-4" d="M101.83,57.32a30.46,30.46,0,0,1,2.57,3.2L91.27,57.84c2.23.52,4.44,1.1,6.6,1.81l14.43,4.74c-.38-2.85-4.39-3.91-5.54-6.39-.4-.29-.81-.58-1.22-.86Z"/><path class="cls-5" d="M142.1,127a15.74,15.74,0,0,1,7,.72c13.49,3.65,25.32,7.35,36.44,15.82a18.15,18.15,0,0,1,4.53,7,2.22,2.22,0,0,1-.49,2.22,2.68,2.68,0,0,1-1.44.49c-9.75,1.18-18.41-5.85-27.86-8.5-6.24-1.75-12.48-2.28-18.11-5.77C137.52,136.1,134.28,128.55,142.1,127Z"/><path class="cls-3" d="M206.66,153c-1.44-4.88-5.29-8.66-9.33-11.75-10.55-8-23.23-12.75-35.89-16.7a12.62,12.62,0,0,1-4.6-2.17c-8.55-1.57-16.63-3.07-25.21-4-.76,7-2.13,14.25-.08,21a8.51,8.51,0,0,1,9.73,1.24c-1.93-2.91-3.88-6.78-1.87-9.63,1.89-2.69,5.91-2.41,9.13-1.72a108.2,108.2,0,0,1,29.15,10.4c5,2.71,10.28,7,10,12.62l-5,.3c7.23,2.19,14.79,4.4,22.24,3.11a2.4,2.4,0,0,0,1.82-1A2.32,2.32,0,0,0,206.66,153Z"/><path class="cls-4" d="M198.34,106.25l2.5,2.07A26.67,26.67,0,0,0,198.34,106.25Z"/><path class="cls-4" d="M156.2,121.79c-1.28-1.54-1.34-4.27.41-5.26a5,5,0,0,1,2.35-.46,86.2,86.2,0,0,1,46.87,12.41,63.06,63.06,0,0,0-40-18.73c-3.67-.28-7.39-.24-11-1.07a4.34,4.34,0,0,1-3.12-1.92c-.9-1.86.88-3.9,2.68-4.92C158.76,99.37,164,99.06,169,99c10.24,0,21.24,1.21,29.32,7.21l-4.47-3.71a28.18,28.18,0,0,0-5.9-4.1,28.18,28.18,0,0,0-7.14-1.91c-11.36-2-23.07-4-34.33-1.48.12-3.57,3.65-6,7-7.35,13-5.32,27.65-3.62,41.58-1.84-11-6.41-24.41-10.1-36.7-6.62-4.49,1.27-9.2,3.47-13.6,1.93-.08-3.33,2.21-6.36,5-8.11s6.18-2.45,9.44-3.13l18.42-3.82a56.18,56.18,0,0,0-34.71,4.61c0-9.38,13.58-11.73,20.71-13.54l9.51-2.42c-8.58-3.82-18.73,1.47-27.3,3.54-5.22,1.26-10.59,2.59-15,5.7a21.26,21.26,0,0,0-4.62,4.47,117.94,117.94,0,0,1,5.37,49.91v0c8.58.94,16.66,2.43,25.21,4A5.61,5.61,0,0,1,156.2,121.79Z"/><path class="cls-5" d="M166.16,168c3.74-.75,7.62-1.5,11.34-.66s7.27,3.72,7.63,7.52c.27,2.94-1.43,5.8-3.76,7.62a22.32,22.32,0,0,1-8.06,3.55,2,2,0,0,1,3.26.54c-6.31-.59-12.68,1.32-18.17,4.51s-10.17,7.58-14.48,12.22c-2.73,2.94-6,6.47-10.31,6.47,1.86-2.43,2.51-7.65,3.24-10.75,1-4.32-.35-8.59-2.15-12.58,2-1.92,4.73-2.15,7-3.31,2.85-1.44,5.72-3.41,8.47-5.07Q158.29,173.18,166.16,168Z"/><path class="cls-6" d="M136.46,138.69c2.65-.11,7.17,3.32,9.67,4.29,4.65,1.8,9.63,3.25,14.43,4.6,11.24,3.16,22.43,6.6,33.91,8.79,4.19.8,8.64,1.41,12.62-.11,24.05-9.2-1.61-67-7.5-82.25C192.48,55.69,165,49.42,147.9,48.27A12.52,12.52,0,0,1,142.17,47a9.63,9.63,0,0,1-3.39-4.06c-2.63-5.23-2.93-11.28-3.35-17.12s-1.1-11.94-4.33-16.82S121.3.89,116,3.36c-6.4,3-7.35,11.51-7.4,18.56-.08,10.38,3.51,22.33-8,25.52-18.83,5.22-43.2-8.88-59.58,3-5.91,4.28-9.82,10.75-13.21,17.2C17,88.08,7.13,112.21,6,135.46c-.38,7.8,0,15.87,3.23,23,9.25,20.08,25.91,11.68,40,3.24a179.32,179.32,0,0,1,32.93-15.85c5.92-2.07,16.28-10.48,22.41-5.47,2.21,1.8,2.85,4.85,3.28,7.67,1.9,12.26,1.53,23.28-.21,35.39a1.2,1.2,0,0,1-1.92,1.06c-5.81-1.85-11.64-3.8-17.38-5.64-6.45-2.06-11.27-8.66-17.79-10.73-6.24-2-35.21,6-30,18.24a8.42,8.42,0,0,0,3.5,4.44c2.05,1.61,1.19.8,1.32,3.41.39,7.64-11.77,10.2-8.35,19.41,2.45,6.59,10.27,6.09,16.12,6.61,18.29,1.65,40.91-6.44,57.69,2.55,5.85,3.13,11.22,8.6,17.82,8,5.06-.49,8.93-4.47,13.08-7.4,11.17-7.9,25.69-7.78,38.83-7.14,8.32.4,28.32,4.27,30.29-7.92.56-3.47-1.54-6.82-4-9.33s-5.41-4.61-7.27-7.59-2.29-7.3.25-9.73c1-1,2.42-1.53,3.45-2.53,10.52-10.22-27.53-14.87-33.78-12.1-9.88,4.37-20,11.19-29.16,16.8a7.64,7.64,0,0,1-4.57,1.51c-3.27-.33-4.79-4.17-5.35-7.41-1-5.64-.87-11.28-.76-17C129.71,154.68,128,139,136.46,138.69Z"/><path class="cls-6" d="M61.24,45.68A121.88,121.88,0,0,1,119,67.31c1.51,1.07,3.15,2.22,5,2.18,1.65,0,3.09-1,4.47-1.93a77.17,77.17,0,0,1,50-12.48"/><path class="cls-6" d="M31.87,169.9c17.13-5.57,34.05-25.1,50.88-34.81s27.65-19.26,47-17.66c8,.66,15.82,2.62,23.54,4.81,13.51,3.83,26.58,8.65,38.6,16,3.74,2.29,9.73,4.19,12.94,7,3.42,3,6.6,8.61.84,11.22"/><path class="cls-7" d="M117,72.35c-1.6,16.85.91,33.79,3.52,50.51a14.07,14.07,0,0,0,1.7,5.59c1.07,1.65,3.09,2.84,5,2.33,2.78-.75,3.52-4.29,3.73-7.17,1.24-16.5,2.45-33.34-1.57-49.4C127.21,65.62,118.19,59.81,117,72.35Z"/><path class="cls-6" d="M119,107.59s-47,8.29-77,32-29.12,21-33.81,16.24"/><path class="cls-6" d="M117.21,98s-31.72-4.47-65.72,14.06S11,136.52,6.43,129.94"/><path class="cls-6" d="M116.49,85.09s-26.05-7-61.53,6.57-42.26,4.16-42.26,4.16"/><path class="cls-6" d="M117,72.35s-26.5-5.17-44-7.24-15,1.78-26,4.38-19.5,2.86-15.12-9"/><path class="cls-6" d="M129.37,74.21s49.92-19.41,70.22-.2"/><path class="cls-6" d="M133.55,86.19s45.42-16.7,72.77,5"/><path class="cls-6" d="M133.55,99s51.41-15.73,81,18.25"/><path class="cls-6" d="M129.37,107.59s77-2.69,87.87,34"/><path class="cls-6" d="M105.8,121.17l2.58,27.14c1.35,14.19,2.65,28.89-2,42.37a8.28,8.28,0,0,0-.71,3.73c.15,1.1,2.31,15.41,3.4,15.63,8.11,1.58,13.37,3.32,21.45.85,5.15-7.27,6.28-14,3-23.54-1.52-4.44-3.37-8.22-4.38-12.81-1.54-7-1.19-14.27-.82-21.44l1.25-24.62"/><path class="cls-6" d="M51.64,171.69c-5.63,4.82-1.9,13.9,4.58,15.71,4.29,1.2,8.86.36,13.3.74a24.36,24.36,0,0,1,12.41,4.72c4.94,3.69,8.41,9.21,13.74,12.32,13.61,8,35.92,10.92,48-1,3.78-3.71,7.07-8,11.48-10.94,5.36-3.57,11.9-4.82,17.86-7.27,4.56-1.88,12.91-6.75,12.52-12.72-.4-6.18-7.94-7.17-12.52-6.48"/><path class="cls-2" d="M125.19,117.12c.19.86.6,1.91,1.48,2a36.53,36.53,0,0,0,1.53-8.64c.63-6.82,1.13-13.75.27-20.58-.27-2.14-1.89-14.39-4.83-14.32C118.15,75.68,124.25,112.9,125.19,117.12Z"/><path class="cls-2" d="M120.35,152.57q.73,14.54,1.46,29.07a8,8,0,0,1-.32,3.37,25.54,25.54,0,0,1-1.87,2.9,9.48,9.48,0,0,0-1,4.8,26.38,26.38,0,0,0,1.72,9.13,6.4,6.4,0,0,0,2.43,3.43c3,1.76,6.61-1.5,7.66-4.8,2.52-7.95-1.82-16.22-3.86-24.3-1.79-7.12-1.79-14.54-1.77-21.88,0-2.06,1.26-9.51-2.18-10C119.51,143.86,120.35,150.57,120.35,152.57Z"/><path class="cls-2" d="M161.47,196c2.42-.92,5-1.42,7.45-2.23a30.74,30.74,0,0,0,13.5-9c2.73-3.15,5.43-7.2,9.59-7.4,1.2,1.72.35,4.09-.74,5.88s-2.46,3.66-2.2,5.74c.38,3,3.68,4.4,6.09,6.15a14.08,14.08,0,0,1,5.54,8.91c-3.09,1.06-5.64-2.35-8-4.65-3.58-3.55-8.87-5-13.9-4.76s-9.87,2.12-14.33,4.48a65.26,65.26,0,0,0-13.09,9.11c-3.61,3.24-6.86,6.88-10.66,9.89s-8.31,5.42-13.16,5.63c-4.54.2-10.16-2-11.88-6.55.43,1.12,13.35.88,14.87.53,4-.92,7.46-3.31,10.59-5.87C147.78,206.44,153.24,199.13,161.47,196Z"/><path class="cls-8" d="M135.4,143.58c25.76,14.62,55.22,19.67,81,34.3,0,12.78,4.29,63.7,5.64,76-6.91-6.75-41.65-43.63-43.42-43.67-2.13,0-13.85,39.47-18.1,46.62-3.66-6.52-17.5-43.85-19.23-43.23-3.62.59-6.26,31.09-5,42.35-2.87-3.31-17-22.57-21.09-21.13-3.68,1.29-7.31,27.8-8.73,34.75-11-17.09-42-58.47-46.37-56.57-1.7.75-27,37-32.6,52.86-4.3-13.64-7-27.72-9.71-41.76L11.38,191c-.5-2.58-1.16-6.32.64-8.58,1.4-1.76,4.32-2.67,6-4.3,6.39-6.07,10.81-13.91,15.07-21.53,4.16-7.45,12.12-23.32,12.06-49A115.63,115.63,0,0,0,30.66,51.48,59.69,59.69,0,0,1,54.29,44q4.88,14,10.82,27.59C78.67,102.6,107.42,127.69,135.4,143.58Z"/><path class="cls-9" d="M135.29,143.86c1.54.61,3.08,1.23,4.62,1.85,12.65,5.12,25.33,10.25,37.4,16.62a220.48,220.48,0,0,1,27.44,17.23,32.13,32.13,0,0,1,6.31,5.6c5.35,6.69,5,16.13,4.35,24.67a91.82,91.82,0,0,0-60-14.73,8.48,8.48,0,0,0-4.6,1.46c-1.08.89-1.68,2.23-2.63,3.26-1.78,1.92-4.53,2.51-7.09,3-6.94,1.34-14,2.68-21,2-4.68-.47-9.22-1.84-13.81-2.87-22.76-5.09-46.69-1.62-68.95,5.34-2.24.7-4.59,1.51-6.11,3.29A12.62,12.62,0,0,0,29,215.84a207.54,207.54,0,0,0-5.73,35.35A266,266,0,0,1,9.17,184c0-1.37,12.52-7.66,14.39-10.26,3.67-5.1,6.49-11.58,9.57-17.09,4.16-7.45,12.12-23.32,12.06-49A115.63,115.63,0,0,0,30.66,51.48c-.47-.88,19.74-7.71,21.63-7.93a4.42,4.42,0,0,1,2.75.3,4.45,4.45,0,0,1,1.5,1.83A63.7,63.7,0,0,1,61,55.82c-2.87-.28-4.74-4.82-7.37-3.66a3.77,3.77,0,0,0-1.78,2.61c-2.16,7.63,1.74,14.46,3.75,21.69a158.1,158.1,0,0,1,4.78,24.66c.46,4,1.09,49.39-2.09,48.91q17.34,2.6,34.84,4l.83-14.46A51.68,51.68,0,0,1,114.87,138C121.92,138.89,128.66,141.25,135.29,143.86Z"/><path class="cls-10" d="M135.4,143.58c25.76,14.62,55.22,19.67,81,34.3,0,12.78,4.29,63.7,5.64,76-6.91-6.75-41.65-43.63-43.42-43.67-2.13,0-13.85,39.47-18.1,46.62-3.66-6.52-17.5-43.85-19.23-43.23-3.62.59-6.26,31.09-5,42.35-2.87-3.31-17-22.57-21.09-21.13-3.68,1.29-7.31,27.8-8.73,34.75-11-17.09-42-58.47-46.37-56.57-1.7.75-27,37-32.6,52.86-4.3-13.64-7-27.72-9.71-41.76L11.38,191c-.5-2.58-1.16-6.32.64-8.58,1.4-1.76,4.32-2.67,6-4.3,6.39-6.07,10.81-13.91,15.07-21.53,4.16-7.45,12.12-23.32,12.06-49A115.63,115.63,0,0,0,30.66,51.48,59.69,59.69,0,0,1,54.29,44q4.88,14,10.82,27.59C78.67,102.6,107.42,127.69,135.4,143.58Z"/><path class="cls-11" d="M51.49,49.09s13.68,47,44,70.5a335.72,335.72,0,0,0,62.12,37.56L133.1,153a236.59,236.59,0,0,1-42.73-31.42C73.41,105.64,58.15,86.8,51.49,49.09Z"/><path class="cls-12" d="M129.77,159c20.55.38,71.92,5.92,92.25,11.84.66,9.77.6,15.41.66,22.81-42.23-4.07-97.89-21.25-214.5,6.48-1.73-7.49-2-13.21-3.69-22.74C22.59,169.9,96.89,158.38,129.77,159Z"/><path class="cls-12" d="M133.1,153c-3.33.07-6.62.3-10.14.57-1.32.1-15.92-1.12-16.14-.1-1.2,4.77.17,11,.13,15.94q-.07,9.31.33,18.62c.06.53,12.12.66,13.11.66,7.55,0,15.09.79,22.65.35a2.18,2.18,0,0,0,.67-1.75q1-15.56.63-31.17c0-1-.15-2.16-1-2.65a2.9,2.9,0,0,0-1.23-.27C138.93,152.94,136,152.89,133.1,153Z"/><path class="cls-13" d="M69.77,140.63a2.64,2.64,0,0,0,.41,2.07,2.61,2.61,0,0,0,1.36.61l15.58,3.56A90.52,90.52,0,0,1,87.88,133a2.83,2.83,0,0,1,.62-1.69,2.88,2.88,0,0,1,1.95-.59l8.13-.39C96.8,127,93.37,125,90.36,122.7a31.2,31.2,0,0,1-5.22-4.9L67.66,97.09a47.41,47.41,0,0,1,2.65,10.32C71.87,118.3,70.66,129.73,69.77,140.63Z"/><path class="cls-13" d="M43.9,218.12c4.16-6.63,9.94-14.12,17.74-13.44,5.34.46,9.46,4.72,13,8.77q13.15,15.1,25,31.27a100.16,100.16,0,0,1,9.81-22.31,2.44,2.44,0,0,1,1.3-1.27,2.47,2.47,0,0,1,1.92.64l9.48,6.57c3.75-4.82,4.87-11.19,8.12-16.36s10.65-8.93,15.34-5a14.1,14.1,0,0,1,2.75,3.53l12,19.28a66.16,66.16,0,0,1,14-28.35,5.25,5.25,0,0,1,3.11-2.17,5.35,5.35,0,0,1,3.36,1.18c12,7.73,20,14.82,28.66,26.15-.87-5.64,0-6.73,0-14.2-12.75-7.95-26.91-16.22-41.78-14.09-4.55.65-8.9,2.26-13.3,3.58-19,5.69-39.24,6-59,4-10.42-1-20.87-2.68-31.31-1.92-9.11.67-21.51,3.52-27.52,11.17-4.67,5.94-6.57,18-6.72,25.1C35,233.17,39.29,225.47,43.9,218.12Z"/><path class="cls-14" d="M121.14,161.92a.73.73,0,0,0-.82.77c-.63,3.26-.38,9-.22,12.36a6.24,6.24,0,0,0,.26,2.06c.52.83,3.32.84,4.3.84l7.66,0a4.53,4.53,0,0,0,1.74-.24c1.64-.69,1.74-3.43,1.72-5.21,0-2.21.19-5.16,0-7.36a2.46,2.46,0,0,0-.31-1.15,2.14,2.14,0,0,0-1.17-.74C130.86,162.13,124.59,161.71,121.14,161.92Z"/><polygon class="cls-15" points="113 162.76 114.75 180.34 137 181.41 139.72 185.31 111.06 184.62 110.37 158.55 113 162.76"/><path class="cls-15" d="M9.17,179.54l22.7-5.73s-.35,13.11,1.77,12.78,69.24-10.26,69.24-10.26v5.07s-41.62,2.95-65.12,8-26.91,6-26.91,6Z"/><path class="cls-15" d="M148.08,164.9v16.85c0-.5,17,.05,37.07,2.86s33.43,4.77,33.43,4.77v-3.75s-20.69-3.38-33.43-4.88-32.74-2.07-32.74-2.07l-.17-14.28-4.16-.06Z"/><polygon class="cls-16" points="110.56 157.16 140.42 157.16 139.72 185.31 137 181.41 137.38 160.59 114.62 159.03 110.56 157.16"/><path class="cls-14" d="M158.22,169.4a5.66,5.66,0,0,0,.45,1.56,3.31,3.31,0,0,0,1.09,1.62,6,6,0,0,0,2.56.76c3,.43,35.55,5.13,35.58,4.57a31.16,31.16,0,0,0,0-3.77,3.56,3.56,0,0,0-.18-1c-.82-2.16-5.23-2.26-7.07-2.54q-5.13-.79-10.26-1.51c-3.85-.54-7.69-1-11.57-1.36-2.29-.18-9-1.66-10.32.56A1.88,1.88,0,0,0,158.22,169.4Z"/><path class="cls-14" d="M37.95,177.58a3.33,3.33,0,0,1,1-1.49,11.58,11.58,0,0,1,4.78-2c8.81-2.25,17.89-3.27,27-4.62,21.88-3.24,31-4.09,31-4.09.09,2.21,1,5.88-1.66,7.4a12,12,0,0,1-4.94,1.09c-17.53,1.39-34.79,4.67-52.24,6.67-1.45.17-3.11.28-4.19-.51A2.11,2.11,0,0,1,37.95,177.58Z"/><path class="cls-11" d="M175.08,208.1s-13.15,29.43-16.32,35l1.48,4.5Z"/><path class="cls-11" d="M136.62,212.76a75.15,75.15,0,0,0-3.87,17.37c-.67,8.63-.83,14.59-.83,14.59l-4-5.29S132.25,221.34,136.62,212.76Z"/><path class="cls-11" d="M101.25,255.09l2.81,4.12s1.69-11,3.31-16.12,2.13-8.37,3.19-9.62a13.22,13.22,0,0,1,1.9-1.87s-3.33,1.75-6.14,9.38S101.25,255.09,101.25,255.09Z"/><path class="cls-11" d="M28,254.34s13.38-23.12,18.5-30,8.63-12.18,8.63-12.18l-27.87,39Z"/><polygon class="cls-11" points="214.62 213.59 213.75 240.22 217.2 243.34 214.62 213.59"/><path class="cls-16" d="M205,175.85c-.08.61-.19,1.25.24,1.66a1.69,1.69,0,0,0,.92.35l4.58.76c.73.12,1.58.32,1.9,1a2.3,2.3,0,0,1,.17.85q.25,4,.15,8l5.51.56c.12-2.17-.16-4.24.1-6.38a25.91,25.91,0,0,0-.58-7.37,1.91,1.91,0,0,0-.44-1.08,2,2,0,0,0-1-.41l-8.82-2c-.89-.2-2-1.12-2.72-.08a2.51,2.51,0,0,0-.27,1.85,8.86,8.86,0,0,1,.26,1.9C205.08,175.6,205.06,175.73,205,175.85Z"/><path class="cls-17" d="M91.7,168.08c6.38,8.38-3.09,17.84-11.46,11.46h0C73.85,171.17,83.32,161.7,91.7,168.08Z"/><path class="cls-18" d="M90.56,169.27c5.08,6.44-2.16,13.93-8.77,9.08C76.71,171.92,84,164.42,90.56,169.27Z"/><path class="cls-19" d="M88.82,171.09c3,3.87-1.31,8.36-5.28,5.44C80.49,172.67,84.85,168.17,88.82,171.09Z"/><path class="cls-16" d="M86,167.72a6,6,0,0,0-5.6,4.2A5.7,5.7,0,0,1,85.27,169a5.78,5.78,0,0,1,5.83,5.73,5.86,5.86,0,0,1-1.58,4.11,6.13,6.13,0,0,0,2.61-5.14A6.06,6.06,0,0,0,86,167.72Z"/><path class="cls-17" d="M60.86,172.21c6.38,8.38-3.09,17.84-11.46,11.46h0C43,175.3,52.48,165.83,60.86,172.21Z"/><path class="cls-18" d="M59.72,173.4c5.08,6.44-2.16,13.93-8.77,9.08C45.86,176.05,53.11,168.55,59.72,173.4Z"/><path class="cls-19" d="M58,175.22c3,3.87-1.31,8.36-5.28,5.44C49.65,176.8,54,172.3,58,175.22Z"/><path class="cls-16" d="M55.18,171.85a6,6,0,0,0-5.6,4.2,5.7,5.7,0,0,1,4.84-2.89,5.78,5.78,0,0,1,5.83,5.73A5.85,5.85,0,0,1,58.67,183a6.12,6.12,0,0,0,2.61-5.14A6.06,6.06,0,0,0,55.18,171.85Z"/><path class="cls-17" d="M175.67,168.08c6.38,8.38-3.09,17.84-11.46,11.47h0C157.82,171.17,167.29,161.7,175.67,168.08Z"/><path class="cls-18" d="M174.53,169.27c5.08,6.44-2.16,13.93-8.77,9.08C160.67,171.92,167.92,164.42,174.53,169.27Z"/><path class="cls-19" d="M172.78,171.09c3,3.87-1.31,8.36-5.28,5.44C164.46,172.67,168.82,168.17,172.78,171.09Z"/><path class="cls-16" d="M170,167.72a6,6,0,0,0-5.6,4.2,5.7,5.7,0,0,1,4.84-2.89,5.78,5.78,0,0,1,5.83,5.73,5.86,5.86,0,0,1-1.58,4.11,6.13,6.13,0,0,0,2.61-5.14A6.06,6.06,0,0,0,170,167.72Z"/><path class="cls-17" d="M200.41,171.13c6.38,8.38-3.09,17.84-11.46,11.47h0C182.56,174.22,192,164.75,200.41,171.13Z"/><path class="cls-18" d="M199.27,172.32c5.08,6.44-2.16,13.93-8.77,9.08C185.41,175,192.66,167.47,199.27,172.32Z"/><path class="cls-19" d="M197.52,174.14c3,3.87-1.31,8.36-5.28,5.44C189.2,175.72,193.55,171.22,197.52,174.14Z"/><path class="cls-16" d="M194.73,170.77a6,6,0,0,0-5.6,4.2,5.7,5.7,0,0,1,4.84-2.89,5.78,5.78,0,0,1,5.83,5.73,5.85,5.85,0,0,1-1.58,4.11,6.13,6.13,0,0,0,2.61-5.14A6.06,6.06,0,0,0,194.73,170.77Z"/></g></g></svg>