<svg xmlns="http://www.w3.org/2000/svg" viewBox="0 0 142.37 223.22"><defs><style>.cls-1{fill:#d6c9b9;}.cls-2{fill:#7f7a73;}.cls-3{fill:#f4efe9;}.cls-4{fill:none;}.cls-4,.cls-6,.cls-7{stroke:#000;stroke-miterlimit:10;stroke-width:8px;}.cls-5,.cls-6{fill:#e5ddd1;}.cls-7{fill:#5e4224;}.cls-8{fill:#3f2916;}.cls-9{fill:#7f601b;}.cls-10{fill:#dbb872;}.cls-11{fill:#2d1d0f;}.cls-12{fill:#5b5b5b;}.cls-13{fill:#707070;}.cls-14{fill:#fcd49a;}</style></defs><title>3_sk_left arm</title><g id="Слой_2" data-name="Слой 2"><g id="Слой_1-2" data-name="Слой 1"><path class="cls-1" d="M37.29,142c6.45,8.61,18.42,9.38,27.5,13.13,3.06,1.26,7.23,1.7,9.09-1,.93-1.37,1-3.14,1-4.79a37.3,37.3,0,0,0-.54-7.61c-.49-2.3-1.41-4.51-1.75-6.84-.46-3.14.15-6.33.76-9.45A51.18,51.18,0,0,1,76.47,114c3.74-8.24,12.16-7.89,16.69-14.51a20.51,20.51,0,0,0,2.21-19.71,3.67,3.67,0,0,1-.44-1.49,3.48,3.48,0,0,1,1.31-2.22c8-8.07,11.39-22.84,23.59-25.08,5-.92,7.26-1.63,11.24-5.44,2.39-2.29,4.83-4.66,6.12-7.7a17,17,0,0,0,1.18-6.56,28.15,28.15,0,0,0-8.58-20.23c-10.06-9.62-23.24-8.79-34.39-1.53C89.63,13.32,85.26,19.91,86,26.75c.43,4.25,2.73,8.44,1.67,12.58a17.61,17.61,0,0,1-1.87,4.07c-4.14,7.47-5.54,19.5-13.58,24-6.91,3.9-13.52,4.38-15.79,13.64-1,4.1.5,6.11,1.65,9.74,1.5,4.76,1,8.38-.51,13.29l-4.79,15.14a18.79,18.79,0,0,1-2.48,5.61C46,130.58,29.24,131.28,37.29,142Z"/><path class="cls-2" d="M37.29,142c6.45,8.61,18.42,9.38,27.5,13.13,4,1.67,14.18.68,9.71-6.2-1.84-2.84-5.43-3.84-8.55-5.14a32.85,32.85,0,0,1-8.53-5.19A4.48,4.48,0,0,1,55.59,136a4.78,4.78,0,0,1,.44-2.26l9.91-26.69a6.68,6.68,0,0,1,2-3.29c1.66-1.19,3.93-.63,5.9-.11,6.23,1.65,14.35,1.66,17.45-4a20.93,20.93,0,0,1-13.26-4.33c-.29-.14-.58-.28-.87-.43a10.24,10.24,0,0,1,7.26-19,71.9,71.9,0,0,1,13-27.15c1-1.31,2.19-2.66,3.8-3,3.69-.83,8.54,3.49,10.64.35,1-1.47.13-3.54-1.22-4.68s-3.08-1.72-4.56-2.69c-3.75-2.46-5.4-7.35-4.85-11.8s3-8.47,5.92-11.84c4.43-5.07,10.39-8.52,17.25-7.9-2.95-8.58-24.2-.79-29,2.34C89.63,13.32,85.26,19.91,86,26.75c.43,4.25,2.73,8.44,1.67,12.58a17.61,17.61,0,0,1-1.87,4.07c-4.14,7.47-5.54,19.5-13.58,24-6.91,3.9-13.52,4.38-15.79,13.64-1,4.1.5,6.11,1.65,9.74,1.5,4.76,1,8.38-.51,13.29l-4.79,15.14a18.79,18.79,0,0,1-2.48,5.61C46,130.58,29.24,131.28,37.29,142Z"/><path class="cls-3" d="M90.64,68.26a13.73,13.73,0,0,0-1.76,4.18c-.48,2.69.67,5.38,1.79,7.87-3.33-.44-7.14-.75-9.64,1.5a7.45,7.45,0,0,0-2,6.71A15,15,0,0,0,82.15,95a8.88,8.88,0,0,0,4.29,3.44c2.89.84,6-1.08,7.49-3.7S95.58,89,95.59,86s-.12-6.09.84-8.94a24.54,24.54,0,0,1,3.88-6.57l10.55-14.25a16.25,16.25,0,0,1,3.41-3.72A9.11,9.11,0,0,1,119.09,51C103,43.76,97.39,56.22,90.64,68.26Z"/><path class="cls-3" d="M129.78,16.25c-3.78-.84-8.29.77-11.54,4.14a17.57,17.57,0,0,0-4.84,12.82,14.25,14.25,0,0,0,8.07,11.73,10.94,10.94,0,0,0,6.4,1.3c6.27-.85,11.56-9,11.48-16a17.12,17.12,0,0,0-9.67-15.07"/><path class="cls-3" d="M71.82,108.91a8.56,8.56,0,0,0-2.14,3.78c-2.09,5.85-4.2,11.74-5.16,17.88-.37,2.35-.51,5,.83,6.92a10.53,10.53,0,0,0,4.42,3.14c.82.39,1.89.75,2.55.13a2.32,2.32,0,0,0,.5-1.73c.08-8.06.38-16.41,4-23.63.74-1.5,3.54-5.26,2.42-6.92S73.08,107.82,71.82,108.91Z"/><path class="cls-4" d="M37.29,142c6.45,8.61,18.42,9.38,27.5,13.13,3.06,1.26,7.23,1.7,9.09-1,.93-1.37,1-3.14,1-4.79a37.3,37.3,0,0,0-.54-7.61c-.49-2.3-1.41-4.51-1.75-6.84-.46-3.14.15-6.33.76-9.45A51.18,51.18,0,0,1,76.47,114c3.74-8.24,12.16-7.89,16.69-14.51a20.51,20.51,0,0,0,2.21-19.71,3.67,3.67,0,0,1-.44-1.49,3.48,3.48,0,0,1,1.31-2.22c8-8.07,11.39-22.84,23.59-25.08,5-.92,7.26-1.63,11.24-5.44,2.39-2.29,4.83-4.66,6.12-7.7a17,17,0,0,0,1.18-6.56,28.15,28.15,0,0,0-8.58-20.23c-10.06-9.62-23.24-8.79-34.39-1.53C89.63,13.32,85.26,19.91,86,26.75c.43,4.25,2.73,8.44,1.67,12.58a17.61,17.61,0,0,1-1.87,4.07c-4.14,7.47-5.54,19.5-13.58,24-6.91,3.9-13.52,4.38-15.79,13.64-1,4.1.5,6.11,1.65,9.74,1.5,4.76,1,8.38-.51,13.29l-4.79,15.14a18.79,18.79,0,0,1-2.48,5.61C46,130.58,29.24,131.28,37.29,142Z"/><path class="cls-5" d="M75.54,165.61c-1.06-11.7-14.7-13.14-21.95-18-11.11-7.45-26.37-9.91-35.69,1.73-4,5-1.35,14.85-6.34,18.75-1.11.86-2.51,1.25-3.68,2A6.77,6.77,0,0,0,5.38,178a24.07,24.07,0,0,1,1.09,2.52,8.49,8.49,0,0,1,.09,2.94,18.55,18.55,0,0,1-1.24,6.12,24.15,24.15,0,0,0-1.06,2.27c-1.19,3.57,2,7.47,5.68,8.24,1.92.4,3,1.61,5,1.59a6.7,6.7,0,0,0,5.3-3.46c2.21,6.08,4.49,10.84,8.94,12.46s11.63,1.79,13.52-2.2c1.79,4.12,3.06,7.9,6.82,9.54,4.87,2.13,9.51,1.27,13.62-1.87,2-1.5,3.79-3.73,3.41-6.17-.31-2.06-2.11-3.65-2.43-5.71-.46-3,2.25-5.55,2.5-8.54s-1.82-5.39-4.06-7.17c5-2.59,4.82-5.8,7.44-10.14C72.33,174.5,76,170.55,75.54,165.61Z"/><path class="cls-3" d="M45,154.37c1.1,1.12,2.78,1.36,4.32,1.62a45,45,0,0,1,17.3,6.84c-4.89,5.59-13.32,6.57-20.65,5.34-2.77-.47-5.54-1.19-8.35-1s-5.74,1.53-6.91,4.08c-2.12,4.62,1.84,5.63,4.87,6a21.48,21.48,0,0,1,13,5.69,3.13,3.13,0,0,0,1,.74,3.07,3.07,0,0,0,1.82-.09c3.52-.86,8.89.38,11.9-1.65,2.25-1.51,2.36-4.68,3.23-7.24s2.79-4.86,4.28-7.24,2.62-5.29,1.78-8-3.41-4.44-5.81-6c-4.17-2.63-8.12-4.58-13.13-4.2C51.56,149.47,40.76,150.06,45,154.37Z"/><path class="cls-2" d="M17.89,149.35c-4,5-1.35,14.85-6.34,18.75-1.11.86-2.51,1.25-3.68,2A6.77,6.77,0,0,0,5.38,178a24.07,24.07,0,0,1,1.09,2.52,8.49,8.49,0,0,1,.09,2.94,18.55,18.55,0,0,1-1.24,6.12,24.15,24.15,0,0,0-1.06,2.27c-1.19,3.57,2,7.47,5.68,8.24,1.92.4,3,1.61,5,1.59a6.7,6.7,0,0,0,5.3-3.46c2.21,6.08,4.49,10.84,8.94,12.46s11.63,1.79,13.52-2.2c-.62,1.3,3.39,7.14,4.47,8,2.41,1.9,6.77,2.57,9.76,3.23a2.08,2.08,0,0,0,1,.05c1-.28,1-1.87.21-2.6-2.21-2.09-3.31-1.42-4.68-4.58A30.28,30.28,0,0,1,51.2,204a31.93,31.93,0,0,1,2.54-16.72c-3.46-2.12-8.3-.48-10.74,2.75s-2.91,7.57-2.56,11.61c.22,2.48.61,5.31-1,7.16-2.15,2.41-6.11,1.43-9-.09-1.67-.89-3.37-2-4.13-3.75-.87-2-.29-4.33.44-6.4A49.91,49.91,0,0,1,37,181.51a12.59,12.59,0,0,0-11.34,2,17.77,17.77,0,0,0-6.37,9.86c-.44,1.67-.74,3.51-2,4.73s-3.78,1.2-4.3-.45a3.69,3.69,0,0,1,0-1.53l2.74-23.75a10.52,10.52,0,0,1,7.94,3.49A.82.82,0,0,0,23.6,177l-1.66.61c1.32.17,1.63-1.77,1.49-3.09a26.14,26.14,0,0,1,1.15-10.9,4.83,4.83,0,0,1,.9-1.78,4.32,4.32,0,0,1,2.14-1.14c9-2.41,17.57,6.38,26.84,5.72a23.77,23.77,0,0,0,8.16-2.5A78.33,78.33,0,0,0,38.11,155a4.71,4.71,0,0,1-1.9-.62c-1.27-.88-1.28-2.89-.39-4.15a7.12,7.12,0,0,1,3.89-2.37,23.48,23.48,0,0,1,14,.13C43.48,139.6,26.69,138.36,17.89,149.35Z"/><path class="cls-3" d="M18.56,175.58a4.37,4.37,0,0,0-.75,1.5,41.9,41.9,0,0,0-1.08,23.12l.94.29c1.47-3.14,2-6.61,3-9.93s5-7.11,5.06-10.28C25.76,177.53,21.15,172.59,18.56,175.58Z"/><path class="cls-3" d="M33,205.54c.65,5.11,5.29,7.36,7.61,1.68,2.09-5.12-.16-11.62,3.08-16.1a4,4,0,0,0,.86-1.52,3.17,3.17,0,0,0-.71-2.15,6.13,6.13,0,0,0-1.75-2c-2.34-1.48-4.5.76-5.43,2.68C34,193.52,32.22,199.57,33,205.54Z"/><path class="cls-3" d="M55.27,202.24c.15,3.72,1.34,7.54,4,10.12a3,3,0,0,0,2.84,1.08,2.66,2.66,0,0,0,1.24-1c1.43-1.88,1.58-4.4,1.66-6.76.16-4.33,2.7-14.83-2.53-17.13C55.39,185.44,55.11,198.22,55.27,202.24Z"/><path class="cls-4" d="M75.54,165.61c-1.06-11.7-14.7-13.14-21.95-18-11.11-7.45-26.37-9.91-35.69,1.73-4,5-1.35,14.85-6.34,18.75-1.11.86-2.51,1.25-3.68,2A6.77,6.77,0,0,0,5.38,178a24.07,24.07,0,0,1,1.09,2.52,8.49,8.49,0,0,1,.09,2.94,18.55,18.55,0,0,1-1.24,6.12,24.15,24.15,0,0,0-1.06,2.27c-1.19,3.57,2,7.47,5.68,8.24,1.92.4,3,1.61,5,1.59a6.7,6.7,0,0,0,5.3-3.46c2.21,6.08,4.49,10.84,8.94,12.46s11.63,1.79,13.52-2.2c1.79,4.12,3.06,7.9,6.82,9.54,4.87,2.13,9.51,1.27,13.62-1.87,2-1.5,3.79-3.73,3.41-6.17-.31-2.06-2.11-3.65-2.43-5.71-.46-3,2.25-5.55,2.5-8.54s-1.82-5.39-4.06-7.17c5-2.59,4.82-5.8,7.44-10.14C72.33,174.5,76,170.55,75.54,165.61Z"/><path class="cls-6" d="M93.65,194.25c1.81-2.16,3.91-4.54,3.53-7.38a6.2,6.2,0,0,0-3.48-4.72c-1.51-.69-3.22-.75-4.82-1.19s-3.24-1.51-3.49-3.15a6.24,6.24,0,0,1,.23-2.2,12.1,12.1,0,0,0,.19-4.94c-2-9.54-13.22-6.6-16.36.32-1.71,3.76-1.69,8.09-1,12.18a3.16,3.16,0,0,0,1.07,2.26c2,1.33,4.9-.44,7.12,1.13,2.53,1.79,1.88,4.35,2.06,7,.19,2.91,2.83,5.27,5.71,5.73,3.58.56,6.17-1,8.14-3.62C92.84,195.23,93.24,194.75,93.65,194.25Z"/><path d="M10.32,172.75a18.43,18.43,0,0,1,5.94-.73,12.67,12.67,0,0,1,6,1.67,11.3,11.3,0,0,1,4.3,4.81,18.92,18.92,0,0,1,1.69,6.2h0l-1.53,1.78h0a3.27,3.27,0,0,0-1,.78,9.47,9.47,0,0,0-1.14,1.64,15.76,15.76,0,0,0-1.54,4,13.63,13.63,0,0,0-.37,4.15,7.32,7.32,0,0,0,1.07,3.46L19.41,203A12.16,12.16,0,0,1,18,197.19a18.06,18.06,0,0,1,.92-5.44,19.71,19.71,0,0,1,2.35-4.87,13,13,0,0,1,1.83-2.19,5.64,5.64,0,0,1,3.16-1.62h0l-1.53,1.79a16,16,0,0,0-.63-5.36,9.13,9.13,0,0,0-2.89-4.38,11.39,11.39,0,0,0-5.08-2.24A18,18,0,0,0,10.32,172.75Z"/><path d="M25.64,180.73a34.61,34.61,0,0,1,5.76-.83,25.1,25.1,0,0,1,5.88.26,9.19,9.19,0,0,1,5.54,3,13,13,0,0,1,2.82,5.2h0l.16.43-.38.48a14.28,14.28,0,0,0-2.31,4.31,14.76,14.76,0,0,0-.81,4.76c0,.4,0,.8.05,1.19a6.73,6.73,0,0,0,.13,1.18l.2,1.17.32,1.15.16.57.22.56.44,1.11c.33.73.73,1.43,1.08,2.14l-4.52,2.14c-.31-.93-.65-1.84-.91-2.78l-.33-1.43-.16-.71-.09-.73-.17-1.46c0-.49,0-1,0-1.47a9.11,9.11,0,0,1,.06-1.47c.06-.49.07-1,.17-1.45a17.73,17.73,0,0,1,1.82-5.47,16.21,16.21,0,0,1,3.45-4.54L44,189h0a12,12,0,0,0-3-3.83A6.72,6.72,0,0,0,39,184a7.08,7.08,0,0,0-2.14-.35,21.39,21.39,0,0,0-4.93.49,38.44,38.44,0,0,0-4.86,1.34Z"/><path class="cls-5" d="M62.52,188.58s-7.61-3-18.74.1"/><path d="M61.61,190.91a8,8,0,0,0-.86-.35c-.32-.12-.67-.23-1-.33-.69-.2-1.4-.39-2.12-.54a31.75,31.75,0,0,0-4.43-.59,35,35,0,0,0-4.55,0,40.27,40.27,0,0,0-4.57.6l-.58-2.12a43,43,0,0,1,4.72-1.35,38.36,38.36,0,0,1,4.91-.77,35.85,35.85,0,0,1,5-.08c.85,0,1.7.13,2.56.25.43.06.86.13,1.3.22a13.12,13.12,0,0,1,1.41.35Z"/><path d="M31.28,143.63c-.34.19-.86.51-1.26.79a6.81,6.81,0,0,0-1.07.91,2.75,2.75,0,0,0-.57.78.56.56,0,0,0-.07.35,1.79,1.79,0,0,0,.28.63,6.19,6.19,0,0,0,.87,1,16.93,16.93,0,0,0,2.68,2c2,1.26,4.22,2.63,6.46,3.84a32.79,32.79,0,0,0,7.1,2.86,57.34,57.34,0,0,0,7.49,1.58c2.52.35,5.06.56,7.52.66,1.23.06,2.44.08,3.6,0a17.69,17.69,0,0,0,3.14-.32,5.22,5.22,0,0,0,.91-.27c.14-.08,0,.07-.07.32s.12.18.11-.14a6.88,6.88,0,0,0-.17-1.29l4.38-2.41a7.52,7.52,0,0,1,1.31,2.27,5.65,5.65,0,0,1,.09,3.67,5.47,5.47,0,0,1-1.13,1.91,6.24,6.24,0,0,1-1.51,1.19,8.81,8.81,0,0,1-2.75.94,23.08,23.08,0,0,1-8.67-.64,72.39,72.39,0,0,1-7.65-2.39l-7.4-2.66a77.28,77.28,0,0,0-7.49-2.32,42.8,42.8,0,0,1-7.64-2.53A19.27,19.27,0,0,1,26.05,152a10.72,10.72,0,0,1-1.77-1.85A6.71,6.71,0,0,1,23,147.28a5.92,5.92,0,0,1,.49-3.42,8,8,0,0,1,1.72-2.32,11.69,11.69,0,0,1,2-1.47A12.28,12.28,0,0,1,29.36,139Z"/><path d="M59.88,78.62c-.49-.53-1.42-.25-1.92.39a3.4,3.4,0,0,0-.51,2.54,8.19,8.19,0,0,0,1.09,3,12.76,12.76,0,0,0,2.16,2.71,26,26,0,0,0,6,4.15,51.11,51.11,0,0,0,6.93,3,50.2,50.2,0,0,0,7.29,2,26.75,26.75,0,0,0,7.21.56c2.22-.2,4.24-1,5.12-2.28a3.82,3.82,0,0,0,.79-2.18,1.83,1.83,0,0,0-.17-.81,1.39,1.39,0,0,0-.43-.44L98.1,87a7.77,7.77,0,0,1,1.65,6.07,9.79,9.79,0,0,1-2.29,5,10,10,0,0,1-2,1.81A11,11,0,0,1,93.16,101a15.18,15.18,0,0,1-4.64.91A34,34,0,0,1,80,101a54.68,54.68,0,0,1-7.9-2.36,50.81,50.81,0,0,1-7.42-3.57A31.39,31.39,0,0,1,58,90a18.27,18.27,0,0,1-2.7-3.5,12.78,12.78,0,0,1-1.67-4.34A8.66,8.66,0,0,1,54.27,77a9.5,9.5,0,0,1,4.06-4.44Z"/><path class="cls-7" d="M52.87,76.62l4.71-7.73c1.9-3.13,4.61-6.68,8.25-6.27,2,.22,3.63,1.63,5.29,2.78,6,4.14,13.25,6.64,19.9,9.42,4.43,1.86,7.53,3.47,7.67,8.15.16,5.21-3.45,12.51-4.84,17.57-1.71,1.72-5.05-.55-6.76,1.29s-2.42,4.35-3.09,6.76l-3.08,11.14c-.57,2.06-1.12,4.32-.23,6.26.55,1.2,1.62,2.13,2.08,3.37a7.86,7.86,0,0,1,.08,3.89c-.9,6,0,20.47-6.73,22.7-6.6,2.18-19.34-2.29-25.53-4.37-2.19-.74-27.52-11-26.41-12.78l12.07-19.44c0-2.29,7.27-2.36,8.41-2,4-6.35,5.41-15.4,7.67-22.55.45-1.43.88-3.08.07-4.34a12.5,12.5,0,0,0-1.75-1.71C48,86,49.9,81.5,51.89,78.23Z"/><path class="cls-8" d="M63.77,66.57l-8.3,12.68c-1.53,2.34-3.1,5.33-1.72,7.77.63,1.12,1.82,1.91,2.22,3.13a5.52,5.52,0,0,1-.4,3.42L47.48,117c-.74,2.15-2,4.7-4.25,4.79-1.22,0-2.47-.68-3.61-.24a3.79,3.79,0,0,0-1.67,1.72q-4.42,7.16-8.21,14.68L56,148.62,43.84,140c-2.46-1.74-5.2-4-5-7,.14-2.54,2.47-4.52,4.94-5.11s5.05-.12,7.55.36l13.84,2.65-6.59-5.83a7.19,7.19,0,0,1-2.26-2.82,6.9,6.9,0,0,1,0-3.32A86.93,86.93,0,0,1,62.5,97.51a1.83,1.83,0,0,1,2.39-1.34,66.09,66.09,0,0,1,10.8,2.18c-2.9-1.53-5.85-3.1-8.1-5.48s-3.75-5.73-3.07-8.93a15.25,15.25,0,0,1,2.21-4.71L69.35,75c1.11-1.79,2.26-3.85,1.73-5.89-.64-2.5-3.87-3.76-6.24-2.72a6.31,6.31,0,0,0-3.39,6.39"/><path class="cls-9" d="M71.7,84.68A6.62,6.62,0,0,0,74,89.49a14.75,14.75,0,0,0,4.77,2.68,39.42,39.42,0,0,0,6.74,1.9,1.29,1.29,0,0,0,1.74-1,32.25,32.25,0,0,0,2.37-8.85,2.84,2.84,0,0,0,0-1.24,2.77,2.77,0,0,0-.87-1.12C83.34,77.07,71.82,73.75,71.7,84.68Z"/><path class="cls-9" d="M64.42,100.89A58.21,58.21,0,0,0,60,117a5.51,5.51,0,0,0,.49,3.81,5.11,5.11,0,0,0,2.43,1.66,22.85,22.85,0,0,0,8.5,1.63c.37,0,4.92-17.16,4.79-18.66C75.78,100.63,68.27,100.43,64.42,100.89Z"/><path class="cls-9" d="M49.62,132.38a2.51,2.51,0,0,0-1.8,1c-.52,1,.25,2.08,1,2.88a34.84,34.84,0,0,0,5.35,5.09c3.3,2.37,7.27,3.59,11.16,4.77,5.06,1.54,7.21,1.51,8.47-4,.7-3,.9-5.29-2-7-2.39-1.4-6.12-1.21-8.79-1.73C58.54,132.59,54.23,131.41,49.62,132.38Z"/><path class="cls-10" d="M85.54,95.84a12.83,12.83,0,0,0,2.92-4.24,33.86,33.86,0,0,0,2-7.34,8.21,8.21,0,0,0,.19-3.09,2.79,2.79,0,0,0-1.89-2.26c1.13-1.41,5.23,1.38,5.84,2.49,1.59,2.87-1.18,6.12-1.92,9.31a11.53,11.53,0,0,1-.87,3.38c-1.21,2-4.11,2.17-6.07,3.51s-2.85,3.89-3.56,6.22L78.47,116c-1,3.18-3,6.26-2.14,9.71.37,1.43,1.24,2.28,1.9,3.53a10.16,10.16,0,0,1,.83,4.95,63.32,63.32,0,0,1-1.12,10.49,16.82,16.82,0,0,1-1.39,3.81c-.44,1-.26,2.44-1.27,3.15a3.15,3.15,0,0,1-1.71.41c-.73,0-5.9,0-6.25.45,1.65-2,4.86-1.94,6.26-4.22a6.81,6.81,0,0,0,.76-2.56,54.73,54.73,0,0,0,.56-8.58,6.78,6.78,0,0,0-.89-4,5.8,5.8,0,0,0-3.31-2,15.53,15.53,0,0,0-3.61-.54c2.43-1.71,4.94-1.41,5.86-4.47Q76,116,78.25,105.69c.49-2.28,1.08-5.63-1.18-7.11,2.23-.18,4.46-.27,6.49-1.33A9.07,9.07,0,0,0,85.54,95.84Z"/><circle class="cls-11" cx="76.2" cy="85.32" r="7.83"/><circle class="cls-12" cx="76.41" cy="85.32" r="6.09" transform="translate(-1.44 1.31) rotate(-0.97)"/><circle class="cls-13" cx="76.41" cy="85.32" r="3.66" transform="translate(-1.42 1.3) rotate(-0.96)"/><path class="cls-14" d="M76.26,79.23a6,6,0,0,0-5.6,4.2,5.7,5.7,0,0,1,4.84-2.89,5.78,5.78,0,0,1,5.83,5.73,5.86,5.86,0,0,1-1.58,4.11,6.13,6.13,0,0,0,2.61-5.14A6.06,6.06,0,0,0,76.26,79.23Z"/><path class="cls-11" d="M62,133.78c6.38,8.38-3.09,17.84-11.46,11.47h0C44.19,136.88,53.66,127.4,62,133.78Z"/><path class="cls-12" d="M60.9,135c5.08,6.44-2.16,13.93-8.77,9.08C47,137.62,54.29,130.12,60.9,135Z"/><path class="cls-13" d="M59.15,136.8c3,3.87-1.31,8.36-5.28,5.44C50.83,138.37,55.19,133.87,59.15,136.8Z"/><path class="cls-14" d="M56.36,133.43a6,6,0,0,0-5.6,4.2,5.7,5.7,0,0,1,4.84-2.89,5.78,5.78,0,0,1,5.83,5.73,5.86,5.86,0,0,1-1.58,4.11,6.13,6.13,0,0,0,2.61-5.14A6.06,6.06,0,0,0,56.36,133.43Z"/></g></g></svg>