<svg xmlns="http://www.w3.org/2000/svg" viewBox="0 0 464.53 375.14"><defs><style>.cls-1{fill:#e5ddd1;}.cls-2{fill:#e0d9ce;}.cls-3{fill:#aaa49b;}.cls-4{fill:none;}.cls-4,.cls-5,.cls-9{stroke:#000;stroke-miterlimit:10;}.cls-4,.cls-5{stroke-width:8px;}.cls-6{fill:#c4bdb3;}.cls-7{fill:#f4efe9;}.cls-8{fill:#00bdff;}.cls-9{fill:#f9e8c0;stroke-width:5px;}.cls-10{fill:#c4ae82;}</style></defs><title>3_sk_head</title><g id="Слой_2" data-name="Слой 2"><g id="Слой_1-2" data-name="Слой 1"><path class="cls-1" d="M355.81,342a19.24,19.24,0,0,1-3,5.76,20.15,20.15,0,0,1-5.75,4.53c-16.06,9.34-32.79,7.35-49.77,11.72-20,5.14-42.64,2.3-63,1.31-8.41-.41-17.29-1-24.29-6-12.56-9-17-29.66-35.65-21.83-7.06,3-12.85,8.56-19.54,12.37-5.69,3.23-14.17,5.69-20.1,1.66-6.82-4.65-2.9-11.59-7.5-17-1.53-1.82-4-2.32-6.27-2.53-9.14-.86-18.45,1.2-27.46-.63-7.68-1.56-14.6-5.85-21.36-10.07l-17.93-11.2c-67.19-42-61.86-154.8-14.29-211C64,70.66,96,51.17,129.09,36.24c22.08-10,44.73-18.78,68.07-24.79,69.73-17.94,144-3.78,200.14,45.37,13.34,11.9,29.66,28,34.46,46.68,5.12,19.86,2.8,45.64,4.12,66.55.37,5.91.84,12.13,3.9,17.07,2.33,3.77,5.93,6.39,8.92,9.58,10.17,10.87,12.57,27.62,11.64,43a127.82,127.82,0,0,1-9.86,42.06c-5.52,13-12.85,19.77-20.35,30.64-6.21,9-4.74,23.35-13.31,29.75-17.47,13-28.77-13.1-40.31-20.15-10.59-6.47-16.52,6.93-19.52,16.4C356.61,339.59,356.23,340.82,355.81,342Z"/><path class="cls-2" d="M298.5,250.08q-3.79-6.87-7.54-13.75c-1.6-2.93-3.3-6-6-7.84s-6.56-2.16-8.78.27a64.29,64.29,0,0,0-3.29-42.89,58.21,58.21,0,0,0-29.36-29.41,50.45,50.45,0,0,1,19.28,2.88c6.63,2.36,13,6.16,20,6.2,14.13.09,26.9-15.16,40.38-10.62-10.54,2.26-18.2,12.77-20.86,23.91s-1.27,22.89.4,34.25c1.91,13,4.18,26,8.68,38.16,8.75,23.69,25.29,36.11,46.14,46.75,6.24,3.18,12.64,6.22,18.06,10.82s9.85,11.05,10.6,18.41c-1.81-6.14-7.3-10.9-13.31-11.27a14.24,14.24,0,0,0-14,10,26.54,26.54,0,0,0-10.71-4.52c-.66,4.17-4.72,6.93-8.66,7.26s-7.78-1.19-11.47-2.69c3-14.57-3.07-29.51-10.51-42.13C311.1,272.74,304.76,261.44,298.5,250.08Z"/><path class="cls-3" d="M302.35,359.16c-6.39,1.92-12.84,3.86-19.46,4.37-3.39.27-6.79.16-10.18.34-6,.33-12.05,2.13-18,2.09-6.69-.06-13.57-1.06-20.23-1.75-7.14-.74-18.19-.4-24.44-4.87-12.56-9-17-29.66-35.65-21.83-7.06,3-12.85,8.56-19.54,12.37-5.69,3.23-14.17,5.69-20.1,1.66-6.82-4.65-2.9-11.59-7.5-17-1.53-1.82-4-2.32-6.27-2.53-9.14-.86-18.45,1.2-27.46-.63-7.68-1.56-14.6-5.85-21.36-10.07l-17.93-11.2c-67.19-42-61.86-154.8-14.29-211C64,70.66,96,51.17,129.09,36.24c29.34-13.25,57.5-22.81,89-27.1C207,10.66,191.81,26.43,183.81,34.21A23.87,23.87,0,0,1,178,38.86c-3,1.46-6.34,1.4-9.58,1.77-17.43,2-32.34,18.73-33.38,37.45-.21,3.77.07,7.64-1,11.23-1.68,5.59-6.66,9.72-7.9,15.42-1,4.81,0,12,.92,16.85,1.51,8.23,5.68,15.62,10.33,22.37,2.31,3.35,4.89,6.71,8.43,8.45,4.84,2.38,10.61,1.26,15.47-1.08s9.18-5.8,14-8.31c16.83-8.82,38.52-12.17,52.83.81-51.36,5.36-65.75,34.26-101.83,52.83-5.46,2.81-11.12,5.41-15.69,9.67-19.32,18-9.31,62.63-4.77,85.69,1.66,8.44,4.56,17.84,11.92,21.37,5.57,2.67,12.69,1.33,17.35,5.55,6.15,5.57,7.33,19.75,18.07,17.86,4.47-.79,8.2-3.93,12.14-6.32,19.14-11.61,37.69,3.89,55-11.77a145.31,145.31,0,0,0,19-20.87c5-6.73,7.29-13.9,11.54-20.87C261,260.18,269.58,242.83,275.4,224A166.31,166.31,0,0,1,259,281.4c-7.69,15.57-21,36.88-5.19,51.49a109.28,109.28,0,0,0,26,17.74c4.16,2.05,7.07,2.06,11.5,2.88C293.28,353.86,301.78,359.33,302.35,359.16Z"/><path class="cls-4" d="M355.81,342a19.24,19.24,0,0,1-3,5.76,20.15,20.15,0,0,1-5.75,4.53c-16.06,9.34-32.79,7.35-49.77,11.72-20,5.14-42.64,2.3-63,1.31-8.41-.41-17.29-1-24.29-6-12.56-9-17-29.66-35.65-21.83-7.06,3-12.85,8.56-19.54,12.37-5.69,3.23-14.17,5.69-20.1,1.66-6.82-4.65-2.9-11.59-7.5-17-1.53-1.82-4-2.32-6.27-2.53-9.14-.86-18.45,1.2-27.46-.63-7.68-1.56-14.6-5.85-21.36-10.07l-17.93-11.2c-67.19-42-61.86-154.8-14.29-211C64,70.66,96,51.17,129.09,36.24c22.08-10,44.73-18.78,68.07-24.79,69.73-17.94,144-3.78,200.14,45.37,13.34,11.9,29.66,28,34.46,46.68,5.12,19.86,2.8,45.64,4.12,66.55.37,5.91.84,12.13,3.9,17.07,2.33,3.77,5.93,6.39,8.92,9.58,10.17,10.87,12.57,27.62,11.64,43a127.82,127.82,0,0,1-9.86,42.06c-5.52,13-12.85,19.77-20.35,30.64-6.21,9-4.74,23.35-13.31,29.75-17.47,13-28.77-13.1-40.31-20.15-10.59-6.47-16.52,6.93-19.52,16.4C356.61,339.59,356.23,340.82,355.81,342Z"/><path class="cls-5" d="M292.44,286.18c2.72-2.27,5.76-4.79,8.89-3.58,3.55,1.37,4.61,6.85,8.22,8,2.72.9,5.65-1.27,6.83-4C323,271.07,306.19,248,299,235.89c-11.4-19.08-17.06.11-17.08,12.88,0,13.27-7.86,25.37-8.25,38.63-.05,1.8.21,3.92,1.67,4.81a4.35,4.35,0,0,0,2.72.37A25.51,25.51,0,0,0,291.49,287Z"/><path class="cls-3" d="M410.41,135.1c-1.13,8.73,3.5,18,10.93,21.8a2.15,2.15,0,0,0,1.33.33,2.36,2.36,0,0,0,1.31-1.06,42,42,0,0,0,8.12-24.37l.9,20.91c.49,11.39,1.12,23.32,6.6,33.1-6.54.4-12.28-4.32-17.33-8.78-5.23-4.63-14.12-9.73-16.52-16.86C402.6,150.83,409.35,143.43,410.41,135.1Z"/><path class="cls-5" d="M219.48,292.49C203,302.67,183.41,310.54,165.07,312c-9.36.74-19.39-1.4-26-9.23-9.19-11-8.77-28.95-7.19-44.69,1-10.22,2.44-20.89,7.56-29.26,4.08-6.69,10.13-11.21,16.14-15.23a213.76,213.76,0,0,1,46.8-23.68c12.32-4.4,26.32-7.32,37.15.46,27.09,19.48,13.76,69-5.52,90.18A67.34,67.34,0,0,1,219.48,292.49Z"/><path class="cls-5" d="M331.92,261.78c15.38,18,36.51,27.2,57.44,33,5.17,1.44,10.66,2.7,15.67.77,10.13-3.92,13.64-18.49,15-31.05,1.8-16.16,2.33-33.61-4.59-47.88a54.83,54.83,0,0,0-12.62-16.41c-14.81-13.51-33.42-19.38-51.63-23.88-7.59-1.88-15.59-3.55-22.91-.75C298.89,186.91,317.21,244.57,331.92,261.78Z"/><path d="M108.19,143.83a82.61,82.61,0,0,1,6,9.36,71.19,71.19,0,0,1,4.69,10.16A56.68,56.68,0,0,1,122.39,186a43.5,43.5,0,0,1-2.22,11.69,34.13,34.13,0,0,1-2.46,5.59,41.33,41.33,0,0,1-3.24,5c-1.11,1.52-2.18,2.93-3.1,4.31a31.47,31.47,0,0,0-2.33,4.18,38.29,38.29,0,0,0-2.82,9.39c-.59,3.33-.94,6.81-1.23,10.4s-.57,7.32-1.14,11.13a46.64,46.64,0,0,1-3.1,11.58,31.43,31.43,0,0,1-3,5.5,34.47,34.47,0,0,1-4,4.77A43.75,43.75,0,0,1,84,276.61a52.46,52.46,0,0,1-10.78,4.46,42.41,42.41,0,0,1-11.4,1.59,29.42,29.42,0,0,1-11.27-2c3.71-1,7.15-1.94,10.53-3s6.64-2.22,9.84-3.47a60.7,60.7,0,0,0,9.18-4.37,36.78,36.78,0,0,0,7.7-6.05,26.07,26.07,0,0,0,2.92-3.67,22.86,22.86,0,0,0,2.13-4.1,41.42,41.42,0,0,0,2.37-9.53c.46-3.4.72-7,1-10.62a101.85,101.85,0,0,1,1.45-11.28,46.76,46.76,0,0,1,3.72-11.4,39.53,39.53,0,0,1,3.17-5.25c1.16-1.61,2.35-3.06,3.44-4.45a39.09,39.09,0,0,0,2.87-4.05,26.33,26.33,0,0,0,2.14-4.31,36.13,36.13,0,0,0,2.29-9.63,48.5,48.5,0,0,0-.07-10.2A93.09,93.09,0,0,0,113.46,165c-.78-3.45-1.73-6.9-2.65-10.42S108.91,147.49,108.19,143.83Z"/><path d="M412.61,124.71c-.19,3.78-.59,7.51-1.06,11.22s-1.05,7.41-1.67,11.09-1.31,7.22-.7,10.21,2.5,5.49,5,8A157,157,0,0,0,430.5,179.7q4.34,3.3,8.87,6.32c3,2,6.13,3.87,9.28,5.67l-4,7c-3.34-1.9-6.56-4-9.7-6.18s-6.19-4.52-9.11-7a137.51,137.51,0,0,1-16.25-16.14,31.81,31.81,0,0,1-3.56-5A16.81,16.81,0,0,1,404,158a21.51,21.51,0,0,1,.33-6.29c.37-2,.87-3.82,1.35-5.61,1-3.6,2-7.19,3.16-10.76S411.19,128.22,412.61,124.71Z"/><path class="cls-6" d="M101.1,179.38c-1-6-2.14-12.17-5.25-17.29s-8.75-9-14.36-7.85c-3.63.72-6.65,3.34-9.34,6-16.64,16.7-27,40.41-28.23,64.79-.47,9.13.4,18.72,5,26.45s13.54,13,21.77,10.57c8-2.37,13-10.92,15.41-19.37s3.16-17.5,6.55-25.57C96.24,208.48,102.89,201,104,191.6c.89-7.7-2.13-15.24-5.21-22.27"/><path class="cls-7" d="M220,112.55c20,1.85,31.34,22.6,49.82,26.87,19.7,4.56,40.15-6.94,55.11-19.61,3.62-3.07,7.21-6.36,11.54-8.11,7.5-3,15.84-1,23.79.19s17.07.95,22.63-5.24c4.87-5.42,5.4-14.11,2.93-21.15s-7.44-12.72-12.62-17.81C334.9,30,273.12,10.66,224.91,37.38c-20.7,11.48-37,31.8-44.4,55.45-1.45,4.62-2.53,9.88-.42,14.19s6.67,6.33,11.08,7C200.72,115.44,210.39,111.65,220,112.55Z"/><path class="cls-7" d="M211.38,156.65c-25.63,6.11-49,28.39-70.52,42.51-8.14,5.33-17.05,9.84-23.33,17.53C108,228.4,106.6,246.9,114.28,260.1a6.84,6.84,0,0,0,1.79,2.21c2.62,1.86,6.28-.84,7.1-4.08s-.15-6.65-.57-10c-1.42-11.19,3.52-22.43,10.71-30.7s16.45-14.06,25.57-19.73L178,185.94c12.6-7.84,25.74-15.87,40.27-17.15s30.83,6.27,35.43,21.07c1,3.13,1.44,6.55,3.34,9.15s6,3.78,8,1.27a7.41,7.41,0,0,0,1.26-3.78c2.08-17.26-10.57-34-26.16-39A52.36,52.36,0,0,0,211.38,156.65Z"/><path class="cls-7" d="M337.54,165.6c10.38-1,20.75,1.74,30.58,5.36,19.62,7.22,38.57,18.77,50.28,36.71a75.18,75.18,0,0,1,11.52,48.75c-.44,4-1.2,8.12-.25,12s4.3,7.58,8.15,7.14c4.25-.48,6.61-5.28,8-9.49,6.41-19.27,8.27-42.47-3.87-58.46-4.92-6.48-11.67-11.12-18.17-15.85-13.6-9.89-26.67-20.71-41.33-28.78-18-9.92-48.25-19.41-66.31-4.2-6.76,5.69-14.37,21.66-11.08,30.49,4.32-3.16,6-9.32,9.85-13.34C320.89,169.74,329.23,166.37,337.54,165.6Z"/><path class="cls-7" d="M269.48,318.24c3.95-1.58,8.58-1.8,12.21.49,1.52,1,2.85,2.34,4.54,2.92,6.7,2.27,12.34-9.21,19.12-7.21,3,.88,4.88,4.17,7.82,5.18,5.84,2,11.25-5.88,17.33-5,3.53.51,6.53,4,10.06,3.45,3.37-.48,5.43-4.58,5.16-8.21s-2.2-6.83-4.08-9.87l-6.78-11c-.7-1.13-1.58-2.38-2.84-2.47a3.66,3.66,0,0,0-2.09.72c-4.59,2.83-8.15,7.21-12.46,10.51s-10.06,5.47-14.87,3.09c-1.64-.81-3-2.09-4.73-2.8-9.53-4-18.72,10.69-26.93,7.27-2-.83-3.3-2.85-4.86-4.43s-4-2.77-5.79-1.56a5.7,5.7,0,0,0-1.69,2.12c-2.1,3.85-6,18-1.35,21.65C260.86,326,266,319.62,269.48,318.24Z"/><path class="cls-8" d="M387.73,200.61a36.12,36.12,0,0,0-26.1-5.82c-1.06,6.94-2.12,13.95-1.66,21s2.6,14.12,7.16,19.18A20.72,20.72,0,0,0,388.21,241C410.36,234.25,402.55,210.7,387.73,200.61Z"/><path class="cls-8" d="M242.72,210.2A37.67,37.67,0,0,0,219.6,196c-3,6.24-6.07,12.55-7.67,19.36s-1.63,14.29,1.23,20.61c3.33,7.36,10.63,12.47,18.27,12.79C254.45,249.7,253.88,224.72,242.72,210.2Z"/><path class="cls-3" d="M144.22,76.62a7,7,0,0,0,.85,4.48A5.48,5.48,0,0,0,148.65,83c4.31.81,8.78-.52,12.58-2.82a50.61,50.61,0,0,0,10.14-8.83c1.54-1.63,3.14-3.46,3.38-5.76.32-3.07-1.89-5.73-4.05-7.79-7.35-7-10-8.34-17.28-1.12A30.93,30.93,0,0,0,144.22,76.62Z"/><path class="cls-3" d="M138.68,98.22a27.06,27.06,0,0,0-4,16.45,4.62,4.62,0,0,0,.8,2.61,4.32,4.32,0,0,0,2.75,1.19c3.24.54,6.66,1,9.7-.33s5.43-5,4.35-8.31a10.47,10.47,0,0,0-2.57-3.72l-5.19-5.54a7.51,7.51,0,0,0-3.44-2.5,2.59,2.59,0,0,0-3.21,2"/><path class="cls-3" d="M164,88.91a12.35,12.35,0,0,0-5.75,2c-1.49,1-2.91,2.67-2.54,4.5A5.56,5.56,0,0,0,157,97.73a16,16,0,0,0,4.32,4.14,5,5,0,0,0,5.52-.12,8.52,8.52,0,0,0,2.27-4.18c.81-2.53,1.48-5.72-.34-7.56-1.54-1.55-4-1.19-6-.72"/><path d="M36.85,99.49c1.51.21,2.78.46,4.13.75s2.63.6,3.94.93,2.59.71,3.87,1.08,2.55.79,3.81,1.23a103.83,103.83,0,0,1,14.63,6.26c2.38,1.16,4.62,2.58,6.89,3.89,2.18,1.49,4.44,2.83,6.49,4.48a90.56,90.56,0,0,1,11.68,10.4,89.49,89.49,0,0,0-12.72-8.82c-2.18-1.35-4.54-2.39-6.81-3.57-2.36-1-4.66-2.09-7.08-2.92a99,99,0,0,0-14.61-4.25c-1.24-.26-2.48-.47-3.72-.71s-2.49-.4-3.73-.57-2.49-.31-3.72-.41-2.52-.19-3.59-.21Z"/><path d="M132.36,38.15c-.35.73-.76,1.58-1.13,2.4s-.77,1.65-1.14,2.49l-2.21,5c-.68,1.71-1.44,3.38-2.12,5.09l-1,2.57c-.35.85-.7,1.7-1,2.57-1.32,3.44-2.54,6.91-3.79,10.38s-2.34,7-3.34,10.55l-.8,2.65-.71,2.68-1.45,5.36c-.82,3.6-1.85,7.19-2.53,10.84-1.7,7.27-2.77,14.65-4.15,22.16a113.2,113.2,0,0,1-.91-22.84c.15-3.83.64-7.63,1.09-11.44.26-1.9.62-3.78.94-5.67.16-.95.33-1.89.51-2.83l.63-2.81a150.85,150.85,0,0,1,6.52-22.08c1.33-3.61,2.87-7.14,4.49-10.63.86-1.73,1.67-3.48,2.61-5.17s1.87-3.35,3-5.11Z"/><path d="M359.44,25.81c1.74,1.22,3.28,2.37,4.85,3.63s3.08,2.5,4.57,3.81c3,2.59,5.86,5.33,8.65,8.14s5.43,5.77,8,8.77,5,6.19,7.29,9.4,4.44,6.6,6.47,10a91,91,0,0,1,5.43,10.62,72.68,72.68,0,0,1,3.79,11.31,55.77,55.77,0,0,1,1.54,11.77c-1.69-3.59-3.25-7.1-5-10.49s-3.56-6.72-5.51-10-3.9-6.46-6.07-9.55-4.42-6.11-6.78-9.06a201.28,201.28,0,0,0-15.21-16.8c-2.68-2.67-5.44-5.26-8.23-7.81-1.41-1.26-2.81-2.52-4.24-3.75s-2.88-2.49-4.25-3.58Z"/><path d="M232.26,143.83a87.68,87.68,0,0,1,14.91.73,86,86,0,0,1,14.7,3.19,66.11,66.11,0,0,1,14,6.13,52.88,52.88,0,0,1,12.1,9.74l-4.35.34h0a47.22,47.22,0,0,1,11.32-12,54.55,54.55,0,0,1,14.34-7.56,72.07,72.07,0,0,1,15.56-3.59,77.61,77.61,0,0,1,15.81-.35A77,77,0,0,0,325,142.1a70.07,70.07,0,0,0-14.77,4.75,51.2,51.2,0,0,0-12.82,8.2,42.5,42.5,0,0,0-9.25,11.65h0L286,169.86,283.82,167a48.15,48.15,0,0,0-10.18-9.81,62.74,62.74,0,0,0-12.68-7,84,84,0,0,0-14-4.39A87,87,0,0,0,232.26,143.83Z"/><path class="cls-9" d="M218.1,334.95c.37.31.56-.71.1-.78s-.79.44-1,.89a58,58,0,0,0-5.52,24.74,7,7,0,0,0,.65,3.53,5.9,5.9,0,0,0,3.22,2.29A25.94,25.94,0,0,0,229,366.93c4.47-12-1-27.17-11.8-32.87"/><path class="cls-9" d="M253.91,370.69c12.52-6.39-1.54-33.11-6.1-40.79-8.28,4.82-9.55,25.08-7,33.43C242.72,368.91,248.9,373.25,253.91,370.69Z"/><path class="cls-9" d="M266,362.81c.22,2.42.89,5.22,3.43,6.26a20.64,20.64,0,0,0,4.11.72c2.9.53,5.31,2.41,8.24,2.78a9.78,9.78,0,0,0,9.48-5.25c1.63-3.18,1.51-6.8,1.1-10.26-.84-7-4.16-31.93-16.53-27.92C265,332.65,265.3,355.4,266,362.81Z"/><path class="cls-9" d="M296.78,363.46c-.16,1.82-.19,3.95,1.18,5.11a5.13,5.13,0,0,0,2.65.94,44.64,44.64,0,0,0,15.36-.45,7.25,7.25,0,0,0,3.56-1.5c2-1.88,1.67-5.2,1.14-8-1.48-7.75-2-32.27-13.17-31.67C295,328.59,297.5,355.14,296.78,363.46Z"/><path class="cls-9" d="M340.61,362.11c5.63-7.05-2.27-23.1-5.8-29.68-.79-1.48-1.82-3-3.38-3.38a4,4,0,0,0-3.89,1.83,11.41,11.41,0,0,0-1.62,4.44c-1.58,8-3.33,20.69,3.11,26.67C332.26,365,337.82,365.61,340.61,362.11Z"/><path class="cls-9" d="M357.87,355.93l.2-.16a4.85,4.85,0,0,0,1.38-1.43,5,5,0,0,0,.4-2.52c-.32-11.24-6-22.16-14.74-28.38-.36-.26-2.64,10.93-2.7,12a36.91,36.91,0,0,0,1.65,12.87C346.87,357.32,349.86,362.08,357.87,355.93Z"/><path class="cls-10" d="M215.69,360.33a1.48,1.48,0,0,0,.19.75,1.27,1.27,0,0,0,.57.39,16.66,16.66,0,0,0,9.57,1.08,17.15,17.15,0,0,1-5.68-8.74,36,36,0,0,1-.91-5.32c-.28-2.32-.25-5.26-1.07-7.35C215.33,346.61,215.69,354.22,215.69,360.33Z"/><path class="cls-10" d="M243.25,355.38c-.07,2.89,0,5.93,1.31,8.46s4.31,4.28,6.8,3.15a1.1,1.1,0,0,0,.42-.3c.41-.53-.09-1.29-.57-1.75a15.07,15.07,0,0,1-3.75-5.07,17.68,17.68,0,0,1-.89-5.13c-.45-6-.91-12.06-.13-18.12C243.33,342.47,243.42,348.79,243.25,355.38Z"/><path class="cls-10" d="M269.11,354a34.39,34.39,0,0,0,.2,9.31,2.8,2.8,0,0,0,.52,1.31c.73.85,2,.49,3.09.45,2.36-.1,4.41,1.58,6.56,2.65s5.2,1.26,6.39-.92c-4.53-1.12-7-6.28-8.33-11.06a57.83,57.83,0,0,1-1.8-10.41c-.13-1.6.74-8.92-1.2-9.49C270.95,334.74,269.3,351.53,269.11,354Z"/><path class="cls-10" d="M302.76,337c-2.88,7.94-2.81,16.78-2.69,25.34a4.25,4.25,0,0,0,.64,2.68,3.23,3.23,0,0,0,2.7.8q4.26-.11,8.5-.54c-1.26.13-4-14.78-4.29-16.39-.84-5.14.1-12.17-1.41-16.82C304.43,332.36,303.37,335.27,302.76,337Z"/><path class="cls-10" d="M327.79,344.71a22.9,22.9,0,0,0,.57,9.72c1,3.08,3.34,5.8,6.26,6.34.86.16,2-.11,2.13-1.07a2.31,2.31,0,0,0-.46-1.39c-4.29-7.29-4.57-15.49-6.15-23.72C328.74,337.42,328.15,341.45,327.79,344.71Z"/><path class="cls-10" d="M348.85,352.44a5.38,5.38,0,0,0,1.06,1.76,2.77,2.77,0,0,0,4.44-1.39c.14-.58-2.3-3.87-2.66-4.57a47,47,0,0,1-2.27-5.27,48.14,48.14,0,0,1-1.6-5.4c-.33-1.41-.3-3.86-1.09-5C345.1,338.91,346.35,346.58,348.85,352.44Z"/></g></g></svg>