<svg xmlns="http://www.w3.org/2000/svg" viewBox="0 0 363.9 381.87"><defs><style>.cls-1,.cls-10{fill:#7f7f7e;}.cls-2{fill:#b2b2b1;}.cls-3{fill:#fcd49a;}.cls-12,.cls-4{fill:#e2e2e2;}.cls-4{opacity:0.4;}.cls-5{fill:#874a18;}.cls-6{fill:#5b1e00;}.cls-7{fill:#5e4224;}.cls-10,.cls-7,.cls-9{stroke:#000;stroke-miterlimit:10;}.cls-10,.cls-7{stroke-width:5px;}.cls-8{fill:#332012;}.cls-9{fill:none;stroke-width:8px;}.cls-11{fill:#494947;}.cls-13{fill:#7f601b;}</style></defs><title>3_sk_backsword</title><g id="Слой_2" data-name="Слой 2"><g id="Слой_1-2" data-name="Слой 1"><path class="cls-1" d="M355.44,8.77A186.27,186.27,0,0,1,258,39.3c-2.37-6.32.83-13.19,2-19.84S258.18,3.87,251.43,4c-4.56.09-7.75,4.38-10.2,8.23Q180,108.33,115.2,202.15q-32,46.4-64.91,92.22C39.1,310,27.76,325.44,16.5,341,12.36,346.72,3.7,354.14,4,361.55c.12,3,12.34,17,11.21,18.5l96.7-128.16c4-5.29,9.15-11.13,15.75-10.62,7.29.57,11.42,8.4,14.18,15.18l24.42,60c77.46-54.28,128-138.39,172.65-221.78C353.19,68,367.36,36.53,355.44,8.77ZM167.58,204.27c-2.73,3.28-5.81,6.76-10,7.54-7.46,1.38-13.68-7.16-13-14.72s5.71-13.9,10.49-19.78q27.62-34,52.12-70.4c16.25-24.14,21.7-42.18,53.4-42.32C239.29,116.57,203.52,161.1,167.58,204.27Z"/><path class="cls-2" d="M355.44,8.77a184.8,184.8,0,0,1-38.62,19.37c-1.54,23.67-10.18,63.88-43.28,119C230.94,218,176.79,265.75,153.3,284.55l13,31.88c77.46-54.28,128-138.39,172.65-221.78C353.19,68,367.36,36.53,355.44,8.77Z"/><path class="cls-3" d="M355.44,8.77S327.58,29,299.73,33.45c17.85-.23,36.69-1.54,45.38-2.22-.64,14.85-5.5,41.31-26.24,79.38-34,62.39-91.33,141.28-118.67,164.17s-39,29.08-39,29.08l5.12,12.57s48-34.66,84-80.71S349.64,72.9,349.64,72.9s10-24.1,10.27-37.33S355.44,8.77,355.44,8.77Z"/><polygon class="cls-4" points="252.1 83.38 349.64 72.89 330.29 107.64 236.37 112.04 252.1 83.38"/><polygon class="cls-4" points="207.44 153.51 311.15 144.72 285.63 177.78 185.53 182.46 207.44 153.51"/><polygon class="cls-4" points="175.2 192.43 285.4 186.71 274.8 202.52 164.19 206.99 175.2 192.43"/><path class="cls-5" d="M173.54,199.28c6.12-7.11,11.6-14.74,17.18-22.26,2.64-3.56,12.36-20.75,16.45-19.81a4.74,4.74,0,0,1,3.42,4.59,6.65,6.65,0,0,1-2.88,5.21c-1.92,1.39-4.76,2.45-4.79,4.82,2.23-.18,3.74,2.77,2.8,4.8s-3.41,3-5.64,2.84c-1.33-.07-3-.31-3.72.78-1.23,1.74,1.54,4.09.78,6.08s-3.87,1.22-5.95,1.92a3.68,3.68,0,0,0,.41,7.1,6.87,6.87,0,0,1,2.19.48,3,3,0,0,1,1.19,2c.55,2.47-.07,5.33-2.08,6.86s-5.43,1.07-6.49-1.22a12.31,12.31,0,0,0-.86-2.11c-.91-1.28-3-1.23-4.24-.32a9.1,9.1,0,0,0-2.65,3.84,4.6,4.6,0,0,0-.6,3.26c.88,2.64,12.21,1,8.52,6.83-1.38,2.17-4.27,2.65-6.73,3.39a22.28,22.28,0,0,0-12.4,9.69c-.47-.27-1-.61-1.46-.92-6.12,7.49,5.22,15.44,9.7,19.21a2,2,0,0,1,.78,1.05,2.06,2.06,0,0,1-.39,1.35,6.57,6.57,0,0,1-2.07,2.54,2.25,2.25,0,0,1-3-.38c-.89-1.32.45-3,.36-4.63-.09-1.76-2-3-3.8-2.83a7.78,7.78,0,0,0-4.55,2.47,2.38,2.38,0,0,1-1.06.71c-.84.19-1.6-.65-1.77-1.49a14.33,14.33,0,0,1,0-2.57c-.09-5.06-10-8.2-12.76-3.71-1.31,2.14-1.11,4.93-.18,7.26a12.58,12.58,0,0,1,5.57,2c1.56,1.24,2.45,3.58,1.43,5.3a6.24,6.24,0,0,1-3.28,2.23,6.61,6.61,0,0,0-3.33,2.18c-.73,1.13-.42,3,.88,3.35a8.14,8.14,0,0,0,1.6,0c1.91.11,3.1,2.25,3.17,4.16s-.59,3.79-.6,5.71.93,4.11,2.81,4.48c1.26.25,2.6-.4,3.83,0s1.92,1.6,2.5,2.73a8,8,0,0,1,1.18,3.6,5.44,5.44,0,0,1-3.2,4.54,16,16,0,0,1-5.66,1.3c.27,0-12.5-32.13-13.94-35-3.13-6.23-7.15-12.32-14.23-14.2.3-4.35,21-30.58,19.38-31.64,3.8,2.43,8.43,5,12.86,6C166.4,214.73,168.8,204.79,173.54,199.28Z"/><path class="cls-6" d="M173.54,199.28c3.19-3.7,6.3-7.55,9.27-11.41,1.34-1.74,2.46-3.62,3.91-5.3.4-.46,4.39-4,4.33-4.24a27,27,0,0,0,2.09,5c-1.37,3.16-6.12,3.29-8.09,6.12a1.36,1.36,0,0,0-.23,1.47c.39.57,1.4.49,1.67,1.12a1.36,1.36,0,0,1-.35,1.24,38.56,38.56,0,0,1-8.85,9c-1.37,1-3,2.21-2.91,3.91a11.4,11.4,0,0,0,.65,2.31c.71,2.75-1.37,5.36-3.34,7.41-2.69,2.79-5.61,5.61-9.32,6.76-2,.63-4.31.75-6,2.06a1.67,1.67,0,0,0-.61.75c-.3.93.76,1.66,1.51,2.29a4.78,4.78,0,0,1,1.43,4.87,3.55,3.55,0,0,1-3.42,2.66c-1.72-.14-2.84-1.77-4-3s-3.32-2.18-4.51-.93c-.89.93-.59,2.45-1,3.69-.49,1.67-2.2,2.81-2.54,4.52s1,3.56,1.84,5.24,1.07,4.24-.66,5c-.58.25-1.31.27-1.68.78a1.85,1.85,0,0,0-.26,1.12,18.22,18.22,0,0,0,1.41,7c.72,1.73,2.33,3.28,2.62,5.14a2.37,2.37,0,0,1-1.21,2.58,134.69,134.69,0,0,0-7.72-18.22,20.45,20.45,0,0,0-4.95-6.13c-.5-.43-6.55-3.87-6.58-3.5.3-4.35,21-30.58,19.38-31.64,3.8,2.43,8.43,5,12.86,6C166.4,214.73,168.8,204.79,173.54,199.28Z"/><path class="cls-5" d="M253.59,43.77c.95-1.84,2.13-3.85,4.12-4.4a10,10,0,0,1,3.53,0,32.57,32.57,0,0,0,5.67-.17c9.05-.8,16.24-1.66,24.91-4.53l28-9.24c2.09-.69,4.36-1.38,6.43-.66-4.49,1.63-3.93,8.17-6.4,12.26-2.09,3.47-6.26,4.92-10,6.59s-7.59,4.43-7.82,8.48c-.1,1.82.16,4.36-1.62,4.79a3.55,3.55,0,0,1-2.17-.47,10.26,10.26,0,0,0-6.74-.78,5.5,5.5,0,0,0-4.15,4.93,8.68,8.68,0,0,0,.9,3.31l7.25,17.22c1.16,2.76,2.21,6.28.15,8.45s-5.56,1.33-7.48-.72-2.6-4.93-3.19-7.68l-16.35-3.42a91.11,91.11,0,0,0-17.91,22.38c-1.32,2.33-2.7,4.87-5.11,6-.72-5.54,2.88-10.58,5.68-15.42a64.42,64.42,0,0,0,7.61-21,6,6,0,0,0-.2-3.81c-1.47-2.83-11.27-.28-14.3-1.19C246,58.52,253.59,49.84,253.59,43.77Z"/><path class="cls-6" d="M253.59,43.77c.95-1.84,2.13-3.85,4.12-4.4a10,10,0,0,1,3.53,0,32.57,32.57,0,0,0,5.67-.17,129.65,129.65,0,0,0,17.31-2.41c5.62-1.27,9.63-4.89,14.7-6.29,2-.55,4.53.16,5.31,2.09.88,2.16-.88,4.63-3,5.52s-4.58.7-6.91.79-4.87.61-6.32,2.43a11.45,11.45,0,0,1,5.5,1.48c1.58,1.09,2.54,3.35,1.53,5-1.63,2.66-5.73,1.07-8.26-.77a10,10,0,0,1-9.92,3.33c-2.71-.66-5.07-2.45-7.83-2.84s-6.21,1.75-5.46,4.43c.59,2.08,3.13,2.77,5.26,3.11l6.68,1.07c.73,1.39-1.19,2.7-1.56,4.23-.41,1.7,1.17,3.15,2.39,4.41s2.1,3.54.68,4.56a6.23,6.23,0,0,1-6.62,2.59,22.79,22.79,0,0,0-3.19-1c-2.89-.31-5.07,2.45-6.64,4.89l-8.18,12.68c2-3.8,8.77-18.48,6.57-22.35-2.29-4-10.87-.36-14.51-1.45C246,58.52,253.59,49.84,253.59,43.77Z"/><path class="cls-7" d="M15.22,380c1.13-1.52-11.09-15.54-11.21-18.5-.3-7.41,8.35-14.83,12.49-20.56,11.25-15.55,22.6-31,33.79-46.63q32.87-45.81,64.91-92.22,64.75-93.79,126-189.92c2.45-3.84,5.64-8.13,10.19-8.23,20.09-.43,2,33.83-2.38,40.33-18.7,27.48-25,38.11-38,56.68-26.5,37.68-57,77.41-80,117.47-9.07,15.78-16.18,23.67-27.47,39.43C75.71,296.74,43.75,341.63,15.22,380Z"/><path class="cls-8" d="M8.69,369.74c-.18.2-3.8-5.45-4-6.17A10.08,10.08,0,0,1,5.25,356c2.37-5.8,7.65-10,11.25-15,11.25-15.55,22.6-31,33.79-46.63q32.87-45.81,64.91-92.22,64.75-93.79,126-189.92c2.34-3.67,5.93-8.52,10.8-8.77,8.48-.44,3,6.65.18,10.68Q239.48,32.6,226.79,51.09a6.1,6.1,0,0,0-1.46,3.59c.12,2.33,2.65,3.6,4.44,5.1,5.42,4.56,3.67,14.85-3,17.36-3.61-5.74-12.33-6.15-18.17-2.7S199.19,84,195.77,89.89Q155.54,158.77,109,223.71l12.06,11a25.63,25.63,0,0,1-6.52,10.34c-3.16-3.85-9.21-4.18-13.72-2.05S93.05,249.16,90,253.1C61,290.66,40.42,334.47,8.69,369.74Z"/><path class="cls-9" d="M355.44,8.77A186.27,186.27,0,0,1,258,39.3c-2.37-6.32.83-13.19,2-19.84S258.18,3.87,251.43,4c-4.56.09-7.75,4.38-10.2,8.23Q180,108.33,115.2,202.15q-32,46.4-64.91,92.22C39.1,310,27.76,325.44,16.5,341,12.36,346.72,3.7,354.14,4,361.55c.09,2.13,6.48,10,9.6,14.83,1.21,1.85,3,1.8,3.75.83,33.09-43.95,100.19-135.13,103.43-139.56,7.29.57,18.31,12,21.07,18.79l24.42,60c77.46-54.28,128-138.39,172.65-221.78C353.19,68,367.36,36.53,355.44,8.77ZM167.58,204.27c-2.73,3.28-5.81,6.76-10,7.54-7.46,1.38-15.35-3.25-14.71-10.81,4.58-8,48-69.86,64.28-94.09s21.7-42.18,53.4-42.32C239.29,116.57,203.52,161.1,167.58,204.27Z"/><path class="cls-1" d="M91.82,223.39c-1.54-2.17,0-5.12,1.59-7.29L108,195.64c2.39-3.34,5-6.84,8.77-8.38,3.55-1.44,7.66-.91,11.16.65a37.3,37.3,0,0,1,9.35,6.6c2.09,1.86,4.22,3.91,5,6.59,1,3.53-.62,7.23-2.29,10.5a178.35,178.35,0,0,1-9.46,16.26c-3.42,5.22-5.65,11.14-11.83,6.53-4.38-3.27-6.89-7.19-12.28-9.36C104.54,224.26,92,223.6,91.82,223.39Z"/><path class="cls-10" d="M91.82,223.39c-1.54-2.17,0-5.12,1.59-7.29L108,195.64c2.39-3.34,5-6.84,8.77-8.38,3.55-1.44,7.66-.91,11.16.65a37.3,37.3,0,0,1,9.35,6.6c2.09,1.86,4.22,3.91,5,6.59,1,3.53-.62,7.23-2.29,10.5a178.35,178.35,0,0,1-9.46,16.26c-3.42,5.22-5.65,11.14-11.83,6.53-4.38-3.27-6.89-7.19-12.28-9.36C104.54,224.26,92,223.6,91.82,223.39Z"/><path class="cls-10" d="M205.81,57.16c-1.54-2.17,0-5.12,1.59-7.29L222,29.4c2.39-3.34,5-6.84,8.78-8.38,3.55-1.44,7.66-.91,11.16.65a37.33,37.33,0,0,1,9.35,6.6c2.09,1.86,4.22,3.91,5,6.59,1,3.53-.62,7.23-2.29,10.5a178.62,178.62,0,0,1-9.46,16.26c-3.42,5.22-5.65,11.14-11.83,6.53-4.38-3.27-6.89-7.19-12.28-9.36C218.53,58,206,57.37,205.81,57.16Z"/><path class="cls-11" d="M110.25,195.84l-13.58,18.4c-1.54,2.08-3.11,4.25-3.71,6.77-.16.67,8,.75,8.56.8a28.12,28.12,0,0,1,6.06,1c4.17,1.31,6.72,4.86,9.75,7.8a19.61,19.61,0,0,0,3.66,2.54,3,3,0,0,0,2.67.39c1.07-.47,1.32-1.62,1.82-2.55.64-1.2,1.54-2.12,2.17-3.33-4.71.3-8-4.24-11.57-7.38a23.21,23.21,0,0,0-10.76-5.36c-1.05-3.1,1.11-6.29,3.15-8.86l9.18-11.56a14.23,14.23,0,0,1,3.57-3.54,4.82,4.82,0,0,1,4.8-.33c-2.79-2.77-7.65-2.28-10.84,0s-5.12,5.91-6.94,9.4"/><path class="cls-2" d="M114.34,208.17a2.93,2.93,0,0,0-.3,1.58,3,3,0,0,0,1,1.49l4.19,4c1.28,1.24,2.83,2.57,4.59,2.3,1.56-.23,2.64-1.64,3.54-2.93,4.11-5.88,11.4-14.53,2.61-19.57C121.41,190.17,117,201.56,114.34,208.17Z"/><path class="cls-11" d="M208.13,54.79a2.35,2.35,0,0,0,.72.35c4.13,1.37,8.86.07,12.87,1.77a17.47,17.47,0,0,1,3.31,2c3.34,2.4,6.39,5.11,9.79,7.4a3.53,3.53,0,0,0,2.76.82,3.76,3.76,0,0,0,1.85-1.61,12.15,12.15,0,0,0,2.6-5.07c-2.79,2.15-5.53.19-7.57-2-2.25-2.42-4-5.44-6.91-7-1.57-.85-3.36-1.22-5-2s-3.07-2.28-3-4.07a6.2,6.2,0,0,1,1.34-3.21c2.1-3.13,4.68-5.81,6.91-8.85A83.29,83.29,0,0,1,235.72,24a15.72,15.72,0,0,0,1.35-1.47,9.21,9.21,0,0,0-6.64,1c-4,2.14-6.05,6.08-8.71,9.54C217,39.2,212.4,45.57,208.31,52.14c-.48.77-.94,1.84-.33,2.52Z"/><path class="cls-2" d="M230.48,37.75a5.09,5.09,0,0,0-.56,3.33c.65,2.15,2.86,2.84,4.56,3.79,2.35,1.32,4.29,3.82,6.21,5.68.25.24.56.51.91.44a1.09,1.09,0,0,0,.59-.46,61.24,61.24,0,0,0,6.19-10.6,11.39,11.39,0,0,0,1.05-2.66,7.69,7.69,0,0,0-1.92-6.33,22.76,22.76,0,0,0-5.34-4.25c-1.13-.73-2.56-1.48-3.74-.84A3.81,3.81,0,0,0,237.26,27c-1.28,1.75-2.77,3.34-4,5.06S231.57,36,230.48,37.75Z"/><path class="cls-12" d="M250.09,36.74c.08,2.71-1,5.3-2.08,7.79l-9.07,21.05a192.46,192.46,0,0,0,13.94-23c1-1.93,2-4.07,1.54-6.2a8.75,8.75,0,0,0-2-3.58c-2.26-2.8-5.16-6-8.4-7.57-.77,1.23,2.81,3.87,3.68,5.1A11.75,11.75,0,0,1,250.09,36.74Z"/><path class="cls-12" d="M136.88,206.21c-.39,3.19-1.8,6.15-3.19,9l-5.95,12.37q5.07-8.08,9.52-16.54c1.74-3.31,3.43-7.22,2-10.66-1.24-2.87-4.42-4.85-6.82-6.67A15.26,15.26,0,0,1,136.88,206.21Z"/><path class="cls-13" d="M194.25,101.1c-4.51,7.31-8.33,15-12.74,22.39-12.35,20.62-29.34,38.46-39.41,60.29,2,.2,3.51-1.67,4.63-3.34l33.82-50.63c7-10.52,14.6-20.65,21.66-31.15,1.43-2.12,15.63-19.89,10.26-20.7-3.18-.48-4.4,3.54-5.78,5.47C202.51,89.33,198,94.88,194.25,101.1Z"/><path class="cls-13" d="M89.72,258.57c-21.51,23.83-31.81,56.08-53.1,80.11-3.65,4.11-7.66,8-10.05,13C40.39,340.89,46.15,323,56.1,308.54A183.36,183.36,0,0,1,69,292.61q15.45-17.78,30.08-36.27c1.79-2.26,3.62-6.62-.07-6.46C96.49,250,91.36,256.75,89.72,258.57Z"/><path class="cls-13" d="M256.16,12.27c.27-.35-.16-.81-.54-1-1.48-.89-3.65-1.69-4.72-.33a3.63,3.63,0,0,0-.57,2c-.33,3.66-.48,7.84,2.13,10.42.58.58,1.49,1,2.19.62a2.21,2.21,0,0,0,.8-1.29,23.3,23.3,0,0,0,1.47-6.75,8.39,8.39,0,0,0-2.33-6.32"/></g></g></svg>