<svg xmlns="http://www.w3.org/2000/svg" viewBox="0 0 319.57 131.25"><defs><style>.cls-1{fill:#ebdecc;}.cls-2{fill:#aaa49b;}.cls-3{fill:#7f7a73;}.cls-4{fill:none;stroke-width:8px;}.cls-4,.cls-6{stroke:#000;stroke-miterlimit:10;}.cls-5{fill:#f4efe9;}.cls-6{fill:#e8cf9e;stroke-width:5px;}.cls-7{fill:#aa936a;}</style></defs><title>3_sk_head jaw</title><g id="Слой_2" data-name="Слой 2"><g id="Слой_1-2" data-name="Слой 1"><path class="cls-1" d="M316.82,13.93c-8.2-2.41-17.58-5.35-25.68-7.07-1.6,27.28-2.73,52.08-13.42,77.68-1.53,3.66-5.29,7.9-8.26,5.45-1.21-1-1.58-2.76-2.27-4.22-2.88-6.1-10.73-6.5-17.1-6.05l-81.52,5.71c-12.08.85-24.58,1.82-35.26,7.92-5.71,3.27-11.56,8.11-17.91,6.75-5.49-1.18-9.14-6.63-12.11-11.71Q92.45,69.83,83.38,50.18C79.29,41.31,76.24,23.45,67.91,18a16.17,16.17,0,0,0-5.51-2.05C52.53,13.79,6.33,18.2,5.8,32.53a17.23,17.23,0,0,0,1.54,6.64c6.87,18.1,15.45,37,31.3,46.72a25.28,25.28,0,0,0,9.83,3.8c17.13,2.2,24.12.15,35.2,16.53,13.2,19.51,36.84,21.92,57.51,22.68a493.18,493.18,0,0,0,66.45-2c22.93-2.26,44.54-1.11,66.17-10.77a23.66,23.66,0,0,0,6.58-3.84,24,24,0,0,0,4.5-6.4c7.89-14.54,12.59-32.21,18.19-47.84,5-13.92,12.14-29.13,13.92-44Z"/><path class="cls-2" d="M315,11.95c-8.21-2.41-17.58-5.35-25.68-7.07,3.67.78-7.9,62.69-8.55,69.39-.43-2.63,2.85-4.61,5.15-3.57s3.45,3.87,3.71,6.53-.13,5.36.17,8c-.41-3.66,5.74-13.75,6.94-17.75a119.48,119.48,0,0,1,5.65-14.57c5.58-12.65,11.11-27,12.78-40.92Z"/><path class="cls-3" d="M101.48,85A160.8,160.8,0,0,1,80.66,46.37C77.07,36.78,75.15,21.92,66.11,16A16.18,16.18,0,0,0,60.61,14C50.73,11.8,4.54,16.22,4,30.55a17.24,17.24,0,0,0,1.54,6.64c6.87,18.1,15.45,37,31.3,46.72a25.28,25.28,0,0,0,9.83,3.8c7.92,1,16.66,1.11,23.73,5.54,8.5,5.34,12.82,14.23,20,21.07a30.19,30.19,0,0,0,20.85,8.32q-4.54-3.46-9.05-7c-4.43-3.44-8.9-7-12.24-11.64a52.87,52.87,0,0,1-5.25-9.79,155.5,155.5,0,0,1-5.9-15.86c-.79-2.54-1.29-5.89.78-7.4s4.7.11,6.67,1.66q3.63,2.86,7.1,5.87C95.65,80.48,99.89,82.48,101.48,85Z"/><path class="cls-4" d="M315,11.95c-8.21-2.41-17.58-5.35-25.68-7.07-1.6,27.28-2.73,52.08-13.42,77.68-1.53,3.66-5.29,7.9-8.26,5.45-1.21-1-1.58-2.76-2.27-4.22-2.88-6.1-10.73-6.5-17.1-6.05l-81.52,5.71c-12.08.85-24.58,1.82-35.26,7.92-5.71,3.27-11.56,8.11-17.91,6.75-5.49-1.18-9.14-6.63-12.11-11.71Q90.66,67.85,81.59,48.2C77.49,39.32,74.44,21.47,66.12,16A16.18,16.18,0,0,0,60.61,14C50.73,11.8,4.54,16.22,4,30.55a17.24,17.24,0,0,0,1.54,6.64c6.87,18.1,15.45,37,31.3,46.72a25.29,25.29,0,0,0,9.83,3.8c17.13,2.2,24.12.15,35.2,16.53,13.2,19.51,36.84,21.92,57.51,22.68a493.34,493.34,0,0,0,66.45-2c22.93-2.26,44.53-1.11,66.17-10.77a23.67,23.67,0,0,0,6.58-3.84,24,24,0,0,0,4.5-6.4C291,89.33,295.67,71.65,301.27,56c5-13.92,12.14-29.13,13.92-44Z"/><path class="cls-5" d="M207.24,108.28c-6,.17-12-.64-17.92-1.24a265.49,265.49,0,0,0-59.2.63c-1.87.23-3.87.53-5.29,1.77s-1.89,3.76-.43,5a4.94,4.94,0,0,0,3.06.78,766.87,766.87,0,0,0,85-2.21c14.14-1.15,28.91-1.89,42.83-4.71,3.27-.66,11.34-3.55,7.19-8.46-2.23-2.63-8.11-.51-10.84-.07C236.88,102.13,222.26,107.85,207.24,108.28Z"/><path class="cls-6" d="M130.93,81.89c1.38-1.62,3.64-2.55,5.54-1.73a7.81,7.81,0,0,1,2.81,2.59q3.37,4.35,6.43,9a8,8,0,0,1,1.6,3.69c.49,6.57-12.64,9.09-16.61,6.31C125.32,98,127.18,86.3,130.93,81.89Z"/><path class="cls-6" d="M163.58,100.33a8,8,0,0,0,3.89-6.51c.13-2.9-1.24-5.61-2.59-8.13-2.52-4.71-14.63-19.11-16.73-6.59C146.85,86.89,154.24,105.54,163.58,100.33Z"/><path class="cls-6" d="M166.58,76.72A7,7,0,0,0,165,80c-.3,2,.67,4,1.61,5.86l2.45,4.75a16.5,16.5,0,0,0,3.18,4.74,7.43,7.43,0,0,0,6.92,1.72A8,8,0,0,0,184.42,92c1.11-3.2.27-6.76-.59-10.06C181.53,73.05,173.22,68.4,166.58,76.72Z"/><path class="cls-6" d="M187.54,73.56a4.14,4.14,0,0,0-.67,2.17A74.26,74.26,0,0,0,186.14,88c.14,2.8.77,5.87,2.9,7.5a8,8,0,0,0,2.65,1.22,21.36,21.36,0,0,0,8.34.75,6.08,6.08,0,0,0,2.93-.92,6.79,6.79,0,0,0,2-2.86c2.34-5.23,4.11-16.2-.56-20.74C201.14,69.74,190.38,70.06,187.54,73.56Z"/><path class="cls-6" d="M210.72,72.76a5.76,5.76,0,0,0-1.9,2.21,8.3,8.3,0,0,0-.52,3.13,110.8,110.8,0,0,0,.32,12.46,6.36,6.36,0,0,0,.51,2.36c.89,1.76,3,2.17,4.9,2.37,3.7.41,7.77.72,10.79-1.61,4.34-3.35,6.22-15,3.33-19.83C225.13,68.79,214.66,69.83,210.72,72.76Z"/><path class="cls-6" d="M236.09,71.61c-2.33,3.06-3.3,7-4.22,10.82l-1.43,5.95c-.55,2.28-1,5,.52,6.72s4.17,1.35,6.17.37a17.9,17.9,0,0,0,8.11-8.91c1.73-3.87,4.41-13.69,1.25-17.49C243.63,65.64,238.32,68.67,236.09,71.61Z"/><path class="cls-6" d="M245.71,90.4a2.36,2.36,0,0,0,.4,1.79,2.13,2.13,0,0,0,1.34.5c3.06.37,6.64.56,8.7-1.9,1.26-1.5,1.59-3.62,1.87-5.61a29,29,0,0,0,.4-7.64c-1-7.59-4.71-6.62-7.72-1.27C248.27,80.59,246,85.27,245.71,90.4Z"/><path class="cls-7" d="M131.64,94.94a5.54,5.54,0,0,0,.88,2.26c1.13,1.52,3.18,1.71,5,1.77.35,0,.78,0,1-.34a1.11,1.11,0,0,0,0-.71,33.91,33.91,0,0,0-2.19-6.64c-.77-1.93-1.16-4.94-2.18-6.54C131.36,86,131.13,92.35,131.64,94.94Z"/><path class="cls-7" d="M151.17,84.23a26,26,0,0,0,1.9,6.22,15.88,15.88,0,0,0,2.85,5,5.14,5.14,0,0,0,5,1.72.67.67,0,0,0,.37-.22.82.82,0,0,0,.06-.62,19.6,19.6,0,0,0-1.66-4.63l-4.55-10c-.45-1-1.66-3.94-3-3.51S151,83.14,151.17,84.23Z"/><path class="cls-7" d="M169.84,78.68l-1.37,1.38a1.75,1.75,0,0,0-.44.6,1.85,1.85,0,0,0,.16,1.27,59.42,59.42,0,0,0,3.73,7.94,7.38,7.38,0,0,0,2.62,3.06,7.08,7.08,0,0,0,3.82.48,4.33,4.33,0,0,0-1-2.93,35.35,35.35,0,0,1-3.2-6.73c-.78-2.2-.95-4.83-1.83-6.9A5.82,5.82,0,0,0,169.84,78.68Z"/><path class="cls-7" d="M189,87.88c.06,1.52.22,3.18,1.23,4.24a5.12,5.12,0,0,0,2.67,1.27,22.2,22.2,0,0,0,6,.51,13.93,13.93,0,0,0-1.34-3.25,53.62,53.62,0,0,1-4-10.81c-.53-2.11-2.25-4.95-3.59-1.91S188.88,84.74,189,87.88Z"/><path class="cls-7" d="M212.31,89.57a2.14,2.14,0,0,0,.63,1.75,1.79,1.79,0,0,0,1,.2H220a.67.67,0,0,0,.4-.09.74.74,0,0,0,.21-.58,11.18,11.18,0,0,0-1-4.27c-.89-2.39-2.71-11.64-6.28-11C210.41,76.19,212.31,87.06,212.31,89.57Z"/><path class="cls-7" d="M237.57,76A18.27,18.27,0,0,0,236,79.57a77,77,0,0,0-2.61,9.77c-.13.68-.22,1.51.28,2a1.21,1.21,0,0,0,1.57-.12,4,4,0,0,0,.92-1.53C237.8,85.82,239.4,82,240.66,78c.34-1.06,1.91-4.3.56-5S238.13,75.08,237.57,76Z"/><path class="cls-7" d="M248.08,88.32a.72.72,0,0,0,.05.6.61.61,0,0,0,.46.16,3.09,3.09,0,0,0,2.66-.72,3.45,3.45,0,0,0,.54-1.16c.73-2.28,1-4.76,2-6.94a7.8,7.8,0,0,0,1.06-3.53.69.69,0,0,0-.22-.53.57.57,0,0,0-.38-.07C250.74,76.51,248.74,85.32,248.08,88.32Z"/></g></g></svg>