<svg xmlns="http://www.w3.org/2000/svg" viewBox="0 0 494.83 452.39"><defs><style>.cls-1{fill:#1e1e1e;opacity:0.46;}.cls-2{fill:#5e4224;}.cls-3{fill:#775433;}.cls-4{fill:#2d1c0e;}.cls-5{fill:#b27e32;}.cls-6{fill:none;stroke:#000;stroke-miterlimit:10;stroke-width:8px;}.cls-7{fill:#2d1d0f;}.cls-8{fill:#5b5b5b;}.cls-9{fill:#707070;}.cls-10{fill:#f4f4f4;}</style></defs><title>3_sk_helmet</title><g id="Слой_2" data-name="Слой 2"><g id="Слой_1-2" data-name="Слой 1"><path class="cls-1" d="M123.22,391.65l3.94-32.82L112.64,342s16-10.18,21.35-33.75,11.28-92.87,11.28-92.87,72.55-45.45,158.1-45.4S440.3,199.18,440.3,199.18l1.77,96.34,19.53,33.83,9.55-21.13v-138s-61.88-40.46-187.89-35.68S85.39,199.18,85.39,199.18l-13.83,148Z"/><path class="cls-2" d="M24.74,290.81s41.16-74.34,148.56-117,239.63-27.15,317.27,26.13c0-44-2.91-60.83-2.91-60.83l-24.4-14.44s-43.27-99.46-170-117c-39.86-5.5-81.49-5.45-120.41,5.77a170.4,170.4,0,0,0-31.45,12.29,103.69,103.69,0,0,0-9.62,5.54c-9.56,6.36-7.12,15.42-7.08,26.23q0,7.31.16,14.62a98.64,98.64,0,0,1,27.33,2.15c-10.64,5.09-22,18.63-32.66,23.72a17,17,0,0,0-5.53,3.6,16.16,16.16,0,0,0-2.7,4.86c-5,12.34-7.78,16.84-9.66,30-.3,2.13-.61,4.38-1.93,6.08a11.5,11.5,0,0,1-4.63,3.11c-25.78,11.48-48.17,26.07-68.48,46.12-8.46,8.35-18.75,19-22.4,30.78Z"/><path class="cls-3" d="M20.32,268.64q11.32-22.11,24.3-43.32A181.9,181.9,0,0,0,14,244Z"/><path class="cls-3" d="M403.11,141.82A506.13,506.13,0,0,1,463.66,125c-3.87-1.81-8.24-3.71-13.15-5.63a1049.18,1049.18,0,0,0-144.17,10.86l63.09-31q-11.5-1.62-24.3-2.83-36.26,7.69-72.15,17c-26.63,6.92-53.83,14.94-77.69,28.18A607.42,607.42,0,0,1,276,95.49c-14,1.16-27.89,3.09-41.44,5.55A461.43,461.43,0,0,0,123.64,165a568.18,568.18,0,0,0,45.81-47.81,676.78,676.78,0,0,0-64.72,23.78Q60.5,172.69,18.31,207.16c-3.66,3.11-7.5,6.18-11.33,9.31l5.14,20.13A326.82,326.82,0,0,1,116.65,151L52,227.85a380.29,380.29,0,0,0,90.63-60.78,54.16,54.16,0,0,0-11.28,21.12,203.8,203.8,0,0,1,24.5-10.9,806.45,806.45,0,0,1,168-69.4c-17.57,24.43-55.14,25.85-76.27,46.53q10.28-1.69,20.66-3c51.07-15.46,103.64-28.24,156.1-20.9-18.15,6.66-36.36,13.35-54.2,20.83a260.07,260.07,0,0,1,47.62,11.39l40.18-6.27c10.08-1.57,20.38-3.22,29.72-7.15v-3.51Z"/><path class="cls-3" d="M380,102.22a110,110,0,0,0-4.86-11.61,158.9,158.9,0,0,0,17.56,10.64,33.18,33.18,0,0,0,6.21-12.51c6,4.25,7.5,12.18,9.22,19.45q5.84,1.44,11.21,2.93l-16.1-56.32c18.73,14.62,22.39,42.11,34.71,62q6.12,2,11.32,4a269.89,269.89,0,0,0-10.67-33.8,221,221,0,0,0-56.55-48.59q.75,20.15-.44,40.32A394.94,394.94,0,0,1,347,34.93l18,64.84Q372.77,100.91,380,102.22Z"/><path class="cls-3" d="M155.88,119.79,149.7,81.57a65,65,0,0,1,19.22,33.55,15.6,15.6,0,0,1,9.54-15.06,60.38,60.38,0,0,0,4.67,10.85c5.13-1.49,10.51-2.93,16.1-4.32L186.87,38.12l32.42,64,2.16-.42c-.52-1.27-1-2.55-1.52-3.82-11.05-29-18.07-60.84-31.56-88.3q-7.82,1.66-15.53,3.86-4,1.15-7.95,2.46,2.43,35.45,4.86,70.89C153.06,71.07,148,48,142.41,25.23l-1,.51a103.55,103.55,0,0,0-9.62,5.54,18.94,18.94,0,0,0-2.46,1.93q2,17.19,4.57,34.3c.21,1.41.48,2.92.76,4.52a98.6,98.6,0,0,1,17.54,2.26c-5.31,2.54-9.16,9.79-14.47,12.33,1.47,10.68.22,17.59-6.78,24.23a92.51,92.51,0,0,0-13.72-13,10.46,10.46,0,0,0-2,1.66,13.49,13.49,0,0,0-2.22,3.73c3.46,8.74,8.6,15.61,14.66,28C134.66,128.1,144.19,124,155.88,119.79Z"/><path class="cls-3" d="M240.8,98.48q6.18-.88,12.56-1.59a367.8,367.8,0,0,0-10.47-42.22l30.69,40.52q10.42-.61,21.25-.65l-1.11-32a23.47,23.47,0,0,1,14.76,13L294.25,23.77q20.26,36.73,41.93,72.65,7.38.64,14.4,1.46A970.3,970.3,0,0,0,301.73,9c-2.79-.48-5.61-.93-8.49-1.33q-7.74-1.07-15.56-1.84A502.67,502.67,0,0,1,276,80C252.46,63,247.38,31.65,236.19,4.19q-10.46.25-20.87,1.27A816,816,0,0,0,237,86.41C238.27,90.4,239.59,94.43,240.8,98.48Z"/><path class="cls-4" d="M94.16,145.28l-11,15.35c-6.31,8.8-12.85,18.18-13.75,29-.63,7.54,3,11.62,11.13,9.76,4-.92,7.55-3.27,11-5.57,6.16-4.14,92.87-57.06,203.52-56.92,28.87,0,57.85,1.81,86,8.39,28.65,6.7,52.77,19.38,79.33,31.12C325,116.57,169.74,159.1,107.72,208.09s-83,77.83-83,77.83L7,216.47c8.83-11.3,19.15-21.66,29.73-31.3,9.75-8.89,20.55-16,30.79-24.16,4.14-3.31,7.63-7.66,12.19-10.61C82.29,148.72,93,146.87,94.16,145.28Z"/><path class="cls-5" d="M199.23,106.59s105.91-15.13,178.59,3.14,82.51,27.67,82.51,27.67l1.9,39,25.43,19.53V139.08S443.33,108.48,365,99.78,199.23,106.59,199.23,106.59Z"/><path class="cls-5" d="M352.72,28.41s31.11,18.13,45.6,37.54,16.8,30.39,16.8,30.39l-27.47,5.9s54.76,8.5,72.66,18.51C447.8,94.51,397.51,41.74,352.72,28.41Z"/><path class="cls-4" d="M438,116.78S309.34,60.49,227.52,81.28L171.59,95.5c-8.62,2.19-17.3,5.33-26.15,5.19q13.62-14,26.53-28.6l-18.86-4a7.05,7.05,0,0,1-4-1.77c-1.45-1.63.24-4.4.63-6.2.71-3.29.67-6.93,1-10.29l1-10.08s21.86-23.47,53.4-33.06C157.56,13.31,128.7,33.4,128.7,33.4l-4.42,36.08,27.9,4.81-39.91,30.4-7.53,36.24s51.16-32,136.07-42.45S438,116.78,438,116.78Z"/><polygon class="cls-4" points="219.93 97.89 213.69 43.15 235.64 94.69 219.93 97.89"/><polygon class="cls-4" points="293.25 90.07 282.6 39.72 313.32 90.07 293.25 90.07"/><polygon class="cls-4" points="367.25 94.69 352.72 55.55 387.67 102.24 367.25 94.69"/><polygon class="cls-4" points="195.52 10.13 208.64 28.41 208.64 6.21 195.52 10.13"/><polygon class="cls-4" points="260.71 5.07 278.33 28.41 277.69 5.84 260.71 5.07"/><polygon class="cls-4" points="325.03 17.31 346.99 43.15 343.64 20.37 325.03 17.31"/><path class="cls-6" d="M24.74,290.81s41.16-74.34,148.56-117,246.19-29,317.27,26.13c-1.12-37.53-2.91-60.83-2.91-60.83l-24.4-14.44s-45.87-99.45-170-117c-38.77-5.47-79.15-5.6-117.15,4.73-13.39,3.64-37.8,9.52-47.41,21-6.39,7.62-3.78,26.17-4.42,36.08l30.46,6.37c-11,7.74-39.44,24.59-41,26.19-2,2-2.64,4.94-3.25,7.69-3,13.59-4.84,17.35-7.82,30.94-.45,2.06-19,8.74-21.7,10.19a125.33,125.33,0,0,0-19.87,12.85c-12,9.69-24.84,18.3-35.8,29.35-8,8.07-17.66,18.3-21.13,29.52Z"/><path class="cls-6" d="M44.4,176.38s195.31-141.8,418.86-51.74"/><path class="cls-2" d="M119.51,199.91q-.55,19.87-1.11,39.74l-1.07,38.56c-.31,11.17,2.45,26.9-4.92,36.26a119,119,0,0,1-32.72,28.68q13.47,13.7,27.88,26.43c1.49,1.31,3,2.7,3.71,4.57a11.79,11.79,0,0,1,.46,4.06c-.07,23.3-21.91,47.18-34,66.93l-33.3-47-4.83-128.4S80.87,225.29,119.51,199.91Z"/><path class="cls-4" d="M66.11,243.15c.13,23.66,3,47.55,2.53,71.14-.41,22.4-2.57,45-2.57,67.46-.17,5.43-.32,11,1.46,16.15,2.62,7.53,9,13,13.67,19.47,3.17,4.38,6.82,11.75,4.94,17.33-1.55,4.58-6.21,6.24-8.5,10.52C72.49,436.91,66.25,429,60.57,421c-3.29-4.64-16-17-16.17-22.82l-4.83-128.4c3.09-3.32,6.27-6.56,9.46-9.78s6.9-6.51,10.09-10C59.65,249.41,66.11,242.46,66.11,243.15Z"/><path class="cls-6" d="M119.51,199.91c-3.26,2.14-.9,32.53-1,36.37q-.53,19.17-1.07,38.33c-.3,10.67,2.29,26-2.7,35.66-2.54,4.91-6.43,9-10.26,13-7.29,7.58-14.66,15.22-23.45,21a157.21,157.21,0,0,0,23.79,22.1c2.77,2.08,5.65,4.12,7.7,6.91s3.14,6.55,1.87,9.77c-2.37,6-8.48,10.26-11.42,16.08-2.38,4.71-3.52,9.89-6,14.65-5.58,10.81-12.9,21-19.27,31.4l-33.3-47-4.83-128.4S80.87,225.29,119.51,199.91Z"/><path class="cls-2" d="M453.51,178.15l3.73,115.36,24,28.14V188.32A193.38,193.38,0,0,0,453.51,178.15Z"/><path class="cls-6" d="M453.51,178.15l3.73,115.36,24,28.14V193.86S468.41,182.25,453.51,178.15Z"/><path class="cls-5" d="M100.36,221.21c-2,5.64-2,11.78-2,17.78q.05,25,.1,49.9c0,4.69,0,9.46-1.31,14A49.23,49.23,0,0,1,93,312L75.83,344.38l29-30.81c2.83-3,5.71-6.08,7.35-9.86,1.83-4.22,2-8.95,2-13.54q.36-25.8-1-51.59c-.31-5.9,1.28-18.92-2.08-23.9C106.82,208.29,102.21,216.08,100.36,221.21Z"/><path class="cls-5" d="M93.79,377.87c-11.09,18.35-19,39.93-15.29,61a81.65,81.65,0,0,0,7.25-11.77c7.7-14.24,17.66-28.71,23.63-43.74C114.8,369.74,100.83,366.22,93.79,377.87Z"/><polygon class="cls-5" points="474.15 192.58 467.41 299.57 478.21 311.31 478.21 195.91 474.15 192.58"/><path class="cls-7" d="M467.73,139.09c11.67,15.32-5.65,32.64-21,21h0C435.08,144.75,452.4,127.42,467.73,139.09Z"/><path class="cls-8" d="M465.65,141.27c9.29,11.78-4,25.49-16,16.62C440.3,146.12,453.56,132.39,465.65,141.27Z"/><path class="cls-9" d="M462.45,144.6c5.56,7.07-2.4,15.3-9.65,10C447.22,147.49,455.2,139.25,462.45,144.6Z"/><path class="cls-10" d="M457.34,138.44a11,11,0,0,0-10.24,7.69,10.42,10.42,0,0,1,8.86-5.29,10.57,10.57,0,0,1,10.66,10.48,10.72,10.72,0,0,1-2.89,7.52,11.21,11.21,0,0,0,4.78-9.41A11.08,11.08,0,0,0,457.34,138.44Z"/><path class="cls-7" d="M388.31,115.85c11.67,15.32-5.65,32.64-21,21h0C355.66,121.51,373,104.17,388.31,115.85Z"/><path class="cls-8" d="M386.23,118c9.29,11.78-4,25.49-16,16.62C360.88,122.87,374.14,109.15,386.23,118Z"/><path class="cls-9" d="M383,121.36c5.56,7.07-2.4,15.3-9.65,10C367.8,124.24,375.78,116,383,121.36Z"/><path class="cls-10" d="M377.92,115.19a11,11,0,0,0-10.24,7.69,10.43,10.43,0,0,1,8.86-5.29,10.57,10.57,0,0,1,10.66,10.48,10.71,10.71,0,0,1-2.89,7.52,11.21,11.21,0,0,0,4.78-9.41A11.08,11.08,0,0,0,377.92,115.19Z"/><path class="cls-7" d="M289.65,107.33c11.67,15.32-5.65,32.64-21,21h0C257,113,274.33,95.66,289.65,107.33Z"/><path class="cls-8" d="M287.57,109.51c9.29,11.78-4,25.49-16,16.62C262.22,114.36,275.48,100.63,287.57,109.51Z"/><path class="cls-9" d="M284.38,112.84c5.56,7.07-2.4,15.3-9.65,10C269.15,115.73,277.12,107.49,284.38,112.84Z"/><path class="cls-10" d="M279.27,106.68A11,11,0,0,0,269,114.36a10.43,10.43,0,0,1,8.86-5.29,10.57,10.57,0,0,1,10.66,10.48,10.7,10.7,0,0,1-2.89,7.52,11.21,11.21,0,0,0,4.78-9.41A11.08,11.08,0,0,0,279.27,106.68Z"/><path class="cls-7" d="M206,122.54c11.67,15.32-5.65,32.64-21,21h0C173.36,128.2,190.68,110.87,206,122.54Z"/><path class="cls-8" d="M203.93,124.72c9.29,11.78-4,25.49-16,16.62C178.58,129.57,191.84,115.84,203.93,124.72Z"/><path class="cls-9" d="M200.73,128.05c5.56,7.07-2.4,15.3-9.65,10C185.5,130.94,193.48,122.7,200.73,128.05Z"/><path class="cls-10" d="M195.62,121.89a11,11,0,0,0-10.24,7.69,10.43,10.43,0,0,1,8.86-5.29,10.57,10.57,0,0,1,10.66,10.48,10.71,10.71,0,0,1-2.89,7.52,11.21,11.21,0,0,0,4.78-9.41A11.08,11.08,0,0,0,195.62,121.89Z"/><path class="cls-7" d="M122.78,155.56c11.67,15.32-5.65,32.64-21,21h0C90.13,161.21,107.46,143.88,122.78,155.56Z"/><path class="cls-8" d="M120.7,157.74c9.29,11.78-4,25.49-16,16.62C95.35,162.58,108.61,148.86,120.7,157.74Z"/><path class="cls-9" d="M117.51,161.07c5.56,7.07-2.4,15.3-9.65,10C102.28,164,110.25,155.71,117.51,161.07Z"/><path class="cls-10" d="M112.4,154.9a11,11,0,0,0-10.24,7.69A10.42,10.42,0,0,1,111,157.3a10.57,10.57,0,0,1,10.66,10.48,10.71,10.71,0,0,1-2.89,7.52,11.21,11.21,0,0,0,4.78-9.41A11.08,11.08,0,0,0,112.4,154.9Z"/></g></g></svg>